<?xml version="1.0" encoding="UTF-8"?>
<svg version="1.1" xmlns="http://www.w3.org/2000/svg" width="1200" height="700">
<path d="M0 0 C396 0 792 0 1200 0 C1200 231 1200 462 1200 700 C804 700 408 700 0 700 C0 469 0 238 0 0 Z " fill="#5988D9" transform="translate(0,0)"/>
<path d="M0 0 C1.77023904 -0.01265991 1.77023904 -0.01265991 3.57624048 -0.02557558 C4.86883313 -0.01956553 6.16142578 -0.01355549 7.4931879 -0.00736332 C8.88328913 -0.01153637 10.27338695 -0.01701373 11.66347843 -0.02368313 C15.48299617 -0.0381604 19.30229855 -0.03388597 23.1218282 -0.02651632 C27.24120535 -0.02179257 31.36053537 -0.03428744 35.4798975 -0.04453373 C43.54986147 -0.06174259 51.61974765 -0.06255743 59.68972521 -0.05732083 C66.24801092 -0.05328182 72.80627361 -0.05471947 79.36455822 -0.06006908 C80.29744517 -0.06081751 81.23033212 -0.06156593 82.19148837 -0.06233703 C84.08655532 -0.06386848 85.98162227 -0.06540683 87.8766892 -0.066952 C105.6540486 -0.08068456 123.43136402 -0.07523401 141.20872242 -0.06376678 C157.47740873 -0.05383328 173.74598133 -0.06677577 190.0146501 -0.09070098 C206.71417247 -0.11507504 223.41364184 -0.12470404 240.11318165 -0.11804825 C249.49078367 -0.1145523 258.86829821 -0.11681284 268.2458868 -0.13429928 C276.22872329 -0.14900009 284.2114107 -0.14968452 292.1942442 -0.13222837 C296.26792668 -0.12369849 300.34134262 -0.12161702 304.41501141 -0.13687992 C308.14390308 -0.1506782 311.87229864 -0.14602718 315.60116125 -0.12664068 C317.58976488 -0.12107618 319.57839346 -0.13519267 321.56694978 -0.14999479 C332.57884524 -0.05862098 332.57884524 -0.05862098 337.13846684 4.38031673 C341.49181598 9.34347441 341.70532441 13.31334349 341.6194849 19.60575008 C341.6229026 20.52559236 341.6263203 21.44543464 341.62984157 22.39315093 C341.63642171 25.47040896 341.61444179 28.54679162 341.5925684 31.62396908 C341.59143995 33.83172237 341.59207372 36.03947716 341.59433842 38.24722958 C341.59548659 44.2385502 341.57196012 50.22955083 341.54404259 56.22079706 C341.51904643 62.48282629 341.51668833 68.74486275 341.51194096 75.00693417 C341.500919 85.51670147 341.47593005 96.02636978 341.44022465 106.53607845 C341.40349128 117.3596402 341.37518603 128.18317005 341.3581934 139.00678158 C341.3571425 139.67429225 341.35609161 140.34180292 341.35500887 141.02954118 C341.3497886 144.37834913 341.3447338 147.72715731 341.33976126 151.07596564 C341.29794506 178.84418325 341.22458596 206.61219874 341.13846684 234.38031673 C354.99846684 234.38031673 368.85846684 234.38031673 383.13846684 234.38031673 C383.13846684 237.02031673 383.13846684 239.66031673 383.13846684 242.38031673 C381.91339785 243.03388952 380.68317168 243.67779906 379.45096684 244.31781673 C378.76647465 244.67746517 378.08198246 245.03711361 377.37674809 245.40766048 C372.6763365 247.45024772 368.10067166 247.50734514 363.02589321 247.51453781 C362.31767935 247.51689004 361.60946549 247.51924227 360.8797906 247.52166578 C358.50061768 247.52833623 356.12149963 247.52789815 353.74231815 247.52748775 C352.0216751 247.53078759 350.30103282 247.53451341 348.58039153 247.53862923 C343.847066 247.54864361 339.11375316 247.55236512 334.38041854 247.55501854 C329.27731173 247.55892321 324.17421495 247.56850139 319.07111454 247.57723141 C306.74526906 247.59699031 294.41942276 247.60706091 282.0935654 247.6159592 C276.28915156 247.62034268 270.48473863 247.62570931 264.68032551 247.63094807 C245.3857012 247.64795911 226.09107746 247.66245364 206.7964468 247.66969681 C201.789848 247.6716067 196.78324921 247.67352703 191.77665043 247.67548275 C190.53228638 247.67596649 189.28792232 247.67645023 188.00585027 247.67694863 C167.84447495 247.68525033 147.68315893 247.71059018 127.5218095 247.74306343 C106.82315976 247.77613036 86.12454016 247.79414521 65.42586386 247.79734105 C53.80406079 247.79950638 42.18234423 247.80825868 30.5605669 247.83380222 C20.66383022 247.8555041 10.76720105 247.86356209 0.87044327 247.85383544 C-4.17800258 247.84928941 -9.22622655 247.85119478 -14.27464199 247.87059689 C-18.89996838 247.8882193 -23.52491088 247.88723823 -28.1502413 247.87169959 C-29.81986395 247.86932215 -31.48951312 247.87365418 -33.15909524 247.88552824 C-42.31292168 247.94657649 -50.48358968 247.59204225 -58.86153316 243.38031673 C-59.19153316 243.05031673 -59.52153316 242.72031673 -59.86153316 242.38031673 C-59.86153316 239.74031673 -59.86153316 237.10031673 -59.86153316 234.38031673 C-45.01153316 234.38031673 -30.16153316 234.38031673 -14.86153316 234.38031673 C-14.88248043 227.59581966 -14.9034277 220.81132259 -14.92500973 213.8212347 C-14.98921127 192.11274712 -15.03370369 170.40425613 -15.06579448 148.6956979 C-15.0707973 145.32364352 -15.07597459 141.95158943 -15.08125973 138.57953548 C-15.08283359 137.57256379 -15.08283359 137.57256379 -15.08443925 136.54524924 C-15.1018439 125.67579345 -15.13338188 114.80642229 -15.17014435 103.93701671 C-15.20755215 92.78377684 -15.22946927 81.63056593 -15.23788714 70.47726262 C-15.24310661 64.21268385 -15.25539313 57.94829703 -15.28445339 51.68377972 C-15.31157783 45.78887742 -15.31998405 39.89424638 -15.31396389 33.99928761 C-15.31506545 31.83451584 -15.32303679 29.66973513 -15.33835506 27.50501728 C-15.35823607 24.55091524 -15.35347885 21.59783939 -15.34255123 18.64371395 C-15.3542026 17.78572763 -15.36585396 16.92774132 -15.3778584 16.04375541 C-15.32435381 10.69806023 -14.512268 7.55264744 -10.86153316 3.38031673 C-7.13134936 0.69405483 -4.57019999 0.00461756 0 0 Z " fill="#F1F1F2" transform="translate(624.861533164978,287.61968326568604)"/>
<path d="M0 0 C66.99 0 133.98 0 203 0 C203 27.39 203 54.78 203 83 C200.48303846 85.51696154 198.94537661 85.24026905 195.51187652 85.26282471 C194.74019467 85.25768115 193.96851281 85.25253759 193.17344666 85.24723816 C191.94687602 85.25085978 191.94687602 85.25085978 190.69552618 85.25455457 C187.94008538 85.26021566 185.18487395 85.25151039 182.42944336 85.24291992 C180.46035194 85.2439922 178.49126082 85.24593007 176.52217102 85.24867249 C171.16285812 85.25353235 165.80362809 85.24585119 160.44432521 85.23571944 C154.84737026 85.22695866 149.25041805 85.228696 143.65345764 85.2290802 C134.25390225 85.22814273 124.85437908 85.21944726 115.45483398 85.20581055 C104.57121054 85.1900796 93.68762239 85.18481255 82.8039884 85.1855461 C72.35378778 85.18615543 61.90359872 85.18105896 51.45340157 85.17275429 C46.9968615 85.16921416 42.54032551 85.16739 38.0837841 85.16686058 C32.84144602 85.16585956 27.59913784 85.15978274 22.35680962 85.14969444 C20.42699873 85.1467618 18.4971844 85.14554561 16.56737137 85.14612198 C13.94473852 85.14660905 11.32219075 85.14099289 8.6995697 85.13371277 C7.53870083 85.13603567 7.53870083 85.13603567 6.35438007 85.1384055 C1.11417858 85.11417858 1.11417858 85.11417858 0 84 C0 56.28 0 28.56 0 0 Z " fill="#FDFDFD" transform="translate(758,417)"/>
<path d="M0 0 C0.99 0 1.98 0 3 0 C3.33 0.66 3.66 1.32 4 2 C5.98 2 7.96 2 10 2 C9.67 3.32 9.34 4.64 9 6 C10.38239443 5.99861731 10.38239443 5.99861731 11.79271603 5.99720669 C34.18323961 5.97515388 56.57376133 5.95858963 78.96429348 5.94818783 C89.7920362 5.94302432 100.61977169 5.93598058 111.44750977 5.92456055 C120.88134407 5.91461538 130.31517313 5.90814697 139.74901253 5.90591151 C144.74741486 5.90460411 149.74580221 5.90151647 154.74419975 5.89426994 C159.4431501 5.88751236 164.14207919 5.8853825 168.84103394 5.88689232 C170.57088906 5.88661587 172.30074484 5.8846092 174.03059578 5.88079453 C176.38182823 5.87586136 178.73297915 5.8770003 181.08421326 5.87974548 C182.40329902 5.87882369 183.72238478 5.8779019 185.08144283 5.87695217 C188 6 188 6 189 7 C189.10025695 9.36761575 189.13618935 11.70607073 189.12939453 14.07421875 C189.13202301 15.18393539 189.13202301 15.18393539 189.13470459 16.31607056 C189.1391231 18.77323723 189.13618513 21.23033253 189.1328125 23.6875 C189.13348554 25.38761407 189.13445557 27.08772805 189.13571167 28.7878418 C189.13718864 32.35564081 189.13503411 35.92341483 189.13037109 39.49121094 C189.1246738 44.07488494 189.12795281 48.65850039 189.13394356 53.24217224 C189.13754919 56.75419561 189.13641057 60.26620498 189.13381577 63.77822876 C189.1331465 65.46880093 189.13397489 67.15937436 189.13629532 68.84994507 C189.13882189 71.20859157 189.13498121 73.56714195 189.12939453 75.92578125 C189.13141876 76.63127106 189.13344299 77.33676086 189.13552856 78.06362915 C189.11426271 82.88573729 189.11426271 82.88573729 188 84 C185.64942792 84.09984374 183.32818473 84.13442764 180.97705078 84.12698364 C180.23369539 84.12854363 179.49034 84.13010362 178.72445869 84.13171089 C176.21472358 84.13572364 173.70504815 84.13253019 171.1953125 84.12939453 C169.40370651 84.13074845 167.61210079 84.13252833 165.82049561 84.13470459 C160.94047112 84.13928004 156.06046768 84.13748891 151.18044281 84.1343255 C146.08530112 84.13180248 140.99016129 84.13413928 135.89501953 84.13571167 C127.33691076 84.13753353 118.77881059 84.13512662 110.22070312 84.13037109 C100.31128562 84.12492844 90.4018887 84.12669109 80.49247169 84.1321975 C72.00078467 84.13672815 63.50910385 84.13737941 55.017416 84.13475883 C49.93854815 84.13319579 44.85968999 84.13300302 39.78082275 84.13629532 C35.00716433 84.13917334 30.23353255 84.13719962 25.45987701 84.13140106 C23.7026092 84.13007309 21.94533915 84.1304682 20.1880722 84.13266373 C17.79966707 84.1353738 15.41134874 84.13199589 13.02294922 84.12698364 C12.31839159 84.12921436 11.61383396 84.13144509 10.8879261 84.13374341 C6.11414986 84.11414986 6.11414986 84.11414986 5 83 C4.89976256 80.66812441 4.86380795 78.36585948 4.87060547 76.03344727 C4.86885315 75.30499603 4.86710083 74.5765448 4.86529541 73.82601929 C4.86087644 71.40612439 4.86381533 68.98630196 4.8671875 66.56640625 C4.8665144 64.89110805 4.86554432 63.21580995 4.86428833 61.54051208 C4.86281124 58.02398756 4.864966 54.50748838 4.86962891 50.9909668 C4.87532182 46.4768932 4.87205004 41.96287912 4.86605644 37.44880772 C4.8624474 33.98735605 4.86359108 30.52591856 4.86618423 27.06446648 C4.86685278 25.3998406 4.8660276 23.73521345 4.86370468 22.07058907 C4.86117302 19.7456737 4.86502623 17.42085538 4.87060547 15.09594727 C4.86858124 14.40340347 4.86655701 13.71085968 4.86447144 12.99732971 C4.88573632 8.22852736 4.88573632 8.22852736 6 6 C4.02 6 2.04 6 0 6 C0 4.02 0 2.04 0 0 Z " fill="#FDFDFD" transform="translate(646,307)"/>
<path d="M0 0 C108.9 0 217.8 0 330 0 C330 4.62 330 9.24 330 14 C327.20775927 14.08071788 324.41783434 14.14035408 321.625 14.1875 C320.8309375 14.21263672 320.036875 14.23777344 319.21875 14.26367188 C317.14413852 14.29004405 315.06899135 14.15486462 313 14 C312.34 13.01 311.68 12.02 311 11 C308.0722886 10.68408958 305.35170676 10.56263947 302.41943359 10.56762695 C301.53156662 10.5574353 300.64369965 10.54724365 299.72892761 10.53674316 C296.78536787 10.50647605 293.84213277 10.49732637 290.8984375 10.48828125 C288.86104234 10.47144472 286.82365764 10.45329589 284.7862854 10.43388367 C279.4170661 10.38626609 274.04788916 10.35653288 268.67852783 10.33044434 C263.20226674 10.30069799 257.72615181 10.25414743 252.25 10.20898438 C241.50007627 10.12281756 230.75012256 10.05553192 220 10 C219.67 11.32 219.34 12.64 219 14 C216.69 14 214.38 14 212 14 C211.67 13.01 211.34 12.02 211 11 C122.395 10.505 122.395 10.505 32 10 C31.67 8.68 31.34 7.36 31 6 C30.67 7.32 30.34 8.64 30 10 C30 8.68 30 7.36 30 6 C29.01 6 28.02 6 27 6 C26.67 6.66 26.34 7.32 26 8 C26 6.68 26 5.36 26 4 C25.01 4 24.02 4 23 4 C23 5.98 23 7.96 23 10 C23.61875 9.814375 24.2375 9.62875 24.875 9.4375 C27 9 27 9 29 10 C29 35.41 29 60.82 29 87 C31.64 87.33 34.28 87.66 37 88 C37 127.27 37 166.54 37 207 C24.79 207 12.58 207 0 207 C0 138.69 0 70.38 0 0 Z " fill="#353F4F" transform="translate(623,303)"/>
<path d="M0 0 C11.84765173 -0.02312202 23.69529814 -0.04091437 35.5429678 -0.05181217 C41.04370862 -0.05704131 46.54443405 -0.06413951 52.04516602 -0.07543945 C57.3489656 -0.08626725 62.65275035 -0.0922766 67.95656013 -0.09487724 C69.98485612 -0.09673169 72.01315126 -0.10035267 74.04144096 -0.10573006 C76.87196514 -0.11293906 79.70242718 -0.113991 82.53295898 -0.11352539 C83.80394188 -0.1189183 83.80394188 -0.1189183 85.1006012 -0.12442017 C90.88594784 -0.11405216 90.88594784 -0.11405216 92 1 C92.10064199 4.03865761 92.1361459 7.0546273 92.12939453 10.09375 C92.13202301 11.52533447 92.13202301 11.52533447 92.13470459 12.98583984 C92.13912487 16.15724477 92.1361845 19.32859445 92.1328125 22.5 C92.13348549 24.69335948 92.13445547 26.8867189 92.13571167 29.08007812 C92.13718888 33.68360095 92.13503334 38.28710442 92.13037109 42.890625 C92.1246738 48.80604595 92.12795268 54.72142154 92.13394356 60.63684082 C92.13754854 65.16797226 92.13641087 69.69909285 92.13381577 74.23022461 C92.13314632 76.41202805 92.13397552 78.59383246 92.13629532 80.77563477 C92.13882082 83.8191999 92.1349827 86.86269046 92.12939453 89.90625 C92.13141876 90.81745605 92.13344299 91.72866211 92.13552856 92.66748047 C92.11426229 98.88573771 92.11426229 98.88573771 91 100 C88.21085226 100.10584361 85.44633522 100.14677813 82.65649414 100.14526367 C81.78173935 100.14862228 80.90698456 100.1519809 80.00572205 100.15544128 C77.09885254 100.16498128 74.19204045 100.16689591 71.28515625 100.16796875 C69.27355424 100.17117918 67.26195246 100.17454309 65.25035095 100.17805481 C61.02765359 100.1840537 56.80497672 100.18589393 52.58227539 100.18530273 C47.16015603 100.18520106 41.73816747 100.19885521 36.31607914 100.21607494 C32.15977876 100.22717045 28.00351025 100.2292227 23.84719658 100.22869301 C21.84763577 100.22987676 19.84807423 100.23432047 17.84852791 100.24202538 C15.05655776 100.25177614 12.26487475 100.2489668 9.47290039 100.24291992 C8.64009552 100.24853943 7.80729065 100.25415894 6.94924927 100.25994873 C1.22831534 100.22831534 1.22831534 100.22831534 -1 98 C-1.19367876 94.96712187 -1.26213211 92.02585398 -1.24291992 88.9921875 C-1.24481827 88.05876526 -1.24671661 87.12534302 -1.24867249 86.16363525 C-1.25238781 83.06733901 -1.24166526 79.97127552 -1.23046875 76.875 C-1.22927726 74.73030627 -1.22882372 72.58561201 -1.2290802 70.44091797 C-1.22751402 65.94169864 -1.21921413 61.44255873 -1.20581055 56.94335938 C-1.18882054 51.16594299 -1.18499614 45.38861398 -1.18575573 39.61117554 C-1.18548425 35.18122518 -1.18000659 30.75129407 -1.17275429 26.3213501 C-1.16956418 24.19061428 -1.16759942 22.05987627 -1.16686058 19.92913818 C-1.16470065 16.95532492 -1.15596389 13.98160568 -1.14526367 11.0078125 C-1.14571686 10.12047424 -1.14617004 9.23313599 -1.14663696 8.31890869 C-1.11447625 2.22895249 -1.11447625 2.22895249 0 0 Z " fill="#FBFCFC" transform="translate(843,313)"/>
<path d="M0 0 C2.31 0 4.62 0 7 0 C7 27.39 7 54.78 7 83 C-33.9375 83.4375 -33.9375 83.4375 -46.88256836 83.56811523 C-50.69862365 83.61134965 -50.69862365 83.61134965 -54.5146637 83.65589905 C-56.2196002 83.67517017 -57.92455953 83.69248016 -59.62953186 83.70826721 C-62.20613948 83.73250065 -64.78260703 83.76287934 -67.35913086 83.79467773 C-68.12373847 83.80044799 -68.88834608 83.80621824 -69.67612362 83.81216335 C-73.12895936 83.55302488 -73.12895936 83.55302488 -76 85 C-76.33 97.87 -76.66 110.74 -77 124 C-116.105 124.495 -116.105 124.495 -156 125 C-155.505 125.495 -155.505 125.495 -155 126 C-154.85742811 129.33618231 -154.95771843 132.65975606 -155 136 C-158.3 136.33 -161.6 136.66 -165 137 C-165 137.33 -165 137.66 -165 138 C-162.03 138.33 -159.06 138.66 -156 139 C-156 142.3 -156 145.6 -156 149 C-157.98 149.33 -159.96 149.66 -162 150 C-162 150.33 -162 150.66 -162 151 C-160.02 151.33 -158.04 151.66 -156 152 C-155.44646925 163.52164009 -155.44646925 163.52164009 -159 169 C-158.34 169 -157.68 169 -157 169 C-157.495 171.97 -157.495 171.97 -158 175 C-161.465 175.99 -161.465 175.99 -165 177 C-164.01 177.33 -163.02 177.66 -162 178 C-162 178.66 -162 179.32 -162 180 C-160.02 180 -158.04 180 -156 180 C-156 183.63 -156 187.26 -156 191 C-158.1965625 191.2165625 -158.1965625 191.2165625 -160.4375 191.4375 C-163.51846698 191.53495826 -163.51846698 191.53495826 -166 193 C-168.97 193 -171.94 193 -175 193 C-175 153.73 -175 114.46 -175 74 C-117.58 73.67 -60.16 73.34 -1 73 C-0.67 48.91 -0.34 24.82 0 0 Z " fill="#E0E3E7" transform="translate(835,317)"/>
<path d="M0 0 C29.04 0 58.08 0 88 0 C88.33 19.8 88.66 39.6 89 60 C185.525 60.495 185.525 60.495 284 61 C283.67 63.64 283.34 66.28 283 69 C189.28 69 95.56 69 -1 69 C-0.505 68.01 -0.505 68.01 0 67 C2.97 67 5.94 67 9 67 C9 63.37 9 59.74 9 56 C7.02 56 5.04 56 3 56 C3 55.34 3 54.68 3 54 C1.68 53.67 0.36 53.34 -1 53 C0.11375 52.79375 1.2275 52.5875 2.375 52.375 C6.26599195 51.38371699 6.26599195 51.38371699 7.4375 47.875 C7.7159375 46.451875 7.7159375 46.451875 8 45 C7.34 45 6.68 45 6 45 C6 44.34 6 43.68 6 43 C4.02 42.67 2.04 42.34 0 42 C0 41.01 0 40.02 0 39 C2.97 39 5.94 39 9 39 C9 35.37 9 31.74 9 28 C6.03 28 3.06 28 0 28 C0.66 27.01 1.32 26.02 2 25 C5.625 24.8125 5.625 24.8125 9 25 C9 21.7 9 18.4 9 15 C6.03 15 3.06 15 0 15 C0 14.01 0 13.02 0 12 C3.3 12 6.6 12 10 12 C9.67 8.7 9.34 5.4 9 2 C6.03 1.67 3.06 1.34 0 1 C0 0.67 0 0.34 0 0 Z " fill="#E4E7EB" transform="translate(670,441)"/>
<path d="M0 0 C6.59845019 4.50795021 10.96735459 10.89300732 12.6015625 18.77734375 C13.544762 28.59589588 11.52578678 35.47654519 5.2890625 43.08984375 C0.19261599 48.58000716 -5.23358136 51.4343556 -12.71875 52.05078125 C-22.3554798 52.30802455 -29.42221184 51.41790494 -36.71484375 44.6171875 C-41.64393895 39.33538424 -44.60385509 35.17237701 -44.3984375 27.77734375 C-44.7284375 27.44734375 -45.0584375 27.11734375 -45.3984375 26.77734375 C-46.48316803 19.10674928 -44.79768463 13.09529867 -40.3984375 6.77734375 C-29.4127176 -5.22348374 -14.3279538 -8.03348333 0 0 Z " fill="#AFB8C7" transform="translate(823.3984375,432.22265625)"/>
<path d="M0 0 C1.98 0 3.96 0 6 0 C6 2.64 6 5.28 6 8 C4.77493102 8.65357278 3.54470484 9.29748233 2.3125 9.9375 C1.62800781 10.29714844 0.94351562 10.65679688 0.23828125 11.02734375 C-4.46213033 13.06993098 -9.03779518 13.12702841 -14.11257362 13.13422108 C-14.82078748 13.13657331 -15.52900134 13.13892554 -16.25867623 13.14134905 C-18.63784915 13.14801949 -21.01696721 13.14758142 -23.39614868 13.14717102 C-25.11679173 13.15047085 -26.83743401 13.15419668 -28.55807531 13.1583125 C-33.29140083 13.16832687 -38.02471368 13.17204838 -42.7580483 13.17470181 C-47.86115511 13.17860648 -52.96425189 13.18818465 -58.06735229 13.19691467 C-70.39319778 13.21667357 -82.71904407 13.22674417 -95.04490143 13.23564246 C-100.84931527 13.24002595 -106.6537282 13.24539257 -112.45814133 13.25063133 C-131.75276564 13.26764237 -151.04738938 13.28213691 -170.34202003 13.28938007 C-175.34861883 13.29128996 -180.35521763 13.2932103 -185.36181641 13.29516602 C-186.60618046 13.29564976 -187.85054451 13.2961335 -189.13261656 13.2966319 C-209.29399189 13.30493359 -229.45530791 13.33027345 -249.61665733 13.36274669 C-270.31530708 13.39581363 -291.01392667 13.41382847 -311.71260297 13.41702431 C-323.33440604 13.41918965 -334.9561226 13.42794194 -346.57789993 13.45348549 C-356.47463662 13.47518737 -366.37126578 13.48324535 -376.26802357 13.47351871 C-381.31646941 13.46897268 -386.36469338 13.47087804 -391.41310883 13.49028015 C-396.03843522 13.50790257 -400.66337772 13.5069215 -405.28870814 13.49138286 C-406.95833079 13.48900541 -408.62797996 13.49333744 -410.29756208 13.50521151 C-419.52815579 13.56677173 -427.48877164 13.04948902 -436 9 C-436 8.67 -436 8.34 -436 8 C-292.45 8 -148.9 8 -1 8 C-1 6.02 -1 4.04 -1 2 C-0.67 1.34 -0.34 0.68 0 0 Z " fill="#E3E4E5" transform="translate(1002,522)"/>
<path d="M0 0 C91.41 0 182.82 0 277 0 C277 4.29 277 8.58 277 13 C274.20775927 13.08071788 271.41783434 13.14035408 268.625 13.1875 C267.8309375 13.21263672 267.036875 13.23777344 266.21875 13.26367188 C264.14413852 13.29004405 262.06899135 13.15486462 260 13 C259.34 12.01 258.68 11.02 258 10 C255.0722886 9.68408958 252.35170676 9.56263947 249.41943359 9.56762695 C248.53156662 9.5574353 247.64369965 9.54724365 246.72892761 9.53674316 C243.78536787 9.50647605 240.84213277 9.49732637 237.8984375 9.48828125 C235.86104234 9.47144472 233.82365764 9.45329589 231.7862854 9.43388367 C226.4170661 9.38626609 221.04788916 9.35653288 215.67852783 9.33044434 C210.20226674 9.30069799 204.72615181 9.25414743 199.25 9.20898438 C188.50007627 9.12281756 177.75012256 9.05553192 167 9 C166.67 10.32 166.34 11.64 166 13 C163.69 13 161.38 13 159 13 C158.67 12.01 158.34 11.02 158 10 C124.01 9.67 90.02 9.34 55 9 C55 6.36 55 3.72 55 1 C36.85 1 18.7 1 0 1 C0 0.67 0 0.34 0 0 Z " fill="#2A3441" transform="translate(676,304)"/>
<path d="M0 0 C214.5 0 429 0 650 0 C650 0.33 650 0.66 650 1 C625.41895367 2.31485139 600.82353068 2.14392002 576.21613872 2.13072467 C569.8995032 2.12843955 563.58287033 2.13196529 557.26623535 2.13470459 C545.6436959 2.13887204 534.0211631 2.13854292 522.39862349 2.13579312 C511.6710721 2.13326772 500.94352262 2.13262546 490.21597099 2.13381577 C489.14451377 2.13393034 489.14451377 2.13393034 488.05141094 2.13404724 C485.1513497 2.13435861 482.25128845 2.13467701 479.35122721 2.135007 C452.22729714 2.13805653 425.1033704 2.13530625 397.97944084 2.1299101 C373.88790345 2.12515375 349.79637134 2.12560005 325.70483398 2.13037109 C298.59265275 2.13572249 271.48047444 2.1378519 244.36829275 2.13475883 C241.48095063 2.13443813 238.59360852 2.13412529 235.7062664 2.13381577 C234.99540281 2.13373669 234.28453921 2.13365761 233.55213429 2.13357614 C222.81607215 2.13243849 212.08001212 2.13376901 201.34395027 2.13629532 C189.15508647 2.13914932 176.9662305 2.1383537 164.77736712 2.13301457 C158.55708684 2.13037985 152.33681731 2.12936883 146.11653709 2.13266373 C140.42981438 2.13563065 134.74311246 2.13402725 129.05639165 2.12868617 C126.99321136 2.12756384 124.93002933 2.12814915 122.86685015 2.13056196 C120.07485884 2.13357821 117.28293994 2.13050863 114.49095249 2.12584114 C113.27412151 2.12935289 113.27412151 2.12935289 112.03270808 2.13293558 C108.51591967 2.12108822 105.3836819 1.94422456 102 1 C102 1.66 102 2.32 102 3 C100.02 3 98.04 3 96 3 C96 2.34 96 1.68 96 1 C95.34 1 94.68 1 94 1 C94 1.66 94 2.32 94 3 C93.5029808 2.83799606 93.00596161 2.67599213 92.49388123 2.50907898 C89.03323885 1.80265388 85.61425462 1.85259595 82.09790039 1.85473633 C81.30555496 1.85137772 80.51320953 1.8480191 79.69685364 1.84455872 C77.08043852 1.83506818 74.46408751 1.83310664 71.84765625 1.83203125 C70.0268908 1.82881765 68.20612562 1.8254535 66.38536072 1.82194519 C62.56980796 1.81595889 58.75427783 1.81410481 54.9387207 1.81469727 C50.05169573 1.81479893 45.16481591 1.80114023 40.27782536 1.78392506 C36.51772902 1.77280286 32.75766778 1.77077812 28.99755669 1.77130699 C27.195851 1.77012746 25.39414439 1.76570718 23.59245491 1.75797462 C21.07203133 1.74816915 18.55192288 1.75105482 16.03149414 1.75708008 C15.28899414 1.75146057 14.54649414 1.74584106 13.78149414 1.74005127 C9.56647072 1.76563521 5.15918004 1.84081996 2 5 C1.90064568 6.52423886 1.8713129 8.05308652 1.86938947 9.58055884 C1.86570876 10.57903108 1.86202805 11.57750333 1.85823581 12.60623232 C1.85925847 13.71862538 1.86028114 14.83101845 1.8613348 15.9771204 C1.85849258 17.15169395 1.85565036 18.32626751 1.85272202 19.5364342 C1.84578596 22.82597684 1.84337801 26.11546877 1.8427946 29.40501515 C1.84107377 32.97266289 1.8335931 36.54029907 1.82681805 40.10794014 C1.81573074 46.37033114 1.8083775 52.63271808 1.80341911 58.89511681 C1.79602943 68.2071772 1.78295015 77.51922342 1.76867336 86.83127549 C1.74482406 102.49314522 1.72563624 118.15501745 1.70907402 133.81689644 C1.69265219 149.33172513 1.67417755 164.84654912 1.65294075 180.36137199 C1.65162314 181.32481427 1.65030554 182.28825654 1.648948 183.28089403 C1.64224623 188.17341633 1.63550759 193.06593857 1.62875474 197.9584608 C1.58094851 232.64279418 1.53777593 267.32713195 1.49731445 302.01147461 C1.45798782 335.71395181 1.41657096 369.41642538 1.37231445 403.11889648 C1.37095192 404.15713382 1.36958939 405.19537115 1.36818558 406.26507022 C1.3545006 416.6911536 1.34077303 427.11723692 1.32701423 437.5433202 C1.29898513 458.78383892 1.27124043 480.024358 1.2436676 501.26487732 C1.2423994 502.24155483 1.2411312 503.21823234 1.23982458 504.22450614 C1.15512015 569.48299819 1.07704604 634.74149851 1 700 C0.67 700 0.34 700 0 700 C0 469 0 238 0 0 Z " fill="#8BE2CD" transform="translate(0,0)"/>
<path d="M0 0 C108.9 0 217.8 0 330 0 C330 0.33 330 0.66 330 1 C256.74 1.33 183.48 1.66 108 2 C108 4.64 108 7.28 108 10 C82.92 10 57.84 10 32 10 C31.67 8.68 31.34 7.36 31 6 C30.67 7.32 30.34 8.64 30 10 C30 8.68 30 7.36 30 6 C29.01 6 28.02 6 27 6 C26.67 6.66 26.34 7.32 26 8 C26 6.68 26 5.36 26 4 C25.01 4 24.02 4 23 4 C23 5.98 23 7.96 23 10 C23.61875 9.814375 24.2375 9.62875 24.875 9.4375 C27 9 27 9 29 10 C28.67 11.32 28.34 12.64 28 14 C19.09 14 10.18 14 1 14 C1 77.36 1 140.72 1 206 C12.88 206 24.76 206 37 206 C37 206.33 37 206.66 37 207 C24.79 207 12.58 207 0 207 C0 138.69 0 70.38 0 0 Z " fill="#4A5461" transform="translate(623,303)"/>
<path d="M0 0 C0.33 0.66 0.66 1.32 1 2 C6.61 2 12.22 2 18 2 C18 29.39 18 56.78 18 85 C12.06 85.495 12.06 85.495 6 86 C2.72226496 86.75150023 2.72226496 86.75150023 1 90 C0.67 60.3 0.34 30.6 0 0 Z " fill="#E1E4E8" transform="translate(935,315)"/>
<path d="M0 0 C4.65405465 2.72526087 7.53345353 6.67265729 9.6875 11.5625 C10.91792431 17.1467334 9.73538796 21.85549382 6.953125 26.7734375 C3.59903823 31.5147083 -0.60737184 34.30737181 -6.3125 35.5625 C-12.26791326 36.23488537 -15.55912377 35.48106164 -20.484375 32.05859375 C-25.17647098 28.21869469 -27.86388756 24.54117751 -28.55078125 18.44921875 C-28.7412039 12.80669508 -27.91063343 8.98589339 -24.3125 4.5625 C-17.71609912 -2.08556982 -8.74737238 -3.71510024 0 0 Z " fill="#FCFCFD" transform="translate(816.3125,439.4375)"/>
<path d="M0 0 C0 1.32 0 2.64 0 4 C-44.88 4 -89.76 4 -136 4 C-136.33 5.32 -136.66 6.64 -137 8 C-137.99 8 -138.98 8 -140 8 C-140 6.68 -140 5.36 -140 4 C-166.4 4 -192.8 4 -220 4 C-220 5.32 -220 6.64 -220 8 C-221.98 7.505 -221.98 7.505 -224 7 C-224 6.01 -224 5.02 -224 4 C-267.56 4 -311.12 4 -356 4 C-356 3.01 -356 2.02 -356 1 C-310.93653575 0.87257288 -265.87307142 0.74517535 -220.80960698 0.61781773 C-215.49465335 0.60279667 -210.17969972 0.58777536 -204.86474609 0.57275391 C-203.80659309 0.56976329 -202.74844008 0.56677268 -201.65822183 0.56369144 C-184.50387823 0.51520823 -167.34953468 0.46670507 -150.19519116 0.41819459 C-132.60540854 0.36845319 -115.01562586 0.31873309 -97.42584312 0.26903296 C-86.56391098 0.23834176 -75.7019789 0.20763376 -64.84004687 0.17690456 C-57.40099685 0.15586053 -49.96194678 0.13483711 -42.52289666 0.11383021 C-38.22503333 0.10169299 -33.92717003 0.08954639 -29.62930679 0.07737541 C-25.7001376 0.06624873 -21.77096833 0.05514773 -17.84179901 0.0440678 C-16.41512411 0.04004005 -14.98844923 0.0360026 -13.56177439 0.03195482 C-11.63273128 0.0264831 -9.70368807 0.0210491 -7.77464485 0.01561737 C-6.70003632 0.01257961 -5.62542778 0.00954185 -4.51825535 0.00641203 C-3.0121736 0.00257722 -1.50608663 0 0 0 Z " fill="#DDDDDD" transform="translate(966,518)"/>
<path d="M0 0 C2.97 0 5.94 0 9 0 C9 0.33 9 0.66 9 1 C35.07 1.33 61.14 1.66 88 2 C88 5.96 88 9.92 88 14 C58.96 14 29.92 14 0 14 C0 13.67 0 13.34 0 13 C3.3 13 6.6 13 10 13 C9.67 10.03 9.34 7.06 9 4 C6.03 3.67 3.06 3.34 0 3 C0 2.01 0 1.02 0 0 Z " fill="#E8EBEF" transform="translate(670,426)"/>
<path d="M0 0 C2.05078125 0.03255208 4.1015625 0.06510417 6.15234375 0.09765625 C10.47774169 9.2000886 14.36837327 18.39413012 18.02734375 27.78515625 C18.5296776 29.05804942 19.03228079 30.33083633 19.53515625 31.60351562 C23.15234375 40.84026228 23.15234375 40.84026228 23.15234375 43.09765625 C20.18234375 43.09765625 17.21234375 43.09765625 14.15234375 43.09765625 C11.15234375 35.47265625 11.15234375 35.47265625 11.15234375 32.09765625 C5.21234375 32.09765625 -0.72765625 32.09765625 -6.84765625 32.09765625 C-7.17765625 34.07765625 -7.50765625 36.05765625 -7.84765625 38.09765625 C-8.4699123 39.7814079 -9.1230999 41.45532853 -9.84765625 43.09765625 C-12.81765625 43.09765625 -15.78765625 43.09765625 -18.84765625 43.09765625 C-16.54843013 34.70299972 -13.4230092 26.76397774 -10.12207031 18.72631836 C-9.2125459 16.51052531 -8.31087521 14.29165078 -7.41015625 12.07226562 C-6.83508724 10.66257602 -6.25958279 9.25306394 -5.68359375 7.84375 C-5.41380707 7.18032089 -5.14402039 6.51689178 -4.86605835 5.83335876 C-2.51862067 0.13311949 -2.51862067 0.13311949 0 0 Z " fill="#F7FCFD" transform="translate(497.84765625,195.90234375)"/>
<path d="M0 0 C3.46236126 2.39067801 5.74528805 5.0530761 7.625 8.8125 C8.34410796 15.92105901 8.13892888 21.14115346 3.625 26.8125 C-1.14844465 30.53578683 -4.90970397 31.46522581 -10.9453125 31.19921875 C-16.0461565 30.38734808 -19.28028097 28.02245261 -22.75 24.1875 C-25.82616155 19.69157158 -25.84869773 16.16352997 -25.375 10.8125 C-24.05049578 6.32390237 -23.05604131 4.3516577 -19.375 1.4375 C-13.14582961 -1.93663396 -6.68906279 -2.35355913 0 0 Z " fill="#F7FCFC" transform="translate(252.375,209.1875)"/>
<path d="M0 0 C2.93441135 0.40084779 4.90527584 1.50453815 7.23046875 3.3046875 C7.70484375 2.8096875 8.17921875 2.3146875 8.66796875 1.8046875 C12.4557818 -0.41256892 15.94220139 -0.39855777 20.23046875 0.3046875 C23.72936879 2.41860627 24.93625561 3.42204809 26.23046875 7.3046875 C26.31286044 9.15079282 26.33790234 10.99973914 26.328125 12.84765625 C26.32490234 13.92080078 26.32167969 14.99394531 26.31835938 16.09960938 C26.30579102 17.77893555 26.30579102 17.77893555 26.29296875 19.4921875 C26.28845703 20.62333984 26.28394531 21.75449219 26.27929688 22.91992188 C26.26750373 25.71489677 26.25104525 28.5097657 26.23046875 31.3046875 C23.59046875 31.3046875 20.95046875 31.3046875 18.23046875 31.3046875 C18.2054126 30.643479 18.18035645 29.98227051 18.15454102 29.30102539 C18.03893773 26.32286445 17.91605121 23.3450483 17.79296875 20.3671875 C17.75365234 19.32626953 17.71433594 18.28535156 17.67382812 17.21289062 C17.63193359 16.22353516 17.59003906 15.23417969 17.546875 14.21484375 C17.49188843 12.84017944 17.49188843 12.84017944 17.43579102 11.43774414 C17.46043011 9.3226147 17.46043011 9.3226147 16.23046875 8.3046875 C13.23046875 8.13802083 13.23046875 8.13802083 10.23046875 8.3046875 C8.57967433 9.95548192 9.00497428 11.94204929 8.9140625 14.21484375 C8.87216797 15.20419922 8.83027344 16.19355469 8.78710938 17.21289062 C8.74779297 18.25380859 8.70847656 19.29472656 8.66796875 20.3671875 C8.62478516 21.41197266 8.58160156 22.45675781 8.53710938 23.53320312 C8.4306565 26.12355634 8.32864115 28.71400936 8.23046875 31.3046875 C5.59046875 31.3046875 2.95046875 31.3046875 0.23046875 31.3046875 C0.2054126 30.643479 0.18035645 29.98227051 0.15454102 29.30102539 C0.03893773 26.32286445 -0.08394879 23.3450483 -0.20703125 20.3671875 C-0.24634766 19.32626953 -0.28566406 18.28535156 -0.32617188 17.21289062 C-0.36806641 16.22353516 -0.40996094 15.23417969 -0.453125 14.21484375 C-0.48978271 13.29840088 -0.52644043 12.38195801 -0.56420898 11.43774414 C-0.53956989 9.3226147 -0.53956989 9.3226147 -1.76953125 8.3046875 C-4.72770232 8.05463364 -4.72770232 8.05463364 -7.76953125 8.3046875 C-10.25010753 10.78526378 -10.0597213 11.66661214 -10.18359375 15.09375 C-10.24160156 16.50527344 -10.24160156 16.50527344 -10.30078125 17.9453125 C-10.3471875 19.42257813 -10.3471875 19.42257813 -10.39453125 20.9296875 C-10.45253906 22.41855469 -10.45253906 22.41855469 -10.51171875 23.9375 C-10.60616265 26.39304135 -10.69173 28.8485716 -10.76953125 31.3046875 C-13.40953125 31.3046875 -16.04953125 31.3046875 -18.76953125 31.3046875 C-18.76953125 21.4046875 -18.76953125 11.5046875 -18.76953125 1.3046875 C-16.12953125 1.3046875 -13.48953125 1.3046875 -10.76953125 1.3046875 C-10.43953125 1.9646875 -10.10953125 2.6246875 -9.76953125 3.3046875 C-9.36476563 2.81742188 -8.96 2.33015625 -8.54296875 1.828125 C-5.81040291 -0.51923332 -3.47048433 -0.10190655 0 0 Z " fill="#F7FCFC" transform="translate(284.76953125,207.6953125)"/>
<path d="M0 0 C2.5 1.5 2.5 1.5 4 3 C6.6905528 1.77992056 6.6905528 1.77992056 9 0 C11.109375 -0.2734375 11.109375 -0.2734375 13.75 -0.375 C14.61109375 -0.42398438 15.4721875 -0.47296875 16.359375 -0.5234375 C19 0 19 0 21.80859375 1.69140625 C25.28217151 6.93582757 24.52694267 12.17943951 24.3125 18.3125 C24.28994141 19.53001953 24.26738281 20.74753906 24.24414062 22.00195312 C24.1853053 25.00255482 24.1031414 28.00064797 24 31 C21.36 31 18.72 31 16 31 C15.67 23.41 15.34 15.82 15 8 C12.69 8 10.38 8 8 8 C6.79729036 10.40541929 6.79683337 12.10366591 6.68359375 14.7890625 C6.64169922 15.73007813 6.59980469 16.67109375 6.55664062 17.640625 C6.51732422 18.62546875 6.47800781 19.6103125 6.4375 20.625 C6.39431641 21.61757812 6.35113281 22.61015625 6.30664062 23.6328125 C6.20038931 26.08839838 6.09835036 28.54408703 6 31 C3.36 31 0.72 31 -2 31 C-2.02505615 30.3387915 -2.0501123 29.67758301 -2.07592773 28.99633789 C-2.19153102 26.01817695 -2.31441754 23.0403608 -2.4375 20.0625 C-2.47681641 19.02158203 -2.51613281 17.98066406 -2.55664062 16.90820312 C-2.59853516 15.91884766 -2.64042969 14.92949219 -2.68359375 13.91015625 C-2.72025146 12.99371338 -2.75690918 12.07727051 -2.79467773 11.13305664 C-2.77003864 9.0179272 -2.77003864 9.0179272 -4 8 C-6.95804573 7.66659529 -6.95804573 7.66659529 -10 8 C-12.08745045 11.13117567 -12.27653996 12.06946224 -12.4140625 15.66796875 C-12.45273437 16.56064453 -12.49140625 17.45332031 -12.53125 18.37304688 C-12.5621875 19.30181641 -12.593125 20.23058594 -12.625 21.1875 C-12.66367187 22.12787109 -12.70234375 23.06824219 -12.7421875 24.03710938 C-12.83643187 26.3578771 -12.92204025 28.67863748 -13 31 C-15.31 31 -17.62 31 -20 31 C-20 21.1 -20 11.2 -20 1 C-17.69 1 -15.38 1 -13 1 C-12.67 1.66 -12.34 2.32 -12 3 C-11.505 2.505 -11.01 2.01 -10.5 1.5 C-7.01204551 -0.59277269 -3.97988249 -0.63612876 0 0 Z " fill="#F9FDFD" transform="translate(339,208)"/>
<path d="M0 0 C2.17236271 1.57223511 3.35731285 2.80975047 5 5 C5.125 7.125 5.125 7.125 4 9 C1.4375 10.75 1.4375 10.75 -1 12 C-1.5775 11.21625 -2.155 10.4325 -2.75 9.625 C-5.43712543 6.49002033 -7.30828904 5.23656446 -11.40234375 4.6640625 C-15.64465711 4.59869558 -18.26810834 4.5730632 -22 6.75 C-25.94900807 11.19263408 -26.38221596 14.71919072 -26.25390625 20.52734375 C-25.8153298 24.79840361 -24.36741606 27.76281404 -21.1953125 30.6328125 C-17.35893891 33.02201314 -13.36564131 32.6335 -9 32 C-5.14455202 30.00342873 -3.40194908 28.60292362 -1 25 C1.90542812 26.3024333 3.8092961 27.70886268 6 30 C-2.4065776 40.4709147 -2.4065776 40.4709147 -9.984375 41.34375 C-17.34569736 41.68298145 -22.4582289 41.01648474 -28 36 C-33.40961513 30.70135134 -35.29657013 25.70652302 -35.4375 18.1875 C-35.32035901 10.7217145 -33.61594245 6.7710499 -28.54296875 1.48046875 C-20.06907349 -6.2779525 -9.36565397 -5.58684764 0 0 Z " fill="#F8FDFC" transform="translate(216,199)"/>
<path d="M0 0 C2.99417353 2.55385389 5.3603812 5.2832624 7.125 8.8125 C7.125 11.4525 7.125 14.0925 7.125 16.8125 C-0.465 16.8125 -8.055 16.8125 -15.875 16.8125 C-14.10648964 19.99324165 -14.10648964 19.99324165 -11.875 22.8125 C-8.54299815 23.23021804 -8.54299815 23.23021804 -4.875 22.8125 C-4.029375 22.11125 -3.18375 21.41 -2.3125 20.6875 C-1.508125 20.06875 -0.70375 19.45 0.125 18.8125 C3.4375 19.5625 3.4375 19.5625 6.125 20.8125 C4.77217831 25.23991644 2.89201112 27.17559221 -0.875 29.8125 C-4.33590891 31.54295446 -8.08410888 31.15829074 -11.875 30.8125 C-17.54976113 28.84815961 -21.18900331 25.18449338 -23.875 19.8125 C-24.68517628 13.4107792 -23.82985815 8.01131947 -19.875 2.8125 C-14.45885665 -2.28758193 -6.7008444 -2.76774008 0 0 Z " fill="#F4FCFB" transform="translate(392.875,209.1875)"/>
<path d="M0 0 C2.97 0 5.94 0 9 0 C9.52875159 7.4025223 8.04836713 12.02984546 3.52734375 17.91796875 C-1.8284758 23.85621785 -7.72184434 26.51133136 -15.625 27.4140625 C-23.8186567 27.72793241 -30.36654833 27.0479518 -37 22 C-42.07921902 17.26339271 -46.80238215 12.44640155 -47.125 5.1875 C-47.08375 4.465625 -47.0425 3.74375 -47 3 C-42.545 2.505 -42.545 2.505 -38 2 C-37.46375 3.216875 -36.9275 4.43375 -36.375 5.6875 C-33.8540852 10.73826902 -30.71644048 13.09849166 -26.125 16.3125 C-19.88214268 18.33224796 -14.67144581 16.99970781 -8.9765625 14.19140625 C-3.49051698 10.88460015 -1.95512161 5.76760874 0 0 Z " fill="#748BBC" transform="translate(826,457)"/>
<path d="M0 0 C2.7987385 1.43923732 4.77664281 2.77664281 7 5 C7.30297852 7.07543945 7.30297852 7.07543945 7.37890625 9.61328125 C7.43014648 10.9909668 7.43014648 10.9909668 7.48242188 12.39648438 C7.50884766 13.35876953 7.53527344 14.32105469 7.5625 15.3125 C7.62278881 17.2045423 7.68648355 19.09647973 7.75390625 20.98828125 C7.77783447 21.82915283 7.8017627 22.67002441 7.82641602 23.53637695 C8.00657601 26.09333122 8.4458912 28.4996713 9 31 C7.72125 31.061875 6.4425 31.12375 5.125 31.1875 C4.04605469 31.23970703 4.04605469 31.23970703 2.9453125 31.29296875 C2.30335938 31.19628906 1.66140625 31.09960938 1 31 C0.34 30.01 -0.32 29.02 -1 28 C-1.433125 28.474375 -1.86625 28.94875 -2.3125 29.4375 C-4.80980691 31.74982122 -6.97111649 31.99673017 -10.3125 32.375 C-15.15519247 31.8825228 -16.88406595 30.72392118 -20 27 C-20.86164772 23.80207256 -20.85355668 21.19938594 -20 18 C-15.88930986 13.04609137 -11.27367891 11.76424816 -5 11 C-3.68 11 -2.36 11 -1 11 C-1.66 9.35 -2.32 7.7 -3 6 C-5.87413125 5.66602213 -5.87413125 5.66602213 -9 6 C-9.474375 6.639375 -9.94875 7.27875 -10.4375 7.9375 C-12 10 -12 10 -15.6875 10.75 C-16.780625 10.8325 -17.87375 10.915 -19 11 C-19.4375 8.875 -19.4375 8.875 -19 6 C-14.39047773 -0.76380071 -7.6244579 -1.33999328 0 0 Z " fill="#F6FCFD" transform="translate(581,208)"/>
<path d="M0 0 C2.97 0 5.94 0 9 0 C9.98238408 2.41540306 10.96100218 4.83221822 11.9375 7.25 C12.21529297 7.93191406 12.49308594 8.61382812 12.77929688 9.31640625 C14.07850315 12.54094231 15.1547734 15.61909359 16 19 C18.31 12.73 20.62 6.46 23 0 C25.97 0 28.94 0 32 0 C31.29548919 4.39961971 29.81740654 8.40252582 28.19921875 12.53125 C27.92157181 13.24478638 27.64392487 13.95832275 27.35786438 14.69348145 C26.77082914 16.19707771 26.18152398 17.6997895 25.59008789 19.20166016 C24.69184346 21.48893985 23.80758897 23.7813107 22.92382812 26.07421875 C22.34980938 27.5393962 21.77496656 29.00425113 21.19921875 30.46875 C20.93864182 31.14909302 20.67806488 31.82943604 20.40959167 32.53039551 C18.79453312 36.58262863 17.01247619 39.82951775 14 43 C10.52674819 44.1577506 7.63932552 44.06866652 4 44 C4 41.36 4 38.72 4 36 C5.175625 36.0928125 5.175625 36.0928125 6.375 36.1875 C7.24125 36.125625 8.1075 36.06375 9 36 C11.3115994 33.20523358 11.3115994 33.20523358 10.76782227 30.1706543 C10.00431197 27.01780589 9.00341726 24.24391523 7.71484375 21.26953125 C7.26689453 20.21958984 6.81894531 19.16964844 6.35742188 18.08789062 C5.65456055 16.46657227 5.65456055 16.46657227 4.9375 14.8125 C4.00425072 12.65444062 3.07563442 10.49437 2.15234375 8.33203125 C1.73976318 7.38046143 1.32718262 6.4288916 0.90209961 5.44848633 C0 3 0 3 0 0 Z " fill="#F5FAFD" transform="translate(609,208)"/>
<path d="M0 0 C2.64 0 5.28 0 8 0 C8.33 0.99 8.66 1.98 9 3 C9.639375 2.505 10.27875 2.01 10.9375 1.5 C15.0229859 -0.50105432 18.52682426 -0.8994973 23 0 C26 2.4375 26 2.4375 28 5 C28.33 5.33 28.66 5.66 29 6 C29.08737645 7.85369611 29.10698153 9.71067541 29.09765625 11.56640625 C29.09443359 12.69111328 29.09121094 13.81582031 29.08789062 14.97460938 C29.07951172 16.15861328 29.07113281 17.34261719 29.0625 18.5625 C29.05798828 19.75037109 29.05347656 20.93824219 29.04882812 22.16210938 C29.03699675 25.10812226 29.02051287 28.05403681 29 31 C26.36 31 23.72 31 21 31 C20.98018066 30.37432129 20.96036133 29.74864258 20.93994141 29.10400391 C20.84485774 26.27723481 20.73511254 23.45122185 20.625 20.625 C20.5940625 19.64015625 20.563125 18.6553125 20.53125 17.640625 C20.49257813 16.69960937 20.45390625 15.75859375 20.4140625 14.7890625 C20.36693115 13.48509521 20.36693115 13.48509521 20.31884766 12.15478516 C20.18770567 9.79038206 20.18770567 9.79038206 18 8 C13.91078861 7.51174173 13.91078861 7.51174173 10.34057617 9.2277832 C8.63424396 11.48352269 8.57777888 12.85774324 8.48828125 15.66796875 C8.45283203 16.56064453 8.41738281 17.45332031 8.38085938 18.37304688 C8.34702148 19.76620117 8.34702148 19.76620117 8.3125 21.1875 C8.27833984 22.12787109 8.24417969 23.06824219 8.20898438 24.03710938 C8.12651782 26.35795393 8.05736597 28.67842148 8 31 C5.36 31 2.72 31 0 31 C0 20.77 0 10.54 0 0 Z " fill="#F7FDFC" transform="translate(406,208)"/>
<path d="M0 0 C2.64 0 5.28 0 8 0 C8.33 1.32 8.66 2.64 9 4 C9.45375 3.34 9.9075 2.68 10.375 2 C13.85589634 -0.65211149 16.30291446 -0.56268322 20.5859375 -0.3984375 C23.95211196 0.15714469 25.72640291 1.50637738 28 4 C29.3308911 6.66178221 29.11268993 8.68739396 29.09765625 11.6640625 C29.09443359 12.78554687 29.09121094 13.90703125 29.08789062 15.0625 C29.07951172 16.238125 29.07113281 17.41375 29.0625 18.625 C29.05798828 19.80835938 29.05347656 20.99171875 29.04882812 22.2109375 C29.03701467 25.14067507 29.02054258 28.07031272 29 31 C26.36 31 23.72 31 21 31 C20.505 19.615 20.505 19.615 20 8 C12.68674801 7.22768589 12.68674801 7.22768589 10.04296875 9.390625 C8.42517047 13.43815028 8.4242462 17.4270183 8.3125 21.75 C8.27833984 22.63816406 8.24417969 23.52632812 8.20898438 24.44140625 C8.12671286 26.62747803 8.05749828 28.81315951 8 31 C5.36 31 2.72 31 0 31 C0 20.77 0 10.54 0 0 Z " fill="#F6FCFD" transform="translate(525,208)"/>
<path d="M0 0 C2.93292508 1.72926944 3.99857624 3.1408232 6 6 C6 6.66 6 7.32 6 8 C3 10 3 10 0.9375 9.75 C-1 9 -1 9 -3 7 C-5.65537372 6.43479997 -8.29144713 6.26211802 -11 6 C-10.37272206 7.98867647 -10.37272206 7.98867647 -9 10 C-6.50979887 11.2061366 -6.50979887 11.2061366 -3.625 12 C0.61243067 13.27922435 3.20195308 14.49590386 6 18 C6.44406364 22.14459395 6.56074371 25.58567505 4 29 C0.14997129 32.36877512 -3.64916827 32.50901037 -8.5625 32.35546875 C-13.16621043 31.68409431 -15.88616821 29.2623427 -18.875 25.875 C-20 24 -20 24 -20 22 C-15.61538462 19 -15.61538462 19 -13 19 C-12.71125 19.639375 -12.4225 20.27875 -12.125 20.9375 C-11.17176549 23.15206079 -11.17176549 23.15206079 -9 24 C-7.62657169 24.0689472 -6.24997898 24.08467708 -4.875 24.0625 C-2.956875 24.0315625 -2.956875 24.0315625 -1 24 C-1.58423974 22.0023534 -1.58423974 22.0023534 -3 20 C-5.75633045 18.79027622 -5.75633045 18.79027622 -8.9375 18 C-14.54055212 16.47498946 -14.54055212 16.47498946 -16.84765625 14.08984375 C-18.62433444 10.86773246 -18.50651304 8.60890539 -18 5 C-14.12514028 -1.74512618 -6.92835117 -1.25891093 0 0 Z " fill="#F5F8FE" transform="translate(710,208)"/>
<path d="M0 0 C2.93292508 1.72926944 3.99857624 3.1408232 6 6 C6 6.66 6 7.32 6 8 C3 10 3 10 0.9375 9.75 C-1 9 -1 9 -3 7 C-5.65537372 6.43479997 -8.29144713 6.26211802 -11 6 C-10.37272206 7.98867647 -10.37272206 7.98867647 -9 10 C-6.50979887 11.2061366 -6.50979887 11.2061366 -3.625 12 C0.61243067 13.27922435 3.20195308 14.49590386 6 18 C6.44406364 22.14459395 6.56074371 25.58567505 4 29 C0.18935771 32.334312 -3.61614813 32.57079983 -8.4921875 32.41796875 C-12.51749468 31.74708422 -15.24574688 29.97106021 -18 27 C-19.4375 24.1875 -19.4375 24.1875 -20 22 C-15.25 19 -15.25 19 -13 19 C-12.71125 19.639375 -12.4225 20.27875 -12.125 20.9375 C-11.17176549 23.15206079 -11.17176549 23.15206079 -9 24 C-7.62657169 24.0689472 -6.24997898 24.08467708 -4.875 24.0625 C-2.956875 24.0315625 -2.956875 24.0315625 -1 24 C-1.66109952 21.99239657 -1.66109952 21.99239657 -3 20 C-5.23395967 19.0497647 -5.23395967 19.0497647 -7.8125 18.5625 C-12.44538767 17.30873735 -15.20078515 16.10551511 -18 12 C-18.75714464 7.75999003 -18.45675792 5.79509713 -16.3125 2.0625 C-11.1094432 -1.17713914 -5.95367981 -1.08180899 0 0 Z " fill="#F4F9FE" transform="translate(664,208)"/>
<path d="M0 0 C18.15 0 36.3 0 55 0 C55 2.64 55 5.28 55 8 C36.85 8 18.7 8 0 8 C0 5.36 0 2.72 0 0 Z " fill="#384252" transform="translate(676,305)"/>
<path d="M0 0 C2.64 0 5.28 0 8 0 C8 2.64 8 5.28 8 8 C10.31 8 12.62 8 15 8 C15 10.31 15 12.62 15 15 C12.69 15 10.38 15 8 15 C8.33 20.61 8.66 26.22 9 32 C10.65 32.33 12.3 32.66 14 33 C14.33 34.98 14.66 36.96 15 39 C11.84203893 40.57898053 8.39329364 40.81928171 5 40 C2.2578125 38.12109375 2.2578125 38.12109375 0 35 C-0.59990633 31.53880291 -0.47324528 28.18680117 -0.3125 24.6875 C-0.27866211 23.29047852 -0.27866211 23.29047852 -0.24414062 21.86523438 C-0.18542078 19.5751604 -0.10336858 17.28842125 0 15 C-1.65 15 -3.3 15 -5 15 C-5 12.69 -5 10.38 -5 8 C-3.35 8 -1.7 8 0 8 C0 5.36 0 2.72 0 0 Z " fill="#F1FBFB" transform="translate(445,200)"/>
<path d="M0 0 C2.64 0 5.28 0 8 0 C8 14.19 8 28.38 8 43 C5.36 43 2.72 43 0 43 C0 28.81 0 14.62 0 0 Z " fill="#F1F9FD" transform="translate(596,196)"/>
<path d="M0 0 C0.99 0 1.98 0 3 0 C3 8.58 3 17.16 3 26 C1.68 25.67 0.36 25.34 -1 25 C-1.33 25.33 -1.66 25.66 -2 26 C-9.22962963 26.59259259 -9.22962963 26.59259259 -12.4375 24.125 C-15.05072669 20.5710117 -15.42550738 18.42527679 -15 14 C-13.49987532 11.4352707 -12.10816535 9.10816535 -10 7 C-6.5625 6.8125 -6.5625 6.8125 -3 7 C-2.34 7.66 -1.68 8.32 -1 9 C-0.67 6.03 -0.34 3.06 0 0 Z " fill="#F2FDF9" transform="translate(310,134)"/>
<path d="M0 0 C0.99 0 1.98 0 3 0 C3 8.58 3 17.16 3 26 C-1.29 26 -5.58 26 -10 26 C-14.89583333 21.10416667 -14.89583333 21.10416667 -15.3125 16.6875 C-14.94115803 12.30566476 -14.34168746 10.84043434 -11 8 C-8.16781012 7.12811861 -6.03702921 7.04820681 -3 7 C-2.01 7.66 -1.02 8.32 0 9 C0 6.03 0 3.06 0 0 Z " fill="#ECFCF7" transform="translate(332,134)"/>
<path d="M0 0 C4.15980221 0.60506214 6.1858109 1.29301408 9.1875 4.1875 C11.00538654 7.5505901 10.95784932 9.72746743 10.4375 13.5 C8.06844873 17.84326067 8.06844873 17.84326067 5.4375 19.5 C1.94393014 20.29014504 -1.06688501 20.27221849 -4.5625 19.5 C-8.1644816 16.75563306 -8.48682308 15.02973843 -9.125 10.5625 C-8.95052173 7.49749837 -8.28585076 5.50137375 -6.5 3 C-3.5625 0.5 -3.5625 0.5 0 0 Z " fill="#F0FDF9" transform="translate(365.5625,140.5)"/>
<path d="M0 0 C34.98 0 69.96 0 106 0 C105.34 0.33 104.68 0.66 104 1 C104 1.66 104 2.32 104 3 C102.63875 2.7215625 102.63875 2.7215625 101.25 2.4375 C98.21625759 1.82197069 98.21625759 1.82197069 96.16375732 2.47129822 C93.42129706 3.14140277 90.95283936 3.07601614 88.12988281 3.02172852 C86.94896057 3.00163223 85.76803833 2.98153595 84.55133057 2.96083069 C83.28142273 2.93379562 82.01151489 2.90676056 80.703125 2.87890625 C78.74726471 2.84348976 78.74726471 2.84348976 76.75189209 2.80735779 C73.29288665 2.74466232 69.83403809 2.67555497 66.37518311 2.60510254 C62.84264238 2.53428737 59.30999083 2.46954943 55.77734375 2.40429688 C48.85144206 2.27547212 41.92568715 2.13987187 35 2 C35 2.99 35 3.98 35 5 C26.42 5 17.84 5 9 5 C9.33 3.68 9.66 2.36 10 1 C7.03 1 4.06 1 1 1 C0.67 1.99 0.34 2.98 0 4 C0 2.68 0 1.36 0 0 Z " fill="#C8CACE" transform="translate(660,392)"/>
<path d="M0 0 C1.32 0 2.64 0 4 0 C5.65 6.6 7.3 13.2 9 20 C10.65 13.4 12.3 6.8 14 0 C15.65 0 17.3 0 19 0 C21.475 9.9 21.475 9.9 24 20 C25.65 13.4 27.3 6.8 29 0 C29.99 0 30.98 0 32 0 C31.39502042 6.06370342 30.1366972 11.65514242 28.4375 17.5 C28.20353516 18.32242188 27.96957031 19.14484375 27.72851562 19.9921875 C27.15757928 21.99629058 26.57953295 23.99836591 26 26 C24.68 26 23.36 26 22 26 C21.73445313 24.96359375 21.46890625 23.9271875 21.1953125 22.859375 C20.83877553 21.48952244 20.4819917 20.11973412 20.125 18.75 C19.95097656 18.06808594 19.77695313 17.38617188 19.59765625 16.68359375 C18.67707872 13.17176094 17.63613046 10.27226092 16 7 C14.35 13.27 12.7 19.54 11 26 C9.68 26 8.36 26 7 26 C6.02013647 22.41685685 5.04123054 18.83345277 4.0625 15.25 C3.78470703 14.23421875 3.50691406 13.2184375 3.22070312 12.171875 C2.81948242 10.70234375 2.81948242 10.70234375 2.41015625 9.203125 C2.04096069 7.85202637 2.04096069 7.85202637 1.66430664 6.47363281 C1.08615441 4.32080722 0.53230196 2.16454738 0 0 Z " fill="#ECFCF6" transform="translate(226,134)"/>
<path d="M0 0 C2.64 0 5.28 0 8 0 C8 10.23 8 20.46 8 31 C5.36 31 2.72 31 0 31 C0 20.77 0 10.54 0 0 Z " fill="#F7FAFE" transform="translate(676,208)"/>
<path d="M0 0 C26.4 0 52.8 0 80 0 C80 0.99 80 1.98 80 3 C53.6 3 27.2 3 0 3 C0 2.01 0 1.02 0 0 Z " fill="#CFF7EE" transform="translate(409,160)"/>
<path d="M0 0 C2.02734375 0.6328125 2.02734375 0.6328125 4.08984375 2.1953125 C5.45709824 5.75017417 5.68869958 8.88000265 5.02734375 12.6328125 C3.58984375 15.1328125 3.58984375 15.1328125 1.02734375 16.6328125 C-2.04240157 17.11488442 -4.92096116 17.25663967 -7.97265625 16.6328125 C-10.08291134 15.08977859 -10.84117752 14.03173093 -11.66015625 11.546875 C-12.24272212 7.27958001 -12.37621605 5.30541216 -10.09765625 1.5078125 C-6.30643674 -0.76691921 -4.26341348 -0.78032526 0 0 Z " fill="#3AC6B5" transform="translate(246.97265625,215.3671875)"/>
<path d="M0 0 C1.65 0 3.3 0 5 0 C5.23074219 0.73863281 5.46148437 1.47726563 5.69921875 2.23828125 C7.75509393 8.63343449 10.10248383 14.68310689 13.046875 20.72265625 C14 23 14 23 14 26 C13.01 26 12.02 26 11 26 C9.515 22.535 9.515 22.535 8 19 C4.37 19 0.74 19 -3 19 C-3.99 21.31 -4.98 23.62 -6 26 C-6.99 26 -7.98 26 -9 26 C-8.30444624 21.14078415 -6.41386985 16.91472564 -4.5 12.4375 C-3.86199665 10.93729534 -3.226492 9.43602506 -2.59375 7.93359375 C-2.31208984 7.27415771 -2.03042969 6.61472168 -1.74023438 5.93530273 C-0.99129409 3.97723886 -0.46612454 2.04213709 0 0 Z " fill="#EEFCF8" transform="translate(279,134)"/>
<path d="M0 0 C1.32 0 2.64 0 4 0 C5.55566406 1.8359375 5.55566406 1.8359375 7.015625 4.375 C7.80839844 5.72851562 7.80839844 5.72851562 8.6171875 7.109375 C9.15601563 8.06328125 9.69484375 9.0171875 10.25 10 C10.80429688 10.95390625 11.35859375 11.9078125 11.9296875 12.890625 C13.29973066 15.25276838 14.65158981 17.62544118 16 20 C16.33 13.4 16.66 6.8 17 0 C17.99 0 18.98 0 20 0 C20 8.58 20 17.16 20 26 C15 25 15 25 13.42260742 23.23413086 C12.98795166 22.48526611 12.5532959 21.73640137 12.10546875 20.96484375 C11.62529297 20.15595703 11.14511719 19.34707031 10.65039062 18.51367188 C10.16763672 17.66353516 9.68488281 16.81339844 9.1875 15.9375 C8.43436523 14.65649414 8.43436523 14.65649414 7.66601562 13.34960938 C6.4294444 11.24154986 5.21278085 9.1218355 4 7 C3.67 13.27 3.34 19.54 3 26 C2.01 26 1.02 26 0 26 C0 17.42 0 8.84 0 0 Z " fill="#F0FCF8" transform="translate(181,134)"/>
<path d="M0 0 C5.61 0 11.22 0 17 0 C17 0.99 17 1.98 17 3 C11.06 3.495 11.06 3.495 5 4 C4.67 6.31 4.34 8.62 4 11 C7.96 11 11.92 11 16 11 C16 11.99 16 12.98 16 14 C10.555 14.495 10.555 14.495 5 15 C4.67 17.64 4.34 20.28 4 23 C8.29 23 12.58 23 17 23 C17 23.99 17 24.98 17 26 C11.39 26 5.78 26 0 26 C0 17.42 0 8.84 0 0 Z " fill="#E1FAF2" transform="translate(207,134)"/>
<path d="M0 0 C4.24925258 0.78992516 6.08910865 2.84653437 9 6 C8.525625 6.825 8.05125 7.65 7.5625 8.5 C5.76430401 12.52795901 5.3765745 15.63173579 5 20 C1.7 20 -1.6 20 -5 20 C-5.58063679 11.87108489 -4.15719515 6.978149 0 0 Z " fill="#E560B7" transform="translate(783,439)"/>
<path d="M0 0 C12.87 0 25.74 0 39 0 C39 1.98 39 3.96 39 6 C32.73 6 26.46 6 20 6 C20.33 5.34 20.66 4.68 21 4 C19.741875 3.87625 18.48375 3.7525 17.1875 3.625 C11.73920821 3.02638195 6.37979246 2.03573574 1 1 C1 2.32 1 3.64 1 5 C1.66 5.33 2.32 5.66 3 6 C2.01 6 1.02 6 0 6 C0 4.02 0 2.04 0 0 Z " fill="#FBFCFC" transform="translate(670,401)"/>
<path d="M0 0 C7.90069513 -0.45580933 7.90069513 -0.45580933 11.5625 1.0625 C13.81151056 4.09377511 13.52134619 6.35057669 13 10 C10.76679398 12.66266871 9.3799883 12.95347082 5.9375 13.375 C3 13 3 13 1.328125 11.80078125 C-0.46314362 9.37203174 -0.30371685 7.79539917 -0.1875 4.8125 C-0.16042969 3.91144531 -0.13335938 3.01039063 -0.10546875 2.08203125 C-0.07066406 1.39496094 -0.03585937 0.70789063 0 0 Z " fill="#ECA626" transform="translate(772,345)"/>
<path d="M0 0 C1.875 1 1.875 1 3 3 C3.54135705 6.60904698 3.62822841 9.7804978 1.9375 13.0625 C-1.20486615 14.58299975 -3.69692708 13.78072633 -7 13 C-9 11 -9 11 -9.3125 7.0625 C-9.2339218 4.51564191 -9.13665953 3.24295027 -7.875 1 C-5.10184376 -0.47901666 -3.08815875 -0.38601984 0 0 Z " fill="#2CE4AD" transform="translate(369,144)"/>
<path d="M0 0 C3.4375 0.8125 3.4375 0.8125 5.4375 3.8125 C5.25426549 7.23287755 5.06588458 9.83850391 3.1875 12.75 C0.67911466 14.27294824 -0.68028564 14.37488329 -3.5625 13.8125 C-5.9375 11.75 -5.9375 11.75 -7.5625 8.8125 C-7.5 5.125 -7.5 5.125 -6.5625 1.8125 C-3.5625 -0.1875 -3.5625 -0.1875 0 0 Z " fill="#33E4AD" transform="translate(327.5625,144.1875)"/>
<path d="M0 0 C3 0.4375 3 0.4375 4.875 1.4375 C6.68324933 4.65216547 6.54662881 7.84322839 6 11.4375 C4.8125 13.4375 4.8125 13.4375 3 14.4375 C0.5625 14.875 0.5625 14.875 -2 14.4375 C-4.3125 12.8125 -4.3125 12.8125 -6 10.4375 C-6.49214954 7.06276031 -6.33486373 5.14443454 -4.875 2.0625 C-3 0.4375 -3 0.4375 0 0 Z " fill="#30E2AB" transform="translate(304,143.5625)"/>
<path d="M0 0 C3.58834138 0.35883414 4.70554165 0.66459494 7.125 3.3125 C7.42061076 6.18288052 7.50443016 8.65004745 7.375 11.5 C7.35695313 12.24958984 7.33890625 12.99917969 7.3203125 13.77148438 C7.27324109 15.6190371 7.20149766 17.46593159 7.125 19.3125 C6.135 19.3125 5.145 19.3125 4.125 19.3125 C4.06441406 18.31347656 4.00382812 17.31445312 3.94140625 16.28515625 C3.81572266 14.34962891 3.81572266 14.34962891 3.6875 12.375 C3.60628906 11.08722656 3.52507812 9.79945313 3.44140625 8.47265625 C3.47580812 5.45226043 3.47580812 5.45226043 2.125 4.3125 C-0.33309998 4.0624227 -0.33309998 4.0624227 -2.875 4.3125 C-5.64542109 7.08292109 -5.27296106 9.07783805 -5.5 12.9375 C-5.57476562 14.12601563 -5.64953125 15.31453125 -5.7265625 16.5390625 C-5.77554687 17.45429688 -5.82453125 18.36953125 -5.875 19.3125 C-6.865 19.3125 -7.855 19.3125 -8.875 19.3125 C-8.875 13.3725 -8.875 7.4325 -8.875 1.3125 C-7.555 1.6425 -6.235 1.9725 -4.875 2.3125 C-2.875 0.3125 -2.875 0.3125 0 0 Z " fill="#E3FBF4" transform="translate(388.875,140.6875)"/>
<path d="M0 0 C11.22 0 22.44 0 34 0 C34 0.66 34 1.32 34 2 C33.67 2.33 33.34 2.66 33 3 C33.495 3.99 33.495 3.99 34 5 C25.75 5 17.5 5 9 5 C9.33 3.68 9.66 2.36 10 1 C7.03 1 4.06 1 1 1 C0.67 1.99 0.34 2.98 0 4 C0 2.68 0 1.36 0 0 Z " fill="#CACDD0" transform="translate(660,392)"/>
<path d="M0 0 C2.72998676 0.11437651 5.4584582 0.24111406 8.1875 0.375 C8.95642578 0.4059375 9.72535156 0.436875 10.51757812 0.46875 C14.73897711 0.68616111 18.14072328 1.09743072 22 3 C22 3.33 22 3.66 22 4 C27.28 4.33 32.56 4.66 38 5 C38 5.33 38 5.66 38 6 C25.13 6 12.26 6 -1 6 C-0.67 4.02 -0.34 2.04 0 0 Z " fill="#F5F6F7" transform="translate(671,402)"/>
<path d="M0 0 C2.0625 0.4375 2.0625 0.4375 4 1 C4 1.66 4 2.32 4 3 C4.66 3 5.32 3 6 3 C6.33 2.01 6.66 1.02 7 0 C8.32 0.33 9.64 0.66 11 1 C11.8125 3.1875 11.8125 3.1875 12 6 C9.9375 8.875 9.9375 8.875 7 11 C3.24529849 10.9263784 1.67158839 10.67158839 -1 8 C-1.1875 4.4375 -1.1875 4.4375 -1 1 C-0.67 0.67 -0.34 0.34 0 0 Z " fill="#BC902C" transform="translate(723,347)"/>
<path d="M0 0 C29.04 0 58.08 0 88 0 C88 0.33 88 0.66 88 1 C79.35843749 1.13153916 70.71685968 1.26200435 62.07526112 1.39115143 C58.06131519 1.45117172 54.04737522 1.51154246 50.03344727 1.57275391 C46.14957095 1.63196854 42.2656811 1.69021064 38.38178062 1.74781799 C36.91045309 1.76980456 35.43913049 1.79212374 33.96781349 1.81480408 C31.8845609 1.84685673 29.80129115 1.87754948 27.71801758 1.90820312 C25.76975571 1.93829468 25.76975571 1.93829468 23.78213501 1.96899414 C19.10760472 2.00731584 14.43756587 1.92969563 9.76445007 1.81237793 C6.06013526 2.06378823 3.28085613 3.35957194 0 5 C0 3.35 0 1.7 0 0 Z " fill="#77EDBF" transform="translate(1,0)"/>
<path d="M0 0 C3.3 0 6.6 0 10 0 C10 3.3 10 6.6 10 10 C6.7 10 3.4 10 0 10 C0 6.7 0 3.4 0 0 Z " fill="#9D846D" transform="translate(670,443)"/>
<path d="M0 0 C4.29 0 8.58 0 13 0 C13 6 13 6 11.3125 7.875 C8.53278248 9.22729501 7.0516331 9.53403579 4 9 C1.6875 7.3125 1.6875 7.3125 0 5 C0 3.35 0 1.7 0 0 Z " fill="#DB9A25" transform="translate(671,349)"/>
<path d="M0 0 C6.93359375 -0.09765625 6.93359375 -0.09765625 9 0 C10 1 10 1 10.09765625 3.06640625 C10.06510417 5.37760417 10.03255208 7.68880208 10 10 C6.7 10 3.4 10 0 10 C0 6.7 0 3.4 0 0 Z " fill="#948B7F" transform="translate(670,429)"/>
<path d="M0 0 C3.46679688 0.04882812 3.46679688 0.04882812 6.93359375 0.09765625 C6.93359375 3.39765625 6.93359375 6.69765625 6.93359375 10.09765625 C3.63359375 10.09765625 0.33359375 10.09765625 -3.06640625 10.09765625 C-3.1640625 3.1640625 -3.1640625 3.1640625 -3.06640625 1.09765625 C-2.06640625 0.09765625 -2.06640625 0.09765625 0 0 Z " fill="#716751" transform="translate(672.06640625,415.90234375)"/>
<path d="M0 0 C1.6396875 0.2475 1.6396875 0.2475 3.3125 0.5 C6.53946069 0.93755399 8.01854772 0.91736993 11 0 C11.33 0.33 11.66 0.66 12 1 C11.75 4.4375 11.75 4.4375 11 8 C8 10 8 10 4.4375 9.8125 C1 9 1 9 -1 6 C-1.1875 3.375 -1.1875 3.375 -1 1 C-0.67 0.67 -0.34 0.34 0 0 Z " fill="#E0A22A" transform="translate(798,348)"/>
<path d="M0 0 C2.64 0.33 5.28 0.66 8 1 C7.51622419 7.4100295 7.51622419 7.4100295 5.25 10 C2.33305134 11.29642163 0.98207327 11.07048784 -2 10 C-3.8125 8.75 -3.8125 8.75 -5 7 C-5.1875 4.3125 -5.1875 4.3125 -5 2 C-3.68 2 -2.36 2 -1 2 C-0.67 1.34 -0.34 0.68 0 0 Z " fill="#C68621" transform="translate(752,347)"/>
<path d="M0 0 C4.85226673 0.55091238 9.55667905 0.64122292 14.4375 0.5625 C14.4375 1.5525 14.4375 2.5425 14.4375 3.5625 C15.4275 3.5625 16.4175 3.5625 17.4375 3.5625 C17.7675 2.5725 18.0975 1.5825 18.4375 0.5625 C20.4175 0.5625 22.3975 0.5625 24.4375 0.5625 C24.1075 1.8825 23.7775 3.2025 23.4375 4.5625 C-2.8125 4.5625 -2.8125 4.5625 -6.5625 3.5625 C-6.5625 2.5725 -6.5625 1.5825 -6.5625 0.5625 C-4.04112739 -0.6981863 -2.77934285 -0.35231107 0 0 Z " fill="#868C95" transform="translate(855.5625,319.4375)"/>
<path d="M0 0 C3.96 0 7.92 0 12 0 C12 6 12 6 10.375 7.9375 C7.18435542 9.36489363 5.32060787 8.93843266 2 8 C1.34 7.34 0.68 6.68 0 6 C0 4.02 0 2.04 0 0 Z " fill="#E4A221" transform="translate(697,349)"/>
<path d="M0 0 C5.61 0 11.22 0 17 0 C14.42592593 5.14814815 14.42592593 5.14814815 11 7 C6.93605316 7.50799336 4.89387354 7.6646752 1.5625 5.1875 C0 3 0 3 0 0 Z " fill="#2BC9C0" transform="translate(377,226)"/>
<path d="M0 0 C2.97 0 5.94 0 9 0 C9 3.3 9 6.6 9 10 C6.03 10 3.06 10 0 10 C0 6.7 0 3.4 0 0 Z " fill="#625A40" transform="translate(670,497)"/>
<path d="M0 0 C2.97 0 5.94 0 9 0 C9 3.3 9 6.6 9 10 C6.03 10 3.06 10 0 10 C0 6.7 0 3.4 0 0 Z " fill="#655F43" transform="translate(670,470)"/>
<path d="M0 0 C2.97 0 5.94 0 9 0 C9 3.3 9 6.6 9 10 C6.03 10 3.06 10 0 10 C0 6.7 0 3.4 0 0 Z " fill="#624D42" transform="translate(670,456)"/>
<path d="M0 0 C0.66 0 1.32 0 2 0 C2.67260351 1.76858691 3.33788395 3.53996016 4 5.3125 C4.37125 6.29863281 4.7425 7.28476563 5.125 8.30078125 C6 11 6 11 6 14 C2.7 14 -0.6 14 -4 14 C-3.36843005 8.94744036 -1.86540627 4.70406799 0 0 Z " fill="#42CBD5" transform="translate(499,207)"/>
<path d="M0 0 C0.21620175 2.6664882 0.30894168 4.44004321 -1 6.8125 C-4.23988962 8.73618446 -7.2825819 8.18282384 -11 8 C-11.33 6.35 -11.66 4.7 -12 3 C-8.2391768 -0.7608232 -5.0273023 -0.25136512 0 0 Z " fill="#40B8E5" transform="translate(580,225)"/>
<path d="M0 0 C0.66 0 1.32 0 2 0 C2 8.58 2 17.16 2 26 C-0.31 25.67 -2.62 25.34 -5 25 C-4.26330078 24.17242187 -4.26330078 24.17242187 -3.51171875 23.328125 C-1.69890576 20.53629931 -1.6827049 19.03814259 -1.8125 15.75 C-1.83957031 14.85796875 -1.86664063 13.9659375 -1.89453125 13.046875 C-1.92933594 12.37140625 -1.96414063 11.6959375 -2 11 C-1.34 11 -0.68 11 0 11 C0 7.37 0 3.74 0 0 Z " fill="#F6FDFB" transform="translate(311,134)"/>
<path d="M0 0 C0.67546875 0.08378906 1.3509375 0.16757812 2.046875 0.25390625 C2.93890625 0.35574219 3.8309375 0.45757812 4.75 0.5625 C6.07257812 0.71912109 6.07257812 0.71912109 7.421875 0.87890625 C9.95002829 1.12158355 9.95002829 1.12158355 12.140625 0.46484375 C14 0 14 0 17 1 C18.175625 0.7525 18.175625 0.7525 19.375 0.5 C22.25088353 -0.04778734 24.18910462 0.27719833 27 1 C27 1.99 27 2.98 27 4 C8 4 8 4 5.4375 3.9375 C2.99092493 3.82781247 2.99092493 3.82781247 1 5 C0.34 4.67 -0.32 4.34 -1 4 C-0.67 2.68 -0.34 1.36 0 0 Z " fill="#AAE8ED" transform="translate(862,337)"/>
<path d="M0 0 C1.32 0 2.64 0 4 0 C3.67435562 0.5712561 3.34871124 1.14251221 3.01319885 1.7310791 C1.92758724 4.16215852 1.76208327 5.66208028 1.78881836 8.30273438 C1.79219711 9.14461304 1.79557587 9.9864917 1.79905701 10.85388184 C1.81251663 11.75803833 1.82597626 12.66219482 1.83984375 13.59375 C1.84504532 14.5362561 1.85024689 15.47876221 1.85560608 16.4498291 C1.87340355 19.46670992 1.90451032 22.48325002 1.9375 25.5 C1.97425579 29.44789112 2.00459627 33.3957531 2.02734375 37.34375 C2.03293304 38.28500732 2.03852234 39.22626465 2.04428101 40.19604492 C2.05881021 46.84968447 1.79662795 53.38754786 1 60 C0.67 60 0.34 60 0 60 C0 40.2 0 20.4 0 0 Z " fill="#D9DBDD" transform="translate(835,330)"/>
<path d="M0 0 C3.19448727 0.0696979 3.95878065 0.25033549 6.625 2.25 C8.125 4.375 8.125 4.375 8.125 6.375 C2.845 6.375 -2.435 6.375 -7.875 6.375 C-4.92584746 0.47669492 -4.92584746 0.47669492 0 0 Z " fill="#2DCFBE" transform="translate(384.875,213.625)"/>
<path d="M0 0 C7.7810219 -0.29927007 7.7810219 -0.29927007 11 2 C13.53534695 4.44479885 13.97761826 5.84892326 14.5 9.375 C13.8410973 14.15204457 12.41358458 15.66769125 9 19 C8.34 19 7.68 19 7 19 C7.875 15.125 7.875 15.125 9 14 C9.60628055 8.67501582 9.60628055 8.67501582 7.5 4.125 C7.005 3.75375 6.51 3.3825 6 3 C6 2.34 6 1.68 6 1 C4.02 1 2.04 1 0 1 C0 0.67 0 0.34 0 0 Z " fill="#DAFAF0" transform="translate(362,141)"/>
<path d="M0 0 C8.84295302 0.57986577 8.84295302 0.57986577 12 4 C12 4.99 12 5.98 12 7 C9.15916359 8.42041821 7.14522722 8.31452272 4 8 C1.15219381 5.76793569 0.15002334 4.45007001 -1 1 C-0.67 0.67 -0.34 0.34 0 0 Z " fill="#619DF5" transform="translate(697,225)"/>
<path d="M0 0 C8.84295302 0.57986577 8.84295302 0.57986577 12 4 C12 4.99 12 5.98 12 7 C9.15916359 8.42041821 7.14522722 8.31452272 4 8 C1.15219381 5.76793569 0.15002334 4.45007001 -1 1 C-0.67 0.67 -0.34 0.34 0 0 Z " fill="#55A7F0" transform="translate(651,225)"/>
<path d="M0 0 C2.5 0.25 2.5 0.25 4.5 2.25 C4.75 4.75 4.75 4.75 4.5 7.25 C2.5 9.25 2.5 9.25 0 9.5 C-2.5 9.25 -2.5 9.25 -4.5 7.25 C-4.75 4.75 -4.75 4.75 -4.5 2.25 C-2.5 0.25 -2.5 0.25 0 0 Z " fill="#AA9B96" transform="translate(853.5,363.75)"/>
<path d="M0 0 C3 0.125 3 0.125 4 1.125 C4.1875 4.0625 4.1875 4.0625 4 7.125 C3.34 7.785 2.68 8.445 2 9.125 C-1.29714793 8.79528521 -2.6226839 8.5023161 -5 6.125 C-4.27477017 0.17811542 -4.27477017 0.17811542 0 0 Z " fill="#533B20" transform="translate(854,393.875)"/>
<path d="M0 0 C8.04212755 -0.16677223 15.98603754 0.3533402 24 1 C23.67 1.99 23.34 2.98 23 4 C19.33333333 4 15.66666667 4 12 4 C10.93265625 4.01740234 10.93265625 4.01740234 9.84375 4.03515625 C8.68359375 4.04869141 8.68359375 4.04869141 7.5 4.0625 C6.7265625 4.07410156 5.953125 4.08570313 5.15625 4.09765625 C3 4 3 4 0 3 C0 2.01 0 1.02 0 0 Z " fill="#C1EEF2" transform="translate(870,367)"/>
<path d="M0 0 C2.5 0.25 2.5 0.25 4.5 2.25 C4.75 4.75 4.75 4.75 4.5 7.25 C3.84 7.91 3.18 8.57 2.5 9.25 C1.18 9.25 -0.14 9.25 -1.5 9.25 C-1.83 8.59 -2.16 7.93 -2.5 7.25 C-3.16 7.25 -3.82 7.25 -4.5 7.25 C-4.625 4.875 -4.625 4.875 -4.5 2.25 C-2.5 0.25 -2.5 0.25 0 0 Z " fill="#615641" transform="translate(853.5,348.75)"/>
<path d="M0 0 C3 0.25 3 0.25 5 2.25 C5 3.57 5 4.89 5 6.25 C1.04 6.91 -2.92 7.57 -7 8.25 C-4.60594796 0.383829 -4.60594796 0.383829 0 0 Z " fill="#42BAE1" transform="translate(575,212.75)"/>
<path d="M0 0 C4 0 8 0 12 0 C12.75539063 -0.01160156 13.51078125 -0.02320313 14.2890625 -0.03515625 C15.05992187 -0.04417969 15.83078125 -0.05320312 16.625 -0.0625 C17.40101563 -0.07410156 18.17703125 -0.08570313 18.9765625 -0.09765625 C21 0 21 0 23 1 C22.67 1.66 22.34 2.32 22 3 C17.76240779 3.98898016 13.65113025 4.13507812 9.3125 4.125 C8.19488281 4.12757813 7.07726562 4.13015625 5.92578125 4.1328125 C3 4 3 4 0 3 C0 2.01 0 1.02 0 0 Z " fill="#5E6672" transform="translate(679,309)"/>
<path d="M0 0 C2.64 0 5.28 0 8 0 C8 2.64 8 5.28 8 8 C5.36 8 2.72 8 0 8 C0 5.36 0 2.72 0 0 Z " fill="#FEFEFE" transform="translate(676,196)"/>
<path d="M0 0 C5.41538462 -0.36923077 5.41538462 -0.36923077 8.375 1.5 C8.91125 1.995 9.4475 2.49 10 3 C9.67 4.32 9.34 5.64 9 7 C5.7 6.67 2.4 6.34 -1 6 C-0.67 4.02 -0.34 2.04 0 0 Z " fill="#EEC949" transform="translate(775,345)"/>
<path d="M0 0 C1.79068573 2.6860286 2.66055791 4.6626589 3.625 7.6875 C3.88539063 8.49574219 4.14578125 9.30398437 4.4140625 10.13671875 C4.60742188 10.75160156 4.80078125 11.36648437 5 12 C2.03 12 -0.94 12 -4 12 C-3.52309796 10.37433394 -3.04340334 8.74948689 -2.5625 7.125 C-2.29566406 6.22007812 -2.02882813 5.31515625 -1.75390625 4.3828125 C-1 2 -1 2 0 0 Z " fill="#3DE3AE" transform="translate(281,138)"/>
<path d="M0 0 C1.99965715 0.03703069 4.00056665 0.04760556 6 0 C5.67 0.99 5.34 1.98 5 3 C-1.66666667 3 -8.33333333 3 -15 3 C-15 2.01 -15 1.02 -15 0 C-9.71424969 -0.76349727 -5.28334896 -1.05666979 0 0 Z " fill="#CDCDCD" transform="translate(906,466)"/>
<path d="M0 0 C2.06242617 -0.02717692 4.12495703 -0.0464758 6.1875 -0.0625 C7.33605469 -0.07410156 8.48460937 -0.08570313 9.66796875 -0.09765625 C12.59300586 -0.01192832 15.16316291 0.32150977 18 1 C18 1.99 18 2.98 18 4 C16.1746875 3.9690625 16.1746875 3.9690625 14.3125 3.9375 C11.81800062 3.92871655 9.76845475 4.04846296 7.3125 4.5625 C4.60701497 5.07434852 2.64602695 4.68040693 0 4 C0 2.68 0 1.36 0 0 Z " fill="#CDCDCD" transform="translate(875,454)"/>
<path d="M0 0 C2.84326464 -0.23053497 4.46145349 -0.35903101 6.875 1.25 C8 3 8 3 7.8125 5.0625 C7 7 7 7 5 9 C2.375 8.625 2.375 8.625 0 8 C0 5.36 0 2.72 0 0 Z " fill="#837A6C" transform="translate(851,379)"/>
<path d="M0 0 C2.7920301 0.1404983 5.58349796 0.28715383 8.375 0.4375 C9.1690625 0.47681641 9.963125 0.51613281 10.78125 0.55664062 C16.7734375 0.88671875 16.7734375 0.88671875 19 2 C18 4 18 4 16.375 4.6875 C13.12531702 5.11508987 10.22148223 4.52715164 7 4 C4.0745356 3.7763932 4.0745356 3.7763932 2 5 C1.34 4.67 0.68 4.34 0 4 C0 2.68 0 1.36 0 0 Z " fill="#D0D3D6" transform="translate(671,402)"/>
<path d="M0 0 C0.66 0 1.32 0 2 0 C2 0.99 2 1.98 2 3 C2.66 3 3.32 3 4 3 C3.67 7.95 3.34 12.9 3 18 C2.01 18 1.02 18 0 18 C0 12.06 0 6.12 0 0 Z " fill="#F8FEFC" transform="translate(380,142)"/>
<path d="M0 0 C10.89 0 21.78 0 33 0 C33 0.33 33 0.66 33 1 C25.25331084 1.71000752 17.6542249 2.08294453 9.875 1.83984375 C6.09684736 2.05031149 3.33950723 3.33024638 0 5 C0 3.35 0 1.7 0 0 Z " fill="#67EBB4" transform="translate(1,0)"/>
<path d="M0 0 C4.29 0.33 8.58 0.66 13 1 C13 2.32 13 3.64 13 5 C8.71 5 4.42 5 0 5 C0 3.35 0 1.7 0 0 Z " fill="#9BA0A7" transform="translate(799,406)"/>
<path d="M0 0 C2.0622048 -0.054348 4.12482816 -0.09294961 6.1875 -0.125 C7.33605469 -0.14820313 8.48460937 -0.17140625 9.66796875 -0.1953125 C12.91740372 -0.00484152 15.08660521 0.60639873 18 2 C17.67 2.99 17.34 3.98 17 5 C16.34 4.649375 15.68 4.29875 15 3.9375 C11.54630399 2.85822 9.43499844 3.20376919 5.9375 3.7734375 C3.46661756 4.06237133 1.38206473 3.6699557 -1 3 C-0.67 2.01 -0.34 1.02 0 0 Z " fill="#BCECF1" transform="translate(862,397)"/>
<path d="M0 0 C0.33 2.64 0.66 5.28 1 8 C-0.98 8.33 -2.96 8.66 -5 9 C-5.66 7.02 -6.32 5.04 -7 3 C-4.49955934 -0.00052879 -4.2621484 0 0 0 Z " fill="#907E6F" transform="translate(856,334)"/>
<path d="M0 0 C2.79173055 -0.02690104 5.58320348 -0.04679053 8.375 -0.0625 C9.56609375 -0.07506836 9.56609375 -0.07506836 10.78125 -0.08789062 C16.7734375 -0.11328125 16.7734375 -0.11328125 19 1 C19 1.66 19 2.32 19 3 C12.73 3 6.46 3 0 3 C0 2.01 0 1.02 0 0 Z " fill="#818385" transform="translate(675,394)"/>
<path d="M0 0 C1.23556641 0.01740234 1.23556641 0.01740234 2.49609375 0.03515625 C3.32238281 0.04417969 4.14867187 0.05320312 5 0.0625 C5.63808594 0.07410156 6.27617188 0.08570313 6.93359375 0.09765625 C6.93359375 1.74765625 6.93359375 3.39765625 6.93359375 5.09765625 C2.05859375 3.22265625 2.05859375 3.22265625 0.93359375 2.09765625 C-1.42593719 4.45718719 -1.55782038 5.87661242 -2.06640625 9.09765625 C-1.32390625 8.89140625 -0.58140625 8.68515625 0.18359375 8.47265625 C2.93359375 8.09765625 2.93359375 8.09765625 6.93359375 10.09765625 C3.63359375 10.09765625 0.33359375 10.09765625 -3.06640625 10.09765625 C-3.1640625 3.1640625 -3.1640625 3.1640625 -3.06640625 1.09765625 C-2.06640625 0.09765625 -2.06640625 0.09765625 0 0 Z " fill="#9B9887" transform="translate(672.06640625,415.90234375)"/>
<path d="M0 0 C5.28 0 10.56 0 16 0 C16 0.99 16 1.98 16 3 C10.39 3 4.78 3 -1 3 C-0.67 2.01 -0.34 1.02 0 0 Z " fill="#BFC4CB" transform="translate(690,487)"/>
<path d="M0 0 C3.96 0 7.92 0 12 0 C12 1.32 12 2.64 12 4 C8.04 4 4.08 4 0 4 C0 2.68 0 1.36 0 0 Z " fill="#C3EEF2" transform="translate(862,382)"/>
<path d="M0 0 C0.33 1.32 0.66 2.64 1 4 C-3.75 3.125 -3.75 3.125 -6 2 C-6.33 2.99 -6.66 3.98 -7 5 C-8.65 4.67 -10.3 4.34 -12 4 C-8.4913862 -1.17938228 -5.96187138 -1.19237428 0 0 Z " fill="#F7E5AA" transform="translate(758,345)"/>
<path d="M0 0 C0.33 0 0.66 0 1 0 C1 1.98 1 3.96 1 6 C-2.63 5.67 -6.26 5.34 -10 5 C-10 3.68 -10 2.36 -10 1 C-9.36191406 1.01160156 -8.72382812 1.02320313 -8.06640625 1.03515625 C-7.24011719 1.04417969 -6.41382813 1.05320312 -5.5625 1.0625 C-4.32693359 1.07990234 -4.32693359 1.07990234 -3.06640625 1.09765625 C-1.00836062 1.23267348 -1.00836062 1.23267348 0 0 Z " fill="#8E949C" transform="translate(670,319)"/>
<path d="M0 0 C-0.33 0.99 -0.66 1.98 -1 3 C-5.95 3 -10.9 3 -16 3 C-16 2.01 -16 1.02 -16 0 C-10.39436958 -0.82622671 -5.57710648 -1.06795656 0 0 Z " fill="#CDCDCD" transform="translate(910,455)"/>
<path d="M0 0 C2.64 0 5.28 0 8 0 C7.67 1.65 7.34 3.3 7 5 C6.34 5 5.68 5 5 5 C4.67 5.99 4.34 6.98 4 8 C0 3.375 0 3.375 0 0 Z " fill="#9D7358" transform="translate(671,456)"/>
<path d="M0 0 C4.62 0 9.24 0 14 0 C14 0.99 14 1.98 14 3 C9.38 3 4.76 3 0 3 C0 2.01 0 1.02 0 0 Z " fill="#CAF8EA" transform="translate(340,147)"/>
<path d="M0 0 C1.8253125 0.2784375 1.8253125 0.2784375 3.6875 0.5625 C7.05370751 0.99071014 9.68926977 0.85133063 13 0 C13.99 0 14.98 0 16 0 C16 0.99 16 1.98 16 3 C10.72 3 5.44 3 0 3 C0 2.01 0 1.02 0 0 Z " fill="#C3C3C3" transform="translate(874,444)"/>
<path d="M0 0 C2.125 0.375 2.125 0.375 4 1 C4.38218767 2.65614657 4.71395102 4.32457024 5 6 C4 7 4 7 1.4375 7.0625 C0.2309375 7.0315625 0.2309375 7.0315625 -1 7 C-1.625 4.625 -1.625 4.625 -2 2 C-1.34 1.34 -0.68 0.68 0 0 Z " fill="#7E93C0" transform="translate(866,441)"/>
<path d="M0 0 C4.5526514 -0.07716358 8.544947 0.00998822 13 1 C14.32 1 15.64 1 17 1 C17 1.66 17 2.32 17 3 C11.39 3 5.78 3 0 3 C0 2.01 0 1.02 0 0 Z " fill="#AFB5BC" transform="translate(689,446)"/>
<path d="M0 0 C4.29 0 8.58 0 13 0 C13.33 0.99 13.66 1.98 14 3 C9.05 3 4.1 3 -1 3 C-0.67 2.01 -0.34 1.02 0 0 Z " fill="#CDCDCD" transform="translate(899,444)"/>
<path d="M0 0 C1.175625 0.0825 2.35125 0.165 3.5625 0.25 C4.2225 1.24 4.8825 2.23 5.5625 3.25 C2.80325815 5.05411967 1.67277897 5.2627245 -1.6875 4.875 C-2.595 4.66875 -3.5025 4.4625 -4.4375 4.25 C-4.4375 -0.02470715 -4.33214023 0.31506474 0 0 Z " fill="#FDEA86" transform="translate(803.4375,344.75)"/>
<path d="M0 0 C1.65 0 3.3 0 5 0 C5 0.99 5 1.98 5 3 C5.99 3 6.98 3 8 3 C8.33 2.01 8.66 1.02 9 0 C10.98 0 12.96 0 15 0 C14.67 1.32 14.34 2.64 14 4 C12.04174127 4.02694851 10.08337774 4.04637218 8.125 4.0625 C7.03445313 4.07410156 5.94390625 4.08570313 4.8203125 4.09765625 C2 4 2 4 0 3 C0 2.01 0 1.02 0 0 Z " fill="#848A94" transform="translate(865,320)"/>
<path d="M0 0 C0.33 0 0.66 0 1 0 C1 3.63 1 7.26 1 11 C-2.67735605 12.22578535 -3.55066523 11.46596728 -7 10 C-10.18490007 9.7226499 -10.18490007 9.7226499 -13 12 C-11.125 8.125 -11.125 8.125 -10 7 C-6.5625 6.8125 -6.5625 6.8125 -3 7 C-2.34 7.66 -1.68 8.32 -1 9 C-0.67 6.03 -0.34 3.06 0 0 Z " fill="#D9FAEF" transform="translate(310,134)"/>
<path d="M0 0 C4.95 0 9.9 0 15 0 C15 0.99 15 1.98 15 3 C13.25034642 3.05429959 11.50020213 3.09292823 9.75 3.125 C8.77546875 3.14820313 7.8009375 3.17140625 6.796875 3.1953125 C3.9803502 2.99862781 2.39050964 2.44568916 0 1 C0 0.67 0 0.34 0 0 Z " fill="#B4B9C0" transform="translate(743,487)"/>
<path d="M0 0 C1.2065625 0.0309375 1.2065625 0.0309375 2.4375 0.0625 C2.81968767 1.71864657 3.15145102 3.38707024 3.4375 5.0625 C2.4375 6.0625 2.4375 6.0625 -0.125 6.125 C-1.3315625 6.0940625 -1.3315625 6.0940625 -2.5625 6.0625 C-2.94468767 4.40635343 -3.27645102 2.73792976 -3.5625 1.0625 C-2.5625 0.0625 -2.5625 0.0625 0 0 Z " fill="#B0B9C7" transform="translate(867.5625,463.9375)"/>
<path d="M0 0 C1.2065625 0.0309375 1.2065625 0.0309375 2.4375 0.0625 C2.81968767 1.71864657 3.15145102 3.38707024 3.4375 5.0625 C2.4375 6.0625 2.4375 6.0625 -0.125 6.125 C-1.3315625 6.0940625 -1.3315625 6.0940625 -2.5625 6.0625 C-2.94468767 4.40635343 -3.27645102 2.73792976 -3.5625 1.0625 C-2.5625 0.0625 -2.5625 0.0625 0 0 Z " fill="#E663B8" transform="translate(867.5625,452.9375)"/>
<path d="M0 0 C12.5 0 12.5 0 17 1 C17 1.66 17 2.32 17 3 C11.39 3 5.78 3 0 3 C0 2.01 0 1.02 0 0 Z " fill="#ACB2BA" transform="translate(689,419)"/>
<path d="M0 0 C1.32 0 2.64 0 4 0 C3.67854004 0.54366211 3.35708008 1.08732422 3.02587891 1.64746094 C1.80794247 4.44042512 1.6830009 6.59930528 1.5859375 9.640625 C1.54726563 10.71054687 1.50859375 11.78046875 1.46875 12.8828125 C1.4378125 13.99398438 1.406875 15.10515625 1.375 16.25 C1.33632813 17.37664062 1.29765625 18.50328125 1.2578125 19.6640625 C1.16362664 22.44254548 1.07800414 25.22102334 1 28 C0.67 28 0.34 28 0 28 C0 18.76 0 9.52 0 0 Z " fill="#DBDDDF" transform="translate(835,330)"/>
<path d="M0 0 C2.875 -0.125 2.875 -0.125 6 0 C6.66 0.66 7.32 1.32 8 2 C7 5 7 5 6 6 C4.00041636 6.04080783 1.99954746 6.04254356 0 6 C0 4.02 0 2.04 0 0 Z " fill="#B0B0B0" transform="translate(805,454)"/>
<path d="M0 0 C4.29 0.33 8.58 0.66 13 1 C12.01 2.485 12.01 2.485 11 4 C7.9609375 4.29296875 7.9609375 4.29296875 4.375 4.1875 C3.18648437 4.16042969 1.99796875 4.13335937 0.7734375 4.10546875 C-0.59941406 4.05326172 -0.59941406 4.05326172 -2 4 C-1.34 2.68 -0.68 1.36 0 0 Z " fill="#B2EAEF" transform="translate(875,352)"/>
<path d="M0 0 C2.625 0.375 2.625 0.375 5 1 C4.67 2.98 4.34 4.96 4 7 C2.35 6.67 0.7 6.34 -1 6 C-1.625 4.125 -1.625 4.125 -2 2 C-1.34 1.34 -0.68 0.68 0 0 Z " fill="#9B8054" transform="translate(673,485)"/>
<path d="M0 0 C0.33 1.32 0.66 2.64 1 4 C-2.96 4 -6.92 4 -11 4 C-11 3.01 -11 2.02 -11 1 C-10.28972656 1.01160156 -9.57945312 1.02320313 -8.84765625 1.03515625 C-7.92855469 1.04417969 -7.00945313 1.05320312 -6.0625 1.0625 C-4.68771484 1.07990234 -4.68771484 1.07990234 -3.28515625 1.09765625 C-1.03406673 1.25949049 -1.03406673 1.25949049 0 0 Z " fill="#CCCCCC" transform="translate(889,465)"/>
<path d="M0 0 C3.63 0 7.26 0 11 0 C10.67 0.99 10.34 1.98 10 3 C10 2.34 10 1.68 10 1 C9.34 1 8.68 1 8 1 C8 1.66 8 2.32 8 3 C5 5 5 5 2 5 C1.34 3.35 0.68 1.7 0 0 Z " fill="#B88F23" transform="translate(672,349)"/>
<path d="M0 0 C3 0.5 3 0.5 6 4.5 C2.04 4.5 -1.92 4.5 -6 4.5 C-3 0.5 -3 0.5 0 0 Z " fill="#F5E282" transform="translate(703,344.5)"/>
<path d="M0 0 C3 0.5 3 0.5 6 4.5 C2.04 4.5 -1.92 4.5 -6 4.5 C-3 0.5 -3 0.5 0 0 Z " fill="#F9E584" transform="translate(678,344.5)"/>
<path d="M0 0 C2.97 0 5.94 0 9 0 C9 1.98 9 3.96 9 6 C6.69 5.01 4.38 4.02 2 3 C1.67 3.66 1.34 4.32 1 5 C0.67 3.35 0.34 1.7 0 0 Z " fill="#8D8A6E" transform="translate(670,497)"/>
<path d="M0 0 C1.65 0 3.3 0 5 0 C5 2.97 5 5.94 5 9 C3.02 9 1.04 9 -1 9 C-0.67 8.34 -0.34 7.68 0 7 C0.66 7.33 1.32 7.66 2 8 C1.34 5.36 0.68 2.72 0 0 Z " fill="#4C3523" transform="translate(674,443)"/>
<path d="M0 0 C0.33 0 0.66 0 1 0 C1 2.64 1 5.28 1 8 C-1.97 8 -4.94 8 -8 8 C-8 7.01 -8 6.02 -8 5 C-7.34 5 -6.68 5 -6 5 C-6 5.66 -6 6.32 -6 7 C-4.68 6.34 -3.36 5.68 -2 5 C-2.99 5 -3.98 5 -5 5 C-4.67 4.01 -4.34 3.02 -4 2 C-2.68 2 -1.36 2 0 2 C0 1.34 0 0.68 0 0 Z " fill="#625E41" transform="translate(678,431)"/>
<path d="M0 0 C4.95 0 9.9 0 15 0 C14.67 0.99 14.34 1.98 14 3 C12.41705218 3.05437607 10.83355744 3.09296271 9.25 3.125 C8.36828125 3.14820313 7.4865625 3.17140625 6.578125 3.1953125 C3.8864142 2.99139502 2.30095026 2.36551721 0 1 C0 0.67 0 0.34 0 0 Z " fill="#B1B7BD" transform="translate(743,433)"/>
<path d="M0 0 C3.63 0.33 7.26 0.66 11 1 C10.67 1.99 10.34 2.98 10 4 C6.66666667 4 3.33333333 4 0 4 C0 2.68 0 1.36 0 0 Z " fill="#B6EBEF" transform="translate(862,352)"/>
<path d="M0 0 C0.66 0 1.32 0 2 0 C2.33 0.66 2.66 1.32 3 2 C3.99 1.34 4.98 0.68 6 0 C5.67 2.64 5.34 5.28 5 8 C3.68 8 2.36 8 1 8 C0.67 5.36 0.34 2.72 0 0 Z " fill="#F6FDFB" transform="translate(232,152)"/>
<path d="M0 0 C0 0.66 0 1.32 0 2 C-5.61 2 -11.22 2 -17 2 C-16.67 1.34 -16.34 0.68 -16 0 C-10.376618 -1.22247435 -5.65809942 -0.85405274 0 0 Z " fill="#AAB0B8" transform="translate(706,474)"/>
<path d="M0 0 C3.375 0.25 3.375 0.25 7 1 C7.66 2.32 8.32 3.64 9 5 C6.03 5 3.06 5 0 5 C0 3.35 0 1.7 0 0 Z " fill="#A4A9B0" transform="translate(926,443)"/>
<path d="M0 0 C0 0.66 0 1.32 0 2 C-5.61 2 -11.22 2 -17 2 C-16.67 1.34 -16.34 0.68 -16 0 C-10.376618 -1.22247435 -5.65809942 -0.85405274 0 0 Z " fill="#A9AFB7" transform="translate(706,501)"/>
<path d="M0 0 C1.95825873 -0.02694851 3.91662226 -0.04637218 5.875 -0.0625 C6.96554687 -0.07410156 8.05609375 -0.08570313 9.1796875 -0.09765625 C12 0 12 0 14 1 C14 2.32 14 3.64 14 5 C12.35 5 10.7 5 9 5 C9.33 3.68 9.66 2.36 10 1 C7.03 1 4.06 1 1 1 C0.67 1.99 0.34 2.98 0 4 C0 2.68 0 1.36 0 0 Z " fill="#9D9FA2" transform="translate(660,392)"/>
<path d="M0 0 C0.99 0 1.98 0 3 0 C3.33 0.66 3.66 1.32 4 2 C4.99 2 5.98 2 7 2 C7 3.65 7 5.3 7 7 C4.69 6.67 2.38 6.34 0 6 C0 4.02 0 2.04 0 0 Z " fill="#A7ACB1" transform="translate(646,307)"/>
<path d="M0 0 C0.99 0.495 0.99 0.495 2 1 C2.721875 0.855625 3.44375 0.71125 4.1875 0.5625 C8.13605712 -0.22721142 12.3159033 -0.84204835 16 1 C15.67 1.66 15.34 2.32 15 3 C11.18015204 3.77811718 8.73159669 4.24386556 5 3 C3.33378384 2.96125079 1.66605828 2.9549714 0 3 C0 2.01 0 1.02 0 0 Z " fill="#868C95" transform="translate(686,309)"/>
<path d="M0 0 C2.97 0 5.94 0 9 0 C9 1.65 9 3.3 9 5 C4.125 3.125 4.125 3.125 3 2 C2.01 3.485 2.01 3.485 1 5 C0.67 3.35 0.34 1.7 0 0 Z " fill="#908B73" transform="translate(670,470)"/>
<path d="M0 0 C4.95 0 9.9 0 15 0 C14.67 0.99 14.34 1.98 14 3 C12.41705218 3.05437607 10.83355744 3.09296271 9.25 3.125 C8.36828125 3.14820313 7.4865625 3.17140625 6.578125 3.1953125 C3.8864142 2.99139502 2.30095026 2.36551721 0 1 C0 0.67 0 0.34 0 0 Z " fill="#AFB4BB" transform="translate(743,460)"/>
<path d="M0 0 C0.33 0.99 0.66 1.98 1 3 C-1.55068845 5.35448165 -2.71017358 5.98327924 -6.25 6.1875 C-7.1575 6.125625 -8.065 6.06375 -9 6 C-9.33 5.01 -9.66 4.02 -10 3 C-8.68 3.33 -7.36 3.66 -6 4 C-6 3.34 -6 2.68 -6 2 C-4.02 1.34 -2.04 0.68 0 0 Z " fill="#BF8547" transform="translate(784,352)"/>
<path d="M0 0 C2.97 0 5.94 0 9 0 C8.67 0.99 8.34 1.98 8 3 C7.071875 2.9175 6.14375 2.835 5.1875 2.75 C1.90894778 2.64696955 1.90894778 2.64696955 0.125 5 C-0.24625 5.66 -0.6175 6.32 -1 7 C-0.67 4.69 -0.34 2.38 0 0 Z " fill="#D1D4D8" transform="translate(661,393)"/>
<path d="M0 0 C1.98 0.66 3.96 1.32 6 2 C6 2.66 6 3.32 6 4 C5.01 4.33 4.02 4.66 3 5 C3.33 5.66 3.66 6.32 4 7 C2.02 7 0.04 7 -2 7 C-1.34 6.67 -0.68 6.34 0 6 C-0.2784375 5.071875 -0.2784375 5.071875 -0.5625 4.125 C-1 2 -1 2 0 0 Z " fill="#DAB956" transform="translate(752,347)"/>
<path d="M0 0 C1.32 0 2.64 0 4 0 C4.33 1.65 4.66 3.3 5 5 C3.35 5.33 1.7 5.66 0 6 C-1.125 2.25 -1.125 2.25 0 0 Z " fill="#A4A9AF" transform="translate(629,307)"/>
<path d="M0 0 C2.64 0 5.28 0 8 0 C8 1.32 8 2.64 8 4 C5.36 4 2.72 4 0 4 C0 2.68 0 1.36 0 0 Z " fill="#969CA4" transform="translate(921,352)"/>
<path d="M0 0 C3.63 0 7.26 0 11 0 C11 0.99 11 1.98 11 3 C7.7 3 4.4 3 1 3 C0.67 2.01 0.34 1.02 0 0 Z " fill="#454235" transform="translate(697,349)"/>
<path d="M0 0 C2.97 0 5.94 0 9 0 C9 1.32 9 2.64 9 4 C7.35 4 5.7 4 4 4 C3.67 3.01 3.34 2.02 3 1 C3 1.99 3 2.98 3 4 C2.01 3.67 1.02 3.34 0 3 C0 2.01 0 1.02 0 0 Z " fill="#8B919A" transform="translate(920,337)"/>
<path d="M0 0 C2.475 0.495 2.475 0.495 5 1 C5 1.99 5 2.98 5 4 C4.01 4 3.02 4 2 4 C2 5.32 2 6.64 2 8 C1.34 8 0.68 8 0 8 C0 5.36 0 2.72 0 0 Z " fill="#BD8A50" transform="translate(670,443)"/>
<path d="M0 0 C1.66611905 -0.042721 3.33382885 -0.04063832 5 0 C6 1 6 1 6.0625 4.0625 C6.041875 5.031875 6.02125 6.00125 6 7 C5.01 7.33 4.02 7.66 3 8 C3 6.02 3 4.04 3 2 C2.01 2 1.02 2 0 2 C0 1.34 0 0.68 0 0 Z " fill="#483118" transform="translate(852,394)"/>
<path d="M0 0 C4.75 -0.125 4.75 -0.125 7 1 C7 1.99 7 2.98 7 4 C4.39417629 4.93065133 3.35801776 5.14917407 0.75 4.0625 C0.1725 3.711875 -0.405 3.36125 -1 3 C-0.67 2.01 -0.34 1.02 0 0 Z " fill="#B5EBEF" transform="translate(862,367)"/>
<path d="M0 0 C2.31 0 4.62 0 7 0 C7 1.32 7 2.64 7 4 C4.36 4 1.72 4 -1 4 C-0.67 2.68 -0.34 1.36 0 0 Z " fill="#777777" transform="translate(725,365)"/>
<path d="M0 0 C-0.99 0 -1.98 0 -3 0 C-3 0.66 -3 1.32 -3 2 C-2.01 2.33 -1.02 2.66 0 3 C-2.31 3.33 -4.62 3.66 -7 4 C-7.33 3.34 -7.66 2.68 -8 2 C-7.34 2 -6.68 2 -6 2 C-6 1.34 -6 0.68 -6 0 C-6.99 -0.33 -7.98 -0.66 -9 -1 C-3.375 -2.25 -3.375 -2.25 0 0 Z " fill="#FBD235" transform="translate(808,351)"/>
<path d="M0 0 C0.99 0 1.98 0 3 0 C3 2.64 3 5.28 3 8 C1.02 8.99 -0.96 9.98 -3 11 C-2.67 10.01 -2.34 9.02 -2 8 C-1.34 8 -0.68 8 0 8 C0 5.36 0 2.72 0 0 Z " fill="#C7D3D8" transform="translate(1005,522)"/>
<path d="M0 0 C0.99 0.33 1.98 0.66 3 1 C4.32 1 5.64 1 7 1 C6.34 2.32 5.68 3.64 5 5 C3.35 5 1.7 5 0 5 C-0.33 4.01 -0.66 3.02 -1 2 C-0.67 1.34 -0.34 0.68 0 0 Z " fill="#695F59" transform="translate(851,368)"/>
<path d="M0 0 C2.31 0 4.62 0 7 0 C7 1.32 7 2.64 7 4 C4.36 4 1.72 4 -1 4 C-0.67 2.68 -0.34 1.36 0 0 Z " fill="#6A6A6A" transform="translate(700,365)"/>
<path d="M0 0 C1.65 1.65 3.3 3.3 5 5 C5.33 4.34 5.66 3.68 6 3 C6.99 3.33 7.98 3.66 9 4 C8.67 4.99 8.34 5.98 8 7 C5.6875 7.6875 5.6875 7.6875 3 8 C1.1875 6.875 1.1875 6.875 0 5 C-0.1875 2.3125 -0.1875 2.3125 0 0 Z " fill="#EAB142" transform="translate(671,349)"/>
<path d="M0 0 C1.98 0 3.96 0 6 0 C6.33 0.99 6.66 1.98 7 3 C6.34 3 5.68 3 5 3 C5 3.66 5 4.32 5 5 C4.01 5 3.02 5 2 5 C2 4.34 2 3.68 2 3 C1.01 3.33 0.02 3.66 -1 4 C-0.67 2.68 -0.34 1.36 0 0 Z " fill="#FAE78C" transform="translate(775,345)"/>
<path d="M0 0 C2.31 0 4.62 0 7 0 C7 1.32 7 2.64 7 4 C4.69 4 2.38 4 0 4 C0 2.68 0 1.36 0 0 Z " fill="#797979" transform="translate(750,365)"/>
<path d="M0 0 C0.33 0 0.66 0 1 0 C0.75 3.375 0.75 3.375 0 7 C-2.0625 8.4375 -2.0625 8.4375 -4 9 C-4 7.68 -4 6.36 -4 5 C-4.33 4.34 -4.66 3.68 -5 3 C-3.68 3 -2.36 3 -1 3 C-0.67 2.01 -0.34 1.02 0 0 Z " fill="#CF9337" transform="translate(759,348)"/>
<path d="M0 0 C0.99 0 1.98 0 3 0 C3 0.66 3 1.32 3 2 C2.01 2.495 2.01 2.495 1 3 C1 3.66 1 4.32 1 5 C1.66 5.33 2.32 5.66 3 6 C1 8 1 8 -1.625 8.125 C-2.40875 8.08375 -3.1925 8.0425 -4 8 C-3.01 7.67 -2.02 7.34 -1 7 C-1 6.01 -1 5.02 -1 4 C-1.66 3.67 -2.32 3.34 -3 3 C-2.34 3 -1.68 3 -1 3 C-0.67 2.01 -0.34 1.02 0 0 Z " fill="#786221" transform="translate(730,347)"/>
<path d="M0 0 C0.66 0.33 1.32 0.66 2 1 C1.67 3.31 1.34 5.62 1 8 C0.01 8 -0.98 8 -2 8 C-2.6875 5.6875 -2.6875 5.6875 -3 3 C-1.5625 1.1875 -1.5625 1.1875 0 0 Z " fill="#E0A22D" transform="translate(808,348)"/>
<path d="M0 0 C3.96 0.33 7.92 0.66 12 1 C11.67 1.66 11.34 2.32 11 3 C7.04 3 3.08 3 -1 3 C-0.67 2.01 -0.34 1.02 0 0 Z " fill="#6F7782" transform="translate(635,327)"/>
<path d="M0 0 C2.64 0.33 5.28 0.66 8 1 C8 1.66 8 2.32 8 3 C2.375 4.125 2.375 4.125 -1 3 C-0.67 2.01 -0.34 1.02 0 0 Z " fill="#AEE9EE" transform="translate(862,397)"/>
<path d="M0 0 C4.54805635 -0.17835515 7.8794254 0.00214565 12 2 C12 2.33 12 2.66 12 3 C8.04 3 4.08 3 0 3 C0 2.01 0 1.02 0 0 Z " fill="#8E9092" transform="translate(675,394)"/>
<path d="M0 0 C0.99 0.33 1.98 0.66 3 1 C1.69254251 2.68704193 0.35827971 4.35360035 -1 6 C-1.33 6 -1.66 6 -2 6 C-2.33 7.98 -2.66 9.96 -3 12 C-3.33 12 -3.66 12 -4 12 C-4.33292585 7.75519536 -4.43885872 5.64457375 -2 2.0625 C-1.34 1.381875 -0.68 0.70125 0 0 Z " fill="#D6F9EE" transform="translate(321,142)"/>
<path d="M0 0 C1.98 0.495 1.98 0.495 4 1 C4 2.32 4 3.64 4 5 C2.35 4.67 0.7 4.34 -1 4 C-0.67 2.68 -0.34 1.36 0 0 Z " fill="#505967" transform="translate(639,504)"/>
<path d="M0 0 C0.66 0 1.32 0 2 0 C2.66 1.32 3.32 2.64 4 4 C4.33 3.34 4.66 2.68 5 2 C5 2.99 5 3.98 5 5 C2.03 5 -0.94 5 -4 5 C-1.125 1.125 -1.125 1.125 0 0 Z " fill="#867972" transform="translate(674,502)"/>
<path d="M0 0 C2.97 0 5.94 0 9 0 C8.34 1.32 7.68 2.64 7 4 C6.67 3.67 6.34 3.34 6 3 C4.65938457 3.30271961 3.32594105 3.63837971 2 4 C1.34 4 0.68 4 0 4 C0 2.68 0 1.36 0 0 Z " fill="#878D96" transform="translate(769,407)"/>
<path d="M0 0 C-0.33 1.32 -0.66 2.64 -1 4 C-3.97 3.505 -3.97 3.505 -7 3 C-6.67 2.01 -6.34 1.02 -6 0 C-3 -1 -3 -1 0 0 Z " fill="#949AA2" transform="translate(930,397)"/>
<path d="M0 0 C2.66666667 0 5.33333333 0 8 0 C8 1.32 8 2.64 8 4 C5.36 4 2.72 4 0 4 C0 2.68 0 1.36 0 0 Z " fill="#555555" transform="translate(800,365)"/>
<path d="M0 0 C2.66666667 0 5.33333333 0 8 0 C8 1.32 8 2.64 8 4 C5.36 4 2.72 4 0 4 C0 2.68 0 1.36 0 0 Z " fill="#666666" transform="translate(775,365)"/>
<path d="M0 0 C1.98 0.495 1.98 0.495 4 1 C4 2.32 4 3.64 4 5 C2.35 5 0.7 5 -1 5 C-0.67 3.35 -0.34 1.7 0 0 Z " fill="#505966" transform="translate(640,351)"/>
<path d="M0 0 C3.0625 0.1875 3.0625 0.1875 5.0625 2.1875 C4.0725 2.5175 3.0825 2.8475 2.0625 3.1875 C1.7325 3.8475 1.4025 4.5075 1.0625 5.1875 C0.4025 5.1875 -0.2575 5.1875 -0.9375 5.1875 C-2.5625 3.1875 -2.5625 3.1875 -3.9375 1.1875 C-2.9375 0.1875 -2.9375 0.1875 0 0 Z " fill="#F7E999" transform="translate(727.9375,344.8125)"/>
<path d="M0 0 C2.97 0 5.94 0 9 0 C6.09498861 2.90501139 5.6574987 3.29209703 2 4 C1.01 4.495 1.01 4.495 0 5 C0 3.35 0 1.7 0 0 Z " fill="#45E6A4" transform="translate(1,0)"/>
<path d="M0 0 C0.66 0 1.32 0 2 0 C2.33 0.99 2.66 1.98 3 3 C3.66 3.66 4.32 4.32 5 5 C2.03 5 -0.94 5 -4 5 C-1.125 1.125 -1.125 1.125 0 0 Z " fill="#8C817A" transform="translate(674,475)"/>
<path d="M0 0 C1.67542976 0.28604898 3.34385343 0.61781233 5 1 C4.67 2.32 4.34 3.64 4 5 C2.68 5 1.36 5 0 5 C-0.5625 3.0625 -0.5625 3.0625 -1 1 C-0.67 0.67 -0.34 0.34 0 0 Z " fill="#979CA4" transform="translate(930,454)"/>
<path d="M0 0 C0.66 0 1.32 0 2 0 C2 0.66 2 1.32 2 2 C2.66 2 3.32 2 4 2 C4.33 1.34 4.66 0.68 5 0 C5.99 0 6.98 0 8 0 C8 1.32 8 2.64 8 4 C5.36 4 2.72 4 0 4 C0 2.68 0 1.36 0 0 Z " fill="#555555" transform="translate(674,365)"/>
<path d="M0 0 C1.32 0.33 2.64 0.66 4 1 C3.67 3.31 3.34 5.62 3 8 C0.4345406 5.4345406 0.45953913 3.52313332 0 0 Z " fill="#BA8B61" transform="translate(852,350)"/>
<path d="M0 0 C1.65 0 3.3 0 5 0 C5 0.99 5 1.98 5 3 C4.01 3.66 3.02 4.32 2 5 C1.34 4.67 0.68 4.34 0 4 C0 2.68 0 1.36 0 0 Z " fill="#DEDEDE" transform="translate(671,402)"/>
<path d="M0 0 C2.64 0 5.28 0 8 0 C7.67 0.99 7.34 1.98 7 3 C4.36 3 1.72 3 -1 3 C-0.67 2.01 -0.34 1.02 0 0 Z " fill="#A8E7ED" transform="translate(886,368)"/>
<path d="M0 0 C0.66 0.99 1.32 1.98 2 3 C1.67 3.33 1.34 3.66 1 4 C-1.33944736 3.71269945 -3.6739143 3.38063221 -6 3 C-6 2.34 -6 1.68 -6 1 C-4.02 0.67 -2.04 0.34 0 0 Z " fill="#DA9223" transform="translate(805,354)"/>
<path d="M0 0 C1.67542976 0.28604898 3.34385343 0.61781233 5 1 C4.34 2.32 3.68 3.64 3 5 C2.01 5 1.02 5 0 5 C-0.5625 3.0625 -0.5625 3.0625 -1 1 C-0.67 0.67 -0.34 0.34 0 0 Z " fill="#535C6A" transform="translate(639,322)"/>
<path d="M0 0 C1.65 0 3.3 0 5 0 C5 1.32 5 2.64 5 4 C3.35 4 1.7 4 0 4 C0 2.68 0 1.36 0 0 Z " fill="#A9ADB4" transform="translate(927,466)"/>
<path d="M0 0 C2.64 0 5.28 0 8 0 C7.67 0.99 7.34 1.98 7 3 C5.02 3 3.04 3 1 3 C0.67 2.01 0.34 1.02 0 0 Z " fill="#B7BCC3" transform="translate(698,460)"/>
<path d="M0 0 C2.64 0 5.28 0 8 0 C7.67 0.99 7.34 1.98 7 3 C5.02 3 3.04 3 1 3 C0.67 2.01 0.34 1.02 0 0 Z " fill="#B7BCC4" transform="translate(698,433)"/>
<path d="M0 0 C2.64 0 5.28 0 8 0 C8 0.66 8 1.32 8 2 C5.36 2.33 2.72 2.66 0 3 C0 2.01 0 1.02 0 0 Z " fill="#BEC3CA" transform="translate(689,433)"/>
<path d="M0 0 C1.98 0 3.96 0 6 0 C6.33 0.99 6.66 1.98 7 3 C3.88742431 3 1.89234315 2.82638376 -1 2 C-0.67 1.34 -0.34 0.68 0 0 Z " fill="#A7E7ED" transform="translate(876,383)"/>
<path d="M0 0 C0.66 0.66 1.32 1.32 2 2 C1.625 4.625 1.625 4.625 1 7 C0.01 6.67 -0.98 6.34 -2 6 C-2 5.34 -2 4.68 -2 4 C-2.33 3.01 -2.66 2.02 -3 1 C-2.01 0.67 -1.02 0.34 0 0 Z " fill="#DFAA38" transform="translate(733,348)"/>
<path d="M0 0 C0.33 0.66 0.66 1.32 1 2 C1.99 2 2.98 2 4 2 C4 2.66 4 3.32 4 4 C5.32 4.33 6.64 4.66 8 5 C5.6739143 5.38063221 3.33944736 5.71269945 1 6 C0 5 0 5 -0.0625 2.4375 C-0.041875 1.633125 -0.02125 0.82875 0 0 Z " fill="#D18F19" transform="translate(697,350)"/>
<path d="M0 0 C1.32 0 2.64 0 4 0 C4.33 1.32 4.66 2.64 5 4 C3.02 4 1.04 4 -1 4 C-0.67 2.68 -0.34 1.36 0 0 Z " fill="#A3A8AF" transform="translate(861,320)"/>
<path d="M0 0 C1.4540625 0.0309375 1.4540625 0.0309375 2.9375 0.0625 C0.59111044 2.77937212 -1.63426596 4.00765876 -5.0625 5.0625 C-5.7225 4.7325 -6.3825 4.4025 -7.0625 4.0625 C-6.7325 3.0725 -6.4025 2.0825 -6.0625 1.0625 C-5.4025 1.0625 -4.7425 1.0625 -4.0625 1.0625 C-3.0625 0.0625 -3.0625 0.0625 0 0 Z " fill="#D4FAEE" transform="translate(389.0625,140.9375)"/>
<path d="M0 0 C0.66 0 1.32 0 2 0 C2 1.98 2 3.96 2 6 C0.68 5.67 -0.64 5.34 -2 5 C-1.125 1.125 -1.125 1.125 0 0 Z " fill="#ABABAB" transform="translate(802,454)"/>
<path d="M0 0 C2.97 0.33 5.94 0.66 9 1 C8.67 1.66 8.34 2.32 8 3 C5.36 3 2.72 3 0 3 C0 2.01 0 1.02 0 0 Z " fill="#A7ADB5" transform="translate(743,446)"/>
<path d="M0 0 C2.31 0.33 4.62 0.66 7 1 C6.67 1.99 6.34 2.98 6 4 C5.01 3.67 4.02 3.34 3 3 C2.34 3.66 1.68 4.32 1 5 C0.67 3.35 0.34 1.7 0 0 Z " fill="#8E8974" transform="translate(670,429)"/>
<path d="M0 0 C1.98 0 3.96 0 6 0 C6 1.32 6 2.64 6 4 C4.02 4 2.04 4 0 4 C0 2.68 0 1.36 0 0 Z " fill="#767D87" transform="translate(788,407)"/>
<path d="M0 0 C0.99 0 1.98 0 3 0 C3.33 2.31 3.66 4.62 4 7 C2.68 6.67 1.36 6.34 0 6 C0 4.02 0 2.04 0 0 Z " fill="#965B27" transform="translate(852,396)"/>
<path d="M0 0 C0.99 0 1.98 0 3 0 C3.22036864 3.85645121 2.60355101 6.49223216 1 10 C0.67 10 0.34 10 0 10 C0 6.7 0 3.4 0 0 Z " fill="#B28872" transform="translate(772,345)"/>
<path d="M0 0 C2.97 0 5.94 0 9 0 C8 2 8 2 6.1875 2.6875 C3.81180233 3.02688538 2.26664171 2.72856341 0 2 C0 1.34 0 0.68 0 0 Z " fill="#A5ABB3" transform="translate(743,474)"/>
<path d="M0 0 C0.99 0 1.98 0 3 0 C3 1.65 3 3.3 3 5 C1.68 4.67 0.36 4.34 -1 4 C-0.67 2.68 -0.34 1.36 0 0 Z " fill="#C5CAD0" transform="translate(684,472)"/>
<path d="M0 0 C0.33 0 0.66 0 1 0 C1 2.31 1 4.62 1 7 C-0.32 6.67 -1.64 6.34 -3 6 C-2.67 4.68 -2.34 3.36 -2 2 C-1.34 2 -0.68 2 0 2 C0 1.34 0 0.68 0 0 Z " fill="#825538" transform="translate(678,459)"/>
<path d="M0 0 C2.31 0 4.62 0 7 0 C7 0.66 7 1.32 7 2 C4.36 2.33 1.72 2.66 -1 3 C-0.67 2.01 -0.34 1.02 0 0 Z " fill="#B9BEC5" transform="translate(690,460)"/>
<path d="M0 0 C0.99 0 1.98 0 3 0 C3 1.65 3 3.3 3 5 C1.68 4.67 0.36 4.34 -1 4 C-0.67 2.68 -0.34 1.36 0 0 Z " fill="#C7CBD1" transform="translate(684,445)"/>
<path d="M0 0 C0.99 0 1.98 0 3 0 C3 1.65 3 3.3 3 5 C1.68 4.67 0.36 4.34 -1 4 C-0.67 2.68 -0.34 1.36 0 0 Z " fill="#C8CCD2" transform="translate(684,418)"/>
<path d="M0 0 C2.97 0.495 2.97 0.495 6 1 C5.67 1.66 5.34 2.32 5 3 C2.4375 3.625 2.4375 3.625 0 4 C0 2.68 0 1.36 0 0 Z " fill="#AAE8ED" transform="translate(862,382)"/>
<path d="M0 0 C2.31 0 4.62 0 7 0 C5.8125 1.5625 5.8125 1.5625 4 3 C1.3125 2.6875 1.3125 2.6875 -1 2 C-0.67 1.34 -0.34 0.68 0 0 Z " fill="#DB8E1A" transform="translate(726,355)"/>
<path d="M0 0 C1.98 0.495 1.98 0.495 4 1 C3.34 2.32 2.68 3.64 2 5 C1.01 4.67 0.02 4.34 -1 4 C-0.67 2.68 -0.34 1.36 0 0 Z " fill="#BCEDF1" transform="translate(862,337)"/>
<path d="M0 0 C1.32 0 2.64 0 4 0 C3.01 2.97 2.02 5.94 1 9 C0.67 9 0.34 9 0 9 C0 6.03 0 3.06 0 0 Z " fill="#C7C9CB" transform="translate(835,330)"/>
<path d="M0 0 C0 3 0 3 -1.3125 4.38671875 C-2.875 5.59114583 -4.4375 6.79557292 -6 8 C-4.73058503 4.08597051 -3.48832306 2.20927127 0 0 Z " fill="#DCEDF7" transform="translate(617,289)"/>
<path d="M0 0 C2.31 0 4.62 0 7 0 C6.67 0.66 6.34 1.32 6 2 C3.67843403 2.40729228 1.3431213 2.74438677 -1 3 C-0.67 2.01 -0.34 1.02 0 0 Z " fill="#B7BCC3" transform="translate(690,487)"/>
<path d="M0 0 C1.98 0 3.96 0 6 0 C6 0.99 6 1.98 6 3 C4.02 3 2.04 3 0 3 C0 2.01 0 1.02 0 0 Z " fill="#CCCCCC" transform="translate(884,444)"/>
<path d="M0 0 C2.64 0.33 5.28 0.66 8 1 C6 3 6 3 2.375 3.125 C1.26125 3.08375 0.1475 3.0425 -1 3 C-0.67 2.01 -0.34 1.02 0 0 Z " fill="#A4AAB2" transform="translate(744,419)"/>
<path d="M0 0 C0.99 0 1.98 0 3 0 C2.67 1.65 2.34 3.3 2 5 C1.01 4.67 0.02 4.34 -1 4 C-0.67 2.68 -0.34 1.36 0 0 Z " fill="#868D96" transform="translate(765,406)"/>
<path d="M0 0 C3.3 0 6.6 0 10 0 C9.67 0.99 9.34 1.98 9 3 C9 2.34 9 1.68 9 1 C8.34 1 7.68 1 7 1 C7 1.66 7 2.32 7 3 C4.69 2.34 2.38 1.68 0 1 C0 0.67 0 0.34 0 0 Z " fill="#736328" transform="translate(673,349)"/>
<path d="M0 0 C0.99 0.33 1.98 0.66 3 1 C3.33 1.99 3.66 2.98 4 4 C2.35 4.33 0.7 4.66 -1 5 C-0.67 3.35 -0.34 1.7 0 0 Z " fill="#515A67" transform="translate(640,336)"/>
</svg>
