<?xml version="1.0" encoding="UTF-8"?>
<svg version="1.1" xmlns="http://www.w3.org/2000/svg" width="200" height="200">
<path d="M0 0 C0.69988037 0.00209473 1.39976074 0.00418945 2.12084961 0.00634766 C20.54980435 0.11973077 35.40894815 4.41392246 51.375 13.5 C52.85033203 14.31597656 52.85033203 14.31597656 54.35546875 15.1484375 C76.76189854 28.40476681 91.5172114 50.78006435 98.375 75.5 C98.55973877 76.12890137 98.74447754 76.75780273 98.93481445 77.40576172 C100.87263004 84.7876686 100.8169 92.28675204 100.8125 99.875 C100.81290283 100.58487061 100.81330566 101.29474121 100.8137207 102.02612305 C100.75314271 120.56925475 96.51912175 135.43195289 87.375 151.5 C86.83101562 152.48355469 86.28703125 153.46710938 85.7265625 154.48046875 C72.47023319 176.88689854 50.09493565 191.6422114 25.375 198.5 C24.74609863 198.68473877 24.11719727 198.86947754 23.46923828 199.05981445 C16.0873314 200.99763004 8.58824796 200.9419 1 200.9375 C-0.06480591 200.93810425 -0.06480591 200.93810425 -1.15112305 200.9387207 C-19.69425475 200.87814271 -34.55695289 196.64412175 -50.625 187.5 C-51.60855469 186.95601562 -52.59210937 186.41203125 -53.60546875 185.8515625 C-76.01189854 172.59523319 -90.7672114 150.21993565 -97.625 125.5 C-97.80973877 124.87109863 -97.99447754 124.24219727 -98.18481445 123.59423828 C-100.12263004 116.2123314 -100.0669 108.71324796 -100.0625 101.125 C-100.06290283 100.41512939 -100.06330566 99.70525879 -100.0637207 98.97387695 C-99.99132333 76.81279179 -93.58688337 58.7854549 -80.77734375 40.734375 C-79.44859013 38.59422727 -79.44859013 38.59422727 -79.671875 36.30859375 C-80.49239619 34.33771988 -80.49239619 34.33771988 -82.55078125 33.48828125 C-83.73220703 33.15376953 -83.73220703 33.15376953 -84.9375 32.8125 C-85.71738281 32.58175781 -86.49726562 32.35101563 -87.30078125 32.11328125 C-89.40493672 31.55806712 -91.51127768 31.01754757 -93.625 30.5 C-91.64971431 26.23430974 -88.90170515 23.18891089 -85.75 19.75 C-85.22019531 19.14800781 -84.69039062 18.54601562 -84.14453125 17.92578125 C-82.72213378 16.36926194 -81.17846804 14.92572928 -79.625 13.5 C-78.305 13.5 -76.985 13.5 -75.625 13.5 C-74.42574833 15.02337374 -73.22868206 16.5488207 -72.0625 18.09765625 C-69.63481798 20.46596561 -66.87381236 20.37259559 -63.625 20.5 C-63.625 18.19 -63.625 15.88 -63.625 13.5 C-62.92632812 13.52320313 -62.22765625 13.54640625 -61.5078125 13.5703125 C-60.59773438 13.58835937 -59.68765625 13.60640625 -58.75 13.625 C-57.84507813 13.64820313 -56.94015625 13.67140625 -56.0078125 13.6953125 C-53.43693006 13.74324836 -53.43693006 13.74324836 -51.625 11.5 C-50.7175 11.355625 -49.81 11.21125 -48.875 11.0625 C-45.28560035 10.44125775 -42.75337737 9.34858663 -39.625 7.5 C-38.965 6.51 -38.305 5.52 -37.625 4.5 C-35.53735086 4.22620995 -33.44541607 3.97209537 -31.34594727 3.8125 C-28.38034663 3.47190163 -25.66084926 2.76899642 -22.77734375 2 C-15.17859901 0.21470438 -7.77673813 -0.0536263 0 0 Z " fill="#393A59" transform="translate(99.625,-0.5)"/>
<path d="M0 0 C4.40770651 2.1637832 7.48564686 4.77947866 10 9 C10.90454423 12.63873475 11.50554107 16.285052 12 20 C12.66 20 13.32 20 14 20 C14.08636719 19.27554688 14.17273438 18.55109375 14.26171875 17.8046875 C15.4155731 9.86532272 17.11537747 6.42760811 23.125 1.125 C28.56531987 -1.00382082 34.13512467 -1.18681482 39.57421875 1.06640625 C44.95240655 4.3288772 48.33879774 7.8901544 50 14 C50.5610261 17.81252044 50.99572632 21.57318162 51.3125 25.4140625 C52.09149702 29.47724012 53.44760605 31.77592343 56 35 C58.10039331 36.38868516 58.10039331 36.38868516 60 37 C59.835 36.278125 59.67 35.55625 59.5 34.8125 C60 32 60 32 61.7109375 30.5546875 C67.3375 27 67.3375 27 70 27 C70.1485957 32.32010722 70.25733006 37.63900079 70.32958984 42.96069336 C70.35971777 44.76982672 70.40062963 46.57881454 70.45263672 48.38745117 C70.52563407 50.99173897 70.55949398 53.59409277 70.5859375 56.19921875 C70.61690521 57.00461594 70.64787292 57.81001312 70.67977905 58.63981628 C70.68302354 64.08381683 70.68302354 64.08381683 68.76495361 66.65664673 C65.6897183 69.41838249 64.18096417 70 60 70 C60 70.66 60 71.32 60 72 C60.70125 72 61.4025 72 62.125 72 C66.55436977 73.54065035 68.67598167 77.03593077 71 81 C72.45061421 85.55404947 73.21145955 90.38726695 71.15234375 94.828125 C68.0161409 99.08645547 64.32166483 100.90659294 59.5625 103.0625 C50.44749232 107.20258304 43.96216203 113.96130914 37 121 C35.9640344 122.03564937 34.92760564 123.07083573 33.890625 124.10546875 C32.06674928 125.92903617 30.25044377 127.75922357 28.4375 129.59375 C25.61454893 132.38050939 22.67513959 134.98707275 19.66015625 137.5625 C17.6745442 139.28180643 15.81857601 141.10564999 14 143 C10.06785699 141.41060574 7.66979654 138.83657498 4.75 135.8125 C1.63934022 132.62780138 -1.47130814 129.50003334 -4.875 126.625 C-7.36792039 124.51364906 -9.695055 122.31435662 -11.9609375 119.96484375 C-19.67091773 111.97120321 -27.43507554 104.42607697 -38 100.3125 C-42.09696117 98.52007949 -44.03048391 95.93903218 -46 92 C-46.52938489 85.25034265 -44.7836759 80.73496972 -41.125 75.125 C-38.72025133 72.72025133 -37.3404486 72.27837072 -34 72 C-34 71.34 -34 70.68 -34 70 C-34.721875 70.103125 -35.44375 70.20625 -36.1875 70.3125 C-39 70 -39 70 -41.64526367 68.03051758 C-44.80887705 63.95898488 -44.64866809 61.20475915 -44.48828125 56.19921875 C-44.48120651 55.36284378 -44.47413177 54.52646881 -44.46684265 53.66474915 C-44.43894985 51.00473948 -44.37622481 48.34686861 -44.3125 45.6875 C-44.28741034 43.87958779 -44.26459833 42.07164243 -44.24414062 40.26367188 C-44.18914042 35.84162927 -44.10290643 31.42117669 -44 27 C-36.97169811 29.77122642 -36.97169811 29.77122642 -34 32 C-33.1875 34.6875 -33.1875 34.6875 -33 37 C-28.86048313 34.09115031 -26.68359465 31.79824475 -25 27 C-24.81464342 24.87808216 -24.67315951 22.75212173 -24.5625 20.625 C-24.1313657 13.73469007 -23.16642949 9.06110127 -18.12109375 4.18359375 C-12.41213736 -0.21812397 -7.08133146 -1.28651519 0 0 Z " fill="#EAEAEA" transform="translate(87,32)"/>
<path d="M0 0 C5.54603965 3.7569946 9.38163185 7.34629976 13 13 C9.44460819 21.10847009 1.34559422 26.69095199 -5.4375 32.0625 C-6.36030762 32.79641968 -6.36030762 32.79641968 -7.30175781 33.54516602 C-11.74836582 37 -11.74836582 37 -14 37 C-14 37.66 -14 38.32 -14 39 C-13.45472656 39.14695313 -12.90945312 39.29390625 -12.34765625 39.4453125 C-1.57251179 42.65022726 6.97028232 48.85872817 12.54296875 58.734375 C13.75330099 61.13469777 14.90787176 63.54396967 16 66 C-3.64600002 83.82279169 -26.88367992 93.68440097 -53.625 93.5 C-54.32488037 93.49790527 -55.02476074 93.49581055 -55.74584961 93.49365234 C-81.57196395 93.33475862 -105.07330449 83.84207113 -124 66 C-118.25019793 53.06956954 -110.19671306 44.45762371 -97 39 C-96.01 39 -95.02 39 -94 39 C-94 38.34 -94 37.68 -94 37 C-94.67289063 36.79761719 -95.34578125 36.59523437 -96.0390625 36.38671875 C-100.08568493 34.49153278 -103.05569001 31.76855217 -106.375 28.8125 C-107.00921875 28.26013672 -107.6434375 27.70777344 -108.296875 27.13867188 C-112.70881662 23.26246602 -116.89458237 19.19825371 -121 15 C-119.36228672 9.59554616 -115.80154982 4.5403539 -110.8046875 1.79296875 C-110.20914063 1.53128906 -109.61359375 1.26960938 -109 1 C-109.32484375 1.85271484 -109.32484375 1.85271484 -109.65625 2.72265625 C-111.86093376 8.83657093 -113.31365625 13.7815422 -110.75 20.0625 C-107.87497569 23.92645111 -103.37268005 25.40380653 -99.1328125 27.40625 C-89.96284503 32.07127086 -82.99310379 39.82265613 -75.88378906 47.10107422 C-71.98679666 51.08278385 -67.98108993 54.83646122 -63.75830078 58.47094727 C-61.75344996 60.21440474 -59.85901549 62.03975502 -58 63.9375 C-57.4225 64.52402344 -56.845 65.11054688 -56.25 65.71484375 C-55.8375 66.13894531 -55.425 66.56304687 -55 67 C-51.74792908 65.58261511 -49.68638933 63.87473588 -47.25 61.3125 C-44.71014549 58.70286927 -42.15831085 56.22229863 -39.375 53.875 C-36.07029865 51.05074639 -33.03780789 48.03051373 -30.00537109 44.92211914 C-22.2900929 37.02965688 -14.62904233 30.10329241 -4.5625 25.3125 C-0.65828175 23.43797868 1.95877251 21.98967191 4 18 C4.67935818 11.98282759 3.63493258 8.37526246 1 3 C0.505 1.515 0.505 1.515 0 0 Z " fill="#272942" transform="translate(154,107)"/>
<path d="M0 0 C1.03038864 2.67901047 1.08608003 3.77785799 0.03125 6.5 C-1.3497106 11.18689657 -1.21502778 15.52042518 -1.125 20.375 C-1.11597656 21.30183594 -1.10695313 22.22867188 -1.09765625 23.18359375 C-1.07422937 25.45600077 -1.04142748 27.7278618 -1 30 C-0.01 28.68 0.98 27.36 2 26 C4.96175123 26.61277612 6.38058783 27.25372522 9 29 C11.0495123 29.30836314 11.0495123 29.30836314 13.31616211 29.2746582 C14.6178257 29.28895622 14.6178257 29.28895622 15.94578552 29.30354309 C16.88019974 29.30263168 17.81461395 29.30172028 18.77734375 29.30078125 C19.74023819 29.30506638 20.70313263 29.3093515 21.69520569 29.31376648 C23.73193577 29.31951025 25.76868636 29.3200097 27.80541992 29.31567383 C30.92206831 29.31251564 34.037766 29.33596645 37.15429688 29.36132812 C39.1328113 29.36360128 41.11132828 29.36430454 43.08984375 29.36328125 C44.02223373 29.372491 44.95462372 29.38170074 45.91526794 29.39118958 C52.04153812 29.39156083 52.04153812 29.39156083 57 26 C59 25.9375 59 25.9375 61 27 C63.3125 29.8125 63.3125 29.8125 65 33 C64.60546875 35.19921875 64.60546875 35.19921875 64 37 C61.35433632 37.62572528 58.70848835 38.25065021 56.0625 38.875 C55.28648438 39.05844971 54.51046875 39.24189941 53.7109375 39.4309082 C49.64804852 40.38835828 45.5827821 41.31783422 41.5 42.1875 C38.19385052 42.62985185 38.19385052 42.62985185 37 44 C36.71461678 47.32947093 36.55107367 50.65897628 36.37890625 53.99609375 C36 57 36 57 34 59 C31 59.25 31 59.25 28 59 C25.22957891 56.22957891 25.60203894 54.23466195 25.375 50.375 C25.30023438 49.18648437 25.22546875 47.99796875 25.1484375 46.7734375 C25.09945312 45.85820313 25.05046875 44.94296875 25 44 C20.9100801 42.58142418 16.84225248 41.41267581 12.625 40.4375 C11.56539062 40.18871094 10.50578125 39.93992188 9.4140625 39.68359375 C5.61244127 38.92239957 1.85112314 38.44048794 -2 38 C-2.08817767 42.43737164 -2.14078435 46.87451347 -2.1875 51.3125 C-2.21263672 52.55580078 -2.23777344 53.79910156 -2.26367188 55.08007812 C-2.38590155 70.60324623 1.77018454 83.35807637 12.54296875 94.73828125 C19.58347512 101.21912892 28.56823164 105.76385226 38.1875 106.5625 C48.56720628 106.10963323 58.2633103 100.10726267 65.51953125 93.0546875 C71.43686591 85.76751316 75.21770701 76.91441138 78 68 C80.125 68 80.125 68 83 69 C87.72293872 73.93761775 89.66663671 78.094977 90.4375 84.8125 C90.32085503 89.01171882 89.08231674 91.29580703 86.20703125 94.3125 C83.48623767 96.39282359 80.68208525 97.64932435 77.5625 99.0625 C68.44749232 103.20258304 61.96216203 109.96130914 55 117 C53.9640344 118.03564937 52.92760564 119.07083573 51.890625 120.10546875 C50.06674928 121.92903617 48.25044377 123.75922357 46.4375 125.59375 C43.61454893 128.38050939 40.67513959 130.98707275 37.66015625 133.5625 C35.6745442 135.28180643 33.81857601 137.10564999 32 139 C28.06785699 137.41060574 25.66979654 134.83657498 22.75 131.8125 C19.63934022 128.62780138 16.52869186 125.50003334 13.125 122.625 C10.63207961 120.51364906 8.304945 118.31435662 6.0390625 115.96484375 C-1.67091773 107.97120321 -9.43507554 100.42607697 -20 96.3125 C-24.09696117 94.52007949 -26.03048391 91.93903218 -28 88 C-28.52938489 81.25034265 -26.7836759 76.73496972 -23.125 71.125 C-20.72025133 68.72025133 -19.3404486 68.27837072 -16 68 C-16 67.34 -16 66.68 -16 66 C-16.721875 66.103125 -17.44375 66.20625 -18.1875 66.3125 C-21 66 -21 66 -23.64526367 64.03051758 C-26.80887705 59.95898488 -26.64866809 57.20475915 -26.48828125 52.19921875 C-26.48120651 51.36284378 -26.47413177 50.52646881 -26.46684265 49.66474915 C-26.43894985 47.00473948 -26.37622481 44.34686861 -26.3125 41.6875 C-26.28741034 39.87958779 -26.26459833 38.07164243 -26.24414062 36.26367188 C-26.18914042 31.84162927 -26.10290643 27.42117669 -26 23 C-18.97169811 25.77122642 -18.97169811 25.77122642 -16 28 C-15.1875 30.6875 -15.1875 30.6875 -15 33 C-10.86048313 30.09115031 -8.68359465 27.79824475 -7 23 C-6.81464342 20.87808216 -6.67315951 18.75212173 -6.5625 16.625 C-6.19464288 9.91927117 -4.89059612 4.89059612 0 0 Z " fill="#CBCBCB" transform="translate(69,36)"/>
<path d="M0 0 C24.80265687 0.57802802 48.07459975 14.73118583 65 32 C76.09483336 44.642184 83.50869188 58.81040096 88 75 C88.18473877 75.62890137 88.36947754 76.25780273 88.55981445 76.90576172 C90.49763004 84.2876686 90.4419 91.78675204 90.4375 99.375 C90.43790283 100.08487061 90.43830566 100.79474121 90.4387207 101.52612305 C90.37823303 120.041608 86.17620872 134.96748638 77 151 C76.13181641 152.52753906 76.13181641 152.52753906 75.24609375 154.0859375 C71.27755602 160.66026682 66.61110029 166.73173679 61 172 C60.34 172 59.68 172 59 172 C57.703125 170.05859375 57.703125 170.05859375 56.25 167.4375 C49.76279485 156.38118161 41.93299316 150.66943211 30 146 C30 145.34 30 144.68 30 144 C31.51700425 142.81436542 33.09253455 141.70347878 34.6875 140.625 C39.42610735 137.26489661 43.78434199 133.67881018 48.0625 129.75 C48.90204224 128.98937256 48.90204224 128.98937256 49.75854492 128.21337891 C52.46670758 125.69286126 54.66227471 123.48971814 56 120 C51.02831402 112.8686294 51.02831402 112.8686294 44 108 C43.01 107.505 43.01 107.505 42 107 C42 106.34 42 105.68 42 105 C40.35 104.67 38.7 104.34 37 104 C37 103.34 37 102.68 37 102 C38.11375 101.54625 39.2275 101.0925 40.375 100.625 C43.96199008 99.27534014 43.96199008 99.27534014 46 97 C46.24581843 94.13563176 46.37369381 91.3609686 46.4140625 88.4921875 C46.43342865 87.65156769 46.4527948 86.81094788 46.4727478 85.94485474 C46.53261658 83.25500697 46.57895771 80.56511657 46.625 77.875 C46.6631731 76.05336656 46.70222444 74.2317513 46.7421875 72.41015625 C46.83832398 67.94025148 46.92232769 63.47026221 47 59 C46.01 59 45.02 59 44 59 C44 57.35 44 55.7 44 54 C48.55564061 55.58532809 52.31475769 57.99003081 56.3125 60.625 C56.95767578 61.04523437 57.60285156 61.46546875 58.26757812 61.8984375 C59.84760724 62.92838241 61.42416047 63.96365628 63 65 C61.95759311 67.18860321 61.09405588 68.89841965 59.4375 70.6875 C57.24813397 74.20952362 57.25258047 77.92387378 57 82 C57.763125 81.67 58.52625 81.34 59.3125 81 C62 80 62 80 65 80 C65.16435547 81.04800781 65.16435547 81.04800781 65.33203125 82.1171875 C65.49058594 83.02726562 65.64914063 83.93734375 65.8125 84.875 C65.96332031 85.77992187 66.11414063 86.68484375 66.26953125 87.6171875 C66.83051301 90.34412478 66.83051301 90.34412478 70 92 C70 92.66 70 93.32 70 94 C68.35 94.66 66.7 95.32 65 96 C65.03955898 97.92309422 65.03955898 97.92309422 66 100 C68.98352894 101.78379415 68.98352894 101.78379415 72 103 C75.3547459 77.42006249 71.78176915 54.03284604 56 33 C41.08328352 14.36094694 22.96826829 5.45523848 0 1 C0 0.67 0 0.34 0 0 Z " fill="#393A59" transform="translate(110,0)"/>
<path d="M0 0 C18.94406519 14.06894911 31.70857009 32.90474486 36.29296875 56.19140625 C37.70365275 67.1462492 37.60260232 78.36249076 34.79296875 89.07421875 C30.02734375 88.23828125 30.02734375 88.23828125 27.91796875 86.76171875 C26.79296875 85.07421875 26.79296875 85.07421875 27.10546875 82.88671875 C27.33234375 82.28859375 27.55921875 81.69046875 27.79296875 81.07421875 C29.44296875 80.74421875 31.09296875 80.41421875 32.79296875 80.07421875 C31.96796875 79.24921875 31.14296875 78.42421875 30.29296875 77.57421875 C28.03153695 74.91146243 27.44941362 73.18981554 27.48046875 69.69921875 C27.58359375 68.50296875 27.68671875 67.30671875 27.79296875 66.07421875 C26.64828125 66.56921875 26.64828125 66.56921875 25.48046875 67.07421875 C22.79296875 68.07421875 22.79296875 68.07421875 19.79296875 68.07421875 C19.02200392 60.36457042 19.02200392 60.36457042 20.90625 57.2109375 C22.15691232 55.79117154 23.47169801 54.42852125 24.79296875 53.07421875 C24.79296875 52.41421875 24.79296875 51.75421875 24.79296875 51.07421875 C23.08081834 49.74795162 23.08081834 49.74795162 20.85546875 48.47265625 C20.04335937 47.9828125 19.23125 47.49296875 18.39453125 46.98828125 C17.53601563 46.48039062 16.6775 45.9725 15.79296875 45.44921875 C14.93445313 44.93359375 14.0759375 44.41796875 13.19140625 43.88671875 C11.06240641 42.60931885 8.92955679 41.33887178 6.79296875 40.07421875 C7.28796875 43.04421875 7.28796875 43.04421875 7.79296875 46.07421875 C3.83296875 48.05421875 3.83296875 48.05421875 -0.20703125 50.07421875 C-0.2328125 49.14222656 -0.25859375 48.21023437 -0.28515625 47.25 C-0.99846067 31.21686204 -5.05794646 18.28559875 -16.8671875 6.9296875 C-26.107377 -0.39767479 -36.50547344 -3.27915953 -48.08203125 -3.11328125 C-49.35240234 -3.11231445 -49.35240234 -3.11231445 -50.6484375 -3.11132812 C-54.82376502 -3.08255481 -58.8285956 -2.86937787 -62.9609375 -2.26171875 C-67.0329438 -1.7621439 -69.57760599 -2.44721878 -73.26953125 -4.36328125 C-74.20925781 -4.83636719 -75.14898437 -5.30945312 -76.1171875 -5.796875 C-76.80683594 -6.16941406 -77.49648437 -6.54195313 -78.20703125 -6.92578125 C-76.89453125 -8.42578125 -76.89453125 -8.42578125 -75.20703125 -9.92578125 C-74.21703125 -9.92578125 -73.22703125 -9.92578125 -72.20703125 -9.92578125 C-72.20703125 -10.58578125 -72.20703125 -11.24578125 -72.20703125 -11.92578125 C-48.00552701 -18.28121829 -20.80296124 -13.83862212 0 0 Z " fill="#686376" transform="translate(147.20703125,13.92578125)"/>
<path d="M0 0 C11.47908178 7.05649034 18.76363267 16.59131295 22.74609375 29.4296875 C23.90433703 34.34505916 23.81367529 39.19110542 23.71875 44.21484375 C23.70972656 45.13265625 23.70070313 46.05046875 23.69140625 46.99609375 C23.66807432 49.23595931 23.63534235 51.47525558 23.59375 53.71484375 C20.14519108 52.75691072 18.6836825 51.82132633 16.34375 49.05078125 C14.3789366 45.3053557 13.93998691 42.53796633 13.59375 38.33984375 C12.85853942 31.53707137 12.02331979 26.00658213 6.94140625 21.12890625 C2.30349433 17.6955236 -2.07835009 16.9455242 -7.78515625 17.23046875 C-11.91097219 17.99291462 -14.57725734 19.65144884 -17.40625 22.71484375 C-20.43650119 27.26022053 -20.94726659 31.39063623 -21.40625 36.71484375 C-22.72625 36.71484375 -24.04625 36.71484375 -25.40625 36.71484375 C-25.49261719 35.99039063 -25.57898438 35.2659375 -25.66796875 34.51953125 C-26.60811619 28.05062682 -27.5714326 24.20431705 -32.40625 19.71484375 C-37.13035496 16.82007305 -42.0378643 17.0094542 -47.40625 17.71484375 C-52.04543493 19.36894783 -55.32737458 21.97295375 -57.84375 26.21484375 C-59.4529402 29.87713868 -59.6597597 33.24065338 -59.84375 37.21484375 C-60.13783059 43.11013373 -61.21459047 47.41733424 -65.40625 51.71484375 C-67.04307053 52.76298321 -68.70584962 53.7733469 -70.40625 54.71484375 C-71.21451014 35.30913941 -70.17052813 21.68844344 -56.40625 6.71484375 C-53.2757122 3.91788785 -50.06649738 1.75979623 -46.40625 -0.28515625 C-45.54902344 -0.79046875 -44.69179687 -1.29578125 -43.80859375 -1.81640625 C-30.37498851 -8.61823169 -12.99482403 -6.94041738 0 0 Z " fill="#272740" transform="translate(123.40625,15.28515625)"/>
<path d="M0 0 C0.99 0.33 1.98 0.66 3 1 C2.60167969 1.61746094 2.20335937 2.23492188 1.79296875 2.87109375 C-5.35913224 14.30401432 -6.55909706 23.75770815 -7 37 C-11.95 34.525 -11.95 34.525 -17 32 C-16.90648818 37.35716279 -16.80039956 42.71387239 -16.68261719 48.07055664 C-16.64432005 49.89307824 -16.60946845 51.71567563 -16.578125 53.53833008 C-16.53249021 56.15733941 -16.47449378 58.77582674 -16.4140625 61.39453125 C-16.40251129 62.21025101 -16.39096008 63.02597076 -16.37905884 63.8664093 C-16.27802726 67.73364504 -16.1922681 69.71159785 -14 73 C-15.28965176 74.37562854 -16.62689293 75.70766393 -18 77 C-18.66 77 -19.32 77 -20 77 C-20.99 75.02 -21.98 73.04 -23 71 C-23.845625 71.804375 -24.69125 72.60875 -25.5625 73.4375 C-28.8515158 76.21628662 -31.68629604 76.74117776 -36 77 C-35.2575 78.175625 -35.2575 78.175625 -34.5 79.375 C-33 82 -33 82 -33 84 C-35.97 84.495 -35.97 84.495 -39 85 C-46.46244889 69.73590001 -46.44533261 48.6630143 -41.40234375 32.63671875 C-33.77719562 12.86230954 -33.77719562 12.86230954 -27 6 C-21.73608751 5.66039274 -19.09353322 6.58520338 -15.0625 9.9375 C-13.25352563 11.61461292 -12.1055393 12.7889214 -11 15 C-10.608125 13.783125 -10.21625 12.56625 -9.8125 11.3125 C-7.83730678 6.02347549 -4.66081845 3.1072123 0 0 Z " fill="#696476" transform="translate(60,27)"/>
<path d="M0 0 C0.20625 1.0725 0.4125 2.145 0.625 3.25 C3.15187695 13.16448247 8.36099782 22.1760089 16 29 C17.60997705 29.94280256 19.23508685 30.86028789 20.875 31.75 C23.98552688 33.64497969 24.84623597 34.44601839 25.8359375 38.01171875 C26.11169311 40.29320623 26.35529199 42.57881318 26.56640625 44.8671875 C27.39659549 50.86549172 30.43257648 53.69937197 34.9375 57.4375 C40.52048969 60.23510315 46.97430174 59.8861321 53 59 C58.12872881 57.01515297 61.76072217 54.02916558 64.5 49.25 C65.91512659 46.03992929 66.06783967 43.48146305 66.0625 40 C66.27423567 36.4493557 66.62754302 35.35244629 69.25390625 32.8671875 C71.19999851 31.51683777 73.1658209 30.1945667 75.1484375 28.8984375 C85.16732116 22.22833139 89.31627666 11.05117001 93 0 C95.125 0 95.125 0 98 1 C102.72293872 5.93761775 104.66663671 10.094977 105.4375 16.8125 C105.32085503 21.01171882 104.08231674 23.29580703 101.20703125 26.3125 C98.48623767 28.39282359 95.68208525 29.64932435 92.5625 31.0625 C83.44749232 35.20258304 76.96216203 41.96130914 70 49 C68.9640344 50.03564937 67.92760564 51.07083573 66.890625 52.10546875 C65.06674928 53.92903617 63.25044377 55.75922357 61.4375 57.59375 C58.61454893 60.38050939 55.67513959 62.98707275 52.66015625 65.5625 C50.6745442 67.28180643 48.81857601 69.10564999 47 71 C43.06785699 69.41060574 40.66979654 66.83657498 37.75 63.8125 C34.63934022 60.62780138 31.52869186 57.50003334 28.125 54.625 C25.63207961 52.51364906 23.304945 50.31435662 21.0390625 47.96484375 C13.32908227 39.97120321 5.56492446 32.42607697 -5 28.3125 C-9.09696117 26.52007949 -11.03048391 23.93903218 -13 20 C-13.53083677 13.23183115 -11.87138128 8.60859208 -7.9375 3.125 C-5.06400188 -0.02657859 -4.42930145 0 0 0 Z " fill="#D562B9" transform="translate(54,104)"/>
<path d="M0 0 C2.96175123 0.61277612 4.38058783 1.25372522 7 3 C9.0495123 3.30836314 9.0495123 3.30836314 11.31616211 3.2746582 C12.6178257 3.28895622 12.6178257 3.28895622 13.94578552 3.30354309 C14.88019974 3.30263168 15.81461395 3.30172028 16.77734375 3.30078125 C18.22168541 3.30720894 18.22168541 3.30720894 19.69520569 3.31376648 C21.73193577 3.31951025 23.76868636 3.3200097 25.80541992 3.31567383 C28.92206831 3.31251564 32.037766 3.33596645 35.15429688 3.36132812 C37.1328113 3.36360128 39.11132828 3.36430454 41.08984375 3.36328125 C42.02223373 3.372491 42.95462372 3.38170074 43.91526794 3.39118958 C50.04153812 3.39156083 50.04153812 3.39156083 55 0 C57 -0.0625 57 -0.0625 59 1 C61.3125 3.8125 61.3125 3.8125 63 7 C62.60546875 9.19921875 62.60546875 9.19921875 62 11 C59.35433632 11.62572528 56.70848835 12.25065021 54.0625 12.875 C53.28648438 13.05844971 52.51046875 13.24189941 51.7109375 13.4309082 C47.64804852 14.38835828 43.5827821 15.31783422 39.5 16.1875 C36.19385052 16.62985185 36.19385052 16.62985185 35 18 C34.71461678 21.32947093 34.55107367 24.65897628 34.37890625 27.99609375 C34 31 34 31 32 33 C29 33.25 29 33.25 26 33 C23.22957891 30.22957891 23.60203894 28.23466195 23.375 24.375 C23.30023438 23.18648437 23.22546875 21.99796875 23.1484375 20.7734375 C23.09945312 19.85820313 23.05046875 18.94296875 23 18 C17.47576164 16.00978618 11.83413164 14.70558353 6.125 13.375 C5.15046875 13.14554688 4.1759375 12.91609375 3.171875 12.6796875 C0.78181828 12.11732121 -1.60880429 11.55749967 -4 11 C-5.12451172 7.24023438 -5.12451172 7.24023438 -4.00390625 5.078125 C-3.52824219 4.47484375 -3.05257812 3.8715625 -2.5625 3.25 C-2.08941406 2.63640625 -1.61632812 2.0228125 -1.12890625 1.390625 C-0.75636719 0.93171875 -0.38382812 0.4728125 0 0 Z " fill="#CBCBCB" transform="translate(71,62)"/>
<path d="M0 0 C5.16968573 2.06530869 9.08674957 4.24403781 12.16796875 8.984375 C13.65650257 12.59040059 13.38991599 16.17882331 13 20 C15.31 20 17.62 20 20 20 C20.495 20.99 20.495 20.99 21 22 C16.23109826 32.38820204 7.34919718 46.36263243 -3 52 C-7.37902331 51.59567703 -11.03350024 49.78881362 -15 48 C-15 47.34 -15 46.68 -15 46 C-13.48299575 44.81436542 -11.90746545 43.70347878 -10.3125 42.625 C-5.57389265 39.26489661 -1.21565801 35.67881018 3.0625 31.75 C3.62219482 31.24291504 4.18188965 30.73583008 4.75854492 30.21337891 C7.46670758 27.69286126 9.66227471 25.48971814 11 22 C6.02831402 14.8686294 6.02831402 14.8686294 -1 10 C-1.66 9.67 -2.32 9.34 -3 9 C-3 8.34 -3 7.68 -3 7 C-4.65 6.67 -6.3 6.34 -8 6 C-8 5.34 -8 4.68 -8 4 C-6.865625 3.525625 -5.73125 3.05125 -4.5625 2.5625 C-1.24259834 1.36377917 -1.24259834 1.36377917 0 0 Z " fill="#686376" transform="translate(155,98)"/>
<path d="M0 0 C4.59213972 0.29948737 8.28138887 1.43708579 12.5625 3.125 C20.22253254 5.97282756 24.97528604 3.7658789 32.31640625 0.83984375 C35.05979578 -0.01871338 37.14550613 -0.2357842 40 0 C41 1 41 1 41.1328125 4.125 C41.13023438 5.40375 41.12765625 6.6825 41.125 8 C41.12886719 9.918125 41.12886719 9.918125 41.1328125 11.875 C41 15 41 15 40 16 C34.01239617 16.58415647 28.94998783 14.68570733 23.8125 11.75 C19.04074888 9.77548229 12.49669995 13.52605525 7.9375 15.16015625 C5.10135355 15.97102259 2.92758655 16.24570816 0 16 C-1 15 -1 15 -1.1328125 11.875 C-1.13023438 10.59625 -1.12765625 9.3175 -1.125 8 C-1.12757812 6.72125 -1.13015625 5.4425 -1.1328125 4.125 C-1 1 -1 1 0 0 Z " fill="#E278BE" transform="translate(80,172)"/>
<path d="M0 0 C0.1485957 5.32010722 0.25733006 10.63900079 0.32958984 15.96069336 C0.35971777 17.76982672 0.40062963 19.57881454 0.45263672 21.38745117 C0.52563407 23.99173897 0.55949398 26.59409277 0.5859375 29.19921875 C0.61690521 30.00461594 0.64787292 30.81001312 0.67977905 31.63981628 C0.68302354 37.08381683 0.68302354 37.08381683 -1.23504639 39.65664673 C-4.3102817 42.41838249 -5.81903583 43 -10 43 C-10.19322964 38.41060516 -10.3717904 33.8209539 -10.53710938 29.23046875 C-10.59530802 27.67074501 -10.65742859 26.11116226 -10.72363281 24.55175781 C-10.81840823 22.30299573 -10.89880683 20.05409475 -10.9765625 17.8046875 C-11.00875885 17.1138205 -11.0409552 16.42295349 -11.0741272 15.71115112 C-11.20618229 11.38893449 -10.69119748 7.98473927 -9 4 C-6.4820921 1.7790152 -3.42458155 0 0 0 Z " fill="#CBCBCB" transform="translate(157,59)"/>
<path d="M0 0 C2.8125 0.375 2.8125 0.375 6 2 C7.46131329 5.23308874 8.27126037 8.53529051 9 12 C9.99 9.69 10.98 7.38 12 5 C18.6 5 25.2 5 32 5 C32.66 6.98 33.32 8.96 34 11 C34.66 10.67 35.32 10.34 36 10 C36.46025353 8.16934645 36.46025353 8.16934645 36.75 6.0625 C37.2265625 3.87890625 37.2265625 3.87890625 38 2 C41.125 0.5 41.125 0.5 44 0 C44.89398098 5.66187955 42.50938202 9.15102997 39.703125 13.828125 C37.913291 16.11057386 36.75641885 17.12897164 34 18 C33.175 17.54625 32.35 17.0925 31.5 16.625 C25.9283271 14.03815187 19.5866537 13.95464365 13.66796875 15.6796875 C11.57519876 16.53882085 11.57519876 16.53882085 9 18 C2.87295106 12.2041429 0.70125182 8.27477144 0 0 Z " fill="#323657" transform="translate(78,101)"/>
<path d="M0 0 C3.20845972 -0.59415921 4.8950719 -0.8066725 8 0 C10.64360671 2.14679097 12.83146991 4.53762295 15.1328125 7.046875 C18.29409861 10.42829374 21.84545649 13.23470211 25.5 16.0625 C26.11182129 16.53921143 26.72364258 17.01592285 27.35400391 17.50708008 C30.53444939 19.97386636 30.53444939 19.97386636 34 22 C34 22.66 34 23.32 34 24 C32.61256594 24.70429659 31.21455365 25.38777598 29.8125 26.0625 C29.03519531 26.44535156 28.25789063 26.82820313 27.45703125 27.22265625 C24.37620915 28.19735195 23.0348419 28.12881315 20 27 C17.88512725 25.28184821 16.0650014 23.63387548 14.1875 21.6875 C13.66704102 21.15713135 13.14658203 20.6267627 12.61035156 20.08032227 C0 6.86901471 0 6.86901471 0 0 Z " fill="#686375" transform="translate(26,122)"/>
<path d="M0 0 C4.67404894 0.97365194 8.22916992 3.32967295 12.25 5.8125 C13.36761719 6.47088867 13.36761719 6.47088867 14.5078125 7.14257812 C15.21164063 7.57634766 15.91546875 8.01011719 16.640625 8.45703125 C17.28547852 8.84866455 17.93033203 9.24029785 18.59472656 9.64379883 C19.0584668 10.09134521 19.52220703 10.5388916 20 11 C20 12.32 20 13.64 20 15 C14.36375658 15.23952163 9.51426608 14.38279585 4.0625 13 C3.28326172 12.80921875 2.50402344 12.6184375 1.70117188 12.421875 C-0.20099248 11.9550862 -2.10076009 11.47854864 -4 11 C-5.12451172 7.24023438 -5.12451172 7.24023438 -4.00390625 5.078125 C-3.52824219 4.47484375 -3.05257812 3.8715625 -2.5625 3.25 C-2.08941406 2.63640625 -1.61632812 2.0228125 -1.12890625 1.390625 C-0.75636719 0.93171875 -0.38382812 0.4728125 0 0 Z " fill="#393A5B" transform="translate(71,62)"/>
<path d="M0 0 C2.99095779 1.79457467 4.26555226 4.08493204 5.875 7.125 C5.48046875 9.32421875 5.48046875 9.32421875 4.875 11.125 C2.18966436 11.80162 -0.497725 12.46646121 -3.1875 13.125 C-3.93966797 13.31578125 -4.69183594 13.5065625 -5.46679688 13.703125 C-10.15273336 14.8391096 -14.30432546 15.32986266 -19.125 15.125 C-18.78845192 12.22941654 -18.30157629 11.27663613 -16.05078125 9.34375 C-15.18839844 8.7765625 -14.32601562 8.209375 -13.4375 7.625 C-12.08205078 6.7278125 -12.08205078 6.7278125 -10.69921875 5.8125 C-9.84972656 5.255625 -9.00023438 4.69875 -8.125 4.125 C-7.51269531 3.67125 -6.90039062 3.2175 -6.26953125 2.75 C-4.16638751 1.19291672 -2.64961981 0.15585999 0 0 Z " fill="#343558" transform="translate(128.125,61.875)"/>
<path d="M0 0 C1.11375 0.7425 1.11375 0.7425 2.25 1.5 C2.25 2.16 2.25 2.82 2.25 3.5 C-3.71966372 6.68382065 -9.02243312 7.28791324 -15.75 6.5 C-19.4375 5 -19.4375 5 -21.75 3.5 C-20.75 0.5 -20.75 0.5 -18.55859375 -0.66796875 C-12.75950523 -2.38591848 -5.52101788 -2.78027392 0 0 Z " fill="#E27ABE" transform="translate(109.75,116.5)"/>
<path d="M0 0 C1.0206247 2.65362423 1.09870466 3.75164634 0.03125 6.4375 C-1.41774322 11.44311293 -1.21189337 16.19481852 -1.125 21.375 C-1.11146484 22.90833984 -1.11146484 22.90833984 -1.09765625 24.47265625 C-1.0742043 26.98201522 -1.04138355 29.49088336 -1 32 C-1.66 32 -2.32 32 -3 32 C-3.33 28.7 -3.66 25.4 -4 22 C-4.66 22.33 -5.32 22.66 -6 23 C-6.4477498 14.84100371 -6.47576552 8.97692861 -2 2 C-1.34 1.34 -0.68 0.68 0 0 Z " fill="#D1D1D1" transform="translate(69,36)"/>
<path d="M0 0 C5.75 0.875 5.75 0.875 8 2 C8.1953125 8.0546875 8.1953125 8.0546875 8 10 C6 12 6 12 3.4375 12.1875 C1 12 1 12 0 11 C-0.07226502 9.14712498 -0.0838122 7.29166122 -0.0625 5.4375 C-0.05347656 4.42558594 -0.04445313 3.41367188 -0.03515625 2.37109375 C-0.02355469 1.58863281 -0.01195313 0.80617188 0 0 Z " fill="#454563" transform="translate(77,79)"/>
<path d="M0 0 C2.64 0.33 5.28 0.66 8 1 C8.09765625 7.15234375 8.09765625 7.15234375 8 9 C7 10 7 10 4.5625 10.1875 C2 10 2 10 0 8 C-0.26991906 5.31160615 -0.08737357 2.70858064 0 0 Z " fill="#3C3C5D" transform="translate(115,81)"/>
<path d="M0 0 C3.96 0 7.92 0 12 0 C12.33 1.32 12.66 2.64 13 4 C8.38 4 3.76 4 -1 4 C-0.67 2.68 -0.34 1.36 0 0 Z " fill="#CECECE" transform="translate(94,127)"/>
<path d="M0 0 C1.08892712 2.83121051 0.96109941 4.16532751 0.25 7.1875 C-0.1625 8.115625 -0.575 9.04375 -1 10 C-1.99 10.33 -2.98 10.66 -4 11 C-4.33 14.3 -4.66 17.6 -5 21 C-5.33 21 -5.66 21 -6 21 C-6.48290881 13.70271128 -6.22181235 8.14782164 -2 2 C-1.34 1.34 -0.68 0.68 0 0 Z " fill="#B7B7B9" transform="translate(69,36)"/>
<path d="M0 0 C-1.25844278 3.88019859 -2.42416203 5.9411842 -6 8 C-6.99 8 -7.98 8 -9 8 C-9 6.68 -9 5.36 -9 4 C-2.25 0 -2.25 0 0 0 Z " fill="#656174" transform="translate(61,10)"/>
<path d="M0 0 C1.34173403 0.92543709 2.67320159 1.86577405 4 2.8125 C5.11375 3.59560547 5.11375 3.59560547 6.25 4.39453125 C6.8275 4.92433594 7.405 5.45414062 8 6 C8 6.99 8 7.98 8 9 C7.34 9.66 6.68 10.32 6 11 C2.17179787 9.08589894 1.29482585 3.88447755 0 0 Z " fill="#2C2D46" transform="translate(154,107)"/>
<path d="M0 0 C0.99 0 1.98 0 3 0 C3 0.66 3 1.32 3 2 C3.99 2.33 4.98 2.66 6 3 C4.68 4.32 3.36 5.64 2 7 C-0.475 6.01 -0.475 6.01 -3 5 C-2.67 4.34 -2.34 3.68 -2 3 C-1.34 3 -0.68 3 0 3 C0 2.01 0 1.02 0 0 Z " fill="#464062" transform="translate(111,112)"/>
<path d="M0 0 C0.99 0 1.98 0 3 0 C1.4169423 4.2742558 -1.50568404 6.26531794 -5 9 C-5.33 8.01 -5.66 7.02 -6 6 C-5.195625 5.38125 -4.39125 4.7625 -3.5625 4.125 C-0.96125481 2.25835959 -0.96125481 2.25835959 0 0 Z " fill="#C05CAA" transform="translate(117,155)"/>
<path d="M0 0 C1.66611905 -0.042721 3.33382885 -0.04063832 5 0 C6 1 6 1 6.09765625 4.16015625 C6.08605469 5.44792969 6.07445313 6.73570312 6.0625 8.0625 C6.05347656 9.35285156 6.04445313 10.64320313 6.03515625 11.97265625 C6.02355469 12.97167969 6.01195313 13.97070312 6 15 C5.67 15 5.34 15 5 15 C4.67 11.04 4.34 7.08 4 3 C2.68 2.67 1.36 2.34 0 2 C0 1.34 0 0.68 0 0 Z " fill="#D271B2" transform="translate(115,172)"/>
<path d="M0 0 C1.2065625 0.0309375 1.2065625 0.0309375 2.4375 0.0625 C2.4375 0.7225 2.4375 1.3825 2.4375 2.0625 C1.1175 2.3925 -0.2025 2.7225 -1.5625 3.0625 C-1.8925 7.0225 -2.2225 10.9825 -2.5625 15.0625 C-2.8925 15.0625 -3.2225 15.0625 -3.5625 15.0625 C-3.58935412 12.75006208 -3.60882841 10.4375373 -3.625 8.125 C-3.63660156 6.83722656 -3.64820312 5.54945313 -3.66015625 4.22265625 C-3.53232863 0.08615436 -3.53232863 0.08615436 0 0 Z " fill="#D271B2" transform="translate(82.5625,171.9375)"/>
<path d="M0 0 C0 3.63 0 7.26 0 11 C-0.33 11 -0.66 11 -1 11 C-1 8.69 -1 6.38 -1 4 C-3.97 3.505 -3.97 3.505 -7 3 C-2.5 0 -2.5 0 0 0 Z " fill="#9C9BA4" transform="translate(124,78)"/>
<path d="M0 0 C0.66 0.33 1.32 0.66 2 1 C1.67 1.66 1.34 2.32 1 3 C2.32 3.33 3.64 3.66 5 4 C2.09399739 5.25664978 0.20395416 6 -3 6 C-2.42655063 3.13275314 -2.1385485 2.1385485 0 0 Z " fill="#1A263C" transform="translate(104,171)"/>
<path d="M0 0 C1.75 0.125 1.75 0.125 4 1 C6.25 4.0625 6.25 4.0625 8 7 C5 7 5 7 2.3125 4.625 C0 2 0 2 0 0 Z " fill="#C75DAF" transform="translate(78,153)"/>
<path d="M0 0 C0.66 0 1.32 0 2 0 C1.67 1.32 1.34 2.64 1 4 C0.34 4 -0.32 4 -1 4 C-1.33 5.65 -1.66 7.3 -2 9 C-1.01 9.33 -0.02 9.66 1 10 C-0.65 9.67 -2.3 9.34 -4 9 C-3.35494404 5.51669784 -2.01782732 2.90567134 0 0 Z " fill="#2A2B53" transform="translate(70,63)"/>
<path d="M0 0 C0 1.98 0 3.96 0 6 C-1.65 6.33 -3.3 6.66 -5 7 C-4.67 5.02 -4.34 3.04 -4 1 C-1 0 -1 0 0 0 Z " fill="#404160" transform="translate(122,101)"/>
<path d="M0 0 C2.475 0.99 2.475 0.99 5 2 C5 2.99 5 3.98 5 5 C4.01 5.33 3.02 5.66 2 6 C1.34 5.34 0.68 4.68 0 4 C0 2.68 0 1.36 0 0 Z " fill="#444160" transform="translate(83,112)"/>
<path d="M0 0 C1.65 0 3.3 0 5 0 C4.34 1.98 3.68 3.96 3 6 C1.5 4.6875 1.5 4.6875 0 3 C0 2.01 0 1.02 0 0 Z " fill="#D579B7" transform="translate(85,108)"/>
<path d="M0 0 C1.65 0 3.3 0 5 0 C4.42655063 2.86724686 4.1385485 3.8614515 2 6 C1.34 4.02 0.68 2.04 0 0 Z " fill="#D77AB9" transform="translate(110,108)"/>
<path d="M0 0 C1.2065625 0.0309375 1.2065625 0.0309375 2.4375 0.0625 C2.4375 1.0525 2.4375 2.0425 2.4375 3.0625 C1.7775 3.0625 1.1175 3.0625 0.4375 3.0625 C0.1075 3.7225 -0.2225 4.3825 -0.5625 5.0625 C-1.5525 3.7425 -2.5425 2.4225 -3.5625 1.0625 C-2.5625 0.0625 -2.5625 0.0625 0 0 Z " fill="#322D49" transform="translate(50.5625,132.9375)"/>
<path d="M0 0 C0.99 0.33 1.98 0.66 3 1 C3 2.32 3 3.64 3 5 C1.68 5 0.36 5 -1 5 C-0.67 3.35 -0.34 1.7 0 0 Z " fill="#303156" transform="translate(88,72)"/>
<path d="M0 0 C-1 1 -1 1 -4.5625 1.0625 C-5.696875 1.041875 -6.83125 1.02125 -8 1 C-8 0.67 -8 0.34 -8 0 C-2.25 -1.125 -2.25 -1.125 0 0 Z " fill="#252550" transform="translate(47,12)"/>
<path d="M0 0 C2.64 0 5.28 0 8 0 C8 0.33 8 0.66 8 1 C5.36 1 2.72 1 0 1 C0 0.67 0 0.34 0 0 Z " fill="#39495F" transform="translate(7,32)"/>
<path d="M0 0 C0.99 0.33 1.98 0.66 3 1 C1.02 1.33 -0.96 1.66 -3 2 C-2.01 1.34 -1.02 0.68 0 0 Z " fill="#1B1B39" transform="translate(132,196)"/>
<path d="M0 0 C2.97 0.495 2.97 0.495 6 1 C4.125 1.625 4.125 1.625 2 2 C1.34 1.34 0.68 0.68 0 0 Z " fill="#1B1B39" transform="translate(65,196)"/>
<path d="M0 0 C0.625 1.875 0.625 1.875 1 4 C0.34 4.66 -0.32 5.32 -1 6 C-0.67 4.02 -0.34 2.04 0 0 Z " fill="#393952" transform="translate(197,129)"/>
<path d="M0 0 C0.99 1.485 0.99 1.485 2 3 C1.67 3.99 1.34 4.98 1 6 C0.67 4.02 0.34 2.04 0 0 Z " fill="#393952" transform="translate(2,129)"/>
<path d="M0 0 C0.66 0.66 1.32 1.32 2 2 C1.625 4.125 1.625 4.125 1 6 C0.67 4.02 0.34 2.04 0 0 Z " fill="#393952" transform="translate(196,65)"/>
<path d="M0 0 C0.33 0.99 0.66 1.98 1 3 C0.34 3.99 -0.32 4.98 -1 6 C-0.67 4.02 -0.34 2.04 0 0 Z " fill="#393952" transform="translate(3,65)"/>
<path d="M0 0 C1.98 0 3.96 0 6 0 C5.01 0.66 4.02 1.32 3 2 C2.01 1.34 1.02 0.68 0 0 Z " fill="#3F5252" transform="translate(48,9)"/>
<path d="M0 0 C0.33 0.99 0.66 1.98 1 3 C-0.32 3.33 -1.64 3.66 -3 4 C-2.67 3.34 -2.34 2.68 -2 2 C-1.34 2 -0.68 2 0 2 C0 1.34 0 0.68 0 0 Z " fill="#2D2D3A" transform="translate(59,4)"/>
<path d="M0 0 C2.97 0.495 2.97 0.495 6 1 C5.01 1.33 4.02 1.66 3 2 C2.01 1.34 1.02 0.68 0 0 Z " fill="#39393F" transform="translate(129,2)"/>
<path d="M0 0 C0.66 0.33 1.32 0.66 2 1 C0.02 1.99 0.02 1.99 -2 3 C-1.34 2.01 -0.68 1.02 0 0 Z " fill="#111126" transform="translate(165,177)"/>
<path d="M0 0 C1.98 0.99 1.98 0.99 4 2 C3.01 2 2.02 2 1 2 C0.67 1.34 0.34 0.68 0 0 Z " fill="#11113B" transform="translate(33,177)"/>
<path d="M0 0 C0 0.99 0 1.98 0 3 C-0.99 3.495 -0.99 3.495 -2 4 C-1.34 2.68 -0.68 1.36 0 0 Z " fill="#26264C" transform="translate(179,163)"/>
<path d="M0 0 C1.485 0.99 1.485 0.99 3 2 C2.67 2.66 2.34 3.32 2 4 C1.34 2.68 0.68 1.36 0 0 Z " fill="#26264C" transform="translate(20,163)"/>
<path d="M0 0 C0.99 0.33 1.98 0.66 3 1 C2.67 1.99 2.34 2.98 2 4 C1.34 2.68 0.68 1.36 0 0 Z " fill="#4A4A6A" transform="translate(17,34)"/>
<path d="M0 0 C1.485 0.99 1.485 0.99 3 2 C2.67 2.66 2.34 3.32 2 4 C1.34 2.68 0.68 1.36 0 0 Z " fill="#26264C" transform="translate(177,33)"/>
<path d="M0 0 C0 0.99 0 1.98 0 3 C-0.99 3.495 -0.99 3.495 -2 4 C-1.34 2.68 -0.68 1.36 0 0 Z " fill="#383838" transform="translate(7,24)"/>
<path d="M0 0 C1.98 0.99 1.98 0.99 4 2 C3.01 2 2.02 2 1 2 C0.67 1.34 0.34 0.68 0 0 Z " fill="#26264C" transform="translate(163,20)"/>
<path d="M0 0 C0.33 1.32 0.66 2.64 1 4 C0.01 3.67 -0.98 3.34 -2 3 C-1.34 3 -0.68 3 0 3 C0 2.01 0 1.02 0 0 Z " fill="#434352" transform="translate(34,16)"/>
<path d="M0 0 C1.98 0.495 1.98 0.495 4 1 C2.35 1.33 0.7 1.66 -1 2 C-0.67 1.34 -0.34 0.68 0 0 Z " fill="#363654" transform="translate(67,2)"/>
<path d="M0 0 C1.98 0.99 1.98 0.99 4 2 C2.68 1.67 1.36 1.34 0 1 C0 0.67 0 0.34 0 0 Z " fill="#393939" transform="translate(56,192)"/>
<path d="M0 0 C0.66 0.33 1.32 0.66 2 1 C0.68 1.33 -0.64 1.66 -2 2 C-1.34 1.34 -0.68 0.68 0 0 Z " fill="#393939" transform="translate(142,192)"/>
<path d="M0 0 C0.66 0.33 1.32 0.66 2 1 C0.68 1.33 -0.64 1.66 -2 2 C-1.34 1.34 -0.68 0.68 0 0 Z " fill="#19193B" transform="translate(148,189)"/>
<path d="M0 0 C1.98 0.99 1.98 0.99 4 2 C2.68 1.67 1.36 1.34 0 1 C0 0.67 0 0.34 0 0 Z " fill="#192A3B" transform="translate(50,189)"/>
<path d="M0 0 C0.33 0.99 0.66 1.98 1 3 C0.01 3.495 0.01 3.495 -1 4 C-0.67 2.68 -0.34 1.36 0 0 Z " fill="#3B3B3B" transform="translate(190,146)"/>
<path d="M0 0 C0.66 1.32 1.32 2.64 2 4 C1.34 3.67 0.68 3.34 0 3 C0 2.01 0 1.02 0 0 Z " fill="#3B3B3B" transform="translate(9,146)"/>
<path d="M0 0 C0.33 0.99 0.66 1.98 1 3 C0.01 3.495 0.01 3.495 -1 4 C-0.67 2.68 -0.34 1.36 0 0 Z " fill="#393943" transform="translate(193,140)"/>
<path d="M0 0 C0.66 1.32 1.32 2.64 2 4 C1.34 3.67 0.68 3.34 0 3 C0 2.01 0 1.02 0 0 Z " fill="#393943" transform="translate(6,140)"/>
<path d="M0 0 C0.99 0.495 0.99 0.495 2 1 C1.67 1.99 1.34 2.98 1 4 C0.67 2.68 0.34 1.36 0 0 Z " fill="#393943" transform="translate(192,56)"/>
<path d="M0 0 C0.33 0.66 0.66 1.32 1 2 C0.34 2.66 -0.32 3.32 -1 4 C-0.67 2.68 -0.34 1.36 0 0 Z " fill="#393943" transform="translate(7,56)"/>
<path d="M0 0 C0.99 0.495 0.99 0.495 2 1 C1.67 1.99 1.34 2.98 1 4 C0.67 2.68 0.34 1.36 0 0 Z " fill="#3B3B3B" transform="translate(189,50)"/>
<path d="M0 0 C0.33 0.66 0.66 1.32 1 2 C0.34 2.66 -0.32 3.32 -1 4 C-0.67 2.68 -0.34 1.36 0 0 Z " fill="#3B3B3B" transform="translate(10,50)"/>
<path d="M0 0 C1.98 0.99 1.98 0.99 4 2 C2.68 1.67 1.36 1.34 0 1 C0 0.67 0 0.34 0 0 Z " fill="#2F2F70" transform="translate(28,17)"/>
<path d="M0 0 C1.32 0.33 2.64 0.66 4 1 C3.01 1.495 3.01 1.495 2 2 C1.34 1.34 0.68 0.68 0 0 Z " fill="#3B3B3B" transform="translate(146,9)"/>
<path d="M0 0 C1.32 0.33 2.64 0.66 4 1 C3.01 1.495 3.01 1.495 2 2 C1.34 1.34 0.68 0.68 0 0 Z " fill="#393943" transform="translate(140,6)"/>
<path d="M0 0 C4 1 4 1 4 1 Z " fill="#2C2C37" transform="translate(121,199)"/>
<path d="M0 0 C4 1 4 1 4 1 Z " fill="#272732" transform="translate(75,199)"/>
<path d="M0 0 C4 1 4 1 4 1 Z " fill="#1C1C1C" transform="translate(125,198)"/>
<path d="M0 0 C4 1 4 1 4 1 Z " fill="#1C1C1C" transform="translate(71,198)"/>
<path d="M0 0 C0.66 0.33 1.32 0.66 2 1 C1.01 1 0.02 1 -1 1 C-0.67 0.67 -0.34 0.34 0 0 Z " fill="#1C1C1C" transform="translate(160,181)"/>
<path d="M0 0 C0.99 0.33 1.98 0.66 3 1 C2.01 1 1.02 1 0 1 C0 0.67 0 0.34 0 0 Z " fill="#1C1C1C" transform="translate(38,181)"/>
<path d="M0 0 C0 3 0 3 0 3 Z " fill="#1C1C49" transform="translate(182,159)"/>
<path d="M0 0 C0.99 0.495 0.99 0.495 2 1 C1.67 1.66 1.34 2.32 1 3 C0.67 2.01 0.34 1.02 0 0 Z " fill="#1C1C49" transform="translate(17,159)"/>
<path d="M0 0 C1 4 1 4 1 4 Z " fill="#1C1C29" transform="translate(198,125)"/>
<path d="M0 0 C1 4 1 4 1 4 Z " fill="#1C1C29" transform="translate(1,125)"/>
<path d="M0 0 C1 4 1 4 1 4 Z " fill="#2C2C44" transform="translate(199,121)"/>
<path d="M0 0 C1 4 1 4 1 4 Z " fill="#2C2C44" transform="translate(0,121)"/>
<path d="M0 0 C1 4 1 4 1 4 Z " fill="#2C2C44" transform="translate(199,75)"/>
<path d="M0 0 C1 4 1 4 1 4 Z " fill="#2C2C44" transform="translate(0,75)"/>
<path d="M0 0 C1 4 1 4 1 4 Z " fill="#1C1C29" transform="translate(198,71)"/>
<path d="M0 0 C1 4 1 4 1 4 Z " fill="#1C1C29" transform="translate(1,71)"/>
<path d="M0 0 C0.99 0.495 0.99 0.495 2 1 C1.67 1.66 1.34 2.32 1 3 C0.67 2.01 0.34 1.02 0 0 Z " fill="#1C1C49" transform="translate(181,38)"/>
<path d="M0 0 C0 3 0 3 0 3 Z " fill="#1C1C49" transform="translate(18,38)"/>
<path d="M0 0 C0.99 0.33 1.98 0.66 3 1 C2.01 1 1.02 1 0 1 C0 0.67 0 0.34 0 0 Z " fill="#1C1C49" transform="translate(159,17)"/>
<path d="M0 0 C4 1 4 1 4 1 Z " fill="#555575" transform="translate(62,2)"/>
<path d="M0 0 C4 1 4 1 4 1 Z " fill="#1C1C69" transform="translate(125,1)"/>
<path d="M0 0 C4 1 4 1 4 1 Z " fill="#5C5C69" transform="translate(71,1)"/>
<path d="M0 0 C4 1 4 1 4 1 Z " fill="#796C83" transform="translate(121,0)"/>
<path d="M0 0 C4 1 4 1 4 1 Z " fill="#74747E" transform="translate(75,0)"/>
<path d="M0 0 C3 1 3 1 3 1 Z " fill="#151515" transform="translate(137,194)"/>
<path d="M0 0 C3 1 3 1 3 1 Z " fill="#151515" transform="translate(60,194)"/>
<path d="" fill="#151540" transform="translate(0,0)"/>
<path d="" fill="#151540" transform="translate(0,0)"/>
<path d="" fill="#151540" transform="translate(0,0)"/>
<path d="" fill="#151540" transform="translate(0,0)"/>
<path d="M0 0 C3 1 3 1 3 1 Z " fill="#11114C" transform="translate(36,11)"/>
<path d="M0 0 C3 1 3 1 3 1 Z " fill="#26264C" transform="translate(21,10)"/>
<path d="M0 0 C3 1 3 1 3 1 Z " fill="#151540" transform="translate(137,5)"/>
<path d="M0 0 C2 1 2 1 2 1 Z " fill="#404040" transform="translate(135,195)"/>
<path d="M0 0 C2 1 2 1 2 1 Z " fill="#404040" transform="translate(63,195)"/>
<path d="M0 0 C2 1 2 1 2 1 Z " fill="#555555" transform="translate(144,191)"/>
<path d="M0 0 C2 1 2 1 2 1 Z " fill="#555555" transform="translate(54,191)"/>
<path d="M0 0 C2 1 2 1 2 1 Z " fill="#15152A" transform="translate(150,188)"/>
<path d="M0 0 C2 1 2 1 2 1 Z " fill="#15152A" transform="translate(48,188)"/>
<path d="M0 0 C2 1 2 1 2 1 Z " fill="#20204A" transform="translate(153,186)"/>
<path d="M0 0 C2 1 2 1 2 1 Z " fill="#204A4A" transform="translate(45,186)"/>
<path d="M0 0 C2 1 2 1 2 1 Z " fill="#2A2A6A" transform="translate(156,184)"/>
<path d="M0 0 C2 1 2 1 2 1 Z " fill="#2A2A6A" transform="translate(42,184)"/>
<path d="" fill="#2A2A6A" transform="translate(0,0)"/>
<path d="" fill="#2A2A6A" transform="translate(0,0)"/>
<path d="" fill="#4A4A4A" transform="translate(0,0)"/>
<path d="" fill="#4A4A4A" transform="translate(0,0)"/>
<path d="" fill="#15152A" transform="translate(0,0)"/>
<path d="" fill="#15152A" transform="translate(0,0)"/>
<path d="" fill="#555555" transform="translate(0,0)"/>
<path d="" fill="#555555" transform="translate(0,0)"/>
<path d="" fill="#404080" transform="translate(0,0)"/>
<path d="" fill="#404080" transform="translate(0,0)"/>
<path d="" fill="#404080" transform="translate(0,0)"/>
<path d="" fill="#404080" transform="translate(0,0)"/>
<path d="" fill="#555555" transform="translate(0,0)"/>
<path d="" fill="#555555" transform="translate(0,0)"/>
<path d="" fill="#15152A" transform="translate(0,0)"/>
<path d="" fill="#15152A" transform="translate(0,0)"/>
<path d="" fill="#4A4A4A" transform="translate(0,0)"/>
<path d="" fill="#4A4A4A" transform="translate(0,0)"/>
<path d="" fill="#2A2A6A" transform="translate(0,0)"/>
<path d="" fill="#2A2A6A" transform="translate(0,0)"/>
<path d="M0 0 C2 1 2 1 2 1 Z " fill="#191973" transform="translate(15,33)"/>
<path d="" fill="#2A2A6A" transform="translate(0,0)"/>
<path d="M0 0 C2 1 2 1 2 1 Z " fill="#2A2A6A" transform="translate(156,15)"/>
<path d="" fill="#15156A" transform="translate(0,0)"/>
<path d="M0 0 C2 1 2 1 2 1 Z " fill="#4A4A4A" transform="translate(153,13)"/>
<path d="" fill="#191933" transform="translate(0,0)"/>
<path d="M0 0 C2 1 2 1 2 1 Z " fill="#15152A" transform="translate(150,11)"/>
<path d="M0 0 C2 1 2 1 2 1 Z " fill="#555555" transform="translate(144,8)"/>
<path d="M0 0 C2 1 2 1 2 1 Z " fill="#555555" transform="translate(54,8)"/>
<path d="M0 0 C2 1 2 1 2 1 Z " fill="#404080" transform="translate(135,4)"/>
<path d="" fill="#404040" transform="translate(0,0)"/>
<path d="" fill="#404040" transform="translate(0,0)"/>
<path d="" fill="#2B2B55" transform="translate(0,0)"/>
<path d="" fill="#2B2B55" transform="translate(0,0)"/>
<path d="" fill="#333333" transform="translate(0,0)"/>
<path d="" fill="#333333" transform="translate(0,0)"/>
<path d="" fill="#333333" transform="translate(0,0)"/>
<path d="" fill="#333333" transform="translate(0,0)"/>
<path d="" fill="#404040" transform="translate(0,0)"/>
<path d="" fill="#404040" transform="translate(0,0)"/>
<path d="" fill="#2B2B2B" transform="translate(0,0)"/>
<path d="" fill="#2B2B2B" transform="translate(0,0)"/>
<path d="" fill="#333366" transform="translate(0,0)"/>
<path d="" fill="#333366" transform="translate(0,0)"/>
<path d="" fill="#2B2B55" transform="translate(0,0)"/>
<path d="" fill="#2B2B55" transform="translate(0,0)"/>
<path d="" fill="#2B2B55" transform="translate(0,0)"/>
<path d="" fill="#2B2B55" transform="translate(0,0)"/>
<path d="" fill="#2B2B55" transform="translate(0,0)"/>
<path d="" fill="#2B2B55" transform="translate(0,0)"/>
<path d="" fill="#2B2B55" transform="translate(0,0)"/>
<path d="" fill="#2B2B55" transform="translate(0,0)"/>
<path d="" fill="#333366" transform="translate(0,0)"/>
<path d="" fill="#333366" transform="translate(0,0)"/>
<path d="" fill="#2B2B55" transform="translate(0,0)"/>
<path d="" fill="#2B2B55" transform="translate(0,0)"/>
<path d="" fill="#404040" transform="translate(0,0)"/>
<path d="" fill="#404040" transform="translate(0,0)"/>
<path d="" fill="#333366" transform="translate(0,0)"/>
<path d="" fill="#333366" transform="translate(0,0)"/>
<path d="" fill="#333366" transform="translate(0,0)"/>
<path d="" fill="#333366" transform="translate(0,0)"/>
<path d="" fill="#2B2B55" transform="translate(0,0)"/>
<path d="" fill="#2B2B55" transform="translate(0,0)"/>
<path d="" fill="#404040" transform="translate(0,0)"/>
<path d="" fill="#404040" transform="translate(0,0)"/>
<path d="" fill="#404040" transform="translate(0,0)"/>
<path d="" fill="#404040" transform="translate(0,0)"/>
<path d="" fill="#2B2B55" transform="translate(0,0)"/>
<path d="" fill="#2B2B55" transform="translate(0,0)"/>
<path d="" fill="#333366" transform="translate(0,0)"/>
<path d="" fill="#333366" transform="translate(0,0)"/>
<path d="" fill="#333366" transform="translate(0,0)"/>
<path d="" fill="#404040" transform="translate(0,0)"/>
<path d="" fill="#2B2B55" transform="translate(0,0)"/>
<path d="" fill="#000080" transform="translate(0,0)"/>
<path d="" fill="#333366" transform="translate(0,0)"/>
<path d="" fill="#000000" transform="translate(0,0)"/>
<path d="" fill="#2B2B55" transform="translate(0,0)"/>
<path d="" fill="#2B2B55" transform="translate(0,0)"/>
<path d="" fill="#2B2B55" transform="translate(0,0)"/>
<path d="" fill="#2B2B55" transform="translate(0,0)"/>
<path d="" fill="#333366" transform="translate(0,0)"/>
<path d="" fill="#2B2B55" transform="translate(0,0)"/>
<path d="" fill="#404040" transform="translate(0,0)"/>
<path d="" fill="#555555" transform="translate(0,0)"/>
<path d="" fill="#555555" transform="translate(0,0)"/>
<path d="" fill="#333366" transform="translate(0,0)"/>
<path d="" fill="#333366" transform="translate(0,0)"/>
<path d="" fill="#333366" transform="translate(0,0)"/>
<path d="" fill="#333366" transform="translate(0,0)"/>
<path d="" fill="#2B2B55" transform="translate(0,0)"/>
<path d="" fill="#244949" transform="translate(0,0)"/>
<path d="" fill="#333366" transform="translate(0,0)"/>
<path d="" fill="#494949" transform="translate(0,0)"/>
<path d="" fill="#2B2B55" transform="translate(0,0)"/>
<path d="" fill="#2B2B55" transform="translate(0,0)"/>
<path d="" fill="#2B2B55" transform="translate(0,0)"/>
<path d="" fill="#494949" transform="translate(0,0)"/>
<path d="" fill="#000000" transform="translate(0,0)"/>
<path d="" fill="#2B2B55" transform="translate(0,0)"/>
<path d="" fill="#404040" transform="translate(0,0)"/>
<path d="" fill="#000000" transform="translate(0,0)"/>
<path d="" fill="#555555" transform="translate(0,0)"/>
<path d="" fill="#000000" transform="translate(0,0)"/>
<path d="" fill="#404040" transform="translate(0,0)"/>
<path d="" fill="#333366" transform="translate(0,0)"/>
</svg>
