<?xml version="1.0" encoding="UTF-8"?>
<svg version="1.1" xmlns="http://www.w3.org/2000/svg" width="300" height="168">
<path d="M0 0 C99 0 198 0 300 0 C300 55.44 300 110.88 300 168 C201 168 102 168 0 168 C0 112.56 0 57.12 0 0 Z " fill="#222222" transform="translate(0,0)"/>
<path d="M0 0 C3.7654506 1.50618024 6.66373792 2.99798957 10.01220703 5.17333984 C17.09322827 9.74120177 23.52585287 12.39582674 31.7578125 14.1484375 C35.03542552 15.00930453 37.30557099 15.95322274 40 18 C40.9375 21.5 40.9375 21.5 41 25 C40.34 25.99 39.68 26.98 39 28 C38.34 28 37.68 28 37 28 C37.495 31.96 37.495 31.96 38 36 C34.7 36 31.4 36 28 36 C28 36.66 28 37.32 28 38 C32.62 38 37.24 38 42 38 C41.2660481 35.02252712 41.2660481 35.02252712 39.4375 33.5 C38 32 38 32 38 29 C49.27622703 27.77911527 49.27622703 27.77911527 53.31640625 30.640625 C55.06806333 32.68359438 56.55244857 34.73354804 58 37 C58.56074219 37.6290625 59.12148437 38.258125 59.69921875 38.90625 C61.46186229 41.74341797 61.11580876 43.47927854 60.6875 46.75 C60.56761719 47.73484375 60.44773438 48.7196875 60.32421875 49.734375 C60.21722656 50.48203125 60.11023438 51.2296875 60 52 C59.34 52 58.68 52 58 52 C58 62.23 58 72.46 58 83 C42.49 83 26.98 83 11 83 C11 72.77 11 62.54 11 52 C9.68 52 8.36 52 7 52 C5.96374774 46.89933612 6.23674561 42.86858333 9.05078125 38.44140625 C9.91017302 37.23842147 10.78953553 36.04947281 11.6875 34.875 C12.12175293 34.29468018 12.55600586 33.71436035 13.00341797 33.11645508 C15.17428488 30.44681043 16.35049186 29.08421209 19.83203125 28.6328125 C20.54746094 28.75398438 21.26289063 28.87515625 22 29 C20.57021934 23.94894081 19.17813666 21.72123346 14.55078125 19.12890625 C12.81563842 18.25143858 11.06898967 17.39641499 9.3125 16.5625 C8.41982422 16.11712891 7.52714844 15.67175781 6.60742188 15.21289062 C4.41458314 14.12233446 2.20850766 13.0584651 0 12 C0 8.04 0 4.08 0 0 Z " fill="#F07250" transform="translate(168,43)"/>
<path d="M0 0 C3.7654506 1.50618024 6.66373792 2.99798957 10.01220703 5.17333984 C17.09322827 9.74120177 23.52585287 12.39582674 31.7578125 14.1484375 C35.03542552 15.00930453 37.30557099 15.95322274 40 18 C40.9375 21.5 40.9375 21.5 41 25 C40.34 25.99 39.68 26.98 39 28 C38.34 28 37.68 28 37 28 C37.495 31.96 37.495 31.96 38 36 C34.7 36 31.4 36 28 36 C28 36.66 28 37.32 28 38 C32.62 38 37.24 38 42 38 C41.2660481 35.02252712 41.2660481 35.02252712 39.4375 33.5 C38 32 38 32 38 29 C41.90162229 28.19890645 45.11898564 28.01635521 49 29 C53.03302307 32.54820788 56.11419471 36.48036569 59 41 C59 41.66 59 42.32 59 43 C41.84 43 24.68 43 7 43 C8.98 40.36 10.96 37.72 13 35 C13.680625 33.845 14.36125 32.69 15.0625 31.5 C17 29 17 29 19.75 28.625 C20.4925 28.74875 21.235 28.8725 22 29 C20.57021934 23.94894081 19.17813666 21.72123346 14.55078125 19.12890625 C12.81563842 18.25143858 11.06898967 17.39641499 9.3125 16.5625 C8.41982422 16.11712891 7.52714844 15.67175781 6.60742188 15.21289062 C4.41458314 14.12233446 2.20850766 13.0584651 0 12 C0 8.04 0 4.08 0 0 Z " fill="#F2AF86" transform="translate(168,43)"/>
<path d="M0 0 C5.55675674 2.32054175 9.16315997 6.79795339 12 12 C12.3641422 15.85990737 11.9137765 19.24494971 11 23 C10.34 23 9.68 23 9 23 C9 33.23 9 43.46 9 54 C6.69 54 4.38 54 2 54 C2 43.77 2 33.54 2 23 C-13.84 23.495 -13.84 23.495 -30 24 C-30.33 33.57 -30.66 43.14 -31 53 C-34.465 53.495 -34.465 53.495 -38 54 C-38 43.77 -38 33.54 -38 23 C-39.32 23 -40.64 23 -42 23 C-42 20.03 -42 17.06 -42 14 C-24.84 14 -7.68 14 10 14 C6.7 9.71 3.4 5.42 0 1 C0 0.67 0 0.34 0 0 Z " fill="#BD7F59" transform="translate(217,72)"/>
<path d="M0 0 C3.59334042 1.50060492 5.75745747 3.51811868 8.3125 6.4375 C9.03050781 7.21996094 9.74851563 8.00242187 10.48828125 8.80859375 C12 12 12 12 11 23 C-6.49 23 -23.98 23 -42 23 C-42 20.03 -42 17.06 -42 14 C-24.84 14 -7.68 14 10 14 C6.7 9.71 3.4 5.42 0 1 C0 0.67 0 0.34 0 0 Z " fill="#CD735B" transform="translate(217,72)"/>
<path d="M0 0 C1.11375 0.185625 1.11375 0.185625 2.25 0.375 C2.58 2.355 2.91 4.335 3.25 6.375 C3.91 6.375 4.57 6.375 5.25 6.375 C5.58 7.035 5.91 7.695 6.25 8.375 C8.96446979 8.68741455 11.58909361 8.88836592 14.3125 9 C15.45041992 9.05800781 15.45041992 9.05800781 16.61132812 9.1171875 C18.49047195 9.21173562 20.37020336 9.29446756 22.25 9.375 C21.5160481 6.39752712 21.5160481 6.39752712 19.6875 4.875 C18.25 3.375 18.25 3.375 18.25 0.375 C22.15162229 -0.42609355 25.36898564 -0.60864479 29.25 0.375 C33.28302307 3.92320788 36.36419471 7.85536569 39.25 12.375 C39.25 13.035 39.25 13.695 39.25 14.375 C22.09 14.375 4.93 14.375 -12.75 14.375 C-10.77 11.735 -8.79 9.095 -6.75 6.375 C-6.069375 5.22 -5.38875 4.065 -4.6875 2.875 C-2.75 0.375 -2.75 0.375 0 0 Z " fill="#FADC9A" transform="translate(187.75,71.625)"/>
<path d="M0 0 C3.47485838 2.07012839 5.74352278 4.11634312 7 8 C7.49388216 12.64249233 6.88944842 15.31346236 4 19 C1.15901241 21.28857333 -0.76530179 21.96088363 -4.375 22.5625 C-9.2143014 21.81157392 -11.74360418 19.55075928 -15 16 C-16.43304064 13.13391871 -16.30644155 11.18699217 -16 8 C-11.95613116 0.74892484 -8.02336733 -1.15626735 0 0 Z " fill="#F1F1F1" transform="translate(73,81)"/>
<path d="M0 0 C3.49890004 2.11391877 4.70578686 3.11736059 6 7 C0.375 7.25 0.375 7.25 -3 5 C-6.32240324 5.3241369 -7.60776303 5.60776303 -10 8 C-9.90304884 12.34194936 -9.90304884 12.34194936 -8 16 C-4.5 16.16666667 -4.5 16.16666667 -1 16 C-0.67 15.67 -0.34 15.34 0 15 C-1.32 14.67 -2.64 14.34 -4 14 C-4 12.68 -4 11.36 -4 10 C-0.37 10 3.26 10 7 10 C6.71998862 14.01349645 6.24236211 15.72035142 3.5625 18.8125 C-0.43886359 22.22829819 -2.74292739 22.3564117 -8 22 C-12.14623807 20.20957902 -14.17613802 18.12768764 -16 14 C-16.59866575 9.98038714 -16.18471519 8.33121345 -14.1875 4.75 C-10.05987962 -0.43900848 -6.26853067 -0.91278605 0 0 Z " fill="#F2F2F2" transform="translate(145,81)"/>
<path d="M0 0 C10.56 0 21.12 0 32 0 C32 10.23 32 20.46 32 31 C21.11 31 10.22 31 -1 31 C-0.67 20.77 -0.34 10.54 0 0 Z M2 3 C2 11.91 2 20.82 2 30 C10.91 30 19.82 30 29 30 C29 21.09 29 12.18 29 3 C20.09 3 11.18 3 2 3 Z " fill="#9B5940" transform="translate(186,95)"/>
<path d="M0 0 C1.65 0 3.3 0 5 0 C6.80078125 2.1875 6.80078125 2.1875 8.3125 5 C8.82425781 5.928125 9.33601563 6.85625 9.86328125 7.8125 C10.23839844 8.534375 10.61351563 9.25625 11 10 C11.33 6.7 11.66 3.4 12 0 C13.65 0 15.3 0 17 0 C17 7.26 17 14.52 17 22 C15.35 22 13.7 22 12 22 C10.234375 19.91796875 10.234375 19.91796875 8.75 17.1875 C8.24984375 16.29417969 7.7496875 15.40085937 7.234375 14.48046875 C6 12 6 12 5 9 C4.67 12.96 4.34 16.92 4 21 C2.68 21 1.36 21 0 21 C0 14.07 0 7.14 0 0 Z " fill="#F7F7F7" transform="translate(109,81)"/>
<path d="M0 0 C1.65 0 3.3 0 5 0 C6.65 4.29 8.3 8.58 10 13 C11.65 8.71 13.3 4.42 15 0 C16.98 0 18.96 0 21 0 C19.34772342 5.21771551 17.56563285 10.38211652 15.625 15.5 C15.05652344 17.03140625 15.05652344 17.03140625 14.4765625 18.59375 C13 21 13 21 10.3359375 21.84375 C9.56507812 21.8953125 8.79421875 21.946875 8 22 C6.65791246 18.89954577 5.32786246 15.79407011 4 12.6875 C3.6184375 11.80642578 3.236875 10.92535156 2.84375 10.01757812 C2.4828125 9.17001953 2.121875 8.32246094 1.75 7.44921875 C1.41484375 6.66893311 1.0796875 5.88864746 0.734375 5.0847168 C0 3 0 3 0 0 Z " fill="#F0F0F0" transform="translate(35,81)"/>
<path d="M0 0 C1.98 0 3.96 0 6 0 C6 9.9 6 19.8 6 30 C4.02 29.67 2.04 29.34 0 29 C0 19.43 0 9.86 0 0 Z " fill="#C5A468" transform="translate(220,96)"/>
<path d="M0 0 C5.61 0 11.22 0 17 0 C17 1.32 17 2.64 17 4 C15.02 4 13.04 4 11 4 C11 9.94 11 15.88 11 22 C9.35 22 7.7 22 6 22 C6 16.06 6 10.12 6 4 C4.02 4 2.04 4 0 4 C0 2.68 0 1.36 0 0 Z " fill="#FAFAFA" transform="translate(81,81)"/>
<path d="M0 0 C1.65 0 3.3 0 5 0 C5 9.9 5 19.8 5 30 C3.35 30 1.7 30 0 30 C0 20.1 0 10.2 0 0 Z " fill="#F0D8AC" transform="translate(179,96)"/>
<path d="M0 0 C2.12472576 -0.05386629 4.24983652 -0.09273071 6.375 -0.125 C7.55835938 -0.14820313 8.74171875 -0.17140625 9.9609375 -0.1953125 C13 0 13 0 15 2 C14.625 4.625 14.625 4.625 14 7 C14.474375 6.525625 14.94875 6.05125 15.4375 5.5625 C16.29166667 4.70833333 17.14583333 3.85416667 18 3 C18 2.01 18 1.02 18 0 C18.99 0 19.98 0 21 0 C21.99 2.97 22.98 5.94 24 9 C23.030625 8.979375 22.06125 8.95875 21.0625 8.9375 C18.12534105 8.64381501 18.12534105 8.64381501 17 10 C15.33394172 10.0450286 13.66621616 10.03874921 12 10 C10.68 10 9.36 10 8 10 C8 7.36 8 4.72 8 2 C7.01 2 6.02 2 5 2 C5 4.31 5 6.62 5 9 C4.34 9 3.68 9 3 9 C3 6.69 3 4.38 3 2 C2.01 2 1.02 2 0 2 C0 1.34 0 0.68 0 0 Z " fill="#DEDEDE" transform="translate(34,61)"/>
<path d="M0 0 C3.5625 0.375 3.5625 0.375 5.5625 2.0625 C6.84050253 5.01788086 6.64301862 6.36498383 5.5625 9.375 C4.3125 11.1875 4.3125 11.1875 2.5625 12.375 C-0.7600955 12.97136329 -2.01205503 12.66609393 -4.8125 10.75 C-6.4375 8.375 -6.4375 8.375 -6.3125 5.25 C-5.05218932 1.1089792 -4.34449835 0.47394527 0 0 Z " fill="#222222" transform="translate(68.4375,85.625)"/>
<path d="M0 0 C1.65 0 3.3 0 5 0 C5 7.26 5 14.52 5 22 C3.35 22 1.7 22 0 22 C0 14.74 0 7.48 0 0 Z " fill="#F7F7F7" transform="translate(100,81)"/>
<path d="M0 0 C2.64 0 5.28 0 8 0 C8.66 4.29 9.32 8.58 10 13 C7.36 13 4.72 13 2 13 C0.24252386 8.49646738 -0.19294408 4.82360189 0 0 Z " fill="#F3E5CB" transform="translate(196,66)"/>
<path d="M0 0 C0.99 0 1.98 0 3 0 C3 9.57 3 19.14 3 29 C2.01 29 1.02 29 0 29 C0 19.43 0 9.86 0 0 Z " fill="#F5C67E" transform="translate(220,96)"/>
<path d="M0 0 C0.66 0 1.32 0 2 0 C2 9.57 2 19.14 2 29 C1.01 29 0.02 29 -1 29 C-1.02891546 24.54168018 -1.04676981 20.08338431 -1.0625 15.625 C-1.07087891 14.35398437 -1.07925781 13.08296875 -1.08789062 11.7734375 C-1.09111328 10.56171875 -1.09433594 9.35 -1.09765625 8.1015625 C-1.10289307 6.98088379 -1.10812988 5.86020508 -1.11352539 4.70556641 C-1 2 -1 2 0 0 Z " fill="#CA6145" transform="translate(216,96)"/>
<path d="M0 0 C3.80199928 1.51908323 5.77187204 3.77448786 8.3125 6.9375 C9.03050781 7.81277344 9.74851563 8.68804687 10.48828125 9.58984375 C10.98714844 10.38519531 11.48601562 11.18054688 12 12 C11.67 12.99 11.34 13.98 11 15 C-6.49 15 -23.98 15 -42 15 C-42 14.67 -42 14.34 -42 14 C-24.84 14 -7.68 14 10 14 C6.7 9.71 3.4 5.42 0 1 C0 0.67 0 0.34 0 0 Z " fill="#827652" transform="translate(217,72)"/>
<path d="M0 0 C3.29714793 0.32971479 4.6226839 0.6226839 7 3 C6.9375 5.5 6.9375 5.5 6 8 C3.4375 9.3125 3.4375 9.3125 1 10 C-1.0625 8.25 -1.0625 8.25 -3 6 C-2.82246387 2.98188578 -2.16264785 2.16264785 0 0 Z " fill="#D0D0D0" transform="translate(85,61)"/>
<path d="M0 0 C1.9375 0.625 1.9375 0.625 4 2 C4.9375 4.875 4.9375 4.875 5 8 C3.75 10.375 3.75 10.375 2 12 C1.01 12 0.02 12 -1 12 C-0.67 13.65 -0.34 15.3 0 17 C0.99 17.33 1.98 17.66 3 18 C3 18.99 3 19.98 3 21 C-1.62 21 -6.24 21 -11 21 C-11 20.34 -11 19.68 -11 19 C-7.7 19 -4.4 19 -1 19 C-1.226875 17.741875 -1.45375 16.48375 -1.6875 15.1875 C-1.98046875 12.94921875 -1.98046875 12.94921875 -2 11 C-1 10 0 9 1 8 C0.97230713 5.23625189 0.49338875 2.73606486 0 0 Z " fill="#9D7255" transform="translate(207,60)"/>
<path d="M0 0 C0.99 0 1.98 0 3 0 C3.66 0.99 4.32 1.98 5 3 C5.33 2.01 5.66 1.02 6 0 C6.99 0 7.98 0 9 0 C10.4783226 2.95664519 10.06032783 5.74229737 10 9 C9.34 9 8.68 9 8 9 C7.67 8.01 7.34 7.02 7 6 C6.67 6.99 6.34 7.98 6 9 C5.01 9 4.02 9 3 9 C2.67 8.34 2.34 7.68 2 7 C1.67 7.66 1.34 8.32 1 9 C0.34 9 -0.32 9 -1 9 C-0.67 6.03 -0.34 3.06 0 0 Z " fill="#DEDEDE" transform="translate(101,61)"/>
<path d="M0 0 C4.29 0 8.58 0 13 0 C13 0.99 13 1.98 13 3 C12.01 2.67 11.02 2.34 10 2 C10.185625 2.5775 10.37125 3.155 10.5625 3.75 C11.04023546 6.20692525 10.75729364 7.64397534 10 10 C9.34 10 8.68 10 8 10 C8 7.36 8 4.72 8 2 C7.01 2 6.02 2 5 2 C5 4.31 5 6.62 5 9 C4.34 9 3.68 9 3 9 C3 6.69 3 4.38 3 2 C2.01 2 1.02 2 0 2 C0 1.34 0 0.68 0 0 Z " fill="#E3E3E3" transform="translate(34,61)"/>
<path d="M0 0 C3 1 3 1 4 3 C4.33 2.01 4.66 1.02 5 0 C5.66 0 6.32 0 7 0 C7 2.97 7 5.94 7 9 C6.01 9 5.02 9 4 9 C3.67 8.34 3.34 7.68 3 7 C2.67 7.66 2.34 8.32 2 9 C1.34 9 0.68 9 0 9 C0 6.03 0 3.06 0 0 Z " fill="#F2F2F2" transform="translate(59,61)"/>
<path d="M0 0 C2.4375 0.375 2.4375 0.375 5 1 C5.33 1.66 5.66 2.32 6 3 C4.35 2.67 2.7 2.34 1 2 C1 2.66 1 3.32 1 4 C2.65 4.33 4.3 4.66 6 5 C5.67 6.32 5.34 7.64 5 9 C3.02 9 1.04 9 -1 9 C-1.33 8.01 -1.66 7.02 -2 6 C0.475 6.99 0.475 6.99 3 8 C3 7.34 3 6.68 3 6 C0.525 5.01 0.525 5.01 -2 4 C-1.34 2.68 -0.68 1.36 0 0 Z " fill="#E0E0E0" transform="translate(69,61)"/>
<path d="M0 0 C1.875 1.5 1.875 1.5 3 3 C2.34 4.32 1.68 5.64 1 7 C1 6.01 1 5.02 1 4 C-0.64666203 4.1135629 -2.29236082 4.24117381 -3.9375 4.375 C-4.85402344 4.44460937 -5.77054688 4.51421875 -6.71484375 4.5859375 C-7.46894531 4.72257812 -8.22304687 4.85921875 -9 5 C-9.33 5.66 -9.66 6.32 -10 7 C-9.60856977 4.72970466 -9.11258722 3.16591802 -7.8125 1.25 C-5.1220528 -0.60548083 -3.18649624 -0.39831203 0 0 Z " fill="#906549" transform="translate(203,62)"/>
<path d="M0 0 C0.33 3.3 0.66 6.6 1 10 C0.01 9.67 -0.98 9.34 -2 9 C-2 8.34 -2 7.68 -2 7 C-2.66 7 -3.32 7 -4 7 C-4.33 5.02 -4.66 3.04 -5 1 C-3 0 -3 0 0 0 Z " fill="#AC9067" transform="translate(195,71)"/>
<path d="M0 0 C1.32 0.33 2.64 0.66 4 1 C4 1.99 4 2.98 4 4 C-0.62 4 -5.24 4 -10 4 C-10 3.34 -10 2.68 -10 2 C-6.7 2 -3.4 2 0 2 C0 1.34 0 0.68 0 0 Z " fill="#3D4750" transform="translate(206,77)"/>
<path d="M0 0 C1.65 0 3.3 0 5 0 C4.67 1.65 4.34 3.3 4 5 C4.66 5 5.32 5 6 5 C6.33 5.99 6.66 6.98 7 8 C2.25 8.125 2.25 8.125 0 7 C0 4.69 0 2.38 0 0 Z " fill="#A9A9A9" transform="translate(44,63)"/>
<path d="M0 0 C1.65 0 3.3 0 5 0 C5.33 0.66 5.66 1.32 6 2 C5.34 2.66 4.68 3.32 4 4 C4 3.34 4 2.68 4 2 C3.34 2 2.68 2 2 2 C2 2.99 2 3.98 2 5 C2.66 5 3.32 5 4 5 C4.66 6.32 5.32 7.64 6 9 C4 9 2 9 0 9 C0 6.03 0 3.06 0 0 Z " fill="#F2F2F2" transform="translate(93,61)"/>
<path d="M0 0 C0.99 0 1.98 0 3 0 C4.4783226 2.95664519 4.06032783 5.74229737 4 9 C3.34 9 2.68 9 2 9 C1.67 8.01 1.34 7.02 1 6 C0.67 6.99 0.34 7.98 0 9 C-0.66 9 -1.32 9 -2 9 C-1.34 6.03 -0.68 3.06 0 0 Z " fill="#E8E8E8" transform="translate(107,61)"/>
<path d="M0 0 C3.29714793 0.32971479 4.6226839 0.6226839 7 3 C6.625 5.625 6.625 5.625 6 8 C4.68 8.33 3.36 8.66 2 9 C2.66 7.35 3.32 5.7 4 4 C2.68 4 1.36 4 0 4 C-0.66 3.34 -1.32 2.68 -2 2 C-1.34 1.34 -0.68 0.68 0 0 Z " fill="#E8E8E8" transform="translate(85,61)"/>
<path d="M0 0 C0.66 0.33 1.32 0.66 2 1 C-2.455 6.94 -2.455 6.94 -7 13 C-7.99 12.67 -8.98 12.34 -10 12 C-6.7 8.04 -3.4 4.08 0 0 Z " fill="#F5F3EF" transform="translate(185,73)"/>
<path d="M0 0 C3.82852379 1.51761303 5.73321866 3.79343415 8.25 7 C8.95640625 7.886875 9.6628125 8.77375 10.390625 9.6875 C12 12 12 12 12 14 C11.34 14 10.68 14 10 14 C8.20849615 11.88837497 6.53029747 9.77651833 4.875 7.5625 C4.40707031 6.95083984 3.93914062 6.33917969 3.45703125 5.70898438 C0 1.14832362 0 1.14832362 0 0 Z " fill="#9C885F" transform="translate(217,72)"/>
<path d="M0 0 C1.65 0 3.3 0 5 0 C5 0.66 5 1.32 5 2 C4.01 2 3.02 2 2 2 C2 2.66 2 3.32 2 4 C2.99 4 3.98 4 5 4 C5 4.66 5 5.32 5 6 C4.01 6 3.02 6 2 6 C2 6.99 2 7.98 2 9 C1.34 9 0.68 9 0 9 C0 6.03 0 3.06 0 0 Z " fill="#F3F3F3" transform="translate(76,61)"/>
<path d="M0 0 C1.65 0 3.3 0 5 0 C6.33332095 2.6666419 5.67102033 4.16680303 5 7 C5.66 7.33 6.32 7.66 7 8 C5.35 8 3.7 8 2 8 C2 6.33333333 2 4.66666667 2 3 C1.34 3 0.68 3 0 3 C0 2.01 0 1.02 0 0 Z " fill="#676767" transform="translate(95,63)"/>
<path d="M0 0 C0.66 0 1.32 0 2 0 C2.66 3.96 3.32 7.92 4 12 C3.34 12 2.68 12 2 12 C1.67 10.68 1.34 9.36 1 8 C0.01 8.495 0.01 8.495 -1 9 C-1.125 2.25 -1.125 2.25 0 0 Z " fill="#ECAB7A" transform="translate(194,67)"/>
<path d="M0 0 C0.99 0 1.98 0 3 0 C3 2.31 3 4.62 3 7 C2.01 7 1.02 7 0 7 C0 4.69 0 2.38 0 0 Z " fill="#0B0B0B" transform="translate(39,63)"/>
<path d="M0 0 C1.32 0.66 2.64 1.32 4 2 C3.67 2.99 3.34 3.98 3 5 C1.68 5 0.36 5 -1 5 C-0.67 3.35 -0.34 1.7 0 0 Z " fill="#252525" transform="translate(86,63)"/>
<path d="M0 0 C0.33 0.66 0.66 1.32 1 2 C2.65 1.67 4.3 1.34 6 1 C6 1.66 6 2.32 6 3 C2.92382812 3.29296875 2.92382812 3.29296875 -0.15234375 3.5859375 C-1.06693359 3.79089844 -1.06693359 3.79089844 -2 4 C-2.33 4.66 -2.66 5.32 -3 6 C-2.42655063 3.13275314 -2.1385485 2.1385485 0 0 Z " fill="#63412D" transform="translate(196,63)"/>
</svg>
