<?xml version="1.0" encoding="UTF-8"?>
<svg version="1.1" xmlns="http://www.w3.org/2000/svg" width="1920" height="1080">
<path d="M0 0 C633.6 0 1267.2 0 1920 0 C1920 356.4 1920 712.8 1920 1080 C1286.4 1080 652.8 1080 0 1080 C0 723.6 0 367.2 0 0 Z " fill="#1A1919" transform="translate(0,0)"/>
<path d="M0 0 C633.6 0 1267.2 0 1920 0 C1920 124.74 1920 249.48 1920 378 C1634.22 378 1348.44 378 1054 378 C1054 400.11 1054 422.22 1054 445 C991.96 445 929.92 445 866 445 C866 422.89 866 400.78 866 378 C580.22 378 294.44 378 0 378 C0 253.26 0 128.52 0 0 Z " fill="#1B1B1A" transform="translate(0,0)"/>
<path d="M0 0 C102.96 0 205.92 0 312 0 C312 44.55 312 89.1 312 135 C209.04 135 106.08 135 0 135 C0 90.45 0 45.9 0 0 Z " fill="#1A1919" transform="translate(324,607)"/>
<path d="M0 0 C62.04 0 124.08 0 188 0 C188 24.75 188 49.5 188 75 C473.78 75 759.56 75 1054 75 C1054 77.64 1054 80.28 1054 83 C768.22 83 482.44 83 188 83 C188 105.11 188 127.22 188 150 C125.96 150 63.92 150 0 150 C0 127.89 0 105.78 0 83 C-285.78 83 -571.56 83 -866 83 C-866 80.36 -866 77.72 -866 75 C-580.22 75 -294.44 75 0 75 C0 50.25 0 25.5 0 0 Z " fill="#EAEAEA" transform="translate(866,295)"/>
<path d="M0 0 C97.35 0 194.7 0 295 0 C295 23.76 295 47.52 295 72 C197.65 72 100.3 72 0 72 C0 48.24 0 24.48 0 0 Z " fill="#F1DF72" transform="translate(25,25)"/>
<path d="M0 0 C90.09 0 180.18 0 273 0 C273 23.76 273 47.52 273 72 C182.91 72 92.82 72 0 72 C0 48.24 0 24.48 0 0 Z " fill="#EE69D1" transform="translate(25,125)"/>
<path d="M0 0 C54.12 0 108.24 0 164 0 C164 23.76 164 47.52 164 72 C109.88 72 55.76 72 0 72 C0 48.24 0 24.48 0 0 Z " fill="#7A9CE6" transform="translate(398,780)"/>
<path d="M0 0 C102.96 0 205.92 0 312 0 C312 44.55 312 89.1 312 135 C209.04 135 106.08 135 0 135 C0 90.45 0 45.9 0 0 Z M5 5 C5 46.25 5 87.5 5 130 C104.66 130 204.32 130 307 130 C307 88.75 307 47.5 307 5 C207.34 5 107.68 5 5 5 Z " fill="#EEEEEE" transform="translate(324,607)"/>
<path d="M0 0 C3.3 0 6.6 0 10 0 C10 9.57 10 19.14 10 29 C11.32 29 12.64 29 14 29 C14 19.43 14 9.86 14 0 C19.61 0 25.22 0 31 0 C31 14.85 31 29.7 31 45 C28.69 45 26.38 45 24 45 C24 47.31 24 49.62 24 52 C20.7 52 17.4 52 14 52 C14 49.69 14 47.38 14 45 C11.69 45 9.38 45 7 45 C7 42.69 7 40.38 7 38 C5.68 38 4.36 38 3 38 C3 40.31 3 42.62 3 45 C0.69 45 -1.62 45 -4 45 C-4 47.31 -4 49.62 -4 52 C-7.63 52 -11.26 52 -15 52 C-15 49.69 -15 47.38 -15 45 C-16.98 45 -18.96 45 -21 45 C-21 30.48 -21 15.96 -21 1 C-15.72 1 -10.44 1 -5 1 C-5 10.24 -5 19.48 -5 29 C-3.35 29 -1.7 29 0 29 C0 19.43 0 9.86 0 0 Z " fill="#E1EBEA" transform="translate(1036,137)"/>
<path d="M0 0 C8.25 0 16.5 0 25 0 C25 2.64 25 5.28 25 8 C26.98 8 28.96 8 31 8 C31 10.31 31 12.62 31 15 C33.64 15 36.28 15 39 15 C39 27.21 39 39.42 39 52 C33.06 52 27.12 52 21 52 C21 47.38 21 42.76 21 38 C15.06 38 9.12 38 3 38 C3 42.62 3 47.24 3 52 C-2.61 52 -8.22 52 -14 52 C-14 39.79 -14 27.58 -14 15 C-11.69 15 -9.38 15 -7 15 C-7 12.69 -7 10.38 -7 8 C-4.69 8 -2.38 8 0 8 C0 5.36 0 2.72 0 0 Z " fill="#DFE9E8" transform="translate(1141,137)"/>
<path d="M0 0 C1.58206422 0.00574487 3.16410406 0.01876032 4.74609375 0.03515625 C7.53046875 0.05578125 10.31484375 0.07640625 13.18359375 0.09765625 C13.18359375 7.35765625 13.18359375 14.61765625 13.18359375 22.09765625 C19.12359375 22.09765625 25.06359375 22.09765625 31.18359375 22.09765625 C31.18359375 14.83765625 31.18359375 7.57765625 31.18359375 0.09765625 C37.12359375 0.09765625 43.06359375 0.09765625 49.18359375 0.09765625 C50.35973214 17.50450447 49.94705361 34.6907715 49.18359375 52.09765625 C43.24359375 52.09765625 37.30359375 52.09765625 31.18359375 52.09765625 C31.18359375 45.16765625 31.18359375 38.23765625 31.18359375 31.09765625 C25.24359375 31.09765625 19.30359375 31.09765625 13.18359375 31.09765625 C13.18359375 38.02765625 13.18359375 44.95765625 13.18359375 52.09765625 C7.24359375 52.09765625 1.30359375 52.09765625 -4.81640625 52.09765625 C-4.84104738 44.85278576 -4.85923805 37.60793943 -4.87133789 30.36303711 C-4.87637981 27.89623592 -4.88321316 25.42943773 -4.8918457 22.96264648 C-4.9039175 19.42561096 -4.90963581 15.8886148 -4.9140625 12.3515625 C-4.91922379 11.24116104 -4.92438507 10.13075958 -4.92970276 8.98670959 C-4.92977829 7.96572678 -4.92985382 6.94474396 -4.92993164 5.89282227 C-4.93215225 4.98903336 -4.93437286 4.08524445 -4.93666077 3.15406799 C-4.72060599 -0.54057563 -3.88205588 0.09933613 0 0 Z " fill="#DAE5E3" transform="translate(1074.81640625,136.90234375)"/>
<path d="M0 0 C5.94 0 11.88 0 18 0 C18 14.19 18 28.38 18 43 C23.61 43 29.22 43 35 43 C35 28.81 35 14.62 35 0 C40.94 0 46.88 0 53 0 C53 14.85 53 29.7 53 45 C50.69 45 48.38 45 46 45 C46 47.31 46 49.62 46 52 C33.13 52 20.26 52 7 52 C7 49.69 7 47.38 7 45 C4.69 45 2.38 45 0 45 C0 30.15 0 15.3 0 0 Z " fill="#DAE5E3" transform="translate(733,137)"/>
<path d="M0 0 C12.87 0 25.74 0 39 0 C39 2.64 39 5.28 39 8 C41.64 8 44.28 8 47 8 C47 13.28 47 18.56 47 24 C44.36 24 41.72 24 39 24 C39 26.64 39 29.28 39 32 C36.36 32 33.72 32 31 32 C31 34.64 31 37.28 31 40 C26.05 40 21.1 40 16 40 C16 42.31 16 44.62 16 47 C26.23 47 36.46 47 47 47 C47 49.64 47 52.28 47 55 C28.85 55 10.7 55 -8 55 C-8 50.05 -8 45.1 -8 40 C-5.36 40 -2.72 40 0 40 C0 37.36 0 34.72 0 32 C2.64 32 5.28 32 8 32 C8 29.36 8 26.72 8 24 C12.95 24 17.9 24 23 24 C23 21.36 23 18.72 23 16 C25.64 16 28.28 16 31 16 C31 13.36 31 10.72 31 8 C23.41 8 15.82 8 8 8 C8 10.64 8 13.28 8 16 C2.72 16 -2.56 16 -8 16 C-8 13.36 -8 10.72 -8 8 C-5.36 8 -2.72 8 0 8 C0 5.36 0 2.72 0 0 Z " fill="#737373" transform="translate(493,643)"/>
<path d="M0 0 C17.49 0 34.98 0 53 0 C53 3.3 53 6.6 53 10 C41.45 10 29.9 10 18 10 C18 13.96 18 17.92 18 22 C27.24 22 36.48 22 46 22 C46 24.97 46 27.94 46 31 C36.76 31 27.52 31 18 31 C18 34.96 18 38.92 18 43 C29.55 43 41.1 43 53 43 C53 45.97 53 48.94 53 52 C35.51 52 18.02 52 0 52 C0 34.84 0 17.68 0 0 Z " fill="#DEE8E7" transform="translate(789,137)"/>
<path d="M0 0 C15.51 0 31.02 0 47 0 C47 3.3 47 6.6 47 10 C49.97 10 52.94 10 56 10 C56 15.94 56 21.88 56 28 C53.03 28 50.06 28 47 28 C47 31.3 47 34.6 47 38 C43.7 38 40.4 38 37 38 C37 40.97 37 43.94 37 47 C27.76 47 18.52 47 9 47 C9 44.03 9 41.06 9 38 C15.27 38 21.54 38 28 38 C28 34.7 28 31.4 28 28 C30.97 28 33.94 28 37 28 C37 25.03 37 22.06 37 19 C27.76 19 18.52 19 9 19 C9 21.97 9 24.94 9 28 C3.06 28 -2.88 28 -9 28 C-9 22.06 -9 16.12 -9 10 C-6.03 10 -3.06 10 0 10 C0 6.7 0 3.4 0 0 Z " fill="#353535" transform="translate(932,333)"/>
<path d="M0 0 C12.87 0 25.74 0 39 0 C39 2.64 39 5.28 39 8 C40.98 8 42.96 8 45 8 C45 10.97 45 13.94 45 17 C39.39 17 33.78 17 28 17 C28 14.69 28 12.38 28 10 C22.06 10 16.12 10 10 10 C10 13.96 10 17.92 10 22 C19.24 22 28.48 22 38 22 C38 24.31 38 26.62 38 29 C40.64 29 43.28 29 46 29 C46 34.28 46 39.56 46 45 C43.03 45.495 43.03 45.495 40 46 C39.67 47.98 39.34 49.96 39 52 C26.13 52 13.26 52 0 52 C0 49.69 0 47.38 0 45 C-2.31 45 -4.62 45 -7 45 C-7 42.03 -7 39.06 -7 36 C-1.39 36 4.22 36 10 36 C10 38.31 10 40.62 10 43 C15.94 43 21.88 43 28 43 C28 39.04 28 35.08 28 31 C18.76 31 9.52 31 0 31 C0 28.69 0 26.38 0 24 C-2.31 24 -4.62 24 -7 24 C-7 18.72 -7 13.44 -7 8 C-4.69 8 -2.38 8 0 8 C0 5.36 0 2.72 0 0 Z " fill="#DFE9E7" transform="translate(909,137)"/>
<path d="M0 0 C12.87 0 25.74 0 39 0 C39 3.3 39 6.6 39 10 C29.43 10 19.86 10 10 10 C10 12.31 10 14.62 10 17 C7.69 17 5.38 17 3 17 C3 23.27 3 29.54 3 36 C5.64 36 8.28 36 11 36 C11 38.31 11 40.62 11 43 C14.3 43 17.6 43 21 43 C21 39.04 21 35.08 21 31 C18.69 31 16.38 31 14 31 C14 28.03 14 25.06 14 22 C22.25 22 30.5 22 39 22 C39 31.9 39 41.8 39 52 C26.13 52 13.26 52 0 52 C0 49.69 0 47.38 0 45 C-2.31 45 -4.62 45 -7 45 C-7 42.69 -7 40.38 -7 38 C-9.31 38 -11.62 38 -14 38 C-14 30.41 -14 22.82 -14 15 C-11.69 15 -9.38 15 -7 15 C-7 12.69 -7 10.38 -7 8 C-4.69 8 -2.38 8 0 8 C0 5.36 0 2.72 0 0 Z " fill="#DEE8E6" transform="translate(691,137)"/>
<path d="M0 0 C12.54 0 25.08 0 38 0 C38 2.64 38 5.28 38 8 C40.31 8 42.62 8 45 8 C45 10.97 45 13.94 45 17 C39.39 17 33.78 17 28 17 C28 14.69 28 12.38 28 10 C22.06 10 16.12 10 10 10 C10 13.96 10 17.92 10 22 C19.24 22 28.48 22 38 22 C38 24.31 38 26.62 38 29 C40.31 29 42.62 29 45 29 C45 34.28 45 39.56 45 45 C42.69 45 40.38 45 38 45 C38 47.31 38 49.62 38 52 C25.46 52 12.92 52 0 52 C0 49.69 0 47.38 0 45 C-2.31 45 -4.62 45 -7 45 C-7 42.03 -7 39.06 -7 36 C-1.39 36 4.22 36 10 36 C10 38.31 10 40.62 10 43 C15.94 43 21.88 43 28 43 C28 39.04 28 35.08 28 31 C18.76 31 9.52 31 0 31 C0 28.69 0 26.38 0 24 C-2.31 24 -4.62 24 -7 24 C-7 18.72 -7 13.44 -7 8 C-4.69 8 -2.38 8 0 8 C0 5.36 0 2.72 0 0 Z " fill="#E1EBEA" transform="translate(853,137)"/>
<path d="M0 0 C15.18 0 30.36 0 46 0 C46 3.3 46 6.6 46 10 C41.38 10 36.76 10 32 10 C32 23.86 32 37.72 32 52 C26.06 52 20.12 52 14 52 C14 38.14 14 24.28 14 10 C9.38 10 4.76 10 0 10 C0 6.7 0 3.4 0 0 Z " fill="#DAE4E2" transform="translate(1190,137)"/>
<path d="M0 0 C4.95 0 9.9 0 15 0 C15 15.51 15 31.02 15 47 C20.28 47 25.56 47 31 47 C31 49.64 31 52.28 31 55 C15.49 55 -0.02 55 -16 55 C-16 52.36 -16 49.72 -16 47 C-10.72 47 -5.44 47 0 47 C0 36.77 0 26.54 0 16 C-2.64 16 -5.28 16 -8 16 C-8 13.36 -8 10.72 -8 8 C-5.36 8 -2.72 8 0 8 C0 5.36 0 2.72 0 0 Z " fill="#737373" transform="translate(384,643)"/>
<path d="M0 0 C2.64 0 5.28 0 8 0 C8 10.56 8 21.12 8 32 C10.64 32 13.28 32 16 32 C16 34.31 16 36.62 16 39 C19.3 39 22.6 39 26 39 C26 41.64 26 44.28 26 47 C20.06 47 14.12 47 8 47 C8 44.36 8 41.72 8 39 C5.36 39 2.72 39 0 39 C0 36.69 0 34.38 0 32 C-2.64 32 -5.28 32 -8 32 C-8 24.08 -8 16.16 -8 8 C-5.36 8 -2.72 8 0 8 C0 5.36 0 2.72 0 0 Z " fill="#727272" transform="translate(555,651)"/>
<path d="M0 0 C3.65130487 0.75848362 6.06107387 1.26419887 8.73828125 3.94140625 C8.86328125 7.56640625 8.86328125 7.56640625 8.73828125 10.94140625 C9.17140625 9.84828125 9.60453125 8.75515625 10.05078125 7.62890625 C12.26717548 2.52291395 12.26717548 2.52291395 14.73828125 0.94140625 C16.80078125 0.87890625 16.80078125 0.87890625 18.73828125 1.94140625 C20.84594989 6.2571087 20.93936651 9.33724607 19.73828125 13.94140625 C19.18140625 14.90046875 19.18140625 14.90046875 18.61328125 15.87890625 C17.28863824 19.00127906 18.18259699 21.66904338 18.73828125 24.94140625 C16.87075462 26.80893288 13.75208451 26.55393809 11.23828125 26.87890625 C5.6451618 27.63952474 0.22281289 28.61755378 -5.26171875 29.94140625 C-5.92171875 28.62140625 -6.58171875 27.30140625 -7.26171875 25.94140625 C-6.93171875 25.61140625 -6.60171875 25.28140625 -6.26171875 24.94140625 C-7.58171875 24.28140625 -8.90171875 23.62140625 -10.26171875 22.94140625 C-9.92838542 20.60807292 -9.59505208 18.27473958 -9.26171875 15.94140625 C-9.09671875 14.72453125 -8.93171875 13.50765625 -8.76171875 12.25390625 C-8.59671875 11.16078125 -8.43171875 10.06765625 -8.26171875 8.94140625 C-8.17921875 8.24015625 -8.09671875 7.53890625 -8.01171875 6.81640625 C-6.49739683 3.03060145 -4.37187727 -0.11326107 0 0 Z " fill="#0F0402" transform="translate(1222.26171875,812.05859375)"/>
<path d="M0 0 C2.64 0 5.28 0 8 0 C8 9.24 8 18.48 8 28 C0.41 28 -7.18 28 -15 28 C-15 26.68 -15 25.36 -15 24 C-16.32 24 -17.64 24 -19 24 C-19 20.04 -19 16.08 -19 12 C-17.68 12 -16.36 12 -15 12 C-15 10.68 -15 9.36 -15 8 C-10.05 8 -5.1 8 0 8 C0 5.36 0 2.72 0 0 Z " fill="#E7EBEB" transform="translate(1384,616)"/>
<path d="M0 0 C2.64 0 5.28 0 8 0 C8 2.64 8 5.28 8 8 C13.28 8 18.56 8 24 8 C24 9.32 24 10.64 24 12 C24.99 12 25.98 12 27 12 C27 15.96 27 19.92 27 24 C26.01 24 25.02 24 24 24 C24 25.32 24 26.64 24 28 C17.4 28 10.8 28 4 28 C4 26.68 4 25.36 4 24 C2.68 24 1.36 24 0 24 C0 16.08 0 8.16 0 0 Z " fill="#E8EAE8" transform="translate(1615,582)"/>
<path d="M0 0 C2.64 0 5.28 0 8 0 C8 2.64 8 5.28 8 8 C12.95 8 17.9 8 23 8 C23 9.32 23 10.64 23 12 C24.32 12 25.64 12 27 12 C27 15.96 27 19.92 27 24 C25.68 24 24.36 24 23 24 C23 25.32 23 26.64 23 28 C16.73 28 10.46 28 4 28 C4 26.68 4 25.36 4 24 C2.68 24 1.36 24 0 24 C0 16.08 0 8.16 0 0 Z " fill="#EAEBE9" transform="translate(1209,616)"/>
<path d="M0 0 C3.63 0 7.26 0 11 0 C11 0.99 11 1.98 11 3 C12.32 3 13.64 3 15 3 C15 4.32 15 5.64 15 7 C15.99 7 16.98 7 18 7 C18 10.63 18 14.26 18 18 C17.01 18 16.02 18 15 18 C14.67 18.99 14.34 19.98 14 21 C13.01 21 12.02 21 11 21 C11 21.99 11 22.98 11 24 C7.37 24 3.74 24 0 24 C0 22.68 0 21.36 0 20 C-0.99 20 -1.98 20 -3 20 C-3 19.34 -3 18.68 -3 18 C-4.32 18 -5.64 18 -7 18 C-7 14.37 -7 10.74 -7 7 C-5.68 7 -4.36 7 -3 7 C-3 5.68 -3 4.36 -3 3 C-2.01 3 -1.02 3 0 3 C0 2.01 0 1.02 0 0 Z " fill="#5D5CD9" transform="translate(1479,809)"/>
<path d="M0 0 C3.63 0 7.26 0 11 0 C11 0.99 11 1.98 11 3 C11.99 3 12.98 3 14 3 C14 4.32 14 5.64 14 7 C15.32 7 16.64 7 18 7 C18 10.63 18 14.26 18 18 C16.68 18 15.36 18 14 18 C14 18.99 14 19.98 14 21 C13.01 21 12.02 21 11 21 C11 21.99 11 22.98 11 24 C7.37 24 3.74 24 0 24 C0 22.68 0 21.36 0 20 C-0.99 20 -1.98 20 -3 20 C-3 19.34 -3 18.68 -3 18 C-4.32 18 -5.64 18 -7 18 C-7 14.37 -7 10.74 -7 7 C-6.01 7 -5.02 7 -4 7 C-4 5.68 -4 4.36 -4 3 C-2.68 3 -1.36 3 0 3 C0 2.01 0 1.02 0 0 Z " fill="#82229B" transform="translate(1620,871)"/>
<path d="M0 0 C7.26 0 14.52 0 22 0 C22 5.61 22 11.22 22 17 C20.68 17 19.36 17 18 17 C18 18.32 18 19.64 18 21 C12.06 21 6.12 21 0 21 C0 19.68 0 18.36 0 17 C4.62 17 9.24 17 14 17 C14 16.01 14 15.02 14 14 C9.38 14 4.76 14 0 14 C0 12.68 0 11.36 0 10 C-0.99 10 -1.98 10 -3 10 C-3 7.69 -3 5.38 -3 3 C-2.01 3 -1.02 3 0 3 C0 2.01 0 1.02 0 0 Z " fill="#E5E5E4" transform="translate(1335,878)"/>
<path d="M0 0 C6.27 0 12.54 0 19 0 C19 1.32 19 2.64 19 4 C14.05 4 9.1 4 4 4 C4 5.32 4 6.64 4 8 C2.68 8 1.36 8 0 8 C0 11.96 0 15.92 0 20 C1.32 20 2.64 20 4 20 C4 21.32 4 22.64 4 24 C6.31 24 8.62 24 11 24 C11 21.36 11 18.72 11 16 C9.68 16 8.36 16 7 16 C7 14.68 7 13.36 7 12 C10.96 12 14.92 12 19 12 C19 17.28 19 22.56 19 28 C12.73 28 6.46 28 0 28 C0 26.68 0 25.36 0 24 C-1.32 24 -2.64 24 -4 24 C-4 22.68 -4 21.36 -4 20 C-5.32 20 -6.64 20 -8 20 C-8 16.04 -8 12.08 -8 8 C-6.68 8 -5.36 8 -4 8 C-4 6.68 -4 5.36 -4 4 C-2.68 4 -1.36 4 0 4 C0 2.68 0 1.36 0 0 Z " fill="#EAEAE8" transform="translate(1217,582)"/>
<path d="M0 0 C2.64 0 5.28 0 8 0 C8 2.64 8 5.28 8 8 C13.28 8 18.56 8 24 8 C24 9.32 24 10.64 24 12 C25.32 12 26.64 12 28 12 C28 17.28 28 22.56 28 28 C25.36 28 22.72 28 20 28 C20 22.72 20 17.44 20 12 C16.04 12 12.08 12 8 12 C8 17.28 8 22.56 8 28 C5.36 28 2.72 28 0 28 C0 18.76 0 9.52 0 0 Z " fill="#E7EAE9" transform="translate(1271,616)"/>
<path d="M0 0 C6.6 0 13.2 0 20 0 C20 1.32 20 2.64 20 4 C21.32 4 22.64 4 24 4 C24 6.64 24 9.28 24 12 C17.4 12 10.8 12 4 12 C4 13.32 4 14.64 4 16 C9.28 16 14.56 16 20 16 C20 17.32 20 18.64 20 20 C13.4 20 6.8 20 0 20 C0 18.68 0 17.36 0 16 C-1.32 16 -2.64 16 -4 16 C-4 12.04 -4 8.08 -4 4 C-2.68 4 -1.36 4 0 4 C0 2.68 0 1.36 0 0 Z " fill="#E9EBEA" transform="translate(1650,590)"/>
<path d="M0 0 C6.6 0 13.2 0 20 0 C20 1.32 20 2.64 20 4 C21.32 4 22.64 4 24 4 C24 6.64 24 9.28 24 12 C17.4 12 10.8 12 4 12 C4 13.32 4 14.64 4 16 C9.28 16 14.56 16 20 16 C20 17.32 20 18.64 20 20 C13.4 20 6.8 20 0 20 C0 18.68 0 17.36 0 16 C-1.32 16 -2.64 16 -4 16 C-4 12.04 -4 8.08 -4 4 C-2.68 4 -1.36 4 0 4 C0 2.68 0 1.36 0 0 Z " fill="#E9EBEA" transform="translate(1275,590)"/>
<path d="M0 0 C2.64 0 5.28 0 8 0 C8 2.64 8 5.28 8 8 C13.28 8 18.56 8 24 8 C24 9.32 24 10.64 24 12 C25.32 12 26.64 12 28 12 C28 17.28 28 22.56 28 28 C25.36 28 22.72 28 20 28 C20 22.72 20 17.44 20 12 C16.04 12 12.08 12 8 12 C8 17.28 8 22.56 8 28 C5.36 28 2.72 28 0 28 C0 18.76 0 9.52 0 0 Z " fill="#E4E9EA" transform="translate(1427,582)"/>
<path d="M0 0 C2.64 0 5.28 0 8 0 C8 2.64 8 5.28 8 8 C12.95 8 17.9 8 23 8 C23 9.32 23 10.64 23 12 C24.32 12 25.64 12 27 12 C27 17.28 27 22.56 27 28 C24.36 28 21.72 28 19 28 C19 22.72 19 17.44 19 12 C15.37 12 11.74 12 8 12 C8 17.28 8 22.56 8 28 C5.36 28 2.72 28 0 28 C0 18.76 0 9.52 0 0 Z " fill="#E9EAE8" transform="translate(1459,616)"/>
<path d="M0 0 C7.59 0 15.18 0 23 0 C23 1.32 23 2.64 23 4 C24.32 4 25.64 4 27 4 C27 9.28 27 14.56 27 20 C24.36 20 21.72 20 19 20 C19 14.72 19 9.44 19 4 C18.01 4 17.02 4 16 4 C16 9.28 16 14.56 16 20 C13.36 20 10.72 20 8 20 C8 14.72 8 9.44 8 4 C6.68 4 5.36 4 4 4 C4 9.28 4 14.56 4 20 C2.68 20 1.36 20 0 20 C0 13.4 0 6.8 0 0 Z " fill="#E9E9E5" transform="translate(1584,590)"/>
<path d="M0 0 C6.6 0 13.2 0 20 0 C20 1.32 20 2.64 20 4 C20.99 4 21.98 4 23 4 C23 6.64 23 9.28 23 12 C16.73 12 10.46 12 4 12 C4 13.32 4 14.64 4 16 C9.28 16 14.56 16 20 16 C20 17.32 20 18.64 20 20 C13.4 20 6.8 20 0 20 C0 18.68 0 17.36 0 16 C-1.32 16 -2.64 16 -4 16 C-4 12.04 -4 8.08 -4 4 C-2.68 4 -1.36 4 0 4 C0 2.68 0 1.36 0 0 Z " fill="#EBEBEA" transform="translate(1494,624)"/>
<path d="M0 0 C6.6 0 13.2 0 20 0 C20 1.32 20 2.64 20 4 C20.99 4 21.98 4 23 4 C23 6.64 23 9.28 23 12 C16.73 12 10.46 12 4 12 C4 13.32 4 14.64 4 16 C9.28 16 14.56 16 20 16 C20 17.32 20 18.64 20 20 C13.4 20 6.8 20 0 20 C0 18.68 0 17.36 0 16 C-1.32 16 -2.64 16 -4 16 C-4 12.04 -4 8.08 -4 4 C-2.68 4 -1.36 4 0 4 C0 2.68 0 1.36 0 0 Z " fill="#EBEBEA" transform="translate(1244,624)"/>
<path d="M0 0 C2.64 0 5.28 0 8 0 C8 3.3 8 6.6 8 10 C11.3 10 14.6 10 18 10 C18 6.7 18 3.4 18 0 C20.31 0 22.62 0 25 0 C25 7.92 25 15.84 25 24 C22.69 24 20.38 24 18 24 C18 20.7 18 17.4 18 14 C14.7 14 11.4 14 8 14 C8 17.3 8 20.6 8 24 C5.36 24 2.72 24 0 24 C0 16.08 0 8.16 0 0 Z " fill="#E3E7E5" transform="translate(1275,871)"/>
<path d="M0 0 C6.27 0 12.54 0 19 0 C19 1.32 19 2.64 19 4 C20.32 4 21.64 4 23 4 C23 6.64 23 9.28 23 12 C16.73 12 10.46 12 4 12 C4 13.32 4 14.64 4 16 C8.95 16 13.9 16 19 16 C19 17.32 19 18.64 19 20 C12.73 20 6.46 20 0 20 C0 18.68 0 17.36 0 16 C-1.32 16 -2.64 16 -4 16 C-4 12.04 -4 8.08 -4 4 C-2.68 4 -1.36 4 0 4 C0 2.68 0 1.36 0 0 Z " fill="#ECECEB" transform="translate(1463,590)"/>
<path d="M0 0 C5.94 0 11.88 0 18 0 C18 0.99 18 1.98 18 3 C18.99 3 19.98 3 21 3 C21 6.63 21 10.26 21 14 C20.01 14 19.02 14 18 14 C18 14.99 18 15.98 18 17 C11.73 17 5.46 17 -1 17 C-1 16.01 -1 15.02 -1 14 C-1.99 14 -2.98 14 -4 14 C-4 10.37 -4 6.74 -4 3 C-2.68 3 -1.36 3 0 3 C0 2.01 0 1.02 0 0 Z " fill="#E2E3DF" transform="translate(1476,878)"/>
<path d="M0 0 C5.94 0 11.88 0 18 0 C18 0.99 18 1.98 18 3 C19.32 3 20.64 3 22 3 C22 6.63 22 10.26 22 14 C20.68 14 19.36 14 18 14 C18 14.99 18 15.98 18 17 C12.06 17 6.12 17 0 17 C0 16.01 0 15.02 0 14 C-0.99 14 -1.98 14 -3 14 C-3 10.37 -3 6.74 -3 3 C-2.01 3 -1.02 3 0 3 C0 2.01 0 1.02 0 0 Z " fill="#E4E5E3" transform="translate(1335,816)"/>
<path d="M0 0 C15.51 0 31.02 0 47 0 C47 2.64 47 5.28 47 8 C31.49 8 15.98 8 0 8 C0 5.36 0 2.72 0 0 Z " fill="#727272" transform="translate(430,667)"/>
<path d="M0 0 C5.94 0 11.88 0 18 0 C18 0.99 18 1.98 18 3 C19.32 3 20.64 3 22 3 C22 4.32 22 5.64 22 7 C19.36 7 16.72 7 14 7 C14 6.01 14 5.02 14 4 C10.7 4 7.4 4 4 4 C4 5.98 4 7.96 4 10 C8.62 10 13.24 10 18 10 C18 10.99 18 11.98 18 13 C19.32 13 20.64 13 22 13 C22 15.64 22 18.28 22 21 C21.01 21 20.02 21 19 21 C19 21.99 19 22.98 19 24 C12.73 24 6.46 24 0 24 C0 23.01 0 22.02 0 21 C-0.99 21 -1.98 21 -3 21 C-3 19.68 -3 18.36 -3 17 C-0.69 17 1.62 17 4 17 C4 17.99 4 18.98 4 20 C7.3 20 10.6 20 14 20 C14 18.02 14 16.04 14 14 C9.38 14 4.76 14 0 14 C0 12.68 0 11.36 0 10 C-0.99 10 -1.98 10 -3 10 C-3 7.69 -3 5.38 -3 3 C-2.01 3 -1.02 3 0 3 C0 2.01 0 1.02 0 0 Z " fill="#DFE1E0" transform="translate(1419,871)"/>
<path d="M0 0 C1.32 0 2.64 0 4 0 C4.27972656 0.63808594 4.55945312 1.27617188 4.84765625 1.93359375 C6.08293482 4.47961808 7.28267809 6.7470777 9 9 C12.66484281 10.2180773 12.66484281 10.2180773 16 10 C17.98 6.7 19.96 3.4 22 0 C24.475 0.495 24.475 0.495 27 1 C26.73445313 1.51949219 26.46890625 2.03898438 26.1953125 2.57421875 C23.29747165 8.15905167 23.29747165 8.15905167 21 14 C21.33 14.66 21.66 15.32 22 16 C22.43023798 19.87214182 22.31669086 21.52496371 20.125 24.8125 C17.61855093 27.39266816 16.74538327 27.91717964 13.1875 28.3125 C9.2692355 27.92835642 7.78706733 26.70743683 5 24 C3.62337449 21.24674899 3.87784112 19.05397193 4 16 C4.22816406 15.39414062 4.45632813 14.78828125 4.69140625 14.1640625 C5.16006034 10.87755151 3.70542623 9.06644497 2.0625 6.25 C1.49660156 5.26515625 0.93070313 4.2803125 0.34765625 3.265625 C-0.09707031 2.51796875 -0.54179688 1.7703125 -1 1 C-0.67 0.67 -0.34 0.34 0 0 Z " fill="#F1B838" transform="translate(1215,875)"/>
<path d="M0 0 C5.94 0 11.88 0 18 0 C18 0.99 18 1.98 18 3 C18.99 3 19.98 3 21 3 C21 4.32 21 5.64 21 7 C18.69 7 16.38 7 14 7 C14 6.01 14 5.02 14 4 C10.7 4 7.4 4 4 4 C4 5.98 4 7.96 4 10 C8.62 10 13.24 10 18 10 C18 10.99 18 11.98 18 13 C18.99 13 19.98 13 21 13 C21 15.64 21 18.28 21 21 C20.01 21 19.02 21 18 21 C18 21.99 18 22.98 18 24 C12.06 24 6.12 24 0 24 C0 23.01 0 22.02 0 21 C-1.32 21 -2.64 21 -4 21 C-4 19.68 -4 18.36 -4 17 C-1.36 17 1.28 17 4 17 C4 17.99 4 18.98 4 20 C7.3 20 10.6 20 14 20 C14 18.02 14 16.04 14 14 C9.38 14 4.76 14 0 14 C0 12.68 0 11.36 0 10 C-1.32 10 -2.64 10 -4 10 C-4 7.69 -4 5.38 -4 3 C-2.68 3 -1.36 3 0 3 C0 2.01 0 1.02 0 0 Z " fill="#E1E2E1" transform="translate(1279,809)"/>
<path d="M0 0 C5.94 0 11.88 0 18 0 C18 1.32 18 2.64 18 4 C13.38 4 8.76 4 4 4 C4 4.99 4 5.98 4 7 C3.01 7 2.02 7 1 7 C1 10.63 1 14.26 1 18 C1.99 18 2.98 18 4 18 C4 18.66 4 19.32 4 20 C6.31 20 8.62 20 11 20 C11 18.02 11 16.04 11 14 C9.68 14 8.36 14 7 14 C7 12.68 7 11.36 7 10 C10.63 10 14.26 10 18 10 C18 14.62 18 19.24 18 24 C12.06 24 6.12 24 0 24 C0 23.01 0 22.02 0 21 C-0.99 21 -1.98 21 -3 21 C-3 20.01 -3 19.02 -3 18 C-4.32 18 -5.64 18 -7 18 C-7 14.37 -7 10.74 -7 7 C-5.68 7 -4.36 7 -3 7 C-3 5.68 -3 4.36 -3 3 C-2.01 3 -1.02 3 0 3 C0 2.01 0 1.02 0 0 Z " fill="#E2E5E5" transform="translate(1272,747)"/>
<path d="M0 0 C2.64 0 5.28 0 8 0 C8 5.28 8 10.56 8 16 C11.96 16 15.92 16 20 16 C20 10.72 20 5.44 20 0 C22.64 0 25.28 0 28 0 C28 6.6 28 13.2 28 20 C20.08 20 12.16 20 4 20 C4 18.68 4 17.36 4 16 C2.68 16 1.36 16 0 16 C0 10.72 0 5.44 0 0 Z " fill="#E6EAEA" transform="translate(1552,590)"/>
<path d="M0 0 C7.92 0 15.84 0 24 0 C24 1.32 24 2.64 24 4 C25.32 4 26.64 4 28 4 C28 9.28 28 14.56 28 20 C25.36 20 22.72 20 20 20 C20 14.72 20 9.44 20 4 C16.04 4 12.08 4 8 4 C8 9.28 8 14.56 8 20 C5.36 20 2.72 20 0 20 C0 13.4 0 6.8 0 0 Z " fill="#E8EAE9" transform="translate(1521,590)"/>
<path d="M0 0 C1.31419922 -0.01224609 2.62839844 -0.02449219 3.98242188 -0.03710938 C5.23474609 -0.03904297 6.48707031 -0.04097656 7.77734375 -0.04296875 C8.93355225 -0.04707764 10.08976074 -0.05118652 11.28100586 -0.05541992 C14.0625 0.1875 14.0625 0.1875 16.0625 2.1875 C15.63626914 6.89971895 13.43131314 10.24152259 11.0234375 14.19921875 C10.70632813 14.85535156 10.38921875 15.51148438 10.0625 16.1875 C10.3925 16.8475 10.7225 17.5075 11.0625 18.1875 C11.2887475 23.1944555 10.75757747 26.35679766 7.5 30.25 C3.02550932 32.77198566 1.13161706 32.91165958 -3.9375 32.1875 C-7.48724889 30.02678328 -9.43321837 28.0340649 -10.9375 24.1875 C-10.95703125 21.671875 -10.95703125 21.671875 -10.75 18.9375 C-10.61070542 13.72091807 -11.71846024 10.98537374 -14.94140625 6.94140625 C-15.9375 5.1875 -15.9375 5.1875 -15.65234375 3.02734375 C-13.60578819 -2.24002056 -4.77025668 0.00233264 0 0 Z M-12.9375 2.1875 C-13.2675 2.8475 -13.5975 3.5075 -13.9375 4.1875 C-12.99266993 5.72284887 -11.98005206 7.21675692 -10.9375 8.6875 C-7.80918688 13.62280677 -7.74671765 16.37097763 -8.76171875 21.984375 C-9.17228329 24.46173392 -9.17228329 24.46173392 -7.125 27.25 C-4.5578352 29.52377454 -3.53416478 30.12120391 -0.125 30.5 C3.7932645 30.11585642 5.27543267 28.89493683 8.0625 26.1875 C9.43912551 23.43424899 9.18465888 21.24147193 9.0625 18.1875 C8.71832031 17.259375 8.71832031 17.259375 8.3671875 16.3125 C7.91295491 13.14451883 9.3180472 11.67139147 11.0625 9.0625 C12.79277597 6.53358148 12.79277597 6.53358148 14.0625 4.1875 C13.7325 3.5275 13.4025 2.8675 13.0625 2.1875 C11.7425 2.1875 10.4225 2.1875 9.0625 2.1875 C7.25339859 4.3922587 7.25339859 4.3922587 5.8125 7.1875 C5.29171875 8.115625 4.7709375 9.04375 4.234375 10 C3.84765625 10.721875 3.4609375 11.44375 3.0625 12.1875 C-0.125 12.25 -0.125 12.25 -3.9375 11.1875 C-6.06806077 8.3924574 -7.52985109 5.39849637 -8.9375 2.1875 C-10.2575 2.1875 -11.5775 2.1875 -12.9375 2.1875 Z " fill="#0A0503" transform="translate(1227.9375,872.8125)"/>
<path d="M0 0 C7.59 0 15.18 0 23 0 C23 1.32 23 2.64 23 4 C24.32 4 25.64 4 27 4 C27 9.28 27 14.56 27 20 C24.36 20 21.72 20 19 20 C19 14.72 19 9.44 19 4 C15.37 4 11.74 4 8 4 C8 9.28 8 14.56 8 20 C5.36 20 2.72 20 0 20 C0 13.4 0 6.8 0 0 Z " fill="#E9EAE9" transform="translate(1334,624)"/>
<path d="M0 0 C2.64 0 5.28 0 8 0 C8 5.28 8 10.56 8 16 C11.63 16 15.26 16 19 16 C19 10.72 19 5.44 19 0 C21.64 0 24.28 0 27 0 C27 6.6 27 13.2 27 20 C19.41 20 11.82 20 4 20 C4 18.68 4 17.36 4 16 C2.68 16 1.36 16 0 16 C0 10.72 0 5.44 0 0 Z " fill="#E6EAEA" transform="translate(1240,590)"/>
<path d="M0 0 C2.31 0 4.62 0 7 0 C7 2.31 7 4.62 7 7 C11.62 7 16.24 7 21 7 C21 7.99 21 8.98 21 10 C22.32 10 23.64 10 25 10 C25 14.62 25 19.24 25 24 C22.36 24 19.72 24 17 24 C17 19.71 17 15.42 17 11 C13.7 11 10.4 11 7 11 C7 15.29 7 19.58 7 24 C4.69 24 2.38 24 0 24 C0 16.08 0 8.16 0 0 Z " fill="#E8E8E4" transform="translate(1360,871)"/>
<path d="M0 0 C5.94 0 11.88 0 18 0 C18 0.99 18 1.98 18 3 C18.99 3 19.98 3 21 3 C21 5.31 21 7.62 21 10 C15.39 10 9.78 10 4 10 C4 10.99 4 11.98 4 13 C8.62 13 13.24 13 18 13 C18 14.32 18 15.64 18 17 C11.73 17 5.46 17 -1 17 C-1 16.01 -1 15.02 -1 14 C-1.99 14 -2.98 14 -4 14 C-4 10.37 -4 6.74 -4 3 C-2.68 3 -1.36 3 0 3 C0 2.01 0 1.02 0 0 Z " fill="#E4E6E4" transform="translate(1410,754)"/>
<path d="M0 0 C5.94 0 11.88 0 18 0 C18 0.99 18 1.98 18 3 C18.99 3 19.98 3 21 3 C21 5.31 21 7.62 21 10 C15.39 10 9.78 10 4 10 C4 10.99 4 11.98 4 13 C8.62 13 13.24 13 18 13 C18 14.32 18 15.64 18 17 C12.06 17 6.12 17 0 17 C0 16.01 0 15.02 0 14 C-1.32 14 -2.64 14 -4 14 C-4 10.37 -4 6.74 -4 3 C-2.68 3 -1.36 3 0 3 C0 2.01 0 1.02 0 0 Z " fill="#D7D8D9" transform="translate(1532,878)"/>
<path d="M0 0 C5.94 0 11.88 0 18 0 C18 0.99 18 1.98 18 3 C19.32 3 20.64 3 22 3 C22 5.31 22 7.62 22 10 C16.06 10 10.12 10 4 10 C4 10.99 4 11.98 4 13 C8.62 13 13.24 13 18 13 C18 14.32 18 15.64 18 17 C12.06 17 6.12 17 0 17 C0 16.01 0 15.02 0 14 C-0.99 14 -1.98 14 -3 14 C-3 10.37 -3 6.74 -3 3 C-2.01 3 -1.02 3 0 3 C0 2.01 0 1.02 0 0 Z " fill="#D9DAD9" transform="translate(1391,816)"/>
<path d="M0 0 C5.94 0 11.88 0 18 0 C18 0.99 18 1.98 18 3 C19.32 3 20.64 3 22 3 C22 5.31 22 7.62 22 10 C16.06 10 10.12 10 4 10 C4 10.99 4 11.98 4 13 C8.62 13 13.24 13 18 13 C18 14.32 18 15.64 18 17 C12.06 17 6.12 17 0 17 C0 16.01 0 15.02 0 14 C-0.99 14 -1.98 14 -3 14 C-3 10.37 -3 6.74 -3 3 C-2.01 3 -1.02 3 0 3 C0 2.01 0 1.02 0 0 Z " fill="#DAD9D8" transform="translate(1522,754)"/>
<path d="M0 0 C5.94 0 11.88 0 18 0 C18 0.99 18 1.98 18 3 C19.32 3 20.64 3 22 3 C22 5.31 22 7.62 22 10 C16.06 10 10.12 10 4 10 C4 10.99 4 11.98 4 13 C8.62 13 13.24 13 18 13 C18 14.32 18 15.64 18 17 C12.06 17 6.12 17 0 17 C0 16.01 0 15.02 0 14 C-0.99 14 -1.98 14 -3 14 C-3 10.37 -3 6.74 -3 3 C-2.01 3 -1.02 3 0 3 C0 2.01 0 1.02 0 0 Z " fill="#DAD9D8" transform="translate(1325,754)"/>
<path d="M0 0 C6.6 0 13.2 0 20 0 C20 1.32 20 2.64 20 4 C14.72 4 9.44 4 4 4 C4 5.32 4 6.64 4 8 C9.28 8 14.56 8 20 8 C20 9.32 20 10.64 20 12 C21.32 12 22.64 12 24 12 C24 13.32 24 14.64 24 16 C22.68 16 21.36 16 20 16 C20 17.32 20 18.64 20 20 C12.08 20 4.16 20 -4 20 C-4 18.68 -4 17.36 -4 16 C2.6 16 9.2 16 16 16 C16 14.68 16 13.36 16 12 C10.72 12 5.44 12 0 12 C0 10.68 0 9.36 0 8 C-1.32 8 -2.64 8 -4 8 C-4 6.68 -4 5.36 -4 4 C-2.68 4 -1.36 4 0 4 C0 2.68 0 1.36 0 0 Z " fill="#E8EBEB" transform="translate(1306,590)"/>
<path d="M0 0 C4.23300122 0.16280774 6.50968268 0.63487008 9.9375 3.1875 C12 6 12 6 12.5625 8.9375 C11.86613877 12.72880006 10.18706864 14.84804813 8 18 C7.25613932 20.30988315 6.57809297 22.64315944 6 25 C5.67 25.99 5.34 26.98 5 28 C3.35 27.67 1.7 27.34 0 27 C-0.0825 25.783125 -0.165 24.56625 -0.25 23.3125 C-0.63302221 20.09624 -0.90052276 19.12434655 -3 16.5 C-5.33485432 13.5814321 -5.92006577 11.6031427 -6.24609375 7.93359375 C-5.81424388 4.54048762 -3.56540242 3.01567333 -1 1 C-0.67 0.67 -0.34 0.34 0 0 Z " fill="#F4CD74" transform="translate(1220,751)"/>
<path d="M0 0 C6.27 0 12.54 0 19 0 C19 1.32 19 2.64 19 4 C14.05 4 9.1 4 4 4 C4 5.32 4 6.64 4 8 C8.95 8 13.9 8 19 8 C19 9.32 19 10.64 19 12 C20.32 12 21.64 12 23 12 C23 13.32 23 14.64 23 16 C21.68 16 20.36 16 19 16 C19 17.32 19 18.64 19 20 C11.41 20 3.82 20 -4 20 C-4 18.68 -4 17.36 -4 16 C2.27 16 8.54 16 15 16 C15 14.68 15 13.36 15 12 C10.05 12 5.1 12 0 12 C0 10.68 0 9.36 0 8 C-1.32 8 -2.64 8 -4 8 C-4 6.68 -4 5.36 -4 4 C-2.68 4 -1.36 4 0 4 C0 2.68 0 1.36 0 0 Z " fill="#ECEDEC" transform="translate(1338,590)"/>
<path d="M0 0 C5.61 0 11.22 0 17 0 C17 0.99 17 1.98 17 3 C17.66 3 18.32 3 19 3 C19 5.64 19 8.28 19 11 C18.34 11 17.68 11 17 11 C17 11.99 17 12.98 17 14 C13.37 14 9.74 14 6 14 C6 15.98 6 17.96 6 20 C4.02 20 2.04 20 0 20 C0 13.4 0 6.8 0 0 Z " fill="#362931" transform="translate(41,149)"/>
<path d="M0 0 C2.64 0 5.28 0 8 0 C8 2.64 8 5.28 8 8 C10.64 8 13.28 8 16 8 C16 9.32 16 10.64 16 12 C13.36 12 10.72 12 8 12 C8 17.28 8 22.56 8 28 C5.36 28 2.72 28 0 28 C0 22.72 0 17.44 0 12 C-2.64 12 -5.28 12 -8 12 C-8 10.68 -8 9.36 -8 8 C-5.36 8 -2.72 8 0 8 C0 5.36 0 2.72 0 0 Z " fill="#E8ECEA" transform="translate(1439,616)"/>
<path d="M0 0 C2.64 0 5.28 0 8 0 C8 2.64 8 5.28 8 8 C10.64 8 13.28 8 16 8 C16 9.32 16 10.64 16 12 C13.36 12 10.72 12 8 12 C8 17.28 8 22.56 8 28 C5.36 28 2.72 28 0 28 C0 22.72 0 17.44 0 12 C-2.64 12 -5.28 12 -8 12 C-8 10.68 -8 9.36 -8 8 C-5.36 8 -2.72 8 0 8 C0 5.36 0 2.72 0 0 Z " fill="#EAECE8" transform="translate(1408,582)"/>
<path d="M0 0 C2.31 0 4.62 0 7 0 C7 4.29 7 8.58 7 13 C10.3 13 13.6 13 17 13 C17 8.71 17 4.42 17 0 C19.64 0 22.28 0 25 0 C25 5.61 25 11.22 25 17 C17.74 17 10.48 17 3 17 C3 16.01 3 15.02 3 14 C2.01 14 1.02 14 0 14 C0 9.38 0 4.76 0 0 Z " fill="#E6E7E3" transform="translate(1294,754)"/>
<path d="M0 0 C8.25 0 16.5 0 25 0 C25 2.31 25 4.62 25 7 C24.01 7 23.02 7 22 7 C22 8.32 22 9.64 22 11 C20.68 11 19.36 11 18 11 C18 11.99 18 12.98 18 14 C17.01 14 16.02 14 15 14 C15 17.3 15 20.6 15 24 C12.36 24 9.72 24 7 24 C7 20.37 7 16.74 7 13 C8.32 13 9.64 13 11 13 C11 12.01 11 11.02 11 10 C11.99 10 12.98 10 14 10 C14 9.01 14 8.02 14 7 C15.32 7 16.64 7 18 7 C18 6.01 18 5.02 18 4 C14.7 4 11.4 4 8 4 C8 4.99 8 5.98 8 7 C5.36 7 2.72 7 0 7 C0 4.69 0 2.38 0 0 Z " fill="#F1E31C" transform="translate(1659,747)"/>
<path d="M0 0 C2.64 0 5.28 0 8 0 C8 0.99 8 1.98 8 3 C8.99 3 9.98 3 11 3 C11 3.99 11 4.98 11 6 C11.99 6 12.98 6 14 6 C14 10.62 14 15.24 14 20 C12.02 20 10.04 20 8 20 C8 18.02 8 16.04 8 14 C5.36 14 2.72 14 0 14 C0 15.98 0 17.96 0 20 C-1.65 20 -3.3 20 -5 20 C-5 15.38 -5 10.76 -5 6 C-4.34 6 -3.68 6 -3 6 C-3 5.01 -3 4.02 -3 3 C-2.01 3 -1.02 3 0 3 C0 2.01 0 1.02 0 0 Z " fill="#2D2632" transform="translate(156,149)"/>
<path d="M0 0 C5.94 0 11.88 0 18 0 C18 1.32 18 2.64 18 4 C13.38 4 8.76 4 4 4 C4 4.66 4 5.32 4 6 C8.62 6 13.24 6 18 6 C18 7.32 18 8.64 18 10 C18.99 10 19.98 10 21 10 C21 11.32 21 12.64 21 14 C20.01 14 19.02 14 18 14 C18 14.99 18 15.98 18 17 C10.74 17 3.48 17 -4 17 C-4 15.68 -4 14.36 -4 13 C1.94 13 7.88 13 14 13 C14 12.01 14 11.02 14 10 C9.05 10 4.1 10 -1 10 C-1 9.01 -1 8.02 -1 7 C-1.99 7 -2.98 7 -4 7 C-4 5.68 -4 4.36 -4 3 C-2.68 3 -1.36 3 0 3 C0 2.01 0 1.02 0 0 Z " fill="#E0E1DF" transform="translate(1438,754)"/>
<path d="M0 0 C5.94 0 11.88 0 18 0 C18 1.32 18 2.64 18 4 C13.38 4 8.76 4 4 4 C4 4.66 4 5.32 4 6 C8.62 6 13.24 6 18 6 C18 7.32 18 8.64 18 10 C19.32 10 20.64 10 22 10 C22 11.32 22 12.64 22 14 C21.01 14 20.02 14 19 14 C19 14.99 19 15.98 19 17 C11.74 17 4.48 17 -3 17 C-3 15.68 -3 14.36 -3 13 C2.61 13 8.22 13 14 13 C14 12.01 14 11.02 14 10 C9.38 10 4.76 10 0 10 C0 9.01 0 8.02 0 7 C-0.99 7 -1.98 7 -3 7 C-3 5.68 -3 4.36 -3 3 C-2.01 3 -1.02 3 0 3 C0 2.01 0 1.02 0 0 Z " fill="#E1E2E1" transform="translate(1381,754)"/>
<path d="M0 0 C5.94 0 11.88 0 18 0 C18 1.32 18 2.64 18 4 C13.38 4 8.76 4 4 4 C4 4.66 4 5.32 4 6 C8.62 6 13.24 6 18 6 C18 7.32 18 8.64 18 10 C19.32 10 20.64 10 22 10 C22 11.32 22 12.64 22 14 C21.01 14 20.02 14 19 14 C19 14.99 19 15.98 19 17 C11.74 17 4.48 17 -3 17 C-3 15.68 -3 14.36 -3 13 C2.61 13 8.22 13 14 13 C14 12.01 14 11.02 14 10 C9.38 10 4.76 10 0 10 C0 9.01 0 8.02 0 7 C-0.99 7 -1.98 7 -3 7 C-3 5.68 -3 4.36 -3 3 C-2.01 3 -1.02 3 0 3 C0 2.01 0 1.02 0 0 Z " fill="#E1E2E1" transform="translate(1353,754)"/>
<path d="M0 0 C3.63 0 7.26 0 11 0 C11 1.32 11 2.64 11 4 C8.69 4 6.38 4 4 4 C4 4.99 4 5.98 4 7 C6.31 7 8.62 7 11 7 C11 8.32 11 9.64 11 11 C8.69 11 6.38 11 4 11 C4 15.29 4 19.58 4 24 C1.36 24 -1.28 24 -4 24 C-4 19.71 -4 15.42 -4 11 C-6.31 11 -8.62 11 -11 11 C-11 9.68 -11 8.36 -11 7 C-8.69 7 -6.38 7 -4 7 C-4 5.68 -4 4.36 -4 3 C-2.68 3 -1.36 3 0 3 C0 2.01 0 1.02 0 0 Z " fill="#E2E1DA" transform="translate(1561,747)"/>
<path d="M0 0 C1.65 0 3.3 0 5 0 C5 2.31 5 4.62 5 7 C7.31 7 9.62 7 12 7 C12 10.96 12 14.92 12 19 C5.73 19 -0.54 19 -7 19 C-7 15.04 -7 11.08 -7 7 C-4.69 7 -2.38 7 0 7 C0 4.69 0 2.38 0 0 Z " fill="#568059" transform="translate(1151,147)"/>
<path d="M0 0 C5.61 0 11.22 0 17 0 C17 4.62 17 9.24 17 14 C16.01 14 15.02 14 14 14 C14 14.99 14 15.98 14 17 C9.38 17 4.76 17 0 17 C0 16.01 0 15.02 0 14 C3.63 14 7.26 14 11 14 C11 13.01 11 12.02 11 11 C7.37 11 3.74 11 0 11 C0 10.01 0 9.02 0 8 C-0.66 8 -1.32 8 -2 8 C-2 6.35 -2 4.7 -2 3 C-1.34 3 -0.68 3 0 3 C0 2.01 0 1.02 0 0 Z " fill="#322832" transform="translate(175,155)"/>
<path d="M0 0 C9.24 0 18.48 0 28 0 C28 2.97 28 5.94 28 9 C18.76 9 9.52 9 0 9 C0 6.03 0 3.06 0 0 Z " fill="#353535" transform="translate(941,390)"/>
<path d="M0 0 C6.93 0 13.86 0 21 0 C21 1.32 21 2.64 21 4 C15.39 4 9.78 4 4 4 C4 6.97 4 9.94 4 13 C9.61 13 15.22 13 21 13 C21 14.32 21 15.64 21 17 C13.74 17 6.48 17 -1 17 C-1 16.01 -1 15.02 -1 14 C-1.99 14 -2.98 14 -4 14 C-4 10.37 -4 6.74 -4 3 C-2.68 3 -1.36 3 0 3 C0 2.01 0 1.02 0 0 Z " fill="#E0E1DE" transform="translate(1448,878)"/>
<path d="M0 0 C6.93 0 13.86 0 21 0 C21 1.32 21 2.64 21 4 C15.39 4 9.78 4 4 4 C4 6.97 4 9.94 4 13 C9.61 13 15.22 13 21 13 C21 14.32 21 15.64 21 17 C14.07 17 7.14 17 0 17 C0 16.01 0 15.02 0 14 C-1.32 14 -2.64 14 -4 14 C-4 10.37 -4 6.74 -4 3 C-2.68 3 -1.36 3 0 3 C0 2.01 0 1.02 0 0 Z " fill="#E1E3E2" transform="translate(1307,816)"/>
<path d="M0 0 C2.64 0 5.28 0 8 0 C8 2.31 8 4.62 8 7 C10.31 7 12.62 7 15 7 C15 8.32 15 9.64 15 11 C12.69 11 10.38 11 8 11 C8 15.29 8 19.58 8 24 C5.36 24 2.72 24 0 24 C0 19.71 0 15.42 0 11 C-2.31 11 -4.62 11 -7 11 C-7 9.68 -7 8.36 -7 7 C-4.69 7 -2.38 7 0 7 C0 4.69 0 2.38 0 0 Z " fill="#DFE1DF" transform="translate(1585,747)"/>
<path d="M0 0 C3.63 0 7.26 0 11 0 C11 6.6 11 13.2 11 20 C13.31 20 15.62 20 18 20 C18 21.32 18 22.64 18 24 C11.07 24 4.14 24 -3 24 C-3 22.68 -3 21.36 -3 20 C-0.69 20 1.62 20 4 20 C4 14.72 4 9.44 4 4 C2.68 4 1.36 4 0 4 C0 2.68 0 1.36 0 0 Z " fill="#E6EAE8" transform="translate(1497,747)"/>
<path d="M0 0 C3.96 0 7.92 0 12 0 C12 5.28 12 10.56 12 16 C14.64 16 17.28 16 20 16 C20 17.32 20 18.64 20 20 C12.08 20 4.16 20 -4 20 C-4 18.68 -4 17.36 -4 16 C-1.36 16 1.28 16 4 16 C4 12.04 4 8.08 4 4 C2.68 4 1.36 4 0 4 C0 2.68 0 1.36 0 0 Z " fill="#E8ECEA" transform="translate(1310,624)"/>
<path d="M0 0 C4.29 0 8.58 0 13 0 C13 0.66 13 1.32 13 2 C13.99 2 14.98 2 16 2 C16 4.97 16 7.94 16 11 C15.01 11 14.02 11 13 11 C13 11.99 13 12.98 13 14 C8.71 14 4.42 14 0 14 C0 13.01 0 12.02 0 11 C-0.99 11 -1.98 11 -3 11 C-3 8.03 -3 5.06 -3 2 C-2.01 2 -1.02 2 0 2 C0 1.34 0 0.68 0 0 Z " fill="#2B2524" transform="translate(241,55)"/>
<path d="M0 0 C1.98 0 3.96 0 6 0 C6 1.98 6 3.96 6 6 C9.3 6 12.6 6 16 6 C16 6.99 16 7.98 16 9 C16.99 9 17.98 9 19 9 C19 12.63 19 16.26 19 20 C17.35 20 15.7 20 14 20 C14 16.37 14 12.74 14 9 C11.36 9 8.72 9 6 9 C6 12.63 6 16.26 6 20 C4.02 20 2.04 20 0 20 C0 13.4 0 6.8 0 0 Z " fill="#202426" transform="translate(436,804)"/>
<path d="M0 0 C4.62 0 9.24 0 14 0 C14 0.99 14 1.98 14 3 C14.66 3 15.32 3 16 3 C16 6.63 16 10.26 16 14 C10.72 14 5.44 14 0 14 C0 13.01 0 12.02 0 11 C-0.99 11 -1.98 11 -3 11 C-3 10.01 -3 9.02 -3 8 C-2.01 8 -1.02 8 0 8 C0 7.01 0 6.02 0 5 C3.63 5 7.26 5 11 5 C11 4.34 11 3.68 11 3 C7.37 3 3.74 3 0 3 C0 2.01 0 1.02 0 0 Z " fill="#27242B" transform="translate(197,155)"/>
<path d="M0 0 C4.29 0 8.58 0 13 0 C13 0.99 13 1.98 13 3 C13.99 3 14.98 3 16 3 C16 6.63 16 10.26 16 14 C10.72 14 5.44 14 0 14 C0 13.01 0 12.02 0 11 C-0.99 11 -1.98 11 -3 11 C-3 10.01 -3 9.02 -3 8 C-2.01 8 -1.02 8 0 8 C0 7.01 0 6.02 0 5 C3.63 5 7.26 5 11 5 C11 4.34 11 3.68 11 3 C7.37 3 3.74 3 0 3 C0 2.01 0 1.02 0 0 Z " fill="#2B252D" transform="translate(88,155)"/>
<path d="M0 0 C5.94 0 11.88 0 18 0 C18 2.64 18 5.28 18 8 C18.99 8 19.98 8 21 8 C21.33 6.68 21.66 5.36 22 4 C22 12.25 22 20.5 22 29 C20.35 29 18.7 29 17 29 C17 19.76 17 10.52 17 1 C11.72 1 6.44 1 1 1 C1 15.52 1 30.04 1 45 C0.67 45 0.34 45 0 45 C-0.06058594 43.9378125 -0.12117187 42.875625 -0.18359375 41.78125 C-0.26757187 40.35412784 -0.35225153 38.92704684 -0.4375 37.5 C-0.50300049 36.4025647 -0.50300049 36.4025647 -0.56982422 35.28295898 C-0.80523263 31.5201943 -1.09723504 27.79797924 -1.625 24.0625 C-1.74875 23.051875 -1.8725 22.04125 -2 21 C-1.67 20.67 -1.34 20.34 -1 20 C-0.84344973 18.51361008 -0.74933057 17.02050873 -0.68359375 15.52734375 C-0.64169922 14.62822266 -0.59980469 13.72910156 -0.55664062 12.80273438 C-0.51732422 11.85720703 -0.47800781 10.91167969 -0.4375 9.9375 C-0.37272461 8.5134082 -0.37272461 8.5134082 -0.30664062 7.06054688 C-0.20020868 4.70721824 -0.09956846 2.35362901 0 0 Z " fill="#6F9173" transform="translate(1014,137)"/>
<path d="M0 0 C4.29 0 8.58 0 13 0 C13 0.66 13 1.32 13 2 C13.99 2 14.98 2 16 2 C16 3.98 16 5.96 16 8 C11.38 8 6.76 8 2 8 C2 8.99 2 9.98 2 11 C5.63 11 9.26 11 13 11 C13 11.99 13 12.98 13 14 C8.71 14 4.42 14 0 14 C0 13.01 0 12.02 0 11 C-0.99 11 -1.98 11 -3 11 C-3 8.03 -3 5.06 -3 2 C-2.01 2 -1.02 2 0 2 C0 1.34 0 0.68 0 0 Z " fill="#232530" transform="translate(461,810)"/>
<path d="M0 0 C3.63 0 7.26 0 11 0 C11 4.29 11 8.58 11 13 C13.31 13 15.62 13 18 13 C18 14.32 18 15.64 18 17 C11.07 17 4.14 17 -3 17 C-3 15.68 -3 14.36 -3 13 C-0.69 13 1.62 13 4 13 C4 10.03 4 7.06 4 4 C2.68 4 1.36 4 0 4 C0 2.68 0 1.36 0 0 Z " fill="#E6E9E8" transform="translate(1310,878)"/>
<path d="M0 0 C2.31 0 4.62 0 7 0 C7 0.66 7 1.32 7 2 C7.66 2 8.32 2 9 2 C9 2.66 9 3.32 9 4 C9.66 4 10.32 4 11 4 C11 7.63 11 11.26 11 15 C9.35 15 7.7 15 6 15 C6 13.68 6 12.36 6 11 C4.02 11 2.04 11 0 11 C0 12.32 0 13.64 0 15 C-1.65 15 -3.3 15 -5 15 C-5 11.37 -5 7.74 -5 4 C-4.34 4 -3.68 4 -3 4 C-3 3.34 -3 2.68 -3 2 C-2.01 2 -1.02 2 0 2 C0 1.34 0 0.68 0 0 Z " fill="#C8E0EC" transform="translate(1672,26)"/>
<path d="M0 0 C1.65 0 3.3 0 5 0 C5 4.95 5 9.9 5 15 C0.38 15 -4.24 15 -9 15 C-9 14.34 -9 13.68 -9 13 C-9.66 13 -10.32 13 -11 13 C-11 10.69 -11 8.38 -11 6 C-10.34 6 -9.68 6 -9 6 C-9 5.34 -9 4.68 -9 4 C-6.03 4 -3.06 4 0 4 C0 2.68 0 1.36 0 0 Z " fill="#C7E0ED" transform="translate(1888,26)"/>
<path d="M0 0 C1.65 0 3.3 0 5 0 C5 2.64 5 5.28 5 8 C7.97 8 10.94 8 14 8 C14 5.36 14 2.72 14 0 C15.65 0 17.3 0 19 0 C19 4.62 19 9.24 19 14 C18.01 14 17.02 14 16 14 C16 14.99 16 15.98 16 17 C11.71 17 7.42 17 3 17 C3 16.01 3 15.02 3 14 C6.63 14 10.26 14 14 14 C14 13.01 14 12.02 14 11 C10.37 11 6.74 11 3 11 C3 10.34 3 9.68 3 9 C2.01 9 1.02 9 0 9 C0 6.03 0 3.06 0 0 Z " fill="#29232C" transform="translate(107,155)"/>
<path d="M0 0 C1.65 0 3.3 0 5 0 C5 3.63 5 7.26 5 11 C6.98 11 8.96 11 11 11 C11 10.01 11 9.02 11 8 C11.99 8 12.98 8 14 8 C14 7.34 14 6.68 14 6 C15.65 6 17.3 6 19 6 C19 6.99 19 7.98 19 9 C18.01 9 17.02 9 16 9 C16 9.66 16 10.32 16 11 C15.01 11 14.02 11 13 11 C13 11.99 13 12.98 13 14 C13.99 14 14.98 14 16 14 C16 14.99 16 15.98 16 17 C16.99 17 17.98 17 19 17 C19 17.99 19 18.98 19 20 C17.35 20 15.7 20 14 20 C14 19.01 14 18.02 14 17 C13.01 17 12.02 17 11 17 C11 16.01 11 15.02 11 14 C9.02 14 7.04 14 5 14 C5 15.98 5 17.96 5 20 C3.35 20 1.7 20 0 20 C0 13.4 0 6.8 0 0 Z " fill="#1A161A" transform="translate(502,804)"/>
<path d="M0 0 C3.63 0 7.26 0 11 0 C11 0.99 11 1.98 11 3 C11.99 3 12.98 3 14 3 C14 3.99 14 4.98 14 6 C12.02 6 10.04 6 8 6 C8 5.01 8 4.02 8 3 C6.35 3 4.7 3 3 3 C3 3.99 3 4.98 3 6 C2.01 6 1.02 6 0 6 C0 8.64 0 11.28 0 14 C0.99 14 1.98 14 3 14 C3 14.99 3 15.98 3 17 C4.65 17 6.3 17 8 17 C8 16.01 8 15.02 8 14 C9.98 14 11.96 14 14 14 C14 14.99 14 15.98 14 17 C13.01 17 12.02 17 11 17 C11 17.99 11 18.98 11 20 C7.37 20 3.74 20 0 20 C0 19.01 0 18.02 0 17 C-0.99 17 -1.98 17 -3 17 C-3 16.34 -3 15.68 -3 15 C-3.66 15 -4.32 15 -5 15 C-5 12.03 -5 9.06 -5 6 C-4.34 6 -3.68 6 -3 6 C-3 5.01 -3 4.02 -3 3 C-2.01 3 -1.02 3 0 3 C0 2.01 0 1.02 0 0 Z " fill="#1E1F22" transform="translate(420,804)"/>
<path d="M0 0 C2.31 0 4.62 0 7 0 C7 0.99 7 1.98 7 3 C8.32 3 9.64 3 11 3 C11 2.01 11 1.02 11 0 C14.63 0 18.26 0 22 0 C22 1.32 22 2.64 22 4 C18.37 4 14.74 4 11 4 C11 4.99 11 5.98 11 7 C9.68 7 8.36 7 7 7 C7 10.3 7 13.6 7 17 C4.69 17 2.38 17 0 17 C0 11.39 0 5.78 0 0 Z " fill="#E1E4E6" transform="translate(1363,816)"/>
<path d="M0 0 C2.31 0 4.62 0 7 0 C7 0.99 7 1.98 7 3 C7.99 3 8.98 3 10 3 C10 2.01 10 1.02 10 0 C13.63 0 17.26 0 21 0 C21 1.32 21 2.64 21 4 C17.7 4 14.4 4 11 4 C11 4.99 11 5.98 11 7 C9.68 7 8.36 7 7 7 C7 10.3 7 13.6 7 17 C4.69 17 2.38 17 0 17 C0 11.39 0 5.78 0 0 Z " fill="#E4E8E4" transform="translate(1504,878)"/>
<path d="M0 0 C2.64 0 5.28 0 8 0 C8 1.32 8 2.64 8 4 C9.32 4 10.64 4 12 4 C12 5.32 12 6.64 12 8 C10.68 8 9.36 8 8 8 C8 11.96 8 15.92 8 20 C5.36 20 2.72 20 0 20 C0 13.4 0 6.8 0 0 Z " fill="#E4EAEC" transform="translate(1681,590)"/>
<path d="M0 0 C1.65 0 3.3 0 5 0 C5 3.63 5 7.26 5 11 C7.64 11 10.28 11 13 11 C13 7.37 13 3.74 13 0 C14.98 0 16.96 0 19 0 C19 4.62 19 9.24 19 14 C13.39 14 7.78 14 2 14 C2 13.01 2 12.02 2 11 C1.34 11 0.68 11 0 11 C0 7.37 0 3.74 0 0 Z " fill="#2E2F2A" transform="translate(151,55)"/>
<path d="M0 0 C5.61 0 11.22 0 17 0 C17 0.99 17 1.98 17 3 C15.02 3 13.04 3 11 3 C11 7.62 11 12.24 11 17 C12.98 17 14.96 17 17 17 C17 17.99 17 18.98 17 20 C11.39 20 5.78 20 0 20 C0 19.01 0 18.02 0 17 C1.98 17 3.96 17 6 17 C6 12.38 6 7.76 6 3 C4.02 3 2.04 3 0 3 C0 2.01 0 1.02 0 0 Z " fill="#2C2B29" transform="translate(44,49)"/>
<path d="M0 0 C5.94 0 11.88 0 18 0 C18 5.28 18 10.56 18 16 C17.34 16 16.68 16 16 16 C16 13.36 16 10.72 16 8 C10.72 8 5.44 8 0 8 C0 5.36 0 2.72 0 0 Z " fill="#727272" transform="translate(563,643)"/>
<path d="M0 0 C3.96 0 7.92 0 12 0 C12 0.66 12 1.32 12 2 C12.66 2 13.32 2 14 2 C14 4.31 14 6.62 14 9 C13.34 9 12.68 9 12 9 C12 9.66 12 10.32 12 11 C8.04 11 4.08 11 0 11 C0 10.34 0 9.68 0 9 C-0.66 9 -1.32 9 -2 9 C-2 6.69 -2 4.38 -2 2 C-1.34 2 -0.68 2 0 2 C0 1.34 0 0.68 0 0 Z " fill="#C6DFEC" transform="translate(1739,30)"/>
<path d="M0 0 C5.28 0 10.56 0 16 0 C16 0.99 16 1.98 16 3 C16.99 3 17.98 3 19 3 C19 6.63 19 10.26 19 14 C17.35 14 15.7 14 14 14 C14 10.37 14 6.74 14 3 C11.03 3 8.06 3 5 3 C5 6.63 5 10.26 5 14 C3.35 14 1.7 14 0 14 C0 9.38 0 4.76 0 0 Z " fill="#2C2227" transform="translate(238,155)"/>
<path d="M0 0 C5.28 0 10.56 0 16 0 C16 0.99 16 1.98 16 3 C16.99 3 17.98 3 19 3 C19 6.63 19 10.26 19 14 C17.35 14 15.7 14 14 14 C14 10.37 14 6.74 14 3 C11.03 3 8.06 3 5 3 C5 6.63 5 10.26 5 14 C3.35 14 1.7 14 0 14 C0 9.38 0 4.76 0 0 Z " fill="#2C2424" transform="translate(260,55)"/>
<path d="M0 0 C5.28 0 10.56 0 16 0 C16 0.99 16 1.98 16 3 C16.99 3 17.98 3 19 3 C19 6.63 19 10.26 19 14 C17.35 14 15.7 14 14 14 C14 10.37 14 6.74 14 3 C11.03 3 8.06 3 5 3 C5 6.63 5 10.26 5 14 C3.35 14 1.7 14 0 14 C0 9.38 0 4.76 0 0 Z " fill="#2C2424" transform="translate(63,55)"/>
<path d="M0 0 C1.65 0 3.3 0 5 0 C5.33 1.32 5.66 2.64 6 4 C6.66 4 7.32 4 8 4 C8 3.34 8 2.68 8 2 C8.99 2 9.98 2 11 2 C11 1.34 11 0.68 11 0 C12.32 0 13.64 0 15 0 C15 0.66 15 1.32 15 2 C14.34 2 13.68 2 13 2 C13 2.66 13 3.32 13 4 C12.34 4 11.68 4 11 4 C11 4.66 11 5.32 11 6 C10.34 6 9.68 6 9 6 C9 6.66 9 7.32 9 8 C9.66 8 10.32 8 11 8 C11 8.66 11 9.32 11 10 C11.66 10 12.32 10 13 10 C13 10.99 13 11.98 13 13 C13.66 13 14.32 13 15 13 C15 13.66 15 14.32 15 15 C12.69 15 10.38 15 8 15 C8 14.34 8 13.68 8 13 C7.34 13 6.68 13 6 13 C5.67 13.66 5.34 14.32 5 15 C3.35 15 1.7 15 0 15 C0 10.05 0 5.1 0 0 Z " fill="#CCE1E8" transform="translate(1825,26)"/>
<path d="M0 0 C3.65829624 2.56859098 4.82227491 4.02251199 5.625 8.4375 C4.80994802 13.08329631 3.18332355 14.58375034 0 18 C-0.33 18.99 -0.66 19.98 -1 21 C-2.65 21 -4.3 21 -6 21 C-5.6699614 17.25956251 -4.94010581 15.92987997 -2.4375 13 C0.23432316 10.26638452 0.23432316 10.26638452 0.3125 7.125 C0.209375 6.42375 0.10625 5.7225 0 5 C-1.98 5 -3.96 5 -6 5 C-6.66 6.32 -7.32 7.64 -8 9 C-9.32 9 -10.64 9 -12 9 C-11.52 3.6 -11.52 3.6 -9.375 1.125 C-5.97792899 -0.4841389 -3.71564293 -0.52149375 0 0 Z " fill="#E1E1E1" transform="translate(1571,622)"/>
<path d="M0 0 C2.64 0 5.28 0 8 0 C8 5.61 8 11.22 8 17 C9.65 17 11.3 17 13 17 C13 17.99 13 18.98 13 20 C7.72 20 2.44 20 -3 20 C-3 19.01 -3 18.02 -3 17 C-1.35 17 0.3 17 2 17 C2 12.38 2 7.76 2 3 C1.34 3 0.68 3 0 3 C0 2.01 0 1.02 0 0 Z " fill="#302834" transform="translate(69,149)"/>
<path d="M0 0 C4.29 0 8.58 0 13 0 C13 0.99 13 1.98 13 3 C9.37 3 5.74 3 2 3 C2 3.66 2 4.32 2 5 C5.63 5 9.26 5 13 5 C13 5.99 13 6.98 13 8 C13.99 8 14.98 8 16 8 C16 8.99 16 9.98 16 11 C15.01 11 14.02 11 13 11 C13 11.99 13 12.98 13 14 C7.72 14 2.44 14 -3 14 C-3 13.01 -3 12.02 -3 11 C1.62 11 6.24 11 11 11 C11 10.01 11 9.02 11 8 C7.37 8 3.74 8 0 8 C0 7.01 0 6.02 0 5 C-0.99 5 -1.98 5 -3 5 C-3 4.34 -3 3.68 -3 3 C-2.01 3 -1.02 3 0 3 C0 2.01 0 1.02 0 0 Z " fill="#2D2B28" transform="translate(285,55)"/>
<path d="M0 0 C4.29 0 8.58 0 13 0 C13 0.99 13 1.98 13 3 C9.37 3 5.74 3 2 3 C2 3.66 2 4.32 2 5 C5.63 5 9.26 5 13 5 C13 5.99 13 6.98 13 8 C13.99 8 14.98 8 16 8 C16 8.99 16 9.98 16 11 C15.01 11 14.02 11 13 11 C13 11.99 13 12.98 13 14 C7.72 14 2.44 14 -3 14 C-3 13.01 -3 12.02 -3 11 C1.62 11 6.24 11 11 11 C11 10.01 11 9.02 11 8 C7.37 8 3.74 8 0 8 C0 7.01 0 6.02 0 5 C-0.99 5 -1.98 5 -3 5 C-3 4.34 -3 3.68 -3 3 C-2.01 3 -1.02 3 0 3 C0 2.01 0 1.02 0 0 Z " fill="#2E2B26" transform="translate(88,55)"/>
<path d="M0 0 C3.63 0 7.26 0 11 0 C11 0.33 11 0.66 11 1 C8.69 1 6.38 1 4 1 C4 5.62 4 10.24 4 15 C5.32 15 6.64 15 8 15 C8 15.99 8 16.98 8 18 C9.98 18 11.96 18 14 18 C14 18.99 14 19.98 14 21 C10.7 21 7.4 21 4 21 C4 19.68 4 18.36 4 17 C3.01 17 2.02 17 1 17 C1 16.34 1 15.68 1 15 C-0.32 15 -1.64 15 -3 15 C-3 11.37 -3 7.74 -3 4 C-2.01 4 -1.02 4 0 4 C0 2.68 0 1.36 0 0 Z " fill="#8623A1" transform="translate(1616,874)"/>
<path d="M0 0 C5.61 0 11.22 0 17 0 C17 0.99 17 1.98 17 3 C12.38 3 7.76 3 3 3 C3 5.64 3 8.28 3 11 C7.62 11 12.24 11 17 11 C17 11.99 17 12.98 17 14 C11.39 14 5.78 14 0 14 C0 13.01 0 12.02 0 11 C-0.66 11 -1.32 11 -2 11 C-2 8.03 -2 5.06 -2 2 C-1.34 2 -0.68 2 0 2 C0 1.34 0 0.68 0 0 Z " fill="#2E2E29" transform="translate(175,55)"/>
<path d="M0 0 C2.31 0 4.62 0 7 0 C7 0.99 7 1.98 7 3 C7.99 3 8.98 3 10 3 C10 7.29 10 11.58 10 16 C8.02 16 6.04 16 4 16 C4 15.34 4 14.68 4 14 C2.68 14 1.36 14 0 14 C0 9.38 0 4.76 0 0 Z " fill="#1E191A" transform="translate(1620,875)"/>
<path d="M0 0 C2.31 0 4.62 0 7 0 C7 0.99 7 1.98 7 3 C7.99 3 8.98 3 10 3 C10 7.29 10 11.58 10 16 C8.02 16 6.04 16 4 16 C4 15.34 4 14.68 4 14 C2.68 14 1.36 14 0 14 C0 9.38 0 4.76 0 0 Z " fill="#1E1B19" transform="translate(1479,813)"/>
<path d="M0 0 C5.28 0 10.56 0 16 0 C16 0.99 16 1.98 16 3 C11.38 3 6.76 3 2 3 C2 5.64 2 8.28 2 11 C6.62 11 11.24 11 16 11 C16 11.99 16 12.98 16 14 C10.72 14 5.44 14 0 14 C0 13.01 0 12.02 0 11 C-0.99 11 -1.98 11 -3 11 C-3 8.03 -3 5.06 -3 2 C-2.01 2 -1.02 2 0 2 C0 1.34 0 0.68 0 0 Z " fill="#1C1B21" transform="translate(483,810)"/>
<path d="M0 0 C0.99 0 1.98 0 3 0 C3 4.95 3 9.9 3 15 C4.32 15 5.64 15 7 15 C7 15.99 7 16.98 7 18 C8.98 18 10.96 18 13 18 C13 18.99 13 19.98 13 21 C9.7 21 6.4 21 3 21 C3 19.68 3 18.36 3 17 C2.01 17 1.02 17 0 17 C0 16.34 0 15.68 0 15 C-1.32 15 -2.64 15 -4 15 C-4 11.37 -4 7.74 -4 4 C-2.68 4 -1.36 4 0 4 C0 2.68 0 1.36 0 0 Z " fill="#5C5DE1" transform="translate(1476,812)"/>
<path d="M0 0 C1.32 0 2.64 0 4 0 C4 2.31 4 4.62 4 7 C6.31 7 8.62 7 11 7 C11 9.31 11 11.62 11 14 C10.20335937 13.91621094 9.40671875 13.83242187 8.5859375 13.74609375 C0.75885538 12.95272862 0.75885538 12.95272862 -7 14 C-7 11.69 -7 9.38 -7 7 C-4.69 7 -2.38 7 0 7 C0 4.69 0 2.38 0 0 Z " fill="#598A5D" transform="translate(1039,175)"/>
<path d="M0 0 C1.65 0 3.3 0 5 0 C5 1.98 5 3.96 5 6 C6.98 6 8.96 6 11 6 C11 6.99 11 7.98 11 9 C9.02 9 7.04 9 5 9 C5 12.63 5 16.26 5 20 C3.35 20 1.7 20 0 20 C0 16.37 0 12.74 0 9 C-1.98 9 -3.96 9 -6 9 C-6 8.01 -6 7.02 -6 6 C-4.02 6 -2.04 6 0 6 C0 4.02 0 2.04 0 0 Z " fill="#282729" transform="translate(203,49)"/>
<path d="M0 0 C1.65 0 3.3 0 5 0 C5 1.32 5 2.64 5 4 C7.64 4 10.28 4 13 4 C13 4.66 13 5.32 13 6 C13.99 6 14.98 6 16 6 C16 8.97 16 11.94 16 15 C14.35 15 12.7 15 11 15 C11 12.03 11 9.06 11 6 C9.02 6 7.04 6 5 6 C5 8.97 5 11.94 5 15 C3.35 15 1.7 15 0 15 C0 10.05 0 5.1 0 0 Z " fill="#CFE0DD" transform="translate(1720,26)"/>
<path d="M0 0 C5.94 0 11.88 0 18 0 C16.11656068 5.65031797 15.19098872 7.25016798 11 11 C4.77081866 9.92187246 4.77081866 9.92187246 2.64453125 7.37890625 C0 2.78677798 0 2.78677798 0 0 Z " fill="#A51017" transform="translate(1219,875)"/>
<path d="M0 0 C1.65 0 3.3 0 5 0 C5 1.98 5 3.96 5 6 C6.98 6 8.96 6 11 6 C11 6.99 11 7.98 11 9 C9.02 9 7.04 9 5 9 C5 12.63 5 16.26 5 20 C3.35 20 1.7 20 0 20 C0 16.37 0 12.74 0 9 C-1.65 9 -3.3 9 -5 9 C-5 8.01 -5 7.02 -5 6 C-3.35 6 -1.7 6 0 6 C0 4.02 0 2.04 0 0 Z " fill="#312524" transform="translate(115,49)"/>
<path d="M0 0 C3.63 0 7.26 0 11 0 C11 3.96 11 7.92 11 12 C7.37 12 3.74 12 0 12 C0 8.04 0 4.08 0 0 Z " fill="#221919" transform="translate(1373,628)"/>
<path d="M0 0 C3.63 0 7.26 0 11 0 C11 3.96 11 7.92 11 12 C7.37 12 3.74 12 0 12 C0 8.04 0 4.08 0 0 Z " fill="#1A1919" transform="translate(1217,628)"/>
<path d="M0 0 C3.63 0 7.26 0 11 0 C11 3.96 11 7.92 11 12 C7.37 12 3.74 12 0 12 C0 8.04 0 4.08 0 0 Z " fill="#221919" transform="translate(1623,594)"/>
<path d="M0 0 C3.63 0 7.26 0 11 0 C11 0.66 11 1.32 11 2 C11.99 2 12.98 2 14 2 C14 3.65 14 5.3 14 7 C10.04 7 6.08 7 2 7 C2 7.66 2 8.32 2 9 C4.97 9 7.94 9 11 9 C11 9.66 11 10.32 11 11 C7.37 11 3.74 11 0 11 C0 10.34 0 9.68 0 9 C-0.66 9 -1.32 9 -2 9 C-2 6.69 -2 4.38 -2 2 C-1.34 2 -0.68 2 0 2 C0 1.34 0 0.68 0 0 Z " fill="#D3E6EE" transform="translate(1862,30)"/>
<path d="M0 0 C1.65 0 3.3 0 5 0 C5 2.97 5 5.94 5 9 C6.98 9 8.96 9 11 9 C11 6.03 11 3.06 11 0 C12.65 0 14.3 0 16 0 C16 3.63 16 7.26 16 11 C11.38 11 6.76 11 2 11 C2 10.34 2 9.68 2 9 C1.34 9 0.68 9 0 9 C0 6.03 0 3.06 0 0 Z " fill="#CEDDD8" transform="translate(1685,30)"/>
<path d="M0 0 C0.66 0 1.32 0 2 0 C1.67 1.98 1.34 3.96 1 6 C3.31 5.34 5.62 4.68 8 4 C8.08114106 5.77007714 8.13925505 7.54122098 8.1875 9.3125 C8.22230469 10.29863281 8.25710938 11.28476562 8.29296875 12.30078125 C8 15 8 15 6.6484375 16.86328125 C5 18 5 18 2.4375 17.875 C0 17 0 17 -2 14 C-2.01171875 11.15234375 -2.01171875 11.15234375 -1.6875 7.9375 C-1.58824219 6.87402344 -1.48898437 5.81054688 -1.38671875 4.71484375 C-1 2 -1 2 0 0 Z " fill="#0D0C0C" transform="translate(1564,637)"/>
<path d="M0 0 C2.64 0 5.28 0 8 0 C8 3.63 8 7.26 8 11 C9.98 11 11.96 11 14 11 C14 11.99 14 12.98 14 14 C8.39 14 2.78 14 -3 14 C-3 13.01 -3 12.02 -3 11 C-1.02 11 0.96 11 3 11 C3 8.36 3 5.72 3 3 C2.01 3 1.02 3 0 3 C0 2.01 0 1.02 0 0 Z " fill="#2C2929" transform="translate(222,55)"/>
<path d="M0 0 C2.64 0 5.28 0 8 0 C8 3.63 8 7.26 8 11 C9.65 11 11.3 11 13 11 C13 11.99 13 12.98 13 14 C7.72 14 2.44 14 -3 14 C-3 13.01 -3 12.02 -3 11 C-1.02 11 0.96 11 3 11 C3 8.36 3 5.72 3 3 C2.01 3 1.02 3 0 3 C0 2.01 0 1.02 0 0 Z " fill="#2A232D" transform="translate(222,155)"/>
<path d="M0 0 C2.9375 0.875 2.9375 0.875 4.375 2.625 C5.0800101 5.44504041 4.87647436 7.13030571 3.9375 9.875 C0.9375 11.875 0.9375 11.875 -2.125 11.6875 C-5.0625 10.875 -5.0625 10.875 -7.0625 7.875 C-6.875 4.8125 -6.875 4.8125 -6.0625 1.875 C-3.0625 -0.125 -3.0625 -0.125 0 0 Z " fill="#D79000" transform="translate(1229.0625,888.125)"/>
<path d="M0 0 C1.8125 0.8125 1.8125 0.8125 2.8125 1.8125 C2.85700293 6.20048865 2.51682246 9.79244678 0 13.4375 C-2.1875 14.8125 -2.1875 14.8125 -4.375 14.625 C-6.1875 13.8125 -6.1875 13.8125 -7.1875 12.8125 C-7.23200293 8.42451135 -6.89182246 4.83255322 -4.375 1.1875 C-2.1875 -0.1875 -2.1875 -0.1875 0 0 Z " fill="#D13213" transform="translate(1239.1875,813.1875)"/>
<path d="M0 0 C3.69230769 0.69230769 3.69230769 0.69230769 5 2 C5.04450293 6.38798865 4.70432246 9.97994678 2.1875 13.625 C0 15 0 15 -2.1875 14.8125 C-4 14 -4 14 -5 13 C-5.61371709 7.72203304 -4.18545093 5.15073908 -1 1 C-0.67 0.67 -0.34 0.34 0 0 Z " fill="#DC3515" transform="translate(1226,814)"/>
<path d="M0 0 C1 2 1 2 0.375 5.3125 C-0.06400555 9.62938794 0.57876535 10.54109335 3 14 C4.64848662 17.6139899 6.21858041 21.09290207 7 25 C7.99 24.67 8.98 24.34 10 24 C10.0825 22.948125 10.165 21.89625 10.25 20.8125 C11.06207899 16.68443182 12.05830641 14.94169359 15 12 C15.99 11.67 16.98 11.34 18 11 C16.79618552 13.49361571 15.54571278 15.68143083 14 18 C13.65795833 19.98528892 13.65795833 19.98528892 13.5625 22.0625 C13.376875 23.361875 13.19125 24.66125 13 26 C10 28 10 28 6.875 27.6875 C4 27 4 27 3 26 C2.70368235 24.44213197 2.43794981 22.8783965 2.1875 21.3125 C1.32651125 16.69207945 -0.34884087 13.88836672 -3 10 C-3.50860322 6.36711987 -3.4650566 4.73633962 -1.5 1.625 C-1.005 1.08875 -0.51 0.5525 0 0 Z " fill="#050403" transform="translate(1215,753)"/>
<path d="M0 0 C2.64 0 5.28 0 8 0 C8 2.97 8 5.94 8 9 C7.01 9 6.02 9 5 9 C5 10.65 5 12.3 5 14 C3.35 14 1.7 14 0 14 C0 9.38 0 4.76 0 0 Z " fill="#1F1E14" transform="translate(529,804)"/>
<path d="M0 0 C2.64 0 5.28 0 8 0 C8 2.97 8 5.94 8 9 C7.01 9 6.02 9 5 9 C5 10.65 5 12.3 5 14 C3.35 14 1.7 14 0 14 C0 9.38 0 4.76 0 0 Z " fill="#222532" transform="translate(266,149)"/>
<path d="M0 0 C4.29 0 8.58 0 13 0 C13 0.99 13 1.98 13 3 C11.68 3 10.36 3 9 3 C9 6.96 9 10.92 9 15 C7.35 15 5.7 15 4 15 C4 10.71 4 6.42 4 2 C2.68 2 1.36 2 0 2 C0 1.34 0 0.68 0 0 Z " fill="#CEDEE3" transform="translate(1810,26)"/>
<path d="M0 0 C1.65 0 3.3 0 5 0 C5 1.32 5 2.64 5 4 C6.32 4 7.64 4 9 4 C9 4.99 9 5.98 9 7 C7.68 7 6.36 7 5 7 C5 9.64 5 12.28 5 15 C3.35 15 1.7 15 0 15 C0 12.03 0 9.06 0 6 C-1.32 6 -2.64 6 -4 6 C-4 5.34 -4 4.68 -4 4 C-2.68 4 -1.36 4 0 4 C0 2.68 0 1.36 0 0 Z " fill="#CEDEE3" transform="translate(1709,26)"/>
<path d="M0 0 C3.3 0 6.6 0 10 0 C10 2.97 10 5.94 10 9 C6.7 9 3.4 9 0 9 C0 6.03 0 3.06 0 0 Z " fill="#1A2228" transform="translate(1480,882)"/>
<path d="M0 0 C3.3 0 6.6 0 10 0 C10 2.97 10 5.94 10 9 C6.7 9 3.4 9 0 9 C0 6.03 0 3.06 0 0 Z " fill="#231919" transform="translate(1339,820)"/>
<path d="M0 0 C0.33 0 0.66 0 1 0 C1 8.25 1 16.5 1 25 C-0.32 25 -1.64 25 -3 25 C-3.05791844 21.87507749 -3.09356746 18.75029234 -3.125 15.625 C-3.14175781 14.73554688 -3.15851563 13.84609375 -3.17578125 12.9296875 C-3.18222656 12.07890625 -3.18867187 11.228125 -3.1953125 10.3515625 C-3.20578613 9.56604004 -3.21625977 8.78051758 -3.22705078 7.97119141 C-3 6 -3 6 -1 4 C-0.3574765 1.93125966 -0.3574765 1.93125966 0 0 Z " fill="#57835A" transform="translate(1049,141)"/>
<path d="M0 0 C0.99 0 1.98 0 3 0 C3 0.66 3 1.32 3 2 C3.99 2 4.98 2 6 2 C6 2.99 6 3.98 6 5 C9.63 5 13.26 5 17 5 C17 5.99 17 6.98 17 8 C12.38 8 7.76 8 3 8 C2.67 8.99 2.34 9.98 2 11 C1.34 11 0.68 11 0 11 C0 7.37 0 3.74 0 0 Z " fill="#E5D56C" transform="translate(279,58)"/>
<path d="M0 0 C1.65 0 3.3 0 5 0 C5 0.99 5 1.98 5 3 C5.99 3 6.98 3 8 3 C8 3.99 8 4.98 8 6 C7.01 6 6.02 6 5 6 C5 8.64 5 11.28 5 14 C3.35 14 1.7 14 0 14 C0 9.38 0 4.76 0 0 Z " fill="#232529" transform="translate(132,55)"/>
<path d="M0 0 C3.63 0 7.26 0 11 0 C11 0.99 11 1.98 11 3 C11.99 3 12.98 3 14 3 C14 3.99 14 4.98 14 6 C12.02 6 10.04 6 8 6 C8 5.01 8 4.02 8 3 C6.35 3 4.7 3 3 3 C3 3.99 3 4.98 3 6 C2.01 6 1.02 6 0 6 C0 8.64 0 11.28 0 14 C-0.33 14 -0.66 14 -1 14 C-1.33 10.37 -1.66 6.74 -2 3 C-1.34 3 -0.68 3 0 3 C0 2.01 0 1.02 0 0 Z " fill="#1B1414" transform="translate(420,804)"/>
<path d="M0 0 C2.60945995 4.47047015 2.20673934 8.07956283 1 13 C-0.13164388 15.33460985 -1.33625633 16.97231241 -3 19 C-3.33 19 -3.66 19 -4 19 C-4.10826289 16.5821288 -4.18739789 14.16912444 -4.25 11.75 C-4.28351563 11.06808594 -4.31703125 10.38617188 -4.3515625 9.68359375 C-4.4215705 6.07818187 -4.29151719 4.35931188 -1.984375 1.515625 C-1.32953125 1.01546875 -0.6746875 0.5153125 0 0 Z " fill="#3B573D" transform="translate(1226,164)"/>
<path d="M0 0 C4.29 0 8.58 0 13 0 C13 0.66 13 1.32 13 2 C11.02 2 9.04 2 7 2 C7 2.66 7 3.32 7 4 C6.34 4 5.68 4 5 4 C5 6.31 5 8.62 5 11 C3.35 11 1.7 11 0 11 C0 7.37 0 3.74 0 0 Z " fill="#CBDFE8" transform="translate(1757,30)"/>
<path d="M0 0 C2.97 0 5.94 0 9 0 C9 2.64 9 5.28 9 8 C6.03 8 3.06 8 0 8 C0 5.36 0 2.72 0 0 Z " fill="#E2D36D" transform="translate(243,58)"/>
<path d="M0 0 C0.33 0 0.66 0 1 0 C1 14.85 1 29.7 1 45 C0.67 45 0.34 45 0 45 C-0.06058594 43.9378125 -0.12117187 42.875625 -0.18359375 41.78125 C-0.26757187 40.35412784 -0.35225153 38.92704684 -0.4375 37.5 C-0.50300049 36.4025647 -0.50300049 36.4025647 -0.56982422 35.28295898 C-0.80523263 31.5201943 -1.09723504 27.79797924 -1.625 24.0625 C-1.74875 23.051875 -1.8725 22.04125 -2 21 C-1.67 20.67 -1.34 20.34 -1 20 C-0.84344973 18.51361008 -0.74933057 17.02050873 -0.68359375 15.52734375 C-0.64169922 14.62822266 -0.59980469 13.72910156 -0.55664062 12.80273438 C-0.51732422 11.85720703 -0.47800781 10.91167969 -0.4375 9.9375 C-0.37272461 8.5134082 -0.37272461 8.5134082 -0.30664062 7.06054688 C-0.20020724 4.70718647 -0.09818992 2.35371646 0 0 Z " fill="#556D58" transform="translate(1014,137)"/>
<path d="M0 0 C2.64 0 5.28 0 8 0 C8 2.64 8 5.28 8 8 C5.36 8 2.72 8 0 8 C0 5.36 0 2.72 0 0 Z " fill="#ED6ACE" transform="translate(47,152)"/>
<path d="M0 0 C2.3125 1.25 2.3125 1.25 3.3125 3.25 C3.35272391 5.5829866 3.35570247 7.91706666 3.3125 10.25 C0.84971199 7.78721199 0.31478745 5.54323018 -0.6875 2.25 C-2.60216367 2.37177688 -2.60216367 2.37177688 -4.6875 3.25 C-6.38722025 5.55480288 -6.38722025 5.55480288 -7.6875 8.25 C-8.079375 9.013125 -8.47125 9.77625 -8.875 10.5625 C-9.2771875 11.3978125 -9.2771875 11.3978125 -9.6875 12.25 C-11.04189668 9.54120665 -10.75251451 7.24066732 -10.6875 4.25 C-13.1625 3.26 -13.1625 3.26 -15.6875 2.25 C-15.3575 1.59 -15.0275 0.93 -14.6875 0.25 C-13.5428125 0.4975 -13.5428125 0.4975 -12.375 0.75 C-8.4316573 1.51912131 -8.4316573 1.51912131 -4.8125 0.125 C-2.6875 -0.75 -2.6875 -0.75 0 0 Z " fill="#090403" transform="translate(1240.6875,811.75)"/>
<path d="M0 0 C3.3 0 6.6 0 10 0 C10 1.98 10 3.96 10 6 C6.7 6 3.4 6 0 6 C0 4.02 0 2.04 0 0 Z " fill="#231919" transform="translate(1339,882)"/>
<path d="M0 0 C1.65 0 3.3 0 5 0 C5 3.63 5 7.26 5 11 C3.35 11 1.7 11 0 11 C0 7.37 0 3.74 0 0 Z " fill="#1E1414" transform="translate(450,813)"/>
<path d="M0 0 C3.16115776 1.36983503 3.9927092 1.9890638 6 5 C6.6820176 8.76904461 6.83098707 12.45628171 4.984375 15.88671875 C2.84357352 18.5498242 1.25941392 19.91352869 -2 21 C-0.96606604 18.77306531 -0.02338488 17.02608314 1.625 15.1875 C3.62307666 12.00874168 3.39413216 9.67856686 3 6 C1.60042803 3.71515694 1.60042803 3.71515694 0 2 C0 1.34 0 0.68 0 0 Z " fill="#050505" transform="translate(1572,621)"/>
<path d="M0 0 C0 0.99 0 1.98 0 3 C-0.72445313 2.91621094 -1.44890625 2.83242187 -2.1953125 2.74609375 C-7.3349182 2.20472195 -11.91365942 1.76278202 -17 3 C-17 2.01 -17 1.02 -17 0 C-10.74363829 -2.38337589 -6.14228638 -2.89048771 0 0 Z " fill="#4C764F" transform="translate(1049,186)"/>
<path d="M0 0 C2.31 0 4.62 0 7 0 C7 2.31 7 4.62 7 7 C4.69 7 2.38 7 0 7 C0 4.69 0 2.38 0 0 Z " fill="#ECECE6" transform="translate(1564,885)"/>
<path d="M0 0 C2.31 0 4.62 0 7 0 C7 2.31 7 4.62 7 7 C4.69 7 2.38 7 0 7 C0 4.69 0 2.38 0 0 Z " fill="#ECECE6" transform="translate(1564,874)"/>
<path d="M0 0 C2.31 0 4.62 0 7 0 C7 2.31 7 4.62 7 7 C4.69 7 2.38 7 0 7 C0 4.69 0 2.38 0 0 Z " fill="#E9EEE9" transform="translate(1423,823)"/>
<path d="M0 0 C2.31 0 4.62 0 7 0 C7 2.31 7 4.62 7 7 C4.69 7 2.38 7 0 7 C0 4.69 0 2.38 0 0 Z " fill="#E9EEE9" transform="translate(1423,812)"/>
<path d="M0 0 C2.31 0 4.62 0 7 0 C7 2.31 7 4.62 7 7 C4.69 7 2.38 7 0 7 C0 4.69 0 2.38 0 0 Z " fill="#E9EEE9" transform="translate(1610,761)"/>
<path d="M0 0 C2.31 0 4.62 0 7 0 C7 2.31 7 4.62 7 7 C4.69 7 2.38 7 0 7 C0 4.69 0 2.38 0 0 Z " fill="#E9EEE9" transform="translate(1610,750)"/>
<path d="M0 0 C0.99 0 1.98 0 3 0 C3 0.99 3 1.98 3 3 C3.66 3 4.32 3 5 3 C5 4.65 5 6.3 5 8 C2.36 8 -0.28 8 -3 8 C-3 6.35 -3 4.7 -3 3 C-2.01 3 -1.02 3 0 3 C0 2.01 0 1.02 0 0 Z " fill="#EA68C9" transform="translate(159,152)"/>
<path d="M0 0 C3.96 0 7.92 0 12 0 C12 1.32 12 2.64 12 4 C8.04 4 4.08 4 0 4 C0 2.68 0 1.36 0 0 Z " fill="#272826" transform="translate(1654,594)"/>
<path d="M0 0 C3.96 0 7.92 0 12 0 C12 1.32 12 2.64 12 4 C8.04 4 4.08 4 0 4 C0 2.68 0 1.36 0 0 Z " fill="#272826" transform="translate(1279,594)"/>
<path d="M0 0 C3.96 0 7.92 0 12 0 C12 1.32 12 2.64 12 4 C8.04 4 4.08 4 0 4 C0 2.68 0 1.36 0 0 Z " fill="#E9EBE9" transform="translate(1693,590)"/>
<path d="M0 0 C-1.6813917 6.48707154 -3.53062327 12.7677635 -6 19 C-6.66 19 -7.32 19 -8 19 C-7.52188823 17.22888156 -7.0424722 15.45811517 -6.5625 13.6875 C-6.29566406 12.70136719 -6.02882813 11.71523438 -5.75390625 10.69921875 C-5.21920575 8.78482474 -4.62855462 6.88566385 -4 5 C-4.66 4.67 -5.32 4.34 -6 4 C-2.25 0 -2.25 0 0 0 Z " fill="#D83414" transform="translate(1222,815)"/>
<path d="M0 0 C0.66 0.33 1.32 0.66 2 1 C1.64766839 6.4611399 1.64766839 6.4611399 1 9 C-1.0625 10.5 -1.0625 10.5 -3 11 C-3.33 10.67 -3.66 10.34 -4 10 C-3.53017945 3.65742251 -3.53017945 3.65742251 -1.4375 1.0625 C-0.7259375 0.5365625 -0.7259375 0.5365625 0 0 Z " fill="#140401" transform="translate(1227,816)"/>
<path d="M0 0 C0.66 0.33 1.32 0.66 2 1 C1.25 7.625 1.25 7.625 -1 11 C-1.99 11 -2.98 11 -4 11 C-4.36630156 7.06225823 -4.30233203 5.43460229 -2 2.125 C-1.34 1.42375 -0.68 0.7225 0 0 Z " fill="#130401" transform="translate(1238,815)"/>
<path d="M0 0 C1.65 0 3.3 0 5 0 C5 2.97 5 5.94 5 9 C3.35 9 1.7 9 0 9 C0 6.03 0 3.06 0 0 Z " fill="#CCDCD2" transform="translate(1731,32)"/>
<path d="M0 0 C1.32 0.33 2.64 0.66 4 1 C4.75 3.75 4.75 3.75 5 7 C3.25 9.375 3.25 9.375 1 11 C0.01 11 -0.98 11 -2 11 C-2 10.34 -2 9.68 -2 9 C-1.01 9 -0.02 9 1 9 C0.67 8.34 0.34 7.68 0 7 C-0.04022391 4.6670134 -0.04320247 2.33293334 0 0 Z " fill="#D58D00" transform="translate(1229,889)"/>
<path d="M0 0 C3.63 0 7.26 0 11 0 C11 1.32 11 2.64 11 4 C7.37 4 3.74 4 0 4 C0 2.68 0 1.36 0 0 Z " fill="#7C7C7A" transform="translate(1413,757)"/>
<path d="M0 0 C3.63 0 7.26 0 11 0 C11 1.32 11 2.64 11 4 C7.37 4 3.74 4 0 4 C0 2.68 0 1.36 0 0 Z " fill="#221919" transform="translate(1498,628)"/>
<path d="M0 0 C3.63 0 7.26 0 11 0 C11 1.32 11 2.64 11 4 C7.37 4 3.74 4 0 4 C0 2.68 0 1.36 0 0 Z " fill="#221919" transform="translate(1248,628)"/>
<path d="M0 0 C3.63 0 7.26 0 11 0 C11 1.32 11 2.64 11 4 C7.37 4 3.74 4 0 4 C0 2.68 0 1.36 0 0 Z " fill="#1A1919" transform="translate(1467,594)"/>
<path d="M0 0 C4.62 0 9.24 0 14 0 C14 0.99 14 1.98 14 3 C9.38 3 4.76 3 0 3 C0 2.01 0 1.02 0 0 Z " fill="#352832" transform="translate(175,169)"/>
<path d="M0 0 C1.98 0 3.96 0 6 0 C6 2.31 6 4.62 6 7 C4.02 7 2.04 7 0 7 C0 4.69 0 2.38 0 0 Z " fill="#43454E" transform="translate(1882,32)"/>
<path d="M0 0 C1.98 0 3.96 0 6 0 C6 2.31 6 4.62 6 7 C4.02 7 2.04 7 0 7 C0 4.69 0 2.38 0 0 Z " fill="#42454D" transform="translate(1742,32)"/>
<path d="M0 0 C0 0.66 0 1.32 0 2 C-0.88042969 2.12117187 -1.76085938 2.24234375 -2.66796875 2.3671875 C-3.82941406 2.53476562 -4.99085937 2.70234375 -6.1875 2.875 C-7.91033203 3.11863281 -7.91033203 3.11863281 -9.66796875 3.3671875 C-12.94704729 3.87968483 -12.94704729 3.87968483 -15.67578125 5.0703125 C-18 6 -18 6 -22 6 C-22 5.34 -22 4.68 -22 4 C-14.58189316 1.66901386 -7.84509446 -0.18678796 0 0 Z " fill="#D23213" transform="translate(1239,834)"/>
<path d="M0 0 C4.29 0 8.58 0 13 0 C12.67 1.65 12.34 3.3 12 5 C11.67 4.34 11.34 3.68 11 3 C7.37 3 3.74 3 0 3 C0 2.01 0 1.02 0 0 Z " fill="#37262A" transform="translate(197,155)"/>
<path d="M0 0 C1 2 1 2 0.375 5.3125 C-0.05630859 9.55370117 0.55186369 10.64514654 3 14 C3.68096422 15.32608822 4.35330586 16.65686601 5 18 C4.01 18 3.02 18 2 18 C-0.97875523 14.69400123 -2.82588089 11.13177424 -3.5 6.75 C-2.94942573 3.72184149 -2.07030854 2.24283425 0 0 Z " fill="#0F0D08" transform="translate(1215,753)"/>
<path d="M0 0 C2.64 0 5.28 0 8 0 C8 1.65 8 3.3 8 5 C5.36 5 2.72 5 0 5 C0 3.35 0 1.7 0 0 Z " fill="#EA6AD0" transform="translate(178,158)"/>
<path d="M0 0 C1.65 0 3.3 0 5 0 C5 2.64 5 5.28 5 8 C3.35 8 1.7 8 0 8 C0 5.36 0 2.72 0 0 Z " fill="#342222" transform="translate(55,152)"/>
<path d="M0 0 C0 0.66 0 1.32 0 2 C-6.32448699 3.06965872 -12.64416673 4.13329546 -19 5 C-19 4.34 -19 3.68 -19 3 C-12.49577707 0.99134292 -6.8218683 -0.38614349 0 0 Z " fill="#C83013" transform="translate(1238,830)"/>
<path d="M0 0 C0.99 0.33 1.98 0.66 3 1 C0.86793788 5.67239145 -1.02502456 9.59287819 -5 13 C-5 8.85323868 -4.5223055 7.68791935 -2.5 4.25 C-2.0359375 3.45078125 -1.571875 2.6515625 -1.09375 1.828125 C-0.7328125 1.22484375 -0.371875 0.6215625 0 0 Z " fill="#E24121" transform="translate(1239,875)"/>
<path d="M0 0 C0.66 0 1.32 0 2 0 C3.54296875 2.08203125 3.54296875 2.08203125 5.1875 4.8125 C5.73792969 5.70582031 6.28835938 6.59914063 6.85546875 7.51953125 C8 10 8 10 7 13 C3.02502456 9.59287819 1.13206212 5.67239145 -1 1 C-0.67 0.67 -0.34 0.34 0 0 Z " fill="#E34020" transform="translate(1215,875)"/>
<path d="M0 0 C0.33 0 0.66 0 1 0 C1 1.65 1 3.3 1 5 C3.31 4.34 5.62 3.68 8 3 C7.67 4.32 7.34 5.64 7 7 C4.03 7 1.06 7 -2 7 C-2.125 4.625 -2.125 4.625 -2 2 C-1.34 1.34 -0.68 0.68 0 0 Z " fill="#090808" transform="translate(1558,626)"/>
<path d="M0 0 C1.98 0 3.96 0 6 0 C6 1.98 6 3.96 6 6 C4.125 6.625 4.125 6.625 2 7 C0 5 0 5 -0.125 2.375 C-0.08375 1.59125 -0.0425 0.8075 0 0 Z " fill="#DDDCDC" transform="translate(1220,772)"/>
<path d="M0 0 C0.66 0 1.32 0 2 0 C2 0.66 2 1.32 2 2 C2.66 2 3.32 2 4 2 C4 3.65 4 5.3 4 7 C2.02 7 0.04 7 -2 7 C-2 5.35 -2 3.7 -2 2 C-1.34 2 -0.68 2 0 2 C0 1.34 0 0.68 0 0 Z " fill="#433F4B" transform="translate(1674,28)"/>
<path d="M0 0 C2.64 0 5.28 0 8 0 C8 1.32 8 2.64 8 4 C5.36 4 2.72 4 0 4 C0 2.68 0 1.36 0 0 Z " fill="#E7ECE9" transform="translate(1314,616)"/>
<path d="M0 0 C3.63 0 7.26 0 11 0 C11 0.33 11 0.66 11 1 C7.7 1 4.4 1 1 1 C1.309375 2.423125 1.309375 2.423125 1.625 3.875 C1.74875 4.90625 1.8725 5.9375 2 7 C1.34 7.66 0.68 8.32 0 9 C0 8.01 0 7.02 0 6 C-0.99 6 -1.98 6 -3 6 C-3 5.01 -3 4.02 -3 3 C-2.01 3 -1.02 3 0 3 C0 2.01 0 1.02 0 0 Z " fill="#522B30" transform="translate(197,160)"/>
<path d="M0 0 C2.64 0 5.28 0 8 0 C7.34 1.65 6.68 3.3 6 5 C4.68 5 3.36 5 2 5 C1.34 3.35 0.68 1.7 0 0 Z " fill="#170302" transform="translate(1224,879)"/>
<path d="M0 0 C1.10823626 3.32470879 0.94327361 3.93308147 -0.25 7.0625 C-0.62898438 8.10083984 -0.62898438 8.10083984 -1.015625 9.16015625 C-2 11 -2 11 -5 13 C-4.44516583 8.33939297 -3.45003386 3.45003386 0 0 Z " fill="#374F38" transform="translate(1227,170)"/>
<path d="M0 0 C3.3 0 6.6 0 10 0 C10 0.99 10 1.98 10 3 C6.7 3 3.4 3 0 3 C0 2.01 0 1.02 0 0 Z " fill="#EEEEEC" transform="translate(1515,878)"/>
<path d="M0 0 C0.99 0.33 1.98 0.66 3 1 C2.34 1 1.68 1 1 1 C-1.12046792 4.53411321 -1.53199289 7.94393835 -2 12 C-2.99 12.33 -3.98 12.66 -5 13 C-5.50477602 7.69985182 -4.20817314 5.18034682 -1 1 C-0.67 0.67 -0.34 0.34 0 0 Z " fill="#C72F12" transform="translate(1226,814)"/>
<path d="M0 0 C3.3 0 6.6 0 10 0 C10 0.99 10 1.98 10 3 C6.7 3 3.4 3 0 3 C0 2.01 0 1.02 0 0 Z " fill="#ECEEEE" transform="translate(1374,816)"/>
<path d="M0 0 C0 0.33 0 0.66 0 1 C-1.65 1 -3.3 1 -5 1 C-5 1.99 -5 2.98 -5 4 C-5.99 4 -6.98 4 -8 4 C-8 6.64 -8 9.28 -8 12 C-8.33 12 -8.66 12 -9 12 C-9.33 8.37 -9.66 4.74 -10 1 C-6.52674819 -0.1577506 -3.63932552 -0.06866652 0 0 Z " fill="#1B2553" transform="translate(428,806)"/>
<path d="M0 0 C2.97 0 5.94 0 9 0 C7.68 1.65 6.36 3.3 5 5 C3.0625 4.1875 3.0625 4.1875 1 3 C0.67 2.01 0.34 1.02 0 0 Z " fill="#3F5E41" transform="translate(1166,189)"/>
<path d="M0 0 C0.99 0.33 1.98 0.66 3 1 C1.02 3.97 -0.96 6.94 -3 10 C-3.66 9.34 -4.32 8.68 -5 8 C-3.35 5.36 -1.7 2.72 0 0 Z " fill="#EB4422" transform="translate(1234,876)"/>
<path d="M0 0 C2.31 0 4.62 0 7 0 C7 1.32 7 2.64 7 4 C4.69 4 2.38 4 0 4 C0 2.68 0 1.36 0 0 Z " fill="#E0E4E0" transform="translate(1314,871)"/>
<path d="M0 0 C0.66 0.33 1.32 0.66 2 1 C2 2.65 2 4.3 2 6 C1.01 6.495 1.01 6.495 0 7 C-0.99 6.67 -1.98 6.34 -3 6 C-3 4.35 -3 2.7 -3 1 C-2.01 0.67 -1.02 0.34 0 0 Z " fill="#222230" transform="translate(176,157)"/>
<path d="M0 0 C1.859375 0.24609375 1.859375 0.24609375 4 1 C5.265625 2.84765625 5.265625 2.84765625 6.25 5.0625 C6.75273438 6.16271484 6.75273438 6.16271484 7.265625 7.28515625 C7.50796875 7.85105469 7.7503125 8.41695312 8 9 C6.140625 8.75390625 6.140625 8.75390625 4 8 C2.734375 6.15234375 2.734375 6.15234375 1.75 3.9375 C1.41484375 3.20402344 1.0796875 2.47054687 0.734375 1.71484375 C0.49203125 1.14894531 0.2496875 0.58304688 0 0 Z " fill="#E93F1F" transform="translate(1219,876)"/>
<path d="M0 0 C0.33 0 0.66 0 1 0 C1 4.29 1 8.58 1 13 C1.99 13.33 2.98 13.66 4 14 C3.01 14 2.02 14 1 14 C0.67 14.99 0.34 15.98 0 17 C0 16.01 0 15.02 0 14 C-1.98 14 -3.96 14 -6 14 C-6 13.67 -6 13.34 -6 13 C-4.02 13 -2.04 13 0 13 C0 8.71 0 4.42 0 0 Z " fill="#3234B0" transform="translate(1489,816)"/>
<path d="M0 0 C1.98 0 3.96 0 6 0 C5.67 1.98 5.34 3.96 5 6 C3.68 6 2.36 6 1 6 C0.67 4.02 0.34 2.04 0 0 Z " fill="#FFC32D" transform="translate(1220,766)"/>
<path d="M0 0 C1.65 0 3.3 0 5 0 C5 0.99 5 1.98 5 3 C4.01 3 3.02 3 2 3 C2 3.66 2 4.32 2 5 C0.68 5 -0.64 5 -2 5 C-2 4.01 -2 3.02 -2 2 C-1.34 2 -0.68 2 0 2 C0 1.34 0 0.68 0 0 Z " fill="#16182C" transform="translate(516,810)"/>
<path d="M0 0 C0 0.66 0 1.32 0 2 C-3.3 2.66 -6.6 3.32 -10 4 C-9.67 3.01 -9.34 2.02 -9 1 C-5.8035914 -0.06546953 -3.34252724 -0.07427838 0 0 Z " fill="#350C04" transform="translate(1235,832)"/>
<path d="M0 0 C2.64 0 5.28 0 8 0 C8 0.99 8 1.98 8 3 C5.36 3 2.72 3 0 3 C0 2.01 0 1.02 0 0 Z " fill="#ED6ACE" transform="translate(200,163)"/>
<path d="M0 0 C2.64 0 5.28 0 8 0 C8 0.99 8 1.98 8 3 C5.36 3 2.72 3 0 3 C0 2.01 0 1.02 0 0 Z " fill="#F067C6" transform="translate(91,163)"/>
<path d="M0 0 C2.64 0 5.28 0 8 0 C8 0.99 8 1.98 8 3 C5.36 3 2.72 3 0 3 C0 2.01 0 1.02 0 0 Z " fill="#362F2B" transform="translate(140,55)"/>
<path d="M0 0 C2.31 0 4.62 0 7 0 C7 0.99 7 1.98 7 3 C5.35 3 3.7 3 2 3 C1.67 3.99 1.34 4.98 1 6 C0.67 4.02 0.34 2.04 0 0 Z " fill="#27283E" transform="translate(157,149)"/>
<path d="M0 0 C0.99928333 2.698065 1.03624754 3.88010429 0.1875 6.6875 C-1 9 -1 9 -3 10 C-3.36923077 3.47692308 -3.36923077 3.47692308 -1.5 1.0625 C-1.005 0.711875 -0.51 0.36125 0 0 Z " fill="#394F3A" transform="translate(1049,137)"/>
<path d="M0 0 C1.98 0.495 1.98 0.495 4 1 C3.67 2.32 3.34 3.64 3 5 C1.68 5 0.36 5 -1 5 C-0.67 3.35 -0.34 1.7 0 0 Z " fill="#E9E9E9" transform="translate(1566,647)"/>
<path d="M0 0 C0.66 0 1.32 0 2 0 C2.33 2.64 2.66 5.28 3 8 C1.68 8 0.36 8 -1 8 C-1.04241723 5.66705225 -1.04092937 3.33297433 -1 1 C-0.67 0.67 -0.34 0.34 0 0 Z " fill="#FFB900" transform="translate(1227,890)"/>
<path d="M0 0 C1.98 0 3.96 0 6 0 C6 0.99 6 1.98 6 3 C5.01 3 4.02 3 3 3 C2.67 3.99 2.34 4.98 2 6 C2 5.01 2 4.02 2 3 C1.34 3 0.68 3 0 3 C0 2.01 0 1.02 0 0 Z " fill="#24334C" transform="translate(428,818)"/>
<path d="M0 0 C0.33 0.99 0.66 1.98 1 3 C1.99 3 2.98 3 4 3 C4 3.99 4 4.98 4 6 C2.02 6 0.04 6 -2 6 C-2 5.01 -2 4.02 -2 3 C-1.34 3 -0.68 3 0 3 C0 2.01 0 1.02 0 0 Z " fill="#24334C" transform="translate(430,804)"/>
<path d="M0 0 C0.33 0 0.66 0 1 0 C1 1.98 1 3.96 1 6 C-0.98 6 -2.96 6 -5 6 C-3.35830472 3.97945196 -1.69088222 1.97956942 0 0 Z " fill="#304231" transform="translate(683,146)"/>
<path d="M0 0 C2.31 0 4.62 0 7 0 C7 0.99 7 1.98 7 3 C4.69 3 2.38 3 0 3 C0 2.01 0 1.02 0 0 Z " fill="#59676F" transform="translate(1864,32)"/>
<path d="M0 0 C2 2 2 2 2 4 C-1.46153846 7 -1.46153846 7 -4 7 C-2.92598892 4.08482708 -2.22189824 2.22189824 0 0 Z " fill="#FBB40C" transform="translate(1224,885)"/>
<path d="M0 0 C0 0.99 0 1.98 0 3 C-2.97 3 -5.94 3 -9 3 C-9 2.34 -9 1.68 -9 1 C-2.25 0 -2.25 0 0 0 Z " fill="#141414" transform="translate(430,821)"/>
<path d="M0 0 C0.98120464 3.05263664 0.98120464 4.94736336 0 8 C-0.99 8 -1.98 8 -3 8 C-3 6.02 -3 4.04 -3 2 C-2.01 2.33 -1.02 2.66 0 3 C0 2.01 0 1.02 0 0 Z " fill="#394E3A" transform="translate(1035,137)"/>
<path d="M0 0 C1.98 0 3.96 0 6 0 C6 0.99 6 1.98 6 3 C4.02 3 2.04 3 0 3 C0 2.01 0 1.02 0 0 Z " fill="#29303A" transform="translate(529,821)"/>
<path d="M0 0 C1.32 0.66 2.64 1.32 4 2 C4 2.99 4 3.98 4 5 C2.35 4.67 0.7 4.34 -1 4 C-0.67 2.68 -0.34 1.36 0 0 Z " fill="#C4C4C4" transform="translate(1221,774)"/>
</svg>
