<?xml version="1.0" encoding="UTF-8"?>
<svg version="1.1" xmlns="http://www.w3.org/2000/svg" width="1920" height="860">
<path d="M0 0 C633.6 0 1267.2 0 1920 0 C1920 283.8 1920 567.6 1920 860 C1286.4 860 652.8 860 0 860 C0 576.2 0 292.4 0 0 Z " fill="#1F242D" transform="translate(0,0)"/>
<path d="M0 0 C0.87907657 -0.00327219 1.75815314 -0.00654439 2.6638684 -0.00991574 C4.11659274 -0.0076903 4.11659274 -0.0076903 5.59866506 -0.00541991 C6.62963777 -0.00777214 7.66061048 -0.01012437 8.72282478 -0.01254788 C12.21194741 -0.01925761 15.70103297 -0.01877906 19.19016153 -0.01836985 C21.70317795 -0.02166724 24.21619385 -0.02539255 26.72920907 -0.02951133 C32.93364584 -0.03849859 39.13807145 -0.04276122 45.34251385 -0.0450303 C52.771286 -0.04798951 60.20004864 -0.05668523 67.62881581 -0.06544458 C85.5858771 -0.08630117 103.54294005 -0.09676053 121.50001063 -0.10557419 C129.99229135 -0.10977881 138.48457135 -0.11500104 146.97685147 -0.12025872 C176.03774602 -0.13814961 205.09864077 -0.15314652 234.15954 -0.16057891 C235.98441374 -0.16105367 237.80928748 -0.16152955 239.63416122 -0.16200657 C240.99164212 -0.16236113 240.99164212 -0.16236113 242.37654687 -0.16272286 C246.96178273 -0.16392408 251.54701858 -0.16513952 256.13225442 -0.16636485 C257.49719339 -0.16672507 257.49719339 -0.16672507 258.88970688 -0.16709258 C288.39986249 -0.17498738 317.90997793 -0.1984226 347.42011599 -0.23092079 C378.60823624 -0.26520427 409.79633298 -0.28492866 440.98447239 -0.28822315 C444.40699676 -0.2886407 447.8295211 -0.28912026 451.25204545 -0.28964633 C452.51615981 -0.28983111 452.51615981 -0.28983111 453.80581184 -0.29001964 C467.37872196 -0.29235347 480.95158549 -0.30802363 494.524479 -0.32848817 C508.16279168 -0.34872541 521.8010483 -0.35423344 535.43937322 -0.34471754 C543.54507082 -0.33949443 551.65058202 -0.34541815 559.75625287 -0.36725221 C565.80426349 -0.38231449 571.85206348 -0.37654459 577.90008465 -0.36258169 C580.35032616 -0.36019046 582.80058543 -0.36460693 585.25079968 -0.37641034 C588.57508016 -0.39143617 591.89841677 -0.38192032 595.22267324 -0.36618346 C596.1794503 -0.37640567 597.13622737 -0.38662787 598.12199768 -0.39715984 C605.11163929 -0.32468066 610.71227129 1.15010407 615.78386575 6.16395742 C616.23890481 6.83298085 616.69394387 7.50200429 617.162772 8.19130117 C617.63585794 8.86290273 618.10894387 9.53450429 618.59636575 10.22645742 C620.80956217 13.95596142 620.85638787 17.07530302 620.87244302 21.32013112 C620.88317598 23.26526601 620.88317598 23.26526601 620.89412576 25.24969655 C620.89696602 26.69011074 620.89967775 28.13052519 620.90227395 29.57093984 C620.9085394 31.08547796 620.91518627 32.60001455 620.92218667 34.11454946 C620.94322228 39.0919454 620.95358954 44.06934163 620.96355325 49.04676992 C620.96760119 50.76122537 620.97171812 52.47568066 620.97590333 54.19013578 C620.994955 62.246165 621.0091853 70.30218507 621.0175153 78.3582325 C621.02728385 87.65172325 621.0535934 96.94497558 621.09401619 106.23838234 C621.12419998 113.42492231 621.13898638 120.61139404 621.14229631 127.79799616 C621.1446445 132.08853454 621.15357446 136.37881819 621.17875749 140.66928846 C621.20208254 144.70851489 621.20625381 148.74731972 621.19599611 152.78659612 C621.19550168 154.26519279 621.2017945 155.74381052 621.21555215 157.22234327 C621.35346231 172.92848265 621.35346231 172.92848265 615.38409024 179.63577729 C609.04104776 185.53350443 601.55922251 185.42087248 593.42215711 185.38327676 C592.39332252 185.38648324 591.36448793 185.38968972 590.30447653 185.39299336 C586.84666787 185.40131447 583.38903147 185.39536159 579.93121988 185.38949758 C577.43124985 185.39251729 574.93128074 185.39640586 572.43131328 185.40109015 C566.99052598 185.40924715 561.54979129 185.41116425 556.10900003 185.40758687 C548.01833823 185.4022812 539.92771288 185.40837379 531.83705504 185.41666981 C516.54712009 185.43191664 501.25720169 185.4336142 485.96726073 185.43114678 C474.16161956 185.42931476 462.35598382 185.43107181 450.55034333 185.43537122 C448.85477697 185.43597362 447.15921061 185.43657482 445.46364425 185.43717482 C442.90865616 185.43808207 440.35366807 185.43899073 437.79867998 185.43990717 C414.04148112 185.44833769 390.28428431 185.45267169 366.52708417 185.44850045 C365.18345998 185.44826589 365.18345998 185.44826589 363.81269187 185.44802659 C359.27258249 185.44722079 354.73247312 185.44637502 350.19236375 185.44551329 C349.29066827 185.4453422 348.38897279 185.44517111 347.4599532 185.44499484 C345.6365061 185.44464818 343.81305901 185.44429965 341.98961191 185.44394925 C313.61152864 185.43859106 285.23347643 185.44652485 256.85539895 185.46498281 C224.97934807 185.48569162 193.10331643 185.49642772 161.22725844 185.49240732 C157.82951111 185.49201197 154.43176377 185.49165042 151.03401643 185.49130994 C149.77907997 185.49117384 149.77907997 185.49117384 148.49879126 185.491035 C135.86114771 185.48986832 123.22352357 185.49652264 110.58588487 185.50712186 C96.21650824 185.51916113 81.84717441 185.52074748 67.47779716 185.50833169 C59.43432328 185.50169308 51.39095172 185.50335719 43.34748599 185.51692021 C37.34596142 185.52611345 31.34456191 185.51967185 25.34303903 185.50707241 C22.91176274 185.50440916 20.48047459 185.50684263 18.0492099 185.51480827 C14.7506949 185.52486762 11.45272103 185.51653179 8.15422803 185.50353128 C7.20501174 185.51084062 6.25579544 185.51814997 5.27781501 185.52568081 C-1.71235315 185.46837187 -6.9345797 184.10252517 -13.024728 180.50380117 C-20.15264233 172.97989159 -19.85208562 163.92813843 -19.79230613 154.09730703 C-19.79773479 152.59173071 -19.80486161 151.08615971 -19.81354636 149.58059865 C-19.83169282 145.51447446 -19.82474883 141.44875883 -19.81203002 137.38262802 C-19.80185897 133.11559973 -19.81130687 128.84860497 -19.81757468 124.58157521 C-19.82483839 117.41878691 -19.81529617 110.25616394 -19.79621238 103.09340078 C-19.77443771 94.82545558 -19.78150434 86.55790488 -19.803518 78.28996921 C-19.82169855 71.17546231 -19.82421763 64.06107383 -19.81376332 56.9465512 C-19.80754401 52.70421052 -19.80664968 48.462055 -19.81990927 44.21972638 C-19.83150627 40.23124548 -19.82337249 36.24327097 -19.80033225 32.25484449 C-19.79506595 30.79561624 -19.79652318 29.336345 -19.80538291 27.87713414 C-19.85452005 18.95859523 -19.83150142 11.73805182 -13.23957175 5.07020742 C-12.57054831 4.61516835 -11.90152488 4.16012929 -11.212228 3.69130117 C-10.54062644 3.21821523 -9.86902488 2.74512929 -9.17707175 2.25770742 C-6.07706058 0.4180704 -3.52550986 0.00343284 0 0 Z " fill="#2A303C" transform="translate(659.274728000164,363.87119883298874)"/>
<path d="M0 0 C0.72669383 0.00215447 1.45338766 0.00430894 2.20210251 0.0065287 C3.35618448 0.00405253 3.35618448 0.00405253 4.53358123 0.00152634 C7.1500892 -0.00283846 9.76654196 0.00001501 12.38305148 0.00275144 C14.27061305 0.00110368 16.15817427 -0.00098172 18.04573491 -0.00346867 C23.28199555 -0.00906936 28.51823995 -0.00835673 33.75450264 -0.00669107 C39.43250786 -0.00596362 45.11050836 -0.01097431 50.7885116 -0.01526609 C62.07226569 -0.02286872 73.35601504 -0.0250403 84.63977142 -0.02559515 C94.02437564 -0.02622843 103.40897659 -0.02919019 112.79357967 -0.03380862 C113.46831047 -0.03413876 114.14304127 -0.03446889 114.83821845 -0.03480903 C117.586097 -0.03615896 120.33397554 -0.03752162 123.08185407 -0.03890113 C155.6487229 -0.05522159 188.21559102 -0.06159195 220.78246324 -0.066349 C236.99290574 -0.06873032 253.20334783 -0.0724334 269.41379001 -0.0763861 C321.38575701 -0.0890519 373.357724 -0.09983588 425.32969252 -0.10322656 C427.81474878 -0.1033888 430.29980505 -0.10355436 432.78486131 -0.10372094 C437.76886187 -0.10405475 442.75286243 -0.10438523 447.73686299 -0.1047155 C453.57218691 -0.1051024 459.40751083 -0.10549201 465.24283475 -0.10588656 C466.91296576 -0.10599898 468.58309677 -0.1061104 470.25322778 -0.10622082 C523.9041059 -0.10977106 577.55497063 -0.12485203 631.20584363 -0.14815856 C669.74692496 -0.16489445 708.28800377 -0.18037285 746.82908878 -0.18489352 C747.62129253 -0.18498701 748.41349629 -0.18508049 749.22970622 -0.18517681 C766.61852324 -0.18719563 784.00734021 -0.18835186 801.39615733 -0.1887054 C807.61787199 -0.18884158 813.83958665 -0.18905057 820.06130131 -0.18929865 C821.60917884 -0.18936021 823.15705637 -0.18941853 824.7049339 -0.1894736 C849.39443012 -0.19039433 874.08391239 -0.2003736 898.77340402 -0.21493109 C923.63409281 -0.22953089 948.49476445 -0.23459899 973.35545676 -0.22651154 C976.78760381 -0.2253961 980.21975089 -0.22438545 983.651898 -0.22343722 C984.66113256 -0.22315227 984.66113256 -0.22315227 985.6907557 -0.22286156 C997.01240707 -0.21995664 1008.33401716 -0.22896138 1019.65566261 -0.24107663 C1029.48910479 -0.25077893 1039.3225066 -0.24969417 1049.15594836 -0.23964041 C1054.76827619 -0.23421384 1060.38049366 -0.23364823 1065.99281263 -0.24614913 C1071.09120023 -0.25741121 1076.18938673 -0.25504915 1081.28776706 -0.24148205 C1083.12773396 -0.23903188 1084.96771596 -0.24168833 1086.80766626 -0.24987853 C1089.29455356 -0.260227 1091.7807222 -0.25226921 1094.26758274 -0.23956695 C1094.9847136 -0.24697545 1095.70184446 -0.25438395 1096.44070656 -0.26201694 C1100.79267368 -0.21500644 1103.53368156 0.45318123 1106.98554096 3.1341792 C1109.09630531 6.30032573 1109.23967154 7.08672703 1109.26019916 10.7098628 C1109.27449718 12.09677823 1109.27449718 12.09677823 1109.28908405 13.51171216 C1109.28817264 14.50861066 1109.28726123 15.50550916 1109.28632221 16.5326167 C1109.29274989 18.07328305 1109.29274989 18.07328305 1109.29930743 19.64507398 C1109.3050528 21.81884374 1109.30554949 23.99263273 1109.30121478 26.16640576 C1109.2980598 29.48933186 1109.32149467 32.81136354 1109.34686908 36.1341792 C1109.34914257 38.24615725 1109.34984534 40.35813768 1109.34882221 42.4701167 C1109.35803195 43.46296674 1109.3672417 44.45581678 1109.37673053 45.47875318 C1109.31732964 54.35642531 1109.31732964 54.35642531 1105.98554096 58.1341792 C1102.34731603 60.59848605 1098.63305039 60.41440978 1094.39638391 60.38832953 C1093.62316167 60.39150686 1092.84993944 60.39468419 1092.05328622 60.3979578 C1089.44174561 60.40622027 1086.83043123 60.40015194 1084.21888694 60.39424142 C1082.32782776 60.39723594 1080.4367698 60.40110518 1078.54571402 60.40577376 C1073.31371578 60.41611165 1068.08178475 60.41388582 1062.84978069 60.40971839 C1057.17119244 60.40736277 1051.49262116 60.41650739 1045.81403926 60.42420259 C1035.84983206 60.43607753 1025.88564319 60.44041427 1015.92142925 60.43988141 C1005.22700491 60.43931014 994.53259914 60.4429325 983.8381792 60.45186147 C982.82595389 60.45270115 982.82595389 60.45270115 981.79327957 60.45355779 C979.04497165 60.45584936 976.29666375 60.45816771 973.54835588 60.46052109 C944.85807671 60.48504819 916.16780346 60.49518926 887.47751502 60.50004824 C884.38804926 60.50057193 881.2985835 60.50109777 878.20911774 60.50162491 C877.44249235 60.50175397 876.67586696 60.50188303 875.88601049 60.502016 C858.90893313 60.5049198 841.93185744 60.51107723 824.95478119 60.51772222 C817.96753991 60.52044561 810.9802986 60.52307665 803.99305728 60.52570787 C803.2210644 60.52599878 802.44907152 60.52628969 801.65368492 60.52658942 C757.40627247 60.54321527 713.15886083 60.55507019 668.91144523 60.55750283 C667.25504508 60.55759746 665.59864492 60.55769247 663.94224477 60.55778787 C656.4634664 60.55821562 648.98468802 60.55862099 641.50590965 60.55902623 C638.17082038 60.55920783 634.83573111 60.55939272 631.50064184 60.55957829 C629.83136852 60.55967031 628.16209519 60.55976071 626.49282187 60.55984949 C573.69667664 60.56266456 520.90056956 60.58439846 468.10443744 60.62123975 C428.73797022 60.64870445 389.37151029 60.67459576 350.0050331 60.68118486 C348.81702951 60.68138501 348.81702951 60.68138501 347.60502583 60.68158921 C330.22077712 60.68446118 312.83652857 60.68587876 295.45227963 60.68594742 C289.23228766 60.68598711 283.01229569 60.68614406 276.79230372 60.68636194 C275.24486796 60.68641559 273.6974322 60.6864637 272.14999644 60.68650627 C247.46894349 60.68725046 222.78792811 60.70293409 198.1068869 60.72611757 C173.25663408 60.74935727 148.40642969 60.75663516 123.5561688 60.74193671 C120.1255472 60.73990891 116.69492553 60.738055 113.26430377 60.73630437 C112.25552068 60.73577929 112.25552068 60.73577929 111.22635812 60.7352436 C99.90980835 60.72983826 88.59336627 60.74427586 77.27682969 60.76389333 C67.44790147 60.77956336 57.61908639 60.77725151 47.79016105 60.7599866 C42.18040861 60.75065112 36.57096234 60.74941468 30.96123294 60.76995267 C25.86515809 60.78845256 20.7696433 60.7842451 15.67359087 60.76136173 C13.83451289 60.75717989 11.99539248 60.76150866 10.15635966 60.77505942 C7.6702307 60.79217545 5.18609972 60.77877965 2.70004716 60.75747302 C1.98327071 60.76978113 1.26649425 60.78208925 0.5279973 60.79477034 C-3.35257344 60.72466685 -4.90008119 60.22874618 -7.93411568 57.72022334 C-10.61238058 54.39091176 -11.14151693 52.84497552 -11.20733014 48.672021 C-11.22339307 47.74733518 -11.23945599 46.82264936 -11.25600568 45.86994275 C-11.30043949 41.63909973 -11.34151972 37.40841385 -11.3645567 33.17739209 C-11.38111919 30.94551521 -11.40841285 28.71369143 -11.44658795 26.48207959 C-11.50133499 23.26557223 -11.52322775 20.0503084 -11.53789654 16.83339795 C-11.56056592 15.83741086 -11.58323529 14.84142377 -11.60659161 13.81525525 C-11.58534711 6.85204922 -11.58534711 6.85204922 -8.5442442 3.02797803 C-7.7094151 2.40302442 -6.874586 1.7780708 -6.01445904 1.1341792 C-4.32982421 -0.55045564 -2.24889535 0.00918876 0 0 Z " fill="#441894" transform="translate(411.01445904467255,81.86582079809159)"/>
<path d="M0 0 C0.80603165 -0.00708481 1.61206329 -0.01416962 2.44252014 -0.02146912 C3.755672 -0.01775299 3.755672 -0.01775299 5.09535217 -0.01396179 C6.02424759 -0.01907272 6.95314301 -0.02418365 7.91018677 -0.02944946 C10.98117005 -0.04335105 14.05192905 -0.04238828 17.12294006 -0.04008484 C19.25758955 -0.04397139 21.39223827 -0.04830597 23.52688599 -0.05307007 C28.00155646 -0.06053345 32.47614804 -0.06024007 36.95082092 -0.05497742 C42.6853897 -0.04918194 48.41963558 -0.06611525 54.15415096 -0.08932209 C58.5627837 -0.10405262 62.97133855 -0.10493206 67.37999153 -0.10181236 C69.49430036 -0.10232589 71.6086135 -0.10756955 73.72289848 -0.11762428 C76.67929455 -0.12995831 79.63505998 -0.1232151 82.59144592 -0.11161804 C83.46485626 -0.11926178 84.3382666 -0.12690552 85.23814392 -0.13478088 C89.91517972 -0.0942219 93.18206401 0.11102999 96.90809631 3.26069641 C98.85832153 6.12153674 99.16288901 8.43800704 99.18275452 11.85810852 C99.19228653 12.76262253 99.20181854 13.66713654 99.2116394 14.59906006 C99.210728 15.56892349 99.20981659 16.53878693 99.20887756 17.53804016 C99.21316269 18.54154007 99.21744781 19.54503998 99.22186279 20.57894897 C99.22760167 22.69966376 99.22810962 24.82039822 99.22377014 26.94111633 C99.22061136 30.18275086 99.24407121 33.42347164 99.26942444 36.66499329 C99.27169761 38.72684109 99.27240084 40.78869135 99.27137756 42.85054016 C99.28058731 43.81837936 99.28979706 44.78621857 99.29928589 45.78338623 C99.2397952 54.45243509 99.2397952 54.45243509 95.90809631 58.26069641 C93.1176995 59.92857266 91.05184518 60.5118732 87.81619263 60.52139282 C87.01016098 60.52847763 86.20412933 60.53556244 85.37367249 60.54286194 C84.06052063 60.53914581 84.06052063 60.53914581 82.72084045 60.53535461 C81.79194504 60.54046555 80.86304962 60.54557648 79.90600586 60.55084229 C76.83502258 60.56474387 73.76426357 60.56378111 70.69325256 60.56147766 C68.55860307 60.56536421 66.42395435 60.56969879 64.28930664 60.57446289 C59.81463616 60.58192627 55.34004458 60.5816329 50.8653717 60.57637024 C45.13080293 60.57057477 39.39655705 60.58750807 33.66204166 60.61071491 C29.25340893 60.62544545 24.84485408 60.62632488 20.4362011 60.62320518 C18.32189227 60.62371871 16.20757912 60.62896237 14.09329414 60.63901711 C11.13689808 60.65135114 8.18113264 60.64460792 5.2247467 60.63301086 C3.9146312 60.64447647 3.9146312 60.64447647 2.57804871 60.65617371 C-2.09898709 60.61561472 -5.36587139 60.41036283 -9.09190369 57.26069641 C-11.0421289 54.39985608 -11.34669639 52.08338578 -11.36656189 48.6632843 C-11.3760939 47.75877029 -11.38562592 46.85425629 -11.39544678 45.92233276 C-11.39453537 44.95246933 -11.39362396 43.9826059 -11.39268494 42.98335266 C-11.39697006 41.97985275 -11.40125519 40.97635284 -11.40567017 39.94244385 C-11.41140904 37.82172906 -11.41191699 35.7009946 -11.40757751 33.58027649 C-11.40441874 30.33864196 -11.42787858 27.09792118 -11.45323181 23.85639954 C-11.45550498 21.79455173 -11.45620822 19.73270147 -11.45518494 17.67085266 C-11.46439468 16.70301346 -11.47360443 15.73517426 -11.48309326 14.73800659 C-11.42360257 6.06895774 -11.42360257 6.06895774 -8.09190369 2.26069641 C-5.30150687 0.59282016 -3.23565255 0.00951963 0 0 Z " fill="#191D24" transform="translate(1151.0919036865234,458.7393035888672)"/>
<path d="M0 0 C4.74054332 4.4771798 6.08502676 8.60915808 6.5 14.9375 C6.40435842 21.36939624 3.61382109 26.50448355 -0.75 31.125 C-6.16494571 34.915462 -11.16794319 35.81525315 -17.75 35.125 C-24.58412552 32.80834728 -29.48003097 29.66493806 -32.75 23.125 C-34.72053685 17.92994831 -34.23940522 12.56874541 -32.5 7.4375 C-29.41116789 1.59078208 -26.21468123 -2.18150022 -19.9375 -4.5625 C-12.02969344 -5.69218665 -6.68445522 -4.5575831 0 0 Z " fill="#1A1E25" transform="translate(1263.75,378.875)"/>
<path d="M0 0 C0.74886475 0.00523682 1.49772949 0.01047363 2.26928711 0.01586914 C3.07817383 0.0190918 3.88706055 0.02231445 4.72045898 0.02563477 C5.5705957 0.03401367 6.42073242 0.04239258 7.29663086 0.05102539 C8.15063477 0.05553711 9.00463867 0.06004883 9.88452148 0.06469727 C12.00108749 0.07652166 14.11761771 0.0944577 16.23413086 0.11352539 C16.23413086 0.77352539 16.23413086 1.43352539 16.23413086 2.11352539 C17.22413086 1.78352539 18.21413086 1.45352539 19.23413086 1.11352539 C21.29663086 2.86352539 21.29663086 2.86352539 23.23413086 5.11352539 C23.12877349 8.48496108 21.3235207 10.56992037 19.23413086 13.11352539 C19.89413086 13.11352539 20.55413086 13.11352539 21.23413086 13.11352539 C21.26100365 14.92594591 21.28046801 16.73847772 21.29663086 18.55102539 C21.30823242 19.56036133 21.31983398 20.56969727 21.33178711 21.60961914 C21.23413086 24.11352539 21.23413086 24.11352539 20.23413086 25.11352539 C18.59940204 25.20052881 16.96099031 25.22053602 15.32397461 25.21118164 C14.33461914 25.20795898 13.34526367 25.20473633 12.32592773 25.20141602 C11.28500977 25.19303711 10.2440918 25.1846582 9.17163086 25.17602539 C8.1268457 25.17151367 7.08206055 25.16700195 6.00561523 25.16235352 C3.41506426 25.15052452 0.82462527 25.13404228 -1.76586914 25.11352539 C-3.01084747 22.62356874 -2.89521286 20.92357628 -2.89868164 18.14086914 C-2.8999707 17.15924805 -2.90125977 16.17762695 -2.90258789 15.16625977 C-2.8987207 14.13823242 -2.89485352 13.11020508 -2.89086914 12.05102539 C-2.89473633 11.01913086 -2.89860352 9.98723633 -2.90258789 8.92407227 C-2.90129883 7.94374023 -2.90000977 6.9634082 -2.89868164 5.95336914 C-2.89698975 4.59779907 -2.89698975 4.59779907 -2.89526367 3.21484375 C-2.73441771 0.60276604 -2.62337234 0.16865314 0 0 Z " fill="#212939" transform="translate(1415.765869140625,323.886474609375)"/>
<path d="M0 0 C1.20462891 -0.02126953 1.20462891 -0.02126953 2.43359375 -0.04296875 C4.5625 0.1875 4.5625 0.1875 6.5625 2.1875 C6.5625 3.5075 6.5625 4.8275 6.5625 6.1875 C8.5425 6.1875 10.5225 6.1875 12.5625 6.1875 C12.5625 6.8475 12.5625 7.5075 12.5625 8.1875 C11.9025 8.1875 11.2425 8.1875 10.5625 8.1875 C10.57297363 8.78288574 10.58344727 9.37827148 10.59423828 9.99169922 C10.63573949 12.68192343 10.66180704 15.37208037 10.6875 18.0625 C10.70425781 18.99964844 10.72101563 19.93679688 10.73828125 20.90234375 C10.74472656 21.79824219 10.75117187 22.69414062 10.7578125 23.6171875 C10.76828613 24.44460449 10.77875977 25.27202148 10.78955078 26.12451172 C10.5625 28.1875 10.5625 28.1875 8.5625 30.1875 C5.68907939 30.38606972 2.93388012 30.46578946 0.0625 30.4375 C-1.11505859 30.44910156 -1.11505859 30.44910156 -2.31640625 30.4609375 C-8.18419213 30.44080787 -8.18419213 30.44080787 -10.4375 28.1875 C-10.66455078 26.12451172 -10.66455078 26.12451172 -10.6328125 23.6171875 C-10.62636719 22.72128906 -10.61992188 21.82539063 -10.61328125 20.90234375 C-10.59652344 19.96519531 -10.57976562 19.02804687 -10.5625 18.0625 C-10.55347656 17.11761719 -10.54445313 16.17273438 -10.53515625 15.19921875 C-10.51154522 12.86172708 -10.47861516 10.52473877 -10.4375 8.1875 C-11.0975 8.1875 -11.7575 8.1875 -12.4375 8.1875 C-12.4375 7.5275 -12.4375 6.8675 -12.4375 6.1875 C-10.4575 6.1875 -8.4775 6.1875 -6.4375 6.1875 C-6.293125 5.383125 -6.14875 4.57875 -6 3.75 C-5.09716092 -0.36293359 -3.94130144 0.03153041 0 0 Z " fill="#892F32" transform="translate(1484.4375,319.8125)"/>
<path d="M0 0 C1.20462891 -0.02126953 1.20462891 -0.02126953 2.43359375 -0.04296875 C4.5625 0.1875 4.5625 0.1875 6.5625 2.1875 C6.5625 3.1775 6.5625 4.1675 6.5625 5.1875 C8.5425 5.1875 10.5225 5.1875 12.5625 5.1875 C12.5625 6.1775 12.5625 7.1675 12.5625 8.1875 C11.9025 8.1875 11.2425 8.1875 10.5625 8.1875 C10.57297363 8.75259277 10.58344727 9.31768555 10.59423828 9.89990234 C10.63574788 12.45405653 10.6618096 15.00813982 10.6875 17.5625 C10.70425781 18.45195312 10.72101563 19.34140625 10.73828125 20.2578125 C10.74472656 21.10859375 10.75117187 21.959375 10.7578125 22.8359375 C10.76828613 23.62145996 10.77875977 24.40698242 10.78955078 25.21630859 C10.5625 27.1875 10.5625 27.1875 8.5625 29.1875 C5.68907939 29.38606972 2.93388012 29.46578946 0.0625 29.4375 C-1.11505859 29.44910156 -1.11505859 29.44910156 -2.31640625 29.4609375 C-8.18419213 29.44080787 -8.18419213 29.44080787 -10.4375 27.1875 C-10.66455078 25.21630859 -10.66455078 25.21630859 -10.6328125 22.8359375 C-10.62636719 21.98515625 -10.61992188 21.134375 -10.61328125 20.2578125 C-10.59652344 19.36835938 -10.57976562 18.47890625 -10.5625 17.5625 C-10.55347656 16.6653125 -10.54445313 15.768125 -10.53515625 14.84375 C-10.5115497 12.62473414 -10.4786231 10.40624923 -10.4375 8.1875 C-11.0975 8.1875 -11.7575 8.1875 -12.4375 8.1875 C-12.4375 7.1975 -12.4375 6.2075 -12.4375 5.1875 C-10.4575 5.1875 -8.4775 5.1875 -6.4375 5.1875 C-6.293125 4.548125 -6.14875 3.90875 -6 3.25 C-4.99958876 -0.41817454 -3.54290385 0.02834323 0 0 Z " fill="#862F32" transform="translate(1484.4375,247.8125)"/>
<path d="M0 0 C0.74886475 0.00523682 1.49772949 0.01047363 2.26928711 0.01586914 C3.07817383 0.0190918 3.88706055 0.02231445 4.72045898 0.02563477 C5.5705957 0.03401367 6.42073242 0.04239258 7.29663086 0.05102539 C8.15063477 0.05553711 9.00463867 0.06004883 9.88452148 0.06469727 C12.00108749 0.07652166 14.11761771 0.0944577 16.23413086 0.11352539 C16.23413086 0.77352539 16.23413086 1.43352539 16.23413086 2.11352539 C17.22413086 1.78352539 18.21413086 1.45352539 19.23413086 1.11352539 C21.29663086 2.86352539 21.29663086 2.86352539 23.23413086 5.11352539 C23.08732844 9.37079564 20.08113621 11.56450758 17.17163086 14.36352539 C16.2525293 15.25555664 15.33342773 16.14758789 14.38647461 17.06665039 C13.67620117 17.74211914 12.96592773 18.41758789 12.23413086 19.11352539 C13.88413086 19.44352539 15.53413086 19.77352539 17.23413086 20.11352539 C17.23413086 18.46352539 17.23413086 16.81352539 17.23413086 15.11352539 C18.55413086 14.45352539 19.87413086 13.79352539 21.23413086 13.11352539 C21.26101237 14.75927105 21.28047209 16.40513952 21.29663086 18.05102539 C21.30823242 18.96754883 21.31983398 19.88407227 21.33178711 20.82836914 C21.23413086 23.11352539 21.23413086 23.11352539 20.23413086 24.11352539 C18.59940204 24.20052881 16.96099031 24.22053602 15.32397461 24.21118164 C14.33461914 24.20795898 13.34526367 24.20473633 12.32592773 24.20141602 C11.28500977 24.19303711 10.2440918 24.1846582 9.17163086 24.17602539 C8.1268457 24.17151367 7.08206055 24.16700195 6.00561523 24.16235352 C3.41506426 24.15052452 0.82462527 24.13404228 -1.76586914 24.11352539 C-2.98445022 21.67636324 -2.89512489 20.08078482 -2.89868164 17.35961914 C-2.8999707 16.42311523 -2.90125977 15.48661133 -2.90258789 14.52172852 C-2.8987207 13.54139648 -2.89485352 12.56106445 -2.89086914 11.55102539 C-2.89473633 10.56682617 -2.89860352 9.58262695 -2.90258789 8.56860352 C-2.90129883 7.63338867 -2.90000977 6.69817383 -2.89868164 5.73461914 C-2.89755371 4.87280029 -2.89642578 4.01098145 -2.89526367 3.12304688 C-2.73066177 0.56674831 -2.56741212 0.16505553 0 0 Z " fill="#202631" transform="translate(1415.765869140625,251.886474609375)"/>
<path d="M0 0 C0.33 0.66 0.66 1.32 1 2 C2.98 2 4.96 2 7 2 C7.33 1.34 7.66 0.68 8 0 C8 0.66 8 1.32 8 2 C9.65 2 11.3 2 13 2 C13 7.28 13 12.56 13 18 C7.06 18 1.12 18 -5 18 C-5 12.72 -5 7.44 -5 2 C-3.35 2 -1.7 2 0 2 C0 1.34 0 0.68 0 0 Z " fill="#948FA1" transform="translate(1030,102)"/>
<path d="M0 0 C4.95 0 9.9 0 15 0 C15 6.27 15 12.54 15 19 C10.05 19 5.1 19 0 19 C0 12.73 0 6.46 0 0 Z " fill="#2F262E" transform="translate(1477,328)"/>
<path d="M0 0 C4.95 0 9.9 0 15 0 C15 5.94 15 11.88 15 18 C10.05 18 5.1 18 0 18 C0 12.06 0 6.12 0 0 Z " fill="#36272E" transform="translate(1477,256)"/>
<path d="M0 0 C1.32 0 2.64 0 4 0 C4 7.26 4 14.52 4 22 C2.35 21.67 0.7 21.34 -1 21 C-1.33 21.33 -1.66 21.66 -2 22 C-7.38297872 22.46808511 -7.38297872 22.46808511 -9.8125 20.625 C-12.40745041 17.07401523 -12.44370381 14.36308742 -12 10 C-9.8125 7 -9.8125 7 -7 5 C-2.80952381 5.19047619 -2.80952381 5.19047619 -1 7 C-0.67 4.69 -0.34 2.38 0 0 Z " fill="#656C76" transform="translate(942,31)"/>
<path d="M0 0 C2.13768008 1.60079729 2.89497329 2.48622071 3.43359375 5.12109375 C3.43987697 8.84704141 3.41151974 11.29698712 1.5 14.5625 C-2.0347576 16.59498562 -5.02340703 16.92895819 -9 16 C-12.2883921 13.28707652 -12.90851499 11.65183071 -13.5 7.4375 C-12.9257958 3.48984615 -12.11700276 2.38359035 -9 0 C-5.85000502 -1.57499749 -3.36459118 -0.70833498 0 0 Z " fill="#646B74" transform="translate(962,37)"/>
<path d="M0 0 C2.4375 1.625 2.4375 1.625 4 4 C4.59172793 8.06812955 4.37276489 10.27000208 2.5 13.9375 C-0.540898 16.44624085 -2.24138659 16.69373981 -6.09375 16.40625 C-8 16 -8 16 -10.5 14.5625 C-12.73199153 10.74951447 -12.89853585 7.3035138 -12 3 C-8.42324245 -1.55223688 -5.38017918 -1.56514303 0 0 Z " fill="#666C75" transform="translate(924,37)"/>
<path d="M0 0 C1.58206057 0.00667536 3.16410534 0.0186375 4.74609375 0.03515625 C5.55240234 0.03966797 6.35871094 0.04417969 7.18945312 0.04882812 C9.18753131 0.06065107 11.18557158 0.07858711 13.18359375 0.09765625 C12.52359375 1.41765625 11.86359375 2.73765625 11.18359375 4.09765625 C6.89359375 4.09765625 2.60359375 4.09765625 -1.81640625 4.09765625 C-1.81640625 10.03765625 -1.81640625 15.97765625 -1.81640625 22.09765625 C4.12359375 22.09765625 10.06359375 22.09765625 16.18359375 22.09765625 C16.18359375 19.78765625 16.18359375 17.47765625 16.18359375 15.09765625 C17.17359375 14.43765625 18.16359375 13.77765625 19.18359375 13.09765625 C19.21046654 14.91007677 19.2299309 16.72260858 19.24609375 18.53515625 C19.25769531 19.54449219 19.26929688 20.55382812 19.28125 21.59375 C19.18359375 24.09765625 19.18359375 24.09765625 18.18359375 25.09765625 C16.54886493 25.18465967 14.9104532 25.20466688 13.2734375 25.1953125 C12.28408203 25.19208984 11.29472656 25.18886719 10.27539062 25.18554688 C9.23447266 25.17716797 8.19355469 25.16878906 7.12109375 25.16015625 C6.07630859 25.15564453 5.03152344 25.15113281 3.95507812 25.14648438 C1.36452715 25.13465538 -1.22591184 25.11817314 -3.81640625 25.09765625 C-5.06138458 22.6076996 -4.94574997 20.90770714 -4.94921875 18.125 C-4.95050781 17.14337891 -4.95179687 16.16175781 -4.953125 15.15039062 C-4.94925781 14.12236328 -4.94539063 13.09433594 -4.94140625 12.03515625 C-4.94527344 11.00326172 -4.94914062 9.97136719 -4.953125 8.90820312 C-4.95183594 7.92787109 -4.95054688 6.94753906 -4.94921875 5.9375 C-4.94752686 4.58192993 -4.94752686 4.58192993 -4.94580078 3.19897461 C-4.71610034 -0.53127394 -3.92764537 0.1005027 0 0 Z " fill="#29549A" transform="translate(1417.81640625,323.90234375)"/>
<path d="M0 0 C1.58206057 0.00667536 3.16410534 0.0186375 4.74609375 0.03515625 C5.55240234 0.03966797 6.35871094 0.04417969 7.18945312 0.04882812 C9.18753131 0.06065107 11.18557158 0.07858711 13.18359375 0.09765625 C12.85359375 1.08765625 12.52359375 2.07765625 12.18359375 3.09765625 C7.56359375 3.09765625 2.94359375 3.09765625 -1.81640625 3.09765625 C-1.81640625 9.03765625 -1.81640625 14.97765625 -1.81640625 21.09765625 C4.12359375 21.09765625 10.06359375 21.09765625 16.18359375 21.09765625 C16.18359375 18.78765625 16.18359375 16.47765625 16.18359375 14.09765625 C17.17359375 13.76765625 18.16359375 13.43765625 19.18359375 13.09765625 C19.21047526 14.74340191 19.22993498 16.38927038 19.24609375 18.03515625 C19.25769531 18.95167969 19.26929688 19.86820312 19.28125 20.8125 C19.18359375 23.09765625 19.18359375 23.09765625 18.18359375 24.09765625 C16.54886493 24.18465967 14.9104532 24.20466688 13.2734375 24.1953125 C12.28408203 24.19208984 11.29472656 24.18886719 10.27539062 24.18554688 C9.23447266 24.17716797 8.19355469 24.16878906 7.12109375 24.16015625 C6.07630859 24.15564453 5.03152344 24.15113281 3.95507812 24.14648438 C1.36452715 24.13465538 -1.22591184 24.11817314 -3.81640625 24.09765625 C-5.03498732 21.6604941 -4.945662 20.06491568 -4.94921875 17.34375 C-4.95050781 16.40724609 -4.95179687 15.47074219 -4.953125 14.50585938 C-4.94925781 13.52552734 -4.94539063 12.54519531 -4.94140625 11.53515625 C-4.94527344 10.55095703 -4.94914062 9.56675781 -4.953125 8.55273438 C-4.95183594 7.61751953 -4.95054688 6.68230469 -4.94921875 5.71875 C-4.94809082 4.85693115 -4.94696289 3.9951123 -4.94580078 3.10717773 C-4.71045939 -0.54771845 -3.84117232 0.09828998 0 0 Z " fill="#29549A" transform="translate(1417.81640625,251.90234375)"/>
<path d="M0 0 C0.433125 0.66 0.86625 1.32 1.3125 2 C2.78049668 4.193526 2.78049668 4.193526 4.9609375 4.265625 C6.97585501 4.25148523 8.98935106 4.13184583 11 4 C11 3.34 11 2.68 11 2 C8.69 2.33 6.38 2.66 4 3 C4.66 2.01 5.32 1.02 6 0 C8.5 -0.3125 8.5 -0.3125 11 0 C13 2 13 2 13.1953125 4.1640625 C13.17210937 4.97617187 13.14890625 5.78828125 13.125 6.625 C13.10695313 7.44226563 13.08890625 8.25953125 13.0703125 9.1015625 C13.04710937 9.72804688 13.02390625 10.35453125 13 11 C6.9453125 11.1953125 6.9453125 11.1953125 5 11 C4.34 10.34 3.68 9.68 3 9 C2.01 9.66 1.02 10.32 0 11 C-3.0625 11.3125 -3.0625 11.3125 -6 11 C-8.15502531 7.76746204 -8.46856135 6.74849077 -8 3 C-5.86922119 -0.25224135 -3.7535559 -0.65687228 0 0 Z " fill="#383E4A" transform="translate(847,485)"/>
<path d="M0 0 C0.99 0 1.98 0 3 0 C6 0 6 0 7.6875 1.5 C8.120625 1.995 8.55375 2.49 9 3 C9.33 2.01 9.66 1.02 10 0 C10.66 0 11.32 0 12 0 C11.62875 0.886875 11.2575 1.77375 10.875 2.6875 C9.89215772 6.40826005 10.23937836 7.67438135 12 11 C11.01 10.67 10.02 10.34 9 10 C9 9.34 9 8.68 9 8 C8.5875 8.515625 8.175 9.03125 7.75 9.5625 C6.88375 10.2740625 6.88375 10.2740625 6 11 C3.9375 10.625 3.9375 10.625 2 10 C1.01 10.495 1.01 10.495 0 11 C-3 11.25 -3 11.25 -6 11 C-8.15502531 7.76746204 -8.46856135 6.74849077 -8 3 C-5.80830499 -0.34521871 -3.80918086 -0.28568856 0 0 Z " fill="#353B47" transform="translate(764,485)"/>
<path d="M0 0 C0.99 0.66 1.98 1.32 3 2 C3 1.34 3 0.68 3 0 C3.99 0 4.98 0 6 0 C6.66 0.99 7.32 1.98 8 3 C8.66 2.01 9.32 1.02 10 0 C10.66 0 11.32 0 12 0 C11.62875 0.886875 11.2575 1.77375 10.875 2.6875 C9.89215772 6.40826005 10.23937836 7.67438135 12 11 C11.01 10.67 10.02 10.34 9 10 C9 9.34 9 8.68 9 8 C8.5875 8.515625 8.175 9.03125 7.75 9.5625 C6.88375 10.2740625 6.88375 10.2740625 6 11 C3.9375 10.625 3.9375 10.625 2 10 C1.01 10.495 1.01 10.495 0 11 C-3 11.25 -3 11.25 -6 11 C-8.15502531 7.76746204 -8.46856135 6.74849077 -8 3 C-5.84150709 -0.29454181 -3.78263233 -0.47282904 0 0 Z " fill="#262A36" transform="translate(493,259)"/>
<path d="M0 0 C2.375 1.3125 2.375 1.3125 4 3 C4 3.99 4 4.98 4 6 C0.97580475 5.41196203 -2.01758453 4.77321882 -5 4 C-3.694761 6.61047801 -2.64173426 6.68066423 0.0625 7.625 C1.16271484 8.01558594 1.16271484 8.01558594 2.28515625 8.4140625 C3.13400391 8.70410156 3.13400391 8.70410156 4 9 C4.1875 11.875 4.1875 11.875 4 15 C0.86588698 17.08940868 0.02549528 17.27364412 -3.5625 17.25 C-4.74005859 17.25773437 -4.74005859 17.25773437 -5.94140625 17.265625 C-8 17 -8 17 -10 15 C-10 14.01 -10 13.02 -10 12 C-7.03 12.33 -4.06 12.66 -1 13 C-3.24172862 11.87913569 -5.48808579 10.76704996 -7.75 9.6875 C-10 8 -10 8 -10.5625 5.5 C-10 3 -10 3 -8.375 1.1875 C-5.31918523 -0.34040738 -3.38055907 -0.42256988 0 0 Z " fill="#646973" transform="translate(1010,36)"/>
<path d="M0 0 C1.32 0 2.64 0 4 0 C4 5.61 4 11.22 4 17 C2.39125 17.04125 0.7825 17.0825 -0.875 17.125 C-1.77992188 17.14820313 -2.68484375 17.17140625 -3.6171875 17.1953125 C-6 17 -6 17 -8 15 C-8.56338028 7.90140845 -8.56338028 7.90140845 -6.75 5 C-5 4 -5 4 -1 4 C-0.67 2.68 -0.34 1.36 0 0 Z " fill="#959CA9" transform="translate(693,403)"/>
<path d="M0 0 C1.65 1.32 3.3 2.64 5 4 C4.48312572 8.18375594 2.20355666 10.26187166 -0.6875 13.1875 C-1.53699219 14.06792969 -2.38648438 14.94835937 -3.26171875 15.85546875 C-6.2898603 18.22700899 -8.21106608 18.71707814 -12 19 C-12.71619521 13.08392913 -12.71619521 13.08392913 -10.875 10.29736328 C-9.31627081 8.62852855 -7.69936094 7.08771471 -6 5.5625 C-5.14148437 4.75135742 -5.14148437 4.75135742 -4.265625 3.92382812 C-2.85912094 2.59937013 -1.43155201 1.29734401 0 0 Z " fill="#295499" transform="translate(1434,325)"/>
<path d="M0 0 C1.65 1.32 3.3 2.64 5 4 C4.48139304 8.18799586 2.19203468 10.30590176 -0.6875 13.25 C-1.53699219 14.14203125 -2.38648438 15.0340625 -3.26171875 15.953125 C-6.47563856 18.35554152 -8.08133053 18.43604521 -12 18 C-12.42340597 15.06262108 -12.61939756 12.89199701 -10.875 10.37988281 C-9.30859133 8.718633 -7.68686406 7.16369357 -6 5.625 C-5.14148437 4.80708984 -5.14148437 4.80708984 -4.265625 3.97265625 C-2.85694461 2.63440988 -1.43017503 1.31525025 0 0 Z " fill="#295399" transform="translate(1434,253)"/>
<path d="M0 0 C1.65 0 3.3 0 5 0 C5 5.94 5 11.88 5 18 C7.97 18 10.94 18 14 18 C14 19.32 14 20.64 14 22 C9.38 22 4.76 22 0 22 C0 14.74 0 7.48 0 0 Z " fill="#646D77" transform="translate(975,31)"/>
<path d="M0 0 C5.94 0 11.88 0 18 0 C18 1.32 18 2.64 18 4 C15.69 4 13.38 4 11 4 C11 9.94 11 15.88 11 22 C9.68 22 8.36 22 7 22 C7 16.06 7 10.12 7 4 C4.69 4 2.38 4 0 4 C0 2.68 0 1.36 0 0 Z " fill="#696F78" transform="translate(894,31)"/>
<path d="M0 0 C3.96 0 7.92 0 12 0 C12 0.99 12 1.98 12 3 C9.36 3 6.72 3 4 3 C4 4.32 4 5.64 4 7 C6.31 7 8.62 7 11 7 C11 7.99 11 8.98 11 10 C8.69 10 6.38 10 4 10 C4 11.32 4 12.64 4 14 C6.64 14 9.28 14 12 14 C12 14.99 12 15.98 12 17 C8.04 17 4.08 17 0 17 C0 11.39 0 5.78 0 0 Z " fill="#9DA4B2" transform="translate(671,403)"/>
<path d="M0 0 C1.258125 -0.04125 2.51625 -0.0825 3.8125 -0.125 C4.52019531 -0.14820312 5.22789062 -0.17140625 5.95703125 -0.1953125 C8 0 8 0 11 2 C11.64 8.72 11.64 8.72 10 12 C6.72032242 13.63983879 3.62861311 13.17845638 0 13 C0 8.71 0 4.42 0 0 Z " fill="#9797A1" transform="translate(901,105)"/>
<path d="M0 0 C7.32215357 -0.36010591 7.32215357 -0.36010591 10 1.0625 C11.58433618 4.13215135 11.36248449 6.61681143 11 10 C10 11.9375 10 11.9375 8 13 C5.28117977 13.23595284 2.74042978 13.13477523 0 13 C0 8.71 0 4.42 0 0 Z " fill="#958D9F" transform="translate(889,105)"/>
<path d="M0 0 C1.65 0 3.3 0 5 0 C5 0.99 5 1.98 5 3 C5.99 3 6.98 3 8 3 C8 4.32 8 5.64 8 7 C7.01 7 6.02 7 5 7 C5 9.97 5 12.94 5 16 C5.99 16 6.98 16 8 16 C8 17.32 8 18.64 8 20 C5.125 20.125 5.125 20.125 2 20 C0 18 0 18 -0.1953125 15.3984375 C-0.17210937 14.40070312 -0.14890625 13.40296875 -0.125 12.375 C-0.10695313 11.37210938 -0.08890625 10.36921875 -0.0703125 9.3359375 C-0.04710937 8.56507812 -0.02390625 7.79421875 0 7 C-0.66 7 -1.32 7 -2 7 C-2 5.68 -2 4.36 -2 3 C-1.34 3 -0.68 3 0 3 C0 2.01 0 1.02 0 0 Z " fill="#626B74" transform="translate(1018,33)"/>
<path d="M0 0 C1.32 0 2.64 0 4 0 C4.33 2.31 4.66 4.62 5 7 C5.66 6.01 6.32 5.02 7 4 C8.32 4 9.64 4 11 4 C10.649375 4.556875 10.29875 5.11375 9.9375 5.6875 C8.75176642 8.6123095 9.10225072 10.00750241 10 13 C10.99083967 15.23408113 10.99083967 15.23408113 12 17 C9.75 17.25 9.75 17.25 7 17 C4.6875 15 4.6875 15 3 13 C3 14.32 3 15.64 3 17 C2.01 17 1.02 17 0 17 C0 11.39 0 5.78 0 0 Z " fill="#99A0AE" transform="translate(754,403)"/>
<path d="M0 0 C6.875 0.875 6.875 0.875 8 2 C8.07226502 3.85287502 8.0838122 5.70833878 8.0625 7.5625 C8.05347656 8.57441406 8.04445313 9.58632813 8.03515625 10.62890625 C8.02355469 11.41136719 8.01195312 12.19382812 8 13 C6.35425434 13.02688151 4.70838587 13.04634123 3.0625 13.0625 C2.14597656 13.07410156 1.22945312 13.08570313 0.28515625 13.09765625 C-2 13 -2 13 -3 12 C-3.04063832 10.33382885 -3.042721 8.66611905 -3 7 C-0.35261084 5.5393715 0.89448334 5 4 5 C4 4.34 4 3.68 4 3 C1.69 3.33 -0.62 3.66 -3 4 C-2.01 2.68 -1.02 1.36 0 0 Z " fill="#9DA4B2" transform="translate(731,407)"/>
<path d="M0 0 C2.01822917 0.06510417 4.03645833 0.13020833 6.0546875 0.1953125 C6.10855379 2.32003826 6.14741821 4.44514902 6.1796875 6.5703125 C6.20289063 7.75367188 6.22609375 8.93703125 6.25 10.15625 C6.0546875 13.1953125 6.0546875 13.1953125 4.0546875 15.1953125 C0.4296875 15.3203125 0.4296875 15.3203125 -2.9453125 15.1953125 C-2.9453125 14.2053125 -2.9453125 13.2153125 -2.9453125 12.1953125 C0.0246875 12.6903125 0.0246875 12.6903125 3.0546875 13.1953125 C3.0546875 12.5353125 3.0546875 11.8753125 3.0546875 11.1953125 C2.0853125 11.0715625 1.1159375 10.9478125 0.1171875 10.8203125 C-0.8934375 10.6140625 -1.9040625 10.4078125 -2.9453125 10.1953125 C-4.32656268 7.43281214 -4.13610556 5.24800151 -3.9453125 2.1953125 C-1.9453125 0.1953125 -1.9453125 0.1953125 0 0 Z " fill="#5F656B" transform="translate(424.9453125,330.8046875)"/>
<path d="M0 0 C1.32 0 2.64 0 4 0 C5.25664978 2.90600261 6 4.79604584 6 8 C6.66 8 7.32 8 8 8 C8.144375 7.236875 8.28875 6.47375 8.4375 5.6875 C9 3 9 3 10 0 C11.32 0 12.64 0 14 0 C14 4.29 14 8.58 14 13 C13.01 13 12.02 13 11 13 C10.67 11.68 10.34 10.36 10 9 C9.34 10.32 8.68 11.64 8 13 C7.34 13 6.68 13 6 13 C5.01 10.69 4.02 8.38 3 6 C2.67 8.31 2.34 10.62 2 13 C1.34 13 0.68 13 0 13 C0 8.71 0 4.42 0 0 Z " fill="#91A0AB" transform="translate(1198,482)"/>
<path d="M0 0 C0.66 0 1.32 0 2 0 C2 4.95 2 9.9 2 15 C-4.0546875 15.1953125 -4.0546875 15.1953125 -6 15 C-8 13 -8 13 -8.25 9.5 C-8 6 -8 6 -6 4 C-3.375 3.875 -3.375 3.875 -1 4 C-0.67 2.68 -0.34 1.36 0 0 Z " fill="#5D636A" transform="translate(466,327)"/>
<path d="M0 0 C0.66 0 1.32 0 2 0 C2 4.95 2 9.9 2 15 C0.72125 15.061875 -0.5575 15.12375 -1.875 15.1875 C-2.59429688 15.22230469 -3.31359375 15.25710938 -4.0546875 15.29296875 C-4.69664062 15.19628906 -5.33859375 15.09960938 -6 15 C-8.56687367 11.1496895 -7.83288724 9.41430237 -7 5 C-5.02 4.67 -3.04 4.34 -1 4 C-0.67 2.68 -0.34 1.36 0 0 Z " fill="#9197A5" transform="translate(822,481)"/>
<path d="M0 0 C0.66 0 1.32 0 2 0 C2 4.95 2 9.9 2 15 C0.72125 15.061875 -0.5575 15.12375 -1.875 15.1875 C-2.59429688 15.22230469 -3.31359375 15.25710938 -4.0546875 15.29296875 C-4.69664062 15.19628906 -5.33859375 15.09960938 -6 15 C-8.56687367 11.1496895 -7.83288724 9.41430237 -7 5 C-5.02 4.67 -3.04 4.34 -1 4 C-0.67 2.68 -0.34 1.36 0 0 Z " fill="#5A6670" transform="translate(551,255)"/>
<path d="M0 0 C6.0546875 -0.1953125 6.0546875 -0.1953125 8 0 C8.66 0.66 9.32 1.32 10 2 C9.69699525 4.33746522 9.36141955 6.67085177 9 9 C9.34659295 11.32158065 9.34659295 11.32158065 10 13 C8.68 12.67 7.36 12.34 6 12 C5.67 10.68 5.34 9.36 5 8 C4.34 8 3.68 8 3 8 C3 9.65 3 11.3 3 13 C2.01 13 1.02 13 0 13 C0 8.71 0 4.42 0 0 Z " fill="#857D9F" transform="translate(992,105)"/>
<path d="M0 0 C0.99 0 1.98 0 3 0 C3 1.65 3 3.3 3 5 C4.98 5 6.96 5 9 5 C9 3.35 9 1.7 9 0 C9.99 0 10.98 0 12 0 C12 4.29 12 8.58 12 13 C10.68 13 9.36 13 8 13 C8 11.35 8 9.7 8 8 C6.35 8 4.7 8 3 8 C3 9.65 3 11.3 3 13 C2.01 13 1.02 13 0 13 C0 8.71 0 4.42 0 0 Z " fill="#998B9E" transform="translate(968,105)"/>
<path d="M0 0 C0.33 0.99 0.66 1.98 1 3 C-1.31 2.67 -3.62 2.34 -6 2 C-6 2.66 -6 3.32 -6 4 C-3.69 4.66 -1.38 5.32 1 6 C0.125 10.875 0.125 10.875 -1 12 C-3.33297433 12.04092937 -5.66705225 12.04241723 -8 12 C-8.66 10.68 -9.32 9.36 -10 8 C-8.68 8 -7.36 8 -6 8 C-6 8.66 -6 9.32 -6 10 C-5.01 10 -4.02 10 -3 10 C-3.33 9.34 -3.66 8.68 -4 8 C-4.825 7.731875 -5.65 7.46375 -6.5 7.1875 C-7.325 6.795625 -8.15 6.40375 -9 6 C-9.8125 3.375 -9.8125 3.375 -10 1 C-6.1496895 -1.56687367 -4.41430237 -0.83288724 0 0 Z " fill="#9CA3B1" transform="translate(751,408)"/>
<path d="M0 0 C4.62 0 9.24 0 14 0 C14 2.31 14 4.62 14 7 C9.38 7 4.76 7 0 7 C0 4.69 0 2.38 0 0 Z " fill="#5C3C97" transform="translate(1027,111)"/>
<path d="M0 0 C2 2 2 2 2.25 5.5 C2 9 2 9 0 11 C-3 11.3125 -3 11.3125 -6 11 C-8 8 -8 8 -7.75 4.375 C-7.5025 3.26125 -7.255 2.1475 -7 1 C-4.48718205 -0.25640898 -2.78302919 -0.20872719 0 0 Z " fill="#5D656F" transform="translate(478,331)"/>
<path d="M0 0 C3.625 0.375 3.625 0.375 7 1 C8.25 7.625 8.25 7.625 6 11 C3 11.3125 3 11.3125 0 11 C-2 9 -2 9 -2.25 5.5 C-2 2 -2 2 0 0 Z " fill="#60666D" transform="translate(1452,191)"/>
<path d="M0 0 C1.65 0 3.3 0 5 0 C6.32 4.29 7.64 8.58 9 13 C7.68 12.67 6.36 12.34 5 12 C5 11.34 5 10.68 5 10 C3.35 10 1.7 10 0 10 C-0.33 10.99 -0.66 11.98 -1 13 C-1.99 12.67 -2.98 12.34 -4 12 C-2.68 8.04 -1.36 4.08 0 0 Z " fill="#9896A1" transform="translate(879,105)"/>
<path d="M0 0 C1.32 0 2.64 0 4 0 C4.67057887 1.7902061 5.3363469 3.58221489 6 5.375 C6.556875 6.87160156 6.556875 6.87160156 7.125 8.3984375 C8 11 8 11 8 13 C7.01 13 6.02 13 5 13 C4.67 12.34 4.34 11.68 4 11 C1.47266765 10.34444881 1.47266765 10.34444881 -1 10 C-1 10.99 -1 11.98 -1 13 C-2.32 12.67 -3.64 12.34 -5 12 C-3.35 8.04 -1.7 4.08 0 0 Z " fill="#9795A1" transform="translate(932,105)"/>
<path d="M0 0 C0.99 0 1.98 0 3 0 C3.33 1.32 3.66 2.64 4 4 C4.99 2.68 5.98 1.36 7 0 C8.32 0.33 9.64 0.66 11 1 C10.484375 1.391875 9.96875 1.78375 9.4375 2.1875 C7.71724173 3.93481451 7.71724173 3.93481451 8.1875 6.4375 C8.93348829 8.79023229 9.80334592 10.84602265 11 13 C9.68 13 8.36 13 7 13 C6.34 11.35 5.68 9.7 5 8 C4.34 8 3.68 8 3 8 C3 9.65 3 11.3 3 13 C2.01 13 1.02 13 0 13 C0 8.71 0 4.42 0 0 Z " fill="#9492A0" transform="translate(952,105)"/>
<path d="M0 0 C1.65 0 3.3 0 5 0 C5 5.61 5 11.22 5 17 C3.35 17 1.7 17 0 17 C0 11.39 0 5.78 0 0 Z " fill="#616972" transform="translate(992,36)"/>
<path d="M0 0 C4 1 4 1 6 4 C6.33 2.68 6.66 1.36 7 0 C7.99 0 8.98 0 10 0 C10 3.63 10 7.26 10 11 C6 10 6 10 4 7 C3.67 8.32 3.34 9.64 3 11 C2.01 11 1.02 11 0 11 C0 7.37 0 3.74 0 0 Z " fill="#5C636B" transform="translate(1461,191)"/>
<path d="M0 0 C2.31243792 -0.02685412 4.6249627 -0.04632841 6.9375 -0.0625 C8.22527344 -0.07410156 9.51304687 -0.08570313 10.83984375 -0.09765625 C14 0 14 0 15 1 C15.07205511 2.68608966 15.08386068 4.37500659 15.0625 6.0625 C15.05347656 6.98160156 15.04445313 7.90070313 15.03515625 8.84765625 C15.02355469 9.55792969 15.01195312 10.26820313 15 11 C14.34 11 13.68 11 13 11 C13 8.03 13 5.06 13 2 C11.68 2 10.36 2 9 2 C9 4.97 9 7.94 9 11 C8.34 11 7.68 11 7 11 C7 8.03 7 5.06 7 2 C5.68 2.33 4.36 2.66 3 3 C2.67 5.64 2.34 8.28 2 11 C1.34 11 0.68 11 0 11 C0 7.37 0 3.74 0 0 Z " fill="#5B646B" transform="translate(482,331)"/>
<path d="M0 0 C1.134375 0.020625 2.26875 0.04125 3.4375 0.0625 C3.7675 1.3825 4.0975 2.7025 4.4375 4.0625 C1.4675 3.5675 1.4675 3.5675 -1.5625 3.0625 C-0.5725 3.7225 0.4175 4.3825 1.4375 5.0625 C2.77540641 6.05637334 4.10968122 7.0551892 5.4375 8.0625 C4.5625 11.9375 4.5625 11.9375 3.4375 13.0625 C1.10452567 13.10342937 -1.22955225 13.10491723 -3.5625 13.0625 C-4.2225 11.7425 -4.8825 10.4225 -5.5625 9.0625 C-3.2525 9.3925 -0.9425 9.7225 1.4375 10.0625 C1.7675 9.4025 2.0975 8.7425 2.4375 8.0625 C1.468125 7.918125 0.49875 7.77375 -0.5 7.625 C-3.5625 7.0625 -3.5625 7.0625 -4.5625 6.0625 C-4.6875 3.5625 -4.6875 3.5625 -4.5625 1.0625 C-3.5625 0.0625 -3.5625 0.0625 0 0 Z " fill="#9693A1" transform="translate(945.5625,104.9375)"/>
<path d="M0 0 C2.97 0 5.94 0 9 0 C9 0.66 9 1.32 9 2 C7.02 2 5.04 2 3 2 C3 2.99 3 3.98 3 5 C4.98 5 6.96 5 9 5 C9 5.99 9 6.98 9 8 C7.02 8 5.04 8 3 8 C3 8.99 3 9.98 3 11 C4.98 11 6.96 11 9 11 C9 11.66 9 12.32 9 13 C6.03 13 3.06 13 0 13 C0 8.71 0 4.42 0 0 Z " fill="#908DA0" transform="translate(981,105)"/>
<path d="M0 0 C1.32 0 2.64 0 4 0 C4 0.99 4 1.98 4 3 C4.66 3 5.32 3 6 3 C6 3.99 6 4.98 6 6 C5.34 6 4.68 6 4 6 C4 8.31 4 10.62 4 13 C4.99 13 5.98 13 7 13 C7 13.99 7 14.98 7 16 C4.625 16.125 4.625 16.125 2 16 C-0.55067653 13.44932347 -0.40047055 12.10566684 -0.6875 8.5625 C-0.77386719 7.59441406 -0.86023438 6.62632812 -0.94921875 5.62890625 C-1 3 -1 3 0 0 Z " fill="#989FAC" transform="translate(706,404)"/>
<path d="M0 0 C2.875 -0.125 2.875 -0.125 6 0 C8 2 8 2 8.1953125 4.1640625 C8.17210937 4.97617187 8.14890625 5.78828125 8.125 6.625 C8.10695313 7.44226563 8.08890625 8.25953125 8.0703125 9.1015625 C8.03550781 10.04128906 8.03550781 10.04128906 8 11 C5.36 11 2.72 11 0 11 C-0.33 9.35 -0.66 7.7 -1 6 C-0.195625 5.71125 0.60875 5.4225 1.4375 5.125 C4.1326468 4.26737432 4.1326468 4.26737432 5 2 C3.02 2.33 1.04 2.66 -1 3 C-0.67 2.01 -0.34 1.02 0 0 Z " fill="#8F95A3" transform="translate(710,485)"/>
<path d="M0 0 C1.99954746 -0.04254356 4.00041636 -0.04080783 6 0 C7 1 7 1 7.09765625 3.28515625 C7.08605469 4.20167969 7.07445312 5.11820312 7.0625 6.0625 C7.05347656 6.98160156 7.04445313 7.90070313 7.03515625 8.84765625 C7.02355469 9.55792969 7.01195312 10.26820313 7 11 C4.36 11 1.72 11 -1 11 C-1.33 9.35 -1.66 7.7 -2 6 C0.64738916 4.5393715 1.89448334 4 5 4 C5 3.34 5 2.68 5 2 C3.02 2.33 1.04 2.66 -1 3 C-0.67 2.01 -0.34 1.02 0 0 Z " fill="#56626F" transform="translate(522,259)"/>
<path d="M0 0 C2.5 -0.3125 2.5 -0.3125 5 0 C7 2 7 2 7.1953125 4.1640625 C7.17210937 4.97617187 7.14890625 5.78828125 7.125 6.625 C7.10695313 7.44226563 7.08890625 8.25953125 7.0703125 9.1015625 C7.03550781 10.04128906 7.03550781 10.04128906 7 11 C4.36 11 1.72 11 -1 11 C-1.33 9.35 -1.66 7.7 -2 6 C0.64738916 4.5393715 1.89448334 4 5 4 C5 3.34 5 2.68 5 2 C2.69 2.33 0.38 2.66 -2 3 C-1.34 2.01 -0.68 1.02 0 0 Z " fill="#707684" transform="translate(853,485)"/>
<path d="M0 0 C1.32 0 2.64 0 4 0 C4 0.99 4 1.98 4 3 C4.66 3 5.32 3 6 3 C6 3.99 6 4.98 6 6 C5.34 6 4.68 6 4 6 C4 8.31 4 10.62 4 13 C4.66 13 5.32 13 6 13 C6 13.99 6 14.98 6 16 C1.125 15.125 1.125 15.125 0 14 C-0.26159628 12.21533207 -0.45999701 10.42117545 -0.625 8.625 C-0.72039063 7.64789063 -0.81578125 6.67078125 -0.9140625 5.6640625 C-1 3 -1 3 0 0 Z " fill="#9AA1AE" transform="translate(720,404)"/>
<path d="M0 0 C2.5 -0.3125 2.5 -0.3125 5 0 C7 2 7 2 7.1953125 4.1640625 C7.17210937 4.97617187 7.14890625 5.78828125 7.125 6.625 C7.10695313 7.44226563 7.08890625 8.25953125 7.0703125 9.1015625 C7.03550781 10.04128906 7.03550781 10.04128906 7 11 C4.36 11 1.72 11 -1 11 C-1.33 9.35 -1.66 7.7 -2 6 C0.64738916 4.5393715 1.89448334 4 5 4 C5 3.34 5 2.68 5 2 C2.69 2.33 0.38 2.66 -2 3 C-1.34 2.01 -0.68 1.02 0 0 Z " fill="#535A62" transform="translate(582,259)"/>
<path d="M0 0 C1.99954746 -0.04254356 4.00041636 -0.04080783 6 0 C7 1 7 1 7.09765625 3.28515625 C7.08605469 4.20167969 7.07445312 5.11820312 7.0625 6.0625 C7.05347656 6.98160156 7.04445313 7.90070313 7.03515625 8.84765625 C7.02355469 9.55792969 7.01195312 10.26820313 7 11 C4.36 11 1.72 11 -1 11 C-1.33 9.35 -1.66 7.7 -2 6 C-1.030625 5.71125 -0.06125 5.4225 0.9375 5.125 C4.10664203 4.35785318 4.10664203 4.35785318 5 2 C3.02 2.33 1.04 2.66 -1 3 C-0.67 2.01 -0.34 1.02 0 0 Z " fill="#969CAA" transform="translate(793,485)"/>
<path d="M0 0 C1.4540625 0.0309375 1.4540625 0.0309375 2.9375 0.0625 C3.5975 1.3825 4.2575 2.7025 4.9375 4.0625 C3.9475 4.0625 2.9575 4.0625 1.9375 4.0625 C1.9375 3.4025 1.9375 2.7425 1.9375 2.0625 C0.6175 2.0625 -0.7025 2.0625 -2.0625 2.0625 C-2.0625 3.0525 -2.0625 4.0425 -2.0625 5.0625 C-1.27875 5.206875 -0.495 5.35125 0.3125 5.5 C2.9375 6.0625 2.9375 6.0625 4.9375 7.0625 C4.0625 11.9375 4.0625 11.9375 2.9375 13.0625 C-2.59191176 13.29779412 -2.59191176 13.29779412 -5.0625 12.0625 C-5.0625 11.0725 -5.0625 10.0825 -5.0625 9.0625 C-2.7525 9.7225 -0.4425 10.3825 1.9375 11.0625 C1.9375 10.0725 1.9375 9.0825 1.9375 8.0625 C1.15375 7.93875 0.37 7.815 -0.4375 7.6875 C-3.0625 7.0625 -3.0625 7.0625 -5.0625 5.0625 C-4.45789299 1.07209375 -4.2025713 0.08576676 0 0 Z " fill="#969FAA" transform="translate(1167.0625,481.9375)"/>
<path d="M0 0 C2 2 2 2 2 6 C-0.64 6 -3.28 6 -6 6 C-5.67 6.66 -5.34 7.32 -5 8 C-2.69 8 -0.38 8 2 8 C2 8.66 2 9.32 2 10 C-0.78863007 11.39431504 -2.92078868 11.25660094 -6 11 C-8.15502531 7.76746204 -8.46856135 6.74849077 -8 3 C-5.84871852 -0.2835349 -3.77529378 -0.48401202 0 0 Z " fill="#545A63" transform="translate(441,331)"/>
<path d="M0 0 C2 2 2 2 2 6 C-0.64 6 -3.28 6 -6 6 C-5.67 6.66 -5.34 7.32 -5 8 C-2.69 8 -0.38 8 2 8 C2 8.66 2 9.32 2 10 C-0.78863007 11.39431504 -2.92078868 11.25660094 -6 11 C-8.15502531 7.76746204 -8.46856135 6.74849077 -8 3 C-5.84871852 -0.2835349 -3.77529378 -0.48401202 0 0 Z " fill="#545A63" transform="translate(576,259)"/>
<path d="M0 0 C2 2 2 2 2 6 C-0.64 6 -3.28 6 -6 6 C-5.67 6.66 -5.34 7.32 -5 8 C-2.69 8 -0.38 8 2 8 C2 8.66 2 9.32 2 10 C-0.78863007 11.39431504 -2.92078868 11.25660094 -6 11 C-8.15502531 7.76746204 -8.46856135 6.74849077 -8 3 C-5.84871852 -0.2835349 -3.77529378 -0.48401202 0 0 Z " fill="#545A63" transform="translate(493,259)"/>
<path d="M0 0 C1.99954746 -0.04254356 4.00041636 -0.04080783 6 0 C7 1 7 1 7.09765625 3.28515625 C7.08605469 4.20167969 7.07445312 5.11820312 7.0625 6.0625 C7.05347656 6.98160156 7.04445313 7.90070313 7.03515625 8.84765625 C7.02355469 9.55792969 7.01195312 10.26820313 7 11 C4.69 11 2.38 11 0 11 C-0.66 9.68 -1.32 8.36 -2 7 C1.625 4 1.625 4 5 4 C5 3.34 5 2.68 5 2 C3.02 2.33 1.04 2.66 -1 3 C-0.67 2.01 -0.34 1.02 0 0 Z " fill="#5F6976" transform="translate(439,259)"/>
<path d="M0 0 C2.66666667 1.33333333 5.33333333 2.66666667 8 4 C9.65 2.68 11.3 1.36 13 0 C13 3 13 3 11.5 4.6875 C11.005 5.120625 10.51 5.55375 10 6 C11.20381448 8.49361571 12.45428722 10.68143083 14 13 C11 13 11 13 9.3125 11.5 C8.879375 11.005 8.44625 10.51 8 10 C7.4225 10.309375 6.845 10.61875 6.25 10.9375 C4.15705816 11.92583364 2.25464725 12.5168613 0 13 C1.32 11.35 2.64 9.7 4 8 C3.71125 7.4225 3.4225 6.845 3.125 6.25 C2.08333333 4.16666667 1.04166667 2.08333333 0 0 Z " fill="#9199A1" transform="translate(1243,387)"/>
<path d="M0 0 C2.97 0 5.94 0 9 0 C9 0.66 9 1.32 9 2 C6.69 2 4.38 2 2 2 C2 2.99 2 3.98 2 5 C3.98 5 5.96 5 8 5 C8 5.99 8 6.98 8 8 C6.02 8 4.04 8 2 8 C2 8.99 2 9.98 2 11 C4.31 11 6.62 11 9 11 C9 11.66 9 12.32 9 13 C6.03 13 3.06 13 0 13 C0 8.71 0 4.42 0 0 Z " fill="#9A95A1" transform="translate(1004,105)"/>
<path d="M0 0 C3.625 0.375 3.625 0.375 7 1 C7 2.65 7 4.3 7 6 C4.69 6 2.38 6 0 6 C0.99 7.485 0.99 7.485 2 9 C3.65 8.67 5.3 8.34 7 8 C6.67 8.99 6.34 9.98 6 11 C3.125 11.125 3.125 11.125 0 11 C-2 9 -2 9 -2.25 5.5 C-2 2 -2 2 0 0 Z " fill="#99A0AD" transform="translate(699,485)"/>
<path d="M0 0 C0.66 0 1.32 0 2 0 C2.33 3.3 2.66 6.6 3 10 C4.32 10 5.64 10 7 10 C7.33 6.7 7.66 3.4 8 0 C8.99 0 9.98 0 11 0 C11.08121924 1.60332791 11.13929134 3.20784026 11.1875 4.8125 C11.22230469 5.70582031 11.25710938 6.59914063 11.29296875 7.51953125 C11 10 11 10 9.6796875 11.8046875 C7.11699472 13.6283712 5.05068702 13.32454117 2 13 C0 11 0 11 -0.1953125 8.3984375 C-0.17210937 7.40070313 -0.14890625 6.40296875 -0.125 5.375 C-0.10695313 4.37210937 -0.08890625 3.36921875 -0.0703125 2.3359375 C-0.04710937 1.56507813 -0.02390625 0.79421875 0 0 Z " fill="#9BA3A7" transform="translate(1174,482)"/>
<path d="M0 0 C1.32 0 2.64 0 4 0 C4.50615298 1.26839526 5.00469099 2.53983102 5.5 3.8125 C5.7784375 4.52019531 6.056875 5.22789062 6.34375 5.95703125 C7 8 7 8 7 11 C4.69 10.34 2.38 9.68 0 9 C0 9.66 0 10.32 0 11 C-0.99 11 -1.98 11 -3 11 C-2.69078116 9.54096742 -2.37751201 8.08279278 -2.0625 6.625 C-1.88847656 5.81289062 -1.71445313 5.00078125 -1.53515625 4.1640625 C-1 2 -1 2 0 0 Z " fill="#5A646F" transform="translate(1416,191)"/>
<path d="M0 0 C1.65 0.33 3.3 0.66 5 1 C5.99 4.3 6.98 7.6 8 11 C7.01 11 6.02 11 5 11 C5 10.34 5 9.68 5 9 C3.35 9 1.7 9 0 9 C0 9.66 0 10.32 0 11 C-0.99 11 -1.98 11 -3 11 C-2.01 7.37 -1.02 3.74 0 0 Z " fill="#676A6D" transform="translate(432,191)"/>
<path d="M0 0 C3.625 0.375 3.625 0.375 7 1 C7 2.65 7 4.3 7 6 C4.69 6 2.38 6 0 6 C0 6.99 0 7.98 0 9 C3.465 8.505 3.465 8.505 7 8 C6.67 8.99 6.34 9.98 6 11 C3.125 11.125 3.125 11.125 0 11 C-2 9 -2 9 -2.25 5.5 C-2 2 -2 2 0 0 Z " fill="#636A71" transform="translate(428,259)"/>
<path d="M0 0 C0.99 0 1.98 0 3 0 C3.33 0.99 3.66 1.98 4 3 C4.66 2.01 5.32 1.02 6 0 C6.99 0 7.98 0 9 0 C8.62875 0.886875 8.2575 1.77375 7.875 2.6875 C6.89215772 6.40826005 7.23937836 7.67438135 9 11 C8.01 11 7.02 11 6 11 C5.34 10.01 4.68 9.02 4 8 C3.67 8.99 3.34 9.98 3 11 C2.01 11 1.02 11 0 11 C0 7.37 0 3.74 0 0 Z " fill="#5D6770" transform="translate(450,191)"/>
<path d="M0 0 C1.21816406 0.03480469 1.21816406 0.03480469 2.4609375 0.0703125 C3.68683594 0.09738281 3.68683594 0.09738281 4.9375 0.125 C5.87722656 0.15980469 5.87722656 0.15980469 6.8359375 0.1953125 C7.4959375 1.5153125 8.1559375 2.8353125 8.8359375 4.1953125 C8.1759375 4.1953125 7.5159375 4.1953125 6.8359375 4.1953125 C6.8359375 4.8553125 6.8359375 5.5153125 6.8359375 6.1953125 C3.8659375 6.1953125 0.8959375 6.1953125 -2.1640625 6.1953125 C-2.8240625 4.8753125 -3.4840625 3.5553125 -4.1640625 2.1953125 C-2.1640625 0.1953125 -2.1640625 0.1953125 0 0 Z " fill="#872F32" transform="translate(1482.1640625,319.8046875)"/>
<path d="M0 0 C1.21816406 0.03480469 1.21816406 0.03480469 2.4609375 0.0703125 C3.68683594 0.09738281 3.68683594 0.09738281 4.9375 0.125 C5.87722656 0.15980469 5.87722656 0.15980469 6.8359375 0.1953125 C7.4959375 1.5153125 8.1559375 2.8353125 8.8359375 4.1953125 C8.1759375 4.1953125 7.5159375 4.1953125 6.8359375 4.1953125 C6.8359375 4.8553125 6.8359375 5.5153125 6.8359375 6.1953125 C3.8659375 6.1953125 0.8959375 6.1953125 -2.1640625 6.1953125 C-2.8240625 4.8753125 -3.4840625 3.5553125 -4.1640625 2.1953125 C-2.1640625 0.1953125 -2.1640625 0.1953125 0 0 Z " fill="#6C2C31" transform="translate(1482.1640625,247.8046875)"/>
<path d="M0 0 C0.99 0 1.98 0 3 0 C3 5.61 3 11.22 3 17 C2.01 17 1.02 17 0 17 C0 16.34 0 15.68 0 15 C-0.66 14.67 -1.32 14.34 -2 14 C-1.34 9.38 -0.68 4.76 0 0 Z " fill="#9FA6B4" transform="translate(694,403)"/>
<path d="M0 0 C0.66 0.99 1.32 1.98 2 3 C-2.97820431 6.31880288 -8.17747491 4.57648763 -14 4 C-14 9.28 -14 14.56 -14 20 C-8.72 20 -3.44 20 2 20 C2 18.35 2 16.7 2 15 C2.33 15 2.66 15 3 15 C3 16.98 3 18.96 3 21 C-2.94 21 -8.88 21 -15 21 C-15 15.06 -15 9.12 -15 3 C-11.38671875 2.8046875 -7.7734375 2.609375 -4.16015625 2.4140625 C-3.11730469 2.27742187 -2.07445312 2.14078125 -1 2 C-0.67 1.34 -0.34 0.68 0 0 Z " fill="#243758" transform="translate(1431,252)"/>
<path d="M0 0 C0.66 1.32 1.32 2.64 2 4 C1.01 4 0.02 4 -1 4 C-1 3.34 -1 2.68 -1 2 C-1.99 2.33 -2.98 2.66 -4 3 C-4 4.65 -4 6.3 -4 8 C-3.01 8.33 -2.02 8.66 -1 9 C-1 8.34 -1 7.68 -1 7 C-0.01 7 0.98 7 2 7 C1.34 8.32 0.68 9.64 0 11 C-2.875 11.1875 -2.875 11.1875 -6 11 C-8 8 -8 8 -7.75 4.375 C-7.5025 3.26125 -7.255 2.1475 -7 1 C-4.53721199 -0.231394 -2.7204945 -0.07159196 0 0 Z " fill="#61676E" transform="translate(1432,191)"/>
<path d="M0 0 C6.75 -0.125 6.75 -0.125 9 1 C9 2.32 9 3.64 9 5 C8.34 5 7.68 5 7 5 C6.67 4.34 6.34 3.68 6 3 C3.97536745 2.34786708 3.97536745 2.34786708 2 2 C2 3.32 2 4.64 2 6 C3.65 6 5.3 6 7 6 C7 6.33 7 6.66 7 7 C5.35 7 3.7 7 2 7 C2 8.32 2 9.64 2 11 C3.65 11.33 5.3 11.66 7 12 C7 12.33 7 12.66 7 13 C4.69 13 2.38 13 0 13 C0 8.71 0 4.42 0 0 Z " fill="#A4A9AF" transform="translate(1187,482)"/>
<path d="M0 0 C2.31 0.33 4.62 0.66 7 1 C7 1.66 7 2.32 7 3 C4.03 2.505 4.03 2.505 1 2 C1 2.66 1 3.32 1 4 C2.98 4.66 4.96 5.32 7 6 C6.67 7.65 6.34 9.3 6 11 C4.02 11 2.04 11 0 11 C-0.33 10.01 -0.66 9.02 -1 8 C1.475 8.495 1.475 8.495 4 9 C4 8.34 4 7.68 4 7 C1.525 6.01 1.525 6.01 -1 5 C-0.67 3.35 -0.34 1.7 0 0 Z " fill="#626971" transform="translate(442,191)"/>
<path d="M0 0 C3.53571429 0.53571429 3.53571429 0.53571429 5 2 C5.1875 4.9375 5.1875 4.9375 5 8 C4.34 8.66 3.68 9.32 3 10 C0.875 9.625 0.875 9.625 -1 9 C-1.625 5.625 -1.625 5.625 -2 2 C-1.34 1.34 -0.68 0.68 0 0 Z " fill="#292B34" transform="translate(918,40)"/>
<path d="M0 0 C3.63 0 7.26 0 11 0 C11 0.66 11 1.32 11 2 C9.68 2 8.36 2 7 2 C7 5.63 7 9.26 7 13 C6.01 13 5.02 13 4 13 C4 9.37 4 5.74 4 2 C2.68 2 1.36 2 0 2 C0 1.34 0 0.68 0 0 Z " fill="#949DA7" transform="translate(1218,482)"/>
<path d="M0 0 C3.63 0 7.26 0 11 0 C11 0.66 11 1.32 11 2 C9.68 2 8.36 2 7 2 C7 5.63 7 9.26 7 13 C6.01 13 5.02 13 4 13 C4 9.37 4 5.74 4 2 C2.68 2 1.36 2 0 2 C0 1.34 0 0.68 0 0 Z " fill="#988D9F" transform="translate(918,105)"/>
<path d="M0 0 C6.15234375 -0.09765625 6.15234375 -0.09765625 8 0 C9 1 9 1 9.09765625 3.28515625 C9.08605469 4.20167969 9.07445312 5.11820312 9.0625 6.0625 C9.05347656 6.98160156 9.04445313 7.90070313 9.03515625 8.84765625 C9.02355469 9.55792969 9.01195312 10.26820313 9 11 C8.34 11 7.68 11 7 11 C7 8.03 7 5.06 7 2 C5.68 2.33 4.36 2.66 3 3 C2.67 5.64 2.34 8.28 2 11 C1.34 11 0.68 11 0 11 C0 7.37 0 3.74 0 0 Z " fill="#8E94A2" transform="translate(727,485)"/>
<path d="M0 0 C2.375 0.25 2.375 0.25 5 1 C7.17831524 3.90442032 7.19715281 6.45124947 7 10 C4 10 4 10 0 9 C0 6.03 0 3.06 0 0 Z " fill="#6C6F7A" transform="translate(1189,484)"/>
<path d="M0 0 C1.32 0 2.64 0 4 0 C4 4.29 4 8.58 4 13 C3.01 13 2.02 13 1 13 C-0.41047468 10.36711392 -1.63856763 7.98181705 -2 5 C-1.0625 2.25 -1.0625 2.25 0 0 Z " fill="#8B9BA6" transform="translate(1208,482)"/>
<path d="M0 0 C6.15234375 -0.09765625 6.15234375 -0.09765625 8 0 C9 1 9 1 9.09765625 3.28515625 C9.08605469 4.20167969 9.07445312 5.11820312 9.0625 6.0625 C9.05347656 6.98160156 9.04445313 7.90070313 9.03515625 8.84765625 C9.02355469 9.55792969 9.01195312 10.26820313 9 11 C8.34 11 7.68 11 7 11 C7 8.03 7 5.06 7 2 C5.68 2.33 4.36 2.66 3 3 C2.67 5.64 2.34 8.28 2 11 C1.34 11 0.68 11 0 11 C0 7.37 0 3.74 0 0 Z " fill="#546271" transform="translate(456,259)"/>
<path d="M0 0 C0 2.64 0 5.28 0 8 C-1.875 8.625 -1.875 8.625 -4 9 C-6 7 -6 7 -6.125 3.375 C-6.08375 2.26125 -6.0425 1.1475 -6 0 C-3.50907189 -1.24546405 -2.58919267 -0.7767578 0 0 Z " fill="#262933" transform="translate(960,41)"/>
<path d="M0 0 C1.32 0 2.64 0 4 0 C4 4.29 4 8.58 4 13 C2.68 13 1.36 13 0 13 C0 8.71 0 4.42 0 0 Z " fill="#989EAC" transform="translate(699,407)"/>
<path d="M0 0 C0 0.99 0 1.98 0 3 C-1.65 3 -3.3 3 -5 3 C-5.33 3.66 -5.66 4.32 -6 5 C-3.69 5 -1.38 5 1 5 C1 5.33 1 5.66 1 6 C-1.31 6 -3.62 6 -6 6 C-5.67 6.66 -5.34 7.32 -5 8 C-2.69 8 -0.38 8 2 8 C2 8.66 2 9.32 2 10 C-0.78863007 11.39431504 -2.92078868 11.25660094 -6 11 C-8.15502531 7.76746204 -8.46856135 6.74849077 -8 3 C-5.82311273 -0.32261741 -3.79605352 -0.30778812 0 0 Z " fill="#8A909E" transform="translate(847,485)"/>
<path d="M0 0 C0 0.99 0 1.98 0 3 C-1.65 3 -3.3 3 -5 3 C-5.33 3.66 -5.66 4.32 -6 5 C-3.69 5 -1.38 5 1 5 C1 5.33 1 5.66 1 6 C-1.31 6 -3.62 6 -6 6 C-5.67 6.66 -5.34 7.32 -5 8 C-2.69 8 -0.38 8 2 8 C2 8.66 2 9.32 2 10 C-0.78863007 11.39431504 -2.92078868 11.25660094 -6 11 C-8.15502531 7.76746204 -8.46856135 6.74849077 -8 3 C-5.82311273 -0.32261741 -3.79605352 -0.30778812 0 0 Z " fill="#8A909E" transform="translate(764,485)"/>
<path d="M0 0 C3.375 -0.125 3.375 -0.125 7 0 C9 2 9 2 9.1953125 4.1640625 C9.17210937 4.97617187 9.14890625 5.78828125 9.125 6.625 C9.10695313 7.44226563 9.08890625 8.25953125 9.0703125 9.1015625 C9.03550781 10.04128906 9.03550781 10.04128906 9 11 C8.34 11 7.68 11 7 11 C7 8.03 7 5.06 7 2 C5.68 2.33 4.36 2.66 3 3 C2.67 5.64 2.34 8.28 2 11 C1.34 11 0.68 11 0 11 C0 7.37 0 3.74 0 0 Z " fill="#939AA8" transform="translate(803,485)"/>
<path d="M0 0 C3.375 -0.125 3.375 -0.125 7 0 C9 2 9 2 9.1953125 4.1640625 C9.17210937 4.97617187 9.14890625 5.78828125 9.125 6.625 C9.10695313 7.44226563 9.08890625 8.25953125 9.0703125 9.1015625 C9.03550781 10.04128906 9.03550781 10.04128906 9 11 C8.34 11 7.68 11 7 11 C7 8.03 7 5.06 7 2 C5.68 2.33 4.36 2.66 3 3 C2.67 5.64 2.34 8.28 2 11 C1.34 11 0.68 11 0 11 C0 7.37 0 3.74 0 0 Z " fill="#939AA8" transform="translate(745,485)"/>
<path d="M0 0 C0.66 1.32 1.32 2.64 2 4 C5.465 3.505 5.465 3.505 9 3 C9 3.66 9 4.32 9 5 C8.05125 5.20625 7.1025 5.4125 6.125 5.625 C2.70833333 6.70833333 2.70833333 6.70833333 1.625 10.125 C1.41875 11.07375 1.2125 12.0225 1 13 C0.67 12.01 0.34 11.02 0 10 C-0.66 10 -1.32 10 -2 10 C-2 7.69 -2 5.38 -2 3 C-1.34 3 -0.68 3 0 3 C0 2.01 0 1.02 0 0 Z " fill="#393F4B" transform="translate(726,407)"/>
<path d="M0 0 C0 0.66 0 1.32 0 2 C0.66 2 1.32 2 2 2 C2 2.99 2 3.98 2 5 C1.34 5 0.68 5 0 5 C0 5.66 0 6.32 0 7 C0.66 7.33 1.32 7.66 2 8 C-0.33294775 8.04241723 -2.66702567 8.04092937 -5 8 C-6 7 -6 7 -6.0625 4.4375 C-6.041875 3.633125 -6.02125 2.82875 -6 2 C-2.25 0 -2.25 0 0 0 Z " fill="#858C99" transform="translate(734,412)"/>
<path d="M0 0 C3.375 -0.125 3.375 -0.125 7 0 C9 2 9 2 9.1953125 4.1640625 C9.17210937 4.97617187 9.14890625 5.78828125 9.125 6.625 C9.10695313 7.44226563 9.08890625 8.25953125 9.0703125 9.1015625 C9.03550781 10.04128906 9.03550781 10.04128906 9 11 C8.34 11 7.68 11 7 11 C7 8.03 7 5.06 7 2 C5.35 2 3.7 2 2 2 C2 4.97 2 7.94 2 11 C1.34 11 0.68 11 0 11 C0 7.37 0 3.74 0 0 Z " fill="#626869" transform="translate(532,259)"/>
<path d="M0 0 C3.375 -0.125 3.375 -0.125 7 0 C9 2 9 2 9.1953125 4.1640625 C9.17210937 4.97617187 9.14890625 5.78828125 9.125 6.625 C9.10695313 7.44226563 9.08890625 8.25953125 9.0703125 9.1015625 C9.03550781 10.04128906 9.03550781 10.04128906 9 11 C8.34 11 7.68 11 7 11 C7 8.03 7 5.06 7 2 C5.35 2 3.7 2 2 2 C2 4.97 2 7.94 2 11 C1.34 11 0.68 11 0 11 C0 7.37 0 3.74 0 0 Z " fill="#626869" transform="translate(474,259)"/>
<path d="M0 0 C0.66 1.32 1.32 2.64 2 4 C-0.31 3.67 -2.62 3.34 -5 3 C-5 4.65 -5 6.3 -5 8 C-2.69 8 -0.38 8 2 8 C1.01 9.485 1.01 9.485 0 11 C-3 11.375 -3 11.375 -6 11 C-8 8 -8 8 -7.75 4.375 C-7.5025 3.26125 -7.255 2.1475 -7 1 C-4.53721199 -0.231394 -2.7204945 -0.07159196 0 0 Z " fill="#8C93A0" transform="translate(870,485)"/>
<path d="M0 0 C2.125 0.375 2.125 0.375 4 1 C4 3.64 4 6.28 4 9 C2.33388095 9.042721 0.66617115 9.04063832 -1 9 C-2 8 -2 8 -2.1875 5.0625 C-2 2 -2 2 0 0 Z " fill="#252731" transform="translate(937,40)"/>
<path d="M0 0 C3 0 3 0 4.6875 1.5 C5.120625 1.995 5.55375 2.49 6 3 C6.33 2.01 6.66 1.02 7 0 C7.66 0 8.32 0 9 0 C8.62875 0.886875 8.2575 1.77375 7.875 2.6875 C6.89215772 6.40826005 7.23937836 7.67438135 9 11 C8.01 10.67 7.02 10.34 6 10 C6 9.34 6 8.68 6 8 C5.54625 8.495 5.0925 8.99 4.625 9.5 C3 11 3 11 1 11 C1.20625 9.9275 1.4125 8.855 1.625 7.75 C1.9876191 4.12380904 1.98362069 2.91708924 0 0 Z " fill="#8E95A3" transform="translate(767,485)"/>
<path d="M0 0 C0.66 1.32 1.32 2.64 2 4 C-0.31 3.67 -2.62 3.34 -5 3 C-5 4.65 -5 6.3 -5 8 C-3.02 8 -1.04 8 1 8 C0.67 8.99 0.34 9.98 0 11 C-2.875 11.1875 -2.875 11.1875 -6 11 C-8 8 -8 8 -7.75 4.375 C-7.5025 3.26125 -7.255 2.1475 -7 1 C-4.53721199 -0.231394 -2.7204945 -0.07159196 0 0 Z " fill="#57616C" transform="translate(599,259)"/>
<path d="M0 0 C0.66 0 1.32 0 2 0 C2.66 0.99 3.32 1.98 4 3 C4.66 2.01 5.32 1.02 6 0 C6.66 0 7.32 0 8 0 C7.62875 0.886875 7.2575 1.77375 6.875 2.6875 C5.89215772 6.40826005 6.23937836 7.67438135 8 11 C7.01 10.67 6.02 10.34 5 10 C5 9.34 5 8.68 5 8 C4.01 8.99 3.02 9.98 2 11 C1.01 10.67 0.02 10.34 -1 10 C-0.46375 9.278125 0.0725 8.55625 0.625 7.8125 C2.35911051 5.06293369 2.35911051 5.06293369 1.1875 2.1875 C0.795625 1.465625 0.40375 0.74375 0 0 Z " fill="#5B646C" transform="translate(497,259)"/>
<path d="M0 0 C0.33 0.99 0.66 1.98 1 3 C1.99 3 2.98 3 4 3 C4 3.66 4 4.32 4 5 C3.34 5 2.68 5 2 5 C2 7.31 2 9.62 2 12 C2.66 12 3.32 12 4 12 C4 12.66 4 13.32 4 14 C2.35 13.67 0.7 13.34 -1 13 C-1.33 9.7 -1.66 6.4 -2 3 C-1.34 3 -0.68 3 0 3 C0 2.01 0 1.02 0 0 Z " fill="#868C9A" transform="translate(780,482)"/>
<path d="M0 0 C2.97 0 5.94 0 9 0 C9 0.66 9 1.32 9 2 C8.01 2 7.02 2 6 2 C6 4.97 6 7.94 6 11 C5.01 11 4.02 11 3 11 C3 8.03 3 5.06 3 2 C2.01 2 1.02 2 0 2 C0 1.34 0 0.68 0 0 Z " fill="#626870" transform="translate(1435,191)"/>
<path d="M0 0 C0.33 0 0.66 0 1 0 C1 2.31 1 4.62 1 7 C-2.3 6.67 -5.6 6.34 -9 6 C-9 4.68 -9 3.36 -9 2 C-6.94921875 1.77213542 -4.8984375 1.54427083 -2.84765625 1.31640625 C-0.98859771 1.18113386 -0.98859771 1.18113386 0 0 Z " fill="#303642" transform="translate(684,411)"/>
<path d="M0 0 C1.32 0 2.64 0 4 0 C4 3.63 4 7.26 4 11 C2.68 11 1.36 11 0 11 C0 7.37 0 3.74 0 0 Z " fill="#6A2C31" transform="translate(1485,332)"/>
<path d="M0 0 C0.33 0 0.66 0 1 0 C1 1.98 1 3.96 1 6 C2.7015625 5.9690625 2.7015625 5.9690625 4.4375 5.9375 C8 6 8 6 9 7 C9.04080783 8.99958364 9.04254356 11.00045254 9 13 C8.67 13 8.34 13 8 13 C8 11.35 8 9.7 8 8 C6.35 8 4.7 8 3 8 C3 9.65 3 11.3 3 13 C2.01 13 1.02 13 0 13 C0 8.71 0 4.42 0 0 Z " fill="#868AA1" transform="translate(968,105)"/>
<path d="M0 0 C2.86724686 0.57344937 3.8614515 0.8614515 6 3 C5.625 5.125 5.625 5.125 5 7 C1 7 1 7 -0.75 5.5 C-1.1625 5.005 -1.575 4.51 -2 4 C-1.34 2.68 -0.68 1.36 0 0 Z " fill="#295194" transform="translate(1438,321)"/>
<path d="M0 0 C2.475 0.495 2.475 0.495 5 1 C5 3.31 5 5.62 5 8 C3.35 8.33 1.7 8.66 0 9 C0 6.03 0 3.06 0 0 Z " fill="#441C94" transform="translate(904,107)"/>
<path d="M0 0 C1.67542976 0.28604898 3.34385343 0.61781233 5 1 C5 2.65 5 4.3 5 6 C3.02 6.99 3.02 6.99 1 8 C-1 6 -1 6 -1.1875 3.4375 C-1 1 -1 1 0 0 Z " fill="#292931" transform="translate(546,261)"/>
<path d="M0 0 C0.66 0 1.32 0 2 0 C2 0.99 2 1.98 2 3 C2.66 3 3.32 3 4 3 C4 3.66 4 4.32 4 5 C3.34 5 2.68 5 2 5 C2 7.31 2 9.62 2 12 C2.66 12 3.32 12 4 12 C4 12.66 4 13.32 4 14 C2.68 13.67 1.36 13.34 0 13 C0 10.36 0 7.72 0 5 C-0.66 5 -1.32 5 -2 5 C-2 4.34 -2 3.68 -2 3 C-1.34 3 -0.68 3 0 3 C0 2.01 0 1.02 0 0 Z " fill="#8F96A4" transform="translate(875,482)"/>
<path d="M0 0 C0.99 0 1.98 0 3 0 C3 4.29 3 8.58 3 13 C2.01 13 1.02 13 0 13 C0 8.71 0 4.42 0 0 Z " fill="#919695" transform="translate(1214,482)"/>
<path d="M0 0 C1.67542976 0.28604898 3.34385343 0.61781233 5 1 C5 2.98 5 4.96 5 7 C3.33388095 7.042721 1.66617115 7.04063832 0 7 C-1 6 -1 6 -1.125 3.5 C-1 1 -1 1 0 0 Z " fill="#272830" transform="translate(473,333)"/>
<path d="M0 0 C0.66 0 1.32 0 2 0 C2 0.99 2 1.98 2 3 C2.66 3 3.32 3 4 3 C4 3.66 4 4.32 4 5 C3.34 5 2.68 5 2 5 C2 7.31 2 9.62 2 12 C2.66 12 3.32 12 4 12 C4 12.66 4 13.32 4 14 C2.68 13.67 1.36 13.34 0 13 C0 10.36 0 7.72 0 5 C-0.66 5 -1.32 5 -2 5 C-2 4.34 -2 3.68 -2 3 C-1.34 3 -0.68 3 0 3 C0 2.01 0 1.02 0 0 Z " fill="#5C666D" transform="translate(446,328)"/>
<path d="M0 0 C0.66 0 1.32 0 2 0 C2 0.99 2 1.98 2 3 C2.66 3 3.32 3 4 3 C4 3.66 4 4.32 4 5 C3.34 5 2.68 5 2 5 C2 7.31 2 9.62 2 12 C2.66 12 3.32 12 4 12 C4 12.66 4 13.32 4 14 C2.68 13.67 1.36 13.34 0 13 C0 10.36 0 7.72 0 5 C-0.66 5 -1.32 5 -2 5 C-2 4.34 -2 3.68 -2 3 C-1.34 3 -0.68 3 0 3 C0 2.01 0 1.02 0 0 Z " fill="#616364" transform="translate(604,256)"/>
<path d="M0 0 C2.86724686 0.57344937 3.8614515 0.8614515 6 3 C5.8125 5.0625 5.8125 5.0625 5 7 C4.01 7.33 3.02 7.66 2 8 C0.68 6.68 -0.64 5.36 -2 4 C-1.34 2.68 -0.68 1.36 0 0 Z " fill="#295295" transform="translate(1438,249)"/>
<path d="M0 0 C4 1 4 1 5 2 C5.1875 4.4375 5.1875 4.4375 5 7 C4.34 7.66 3.68 8.32 3 9 C2.01 9 1.02 9 0 9 C0 6.03 0 3.06 0 0 Z " fill="#451B95" transform="translate(892,107)"/>
<path d="M0 0 C1.67542976 0.28604898 3.34385343 0.61781233 5 1 C5 2.65 5 4.3 5 6 C3.34385343 6.38218767 1.67542976 6.71395102 0 7 C-1 6 -1 6 -1.125 3.5 C-1 1 -1 1 0 0 Z " fill="#323844" transform="translate(817,487)"/>
<path d="M0 0 C1.67542976 0.28604898 3.34385343 0.61781233 5 1 C5 2.65 5 4.3 5 6 C3.34385343 6.38218767 1.67542976 6.71395102 0 7 C-1 6 -1 6 -1.125 3.5 C-1 1 -1 1 0 0 Z " fill="#222937" transform="translate(461,333)"/>
<path d="M0 0 C1.67542976 0.28604898 3.34385343 0.61781233 5 1 C5 2.65 5 4.3 5 6 C3.34385343 6.38218767 1.67542976 6.71395102 0 7 C-1 6 -1 6 -1.125 3.5 C-1 1 -1 1 0 0 Z " fill="#242835" transform="translate(424,333)"/>
<path d="M0 0 C3.3 0 6.6 0 10 0 C10 0.66 10 1.32 10 2 C8.68 2 7.36 2 6 2 C6 4.97 6 7.94 6 11 C5.34 11 4.68 11 4 11 C4 8.03 4 5.06 4 2 C2.68 2 1.36 2 0 2 C0 1.34 0 0.68 0 0 Z " fill="#656C74" transform="translate(420,191)"/>
<path d="M0 0 C-0.33 0.99 -0.66 1.98 -1 3 C-1.9590625 3.2165625 -1.9590625 3.2165625 -2.9375 3.4375 C-5.20311706 3.80104993 -5.20311706 3.80104993 -6.25 6.0625 C-6.4975 6.701875 -6.745 7.34125 -7 8 C-7.33 7.01 -7.66 6.02 -8 5 C-10.64 5 -13.28 5 -16 5 C-16 4.67 -16 4.34 -16 4 C-13.69 4 -11.38 4 -9 4 C-9 3.01 -9 2.02 -9 1 C-5.846632 0.29925156 -3.27275026 0 0 0 Z " fill="#3F4551" transform="translate(715,487)"/>
<path d="M0 0 C1.65 0 3.3 0 5 0 C5.33 1.65 5.66 3.3 6 5 C5.34 5 4.68 5 4 5 C4 5.99 4 6.98 4 8 C3.01 8 2.02 8 1 8 C-1.125 3.375 -1.125 3.375 0 0 Z " fill="#867A9E" transform="translate(879,105)"/>
<path d="M0 0 C0.33 0 0.66 0 1 0 C1 3.3 1 6.6 1 10 C0.071875 9.360625 -0.85625 8.72125 -1.8125 8.0625 C-4.84219943 5.91377907 -4.84219943 5.91377907 -8 5 C-8 4.01 -8 3.02 -8 2 C-6.68 2 -5.36 2 -4 2 C-4 2.66 -4 3.32 -4 4 C-3.01 3.67 -2.02 3.34 -1 3 C-0.67 2.01 -0.34 1.02 0 0 Z " fill="#222D43" transform="translate(1173,482)"/>
<path d="M0 0 C0.66 0.66 1.32 1.32 2 2 C1.01 2.33 0.02 2.66 -1 3 C-1 4.98 -1 6.96 -1 9 C-3.875 9.125 -3.875 9.125 -7 9 C-7.66 8.34 -8.32 7.68 -9 7 C-7.88625 6.38125 -7.88625 6.38125 -6.75 5.75 C-4.09828315 4.06254382 -2.13325986 2.29127911 0 0 Z " fill="#212C3E" transform="translate(1434,336)"/>
<path d="M0 0 C0.99 0.33 1.98 0.66 3 1 C3.36923077 8.50769231 3.36923077 8.50769231 1.5 11 C1.005 11.33 0.51 11.66 0 12 C-0.66 11.01 -1.32 10.02 -2 9 C-1.34 9 -0.68 9 0 9 C-0.185625 7.700625 -0.37125 6.40125 -0.5625 5.0625 C-0.87890625 2.84765625 -0.87890625 2.84765625 -1 1 C-0.67 0.67 -0.34 0.34 0 0 Z " fill="#908EA0" transform="translate(909,106)"/>
<path d="M0 0 C2.5 -0.3125 2.5 -0.3125 5 0 C7 2 7 2 7.1953125 4.1640625 C7.17210937 4.97617187 7.14890625 5.78828125 7.125 6.625 C7.10695313 7.44226563 7.08890625 8.25953125 7.0703125 9.1015625 C7.03550781 10.04128906 7.03550781 10.04128906 7 11 C6.01 10.67 5.02 10.34 4 10 C4.33 7.36 4.66 4.72 5 2 C2.69 2.33 0.38 2.66 -2 3 C-1.34 2.01 -0.68 1.02 0 0 Z " fill="#959CA9" transform="translate(853,485)"/>
<path d="M0 0 C4 4.5 4 4.5 4 9 C2.68 9 1.36 9 0 9 C0 9.66 0 10.32 0 11 C-0.99 11 -1.98 11 -3 11 C-2.01 7.37 -1.02 3.74 0 0 Z " fill="#576270" transform="translate(432,191)"/>
<path d="M0 0 C1.32 0 2.64 0 4 0 C4.93423645 3.01031744 5.04449911 3.86650268 4 7 C2.35 6.67 0.7 6.34 -1 6 C-0.67 4.02 -0.34 2.04 0 0 Z " fill="#565D67" transform="translate(1416,191)"/>
<path d="M0 0 C0.66 0 1.32 0 2 0 C2.226875 0.61875 2.45375 1.2375 2.6875 1.875 C4.37929835 4.61410209 5.99244161 5.05024472 9 6 C9 6.66 9 7.32 9 8 C8.01 8 7.02 8 6 8 C6 7.34 6 6.68 6 6 C4.68 6 3.36 6 2 6 C1.34 7.32 0.68 8.64 0 10 C0 6.7 0 3.4 0 0 Z " fill="#3A404C" transform="translate(739,410)"/>
<path d="M0 0 C0.99 0 1.98 0 3 0 C3 3.63 3 7.26 3 11 C2.01 11 1.02 11 0 11 C0 7.37 0 3.74 0 0 Z " fill="#57646D" transform="translate(1445,191)"/>
<path d="M0 0 C2.475 0.99 2.475 0.99 5 2 C5 1.34 5 0.68 5 0 C6.65 0 8.3 0 10 0 C10 0.66 10 1.32 10 2 C10.66 2 11.32 2 12 2 C12 1.34 12 0.68 12 0 C12.66 0 13.32 0 14 0 C14 0.99 14 1.98 14 3 C9.38 3 4.76 3 0 3 C0 2.01 0 1.02 0 0 Z " fill="#451A94" transform="translate(1027,106)"/>
<path d="M0 0 C3.375 -0.125 3.375 -0.125 7 0 C7.66 0.66 8.32 1.32 9 2 C8.625 4.125 8.625 4.125 8 6 C7.566875 5.525625 7.13375 5.05125 6.6875 4.5625 C4.97690387 2.76313043 4.97690387 2.76313043 2 2 C2 3.32 2 4.64 2 6 C1.34 6 0.68 6 0 6 C0 4.02 0 2.04 0 0 Z " fill="#9B95A0" transform="translate(993,105)"/>
<path d="M0 0 C0.66 0 1.32 0 2 0 C2 4.95 2 9.9 2 15 C1.34 15 0.68 15 0 15 C-1.14229879 11.57310364 -0.90861076 9.38897782 -0.5625 5.8125 C-0.46066406 4.72582031 -0.35882813 3.63914062 -0.25390625 2.51953125 C-0.17011719 1.68808594 -0.08632813 0.85664063 0 0 Z " fill="#62615E" transform="translate(466,327)"/>
<path d="M0 0 C2 2 2 2 2.1953125 4.1640625 C2.16050781 5.38222656 2.16050781 5.38222656 2.125 6.625 C2.10695313 7.44226563 2.08890625 8.25953125 2.0703125 9.1015625 C2.04710937 9.72804688 2.02390625 10.35453125 2 11 C3.32 11 4.64 11 6 11 C6 11.66 6 12.32 6 13 C4.02 13 2.04 13 0 13 C0 8.71 0 4.42 0 0 Z " fill="#9DA0A2" transform="translate(889,105)"/>
<path d="M0 0 C2.0625 0.4375 2.0625 0.4375 4 1 C4 2.65 4 4.3 4 6 C2.0625 6.5625 2.0625 6.5625 0 7 C-1 6 -1 6 -1.125 3.5 C-1 1 -1 1 0 0 Z " fill="#27242C" transform="translate(1453,193)"/>
<path d="M0 0 C2.31 0 4.62 0 7 0 C7 0.33 7 0.66 7 1 C5.35 1 3.7 1 2 1 C2 2.32 2 3.64 2 5 C3.98 5 5.96 5 8 5 C8 5.66 8 6.32 8 7 C5.36 7 2.72 7 0 7 C0 4.69 0 2.38 0 0 Z " fill="#A09DA2" transform="translate(982,111)"/>
<path d="M0 0 C1.98 0 3.96 0 6 0 C6 0.66 6 1.32 6 2 C5.01 2.33 4.02 2.66 3 3 C2.67 5.64 2.34 8.28 2 11 C1.34 11 0.68 11 0 11 C0 7.37 0 3.74 0 0 Z " fill="#939AA7" transform="translate(720,485)"/>
<path d="M0 0 C1.98 0 3.96 0 6 0 C6 0.66 6 1.32 6 2 C5.01 2.33 4.02 2.66 3 3 C2.67 5.64 2.34 8.28 2 11 C1.34 11 0.68 11 0 11 C0 7.37 0 3.74 0 0 Z " fill="#5A6770" transform="translate(449,259)"/>
<path d="M0 0 C0.33 0.99 0.66 1.98 1 3 C1.99 3 2.98 3 4 3 C4 3.66 4 4.32 4 5 C3.01 5 2.02 5 1 5 C1 7.31 1 9.62 1 12 C1.99 12 2.98 12 4 12 C4 12.66 4 13.32 4 14 C2.68 14 1.36 14 0 14 C0 11.03 0 8.06 0 5 C-0.66 5 -1.32 5 -2 5 C-2 4.34 -2 3.68 -2 3 C-1.34 3 -0.68 3 0 3 C0 2.01 0 1.02 0 0 Z " fill="#62676F" transform="translate(509,256)"/>
<path d="M0 0 C0.89203125 0.00902344 1.7840625 0.01804687 2.703125 0.02734375 C3.37859375 0.03894531 4.0540625 0.05054687 4.75 0.0625 C4.75 1.0525 4.75 2.0425 4.75 3.0625 C0.13 3.0625 -4.49 3.0625 -9.25 3.0625 C-9.25 2.4025 -9.25 1.7425 -9.25 1.0625 C-6.09493858 0.12630187 -3.28413498 -0.0432123 0 0 Z " fill="#441894" transform="translate(1036.25,114.9375)"/>
<path d="M0 0 C2.4375 0.8125 2.4375 0.8125 5 2 C5.33 2.99 5.66 3.98 6 5 C3.69 5 1.38 5 -1 5 C-1 1 -1 1 0 0 Z " fill="#666D7A" transform="translate(699,485)"/>
<path d="M0 0 C0.66 1.32 1.32 2.64 2 4 C1.01 5.485 1.01 5.485 0 7 C0 6.34 0 5.68 0 5 C-1.175625 5.5259375 -1.175625 5.5259375 -2.375 6.0625 C-3.674375 6.5265625 -3.674375 6.5265625 -5 7 C-5.66 6.67 -6.32 6.34 -7 6 C-7 5.01 -7 4.02 -7 3 C-4.69 3 -2.38 3 0 3 C0 2.01 0 1.02 0 0 Z " fill="#303035" transform="translate(435,262)"/>
<path d="M0 0 C2.4375 0.8125 2.4375 0.8125 5 2 C5.33 2.99 5.66 3.98 6 5 C3.69 5 1.38 5 -1 5 C-1 1 -1 1 0 0 Z " fill="#414955" transform="translate(428,259)"/>
<path d="M0 0 C2.16874252 0.50603992 3.99967627 0.99983813 6 2 C6.33 1.34 6.66 0.68 7 0 C8 1 8 1 8.0625 3.5625 C8.041875 4.366875 8.02125 5.17125 8 6 C4.9168649 4.80100302 1.93720508 3.52299523 -1 2 C-0.67 1.34 -0.34 0.68 0 0 Z " fill="#502194" transform="translate(944,107)"/>
<path d="M0 0 C1.65 0 3.3 0 5 0 C5 0.66 5 1.32 5 2 C4.01 2 3.02 2 2 2 C2 4.97 2 7.94 2 11 C1.34 11 0.68 11 0 11 C0 7.37 0 3.74 0 0 Z " fill="#9198A6" transform="translate(833,485)"/>
<path d="M0 0 C1.65 0 3.3 0 5 0 C5 0.66 5 1.32 5 2 C4.01 2 3.02 2 2 2 C2 4.97 2 7.94 2 11 C1.34 11 0.68 11 0 11 C0 7.37 0 3.74 0 0 Z " fill="#626465" transform="translate(562,259)"/>
<path d="M0 0 C3.3 0 6.6 0 10 0 C10 0.99 10 1.98 10 3 C7.03 3 4.06 3 1 3 C0.67 2.01 0.34 1.02 0 0 Z " fill="#282B36" transform="translate(570,265)"/>
<path d="M0 0 C0.99 0.33 1.98 0.66 3 1 C3 2.98 3 4.96 3 7 C1.68 7 0.36 7 -1 7 C-1.04254356 5.00045254 -1.04080783 2.99958364 -1 1 C-0.67 0.67 -0.34 0.34 0 0 Z " fill="#2F3541" transform="translate(690,410)"/>
<path d="M0 0 C0.99 0.33 1.98 0.66 3 1 C3 2.65 3 4.3 3 6 C4.32 6.66 5.64 7.32 7 8 C7 8.33 7 8.66 7 9 C4.625 9.125 4.625 9.125 2 9 C0 7 0 7 -0.125 3.375 C-0.08375 2.26125 -0.0425 1.1475 0 0 Z " fill="#666D75" transform="translate(1450,193)"/>
<path d="M0 0 C0 1.65 0 3.3 0 5 C-0.33 4.01 -0.66 3.02 -1 2 C-1.66 2 -2.32 2 -3 2 C-3 2.66 -3 3.32 -3 4 C-3.66 4 -4.32 4 -5 4 C-5 3.34 -5 2.68 -5 2 C-6.65 2 -8.3 2 -10 2 C-10 2.66 -10 3.32 -10 4 C-10.66 3.67 -11.32 3.34 -12 3 C-11.67 2.34 -11.34 1.68 -11 1 C-7.29882394 0.15882362 -3.78728969 -0.11139087 0 0 Z " fill="#81739E" transform="translate(1042,104)"/>
<path d="M0 0 C1.2065625 0.0309375 1.2065625 0.0309375 2.4375 0.0625 C2.4375 1.0525 2.4375 2.0425 2.4375 3.0625 C0.7875 3.0625 -0.8625 3.0625 -2.5625 3.0625 C-2.8925 3.7225 -3.2225 4.3825 -3.5625 5.0625 C-1.2525 5.0625 1.0575 5.0625 3.4375 5.0625 C3.4375 5.3925 3.4375 5.7225 3.4375 6.0625 C0.7975 6.0625 -1.8425 6.0625 -4.5625 6.0625 C-3.48963568 0.08511307 -3.48963568 0.08511307 0 0 Z " fill="#9AA1AF" transform="translate(844.5625,484.9375)"/>
<path d="M0 0 C1.2065625 0.0309375 1.2065625 0.0309375 2.4375 0.0625 C2.4375 1.0525 2.4375 2.0425 2.4375 3.0625 C0.7875 3.0625 -0.8625 3.0625 -2.5625 3.0625 C-2.8925 3.7225 -3.2225 4.3825 -3.5625 5.0625 C-1.2525 5.0625 1.0575 5.0625 3.4375 5.0625 C3.4375 5.3925 3.4375 5.7225 3.4375 6.0625 C0.7975 6.0625 -1.8425 6.0625 -4.5625 6.0625 C-3.48963568 0.08511307 -3.48963568 0.08511307 0 0 Z " fill="#9AA1AF" transform="translate(761.5625,484.9375)"/>
<path d="M0 0 C2.31 0 4.62 0 7 0 C6.67 1.32 6.34 2.64 6 4 C3.69 3.67 1.38 3.34 -1 3 C-0.67 2.01 -0.34 1.02 0 0 Z " fill="#5F6572" transform="translate(842,487)"/>
<path d="M0 0 C2.31 0 4.62 0 7 0 C6.67 1.32 6.34 2.64 6 4 C3.69 3.67 1.38 3.34 -1 3 C-0.67 2.01 -0.34 1.02 0 0 Z " fill="#5F6572" transform="translate(759,487)"/>
<path d="M0 0 C2.31 0 4.62 0 7 0 C7.33 0.99 7.66 1.98 8 3 C5.36 3 2.72 3 0 3 C0 2.01 0 1.02 0 0 Z " fill="#33272F" transform="translate(1481,323)"/>
<path d="M0 0 C1.32 0 2.64 0 4 0 C4.33 1.65 4.66 3.3 5 5 C3.02 5 1.04 5 -1 5 C-0.67 3.35 -0.34 1.7 0 0 Z " fill="#826F9D" transform="translate(933,108)"/>
<path d="M0 0 C2.31 0 4.62 0 7 0 C6.01 1.485 6.01 1.485 5 3 C4.01 2.67 3.02 2.34 2 2 C2 4.97 2 7.94 2 11 C1.67 11 1.34 11 1 11 C0.67 7.37 0.34 3.74 0 0 Z " fill="#947E9C" transform="translate(890,105)"/>
<path d="M0 0 C1.98 0 3.96 0 6 0 C6.33 0.66 6.66 1.32 7 2 C6.67 2.99 6.34 3.98 6 5 C4.68 4.67 3.36 4.34 2 4 C2.99 4 3.98 4 5 4 C5 3.34 5 2.68 5 2 C3.02 2.33 1.04 2.66 -1 3 C-0.67 2.01 -0.34 1.02 0 0 Z " fill="#555E6B" transform="translate(439,259)"/>
<path d="M0 0 C1.98 0.495 1.98 0.495 4 1 C3.67 2.32 3.34 3.64 3 5 C1.68 4.67 0.36 4.34 -1 4 C-0.67 2.68 -0.34 1.36 0 0 Z " fill="#5E666F" transform="translate(993,30)"/>
<path d="M0 0 C2.64 0 5.28 0 8 0 C7.01 1.485 7.01 1.485 6 3 C3.375 3.1875 3.375 3.1875 1 3 C0.67 2.01 0.34 1.02 0 0 Z " fill="#2B2D35" transform="translate(435,337)"/>
<path d="M0 0 C1.98 0 3.96 0 6 0 C6 1.32 6 2.64 6 4 C5.67 3.34 5.34 2.68 5 2 C3.02 2.33 1.04 2.66 -1 3 C-0.67 2.01 -0.34 1.02 0 0 Z " fill="#8F96A3" transform="translate(793,485)"/>
<path d="M0 0 C2.31 0.33 4.62 0.66 7 1 C7.33 1.99 7.66 2.98 8 4 C5.125 3.6875 5.125 3.6875 2 3 C1.34 2.01 0.68 1.02 0 0 Z " fill="#939AA7" transform="translate(744,407)"/>
<path d="M0 0 C0.66 0 1.32 0 2 0 C2.0825 0.78375 2.165 1.5675 2.25 2.375 C2.72806339 5.14749104 2.72806339 5.14749104 5.0625 6.3125 C5.701875 6.539375 6.34125 6.76625 7 7 C5.35 7.33 3.7 7.66 2 8 C-0.1519437 4.77208445 -0.20086443 3.71599191 0 0 Z " fill="#505E6D" transform="translate(470,334)"/>
<path d="M0 0 C0.33 0 0.66 0 1 0 C1 3.3 1 6.6 1 10 C-1.31 10 -3.62 10 -6 10 C-5.360625 9.690625 -4.72125 9.38125 -4.0625 9.0625 C-2.06389179 8.1654837 -2.06389179 8.1654837 -1 7 C-0.63239269 4.67182036 -0.29758419 2.3381615 0 0 Z " fill="#666B6F" transform="translate(528,260)"/>
<path d="M0 0 C1.32 0 2.64 0 4 0 C3.67 1.98 3.34 3.96 3 6 C2.34 6 1.68 6 1 6 C0.67 4.02 0.34 2.04 0 0 Z " fill="#9AA5AE" transform="translate(1203,489)"/>
<path d="M0 0 C2.475 0.495 2.475 0.495 5 1 C4.67 1.99 4.34 2.98 4 4 C2.68 4 1.36 4 0 4 C0 2.68 0 1.36 0 0 Z " fill="#2D2638" transform="translate(1189,489)"/>
<path d="M0 0 C0.66 0.33 1.32 0.66 2 1 C2.625 4.0625 2.625 4.0625 3 7 C2.01 6.67 1.02 6.34 0 6 C0 5.34 0 4.68 0 4 C-0.99 3.67 -1.98 3.34 -3 3 C-2.01 3 -1.02 3 0 3 C0 2.01 0 1.02 0 0 Z " fill="#666A6E" transform="translate(1420,195)"/>
<path d="M0 0 C1.32 0 2.64 0 4 0 C3.67 1.32 3.34 2.64 3 4 C1.68 3.67 0.36 3.34 -1 3 C-0.67 2.01 -0.34 1.02 0 0 Z " fill="#3D4450" transform="translate(794,491)"/>
<path d="M0 0 C1.32 0 2.64 0 4 0 C3.67 1.32 3.34 2.64 3 4 C1.68 3.67 0.36 3.34 -1 3 C-0.67 2.01 -0.34 1.02 0 0 Z " fill="#404652" transform="translate(711,491)"/>
<path d="M0 0 C1.32 0 2.64 0 4 0 C3.67 1.32 3.34 2.64 3 4 C1.68 3.67 0.36 3.34 -1 3 C-0.67 2.01 -0.34 1.02 0 0 Z " fill="#2E2F38" transform="translate(523,265)"/>
<path d="M0 0 C1.32 0 2.64 0 4 0 C3.67 1.32 3.34 2.64 3 4 C1.68 3.67 0.36 3.34 -1 3 C-0.67 2.01 -0.34 1.02 0 0 Z " fill="#303137" transform="translate(440,265)"/>
<path d="M0 0 C4 4.75 4 4.75 4 7 C2.35 6.67 0.7 6.34 -1 6 C-0.67 4.02 -0.34 2.04 0 0 Z " fill="#465060" transform="translate(432,191)"/>
<path d="M0 0 C0.66 0.33 1.32 0.66 2 1 C-0.31 3.31 -2.62 5.62 -5 8 C-5 5 -5 5 -2.5 2.3125 C-1.675 1.549375 -0.85 0.78625 0 0 Z " fill="#3D1982" transform="translate(406,82)"/>
</svg>
