<?xml version="1.0" encoding="UTF-8"?>
<svg version="1.1" xmlns="http://www.w3.org/2000/svg" width="275" height="183">
<path d="M0 0 C90.75 0 181.5 0 275 0 C275 60.39 275 120.78 275 183 C184.25 183 93.5 183 0 183 C0 122.61 0 62.22 0 0 Z " fill="#FEFEFE" transform="translate(0,0)"/>
<path d="M0 0 C0.66 0 1.32 0 2 0 C3.14409178 1.51857543 4.21585038 3.09202141 5.25 4.6875 C8.75026897 9.83581227 11.91309507 13.97103169 18 16 C18 16.66 18 17.32 18 18 C24.70049105 17.09388377 29.61037812 16.14586298 35 12 C35.66 12 36.32 12 37 12 C37 11.34 37 10.68 37 10 C38.6436814 8.31066078 40.3142876 6.64740076 42 5 C42.721875 4.071875 43.44375 3.14375 44.1875 2.1875 C44.785625 1.465625 45.38375 0.74375 46 0 C46.66 0 47.32 0 48 0 C47.41177138 6.17640049 44.88432176 9.75000787 41.02734375 14.35546875 C40.31707031 15.20753906 39.60679687 16.05960938 38.875 16.9375 C38.19179687 17.73027344 37.50859375 18.52304688 36.8046875 19.33984375 C31.51841554 27.13194592 32.67210888 36.53093144 32.69726562 45.57226562 C32.52719014 55.12392445 32.52719014 55.12392445 29.61328125 58.76171875 C27 61 27 61 24.5 61.75 C20.6610307 60.59830921 19.23350822 58.22617854 17 55 C16.07100612 52.14627301 15.84652495 49.47015039 15.75390625 46.48046875 C15.70459961 45.19366211 15.70459961 45.19366211 15.65429688 43.88085938 C15.59350232 42.09712115 15.53616365 40.31326152 15.48242188 38.52929688 C15.12002442 28.69592576 15.12002442 28.69592576 10.125 20.5 C3 12.76378676 3 12.76378676 3 8 C2.34 8 1.68 8 1 8 C0.67 5.36 0.34 2.72 0 0 Z " fill="#EC0B6C" transform="translate(183,59)"/>
<path d="M0 0 C0.10957031 0.73605469 0.21914062 1.47210938 0.33203125 2.23046875 C1.37891824 9.62873108 1.37891824 9.62873108 5 16 C7.33942344 17.7536564 7.33942344 17.7536564 10 19 C11.01513672 19.53173828 11.01513672 19.53173828 12.05078125 20.07421875 C16.31416118 21.41252477 20.37471886 21.21104199 24.8125 21.125 C26.13797852 21.11146484 26.13797852 21.11146484 27.49023438 21.09765625 C29.66027359 21.07419637 31.83017247 21.03832865 34 21 C34 21.66 34 22.32 34 23 C28.45254906 26.72040202 24.65553909 27.47621345 18.0625 27.4375 C10.99874944 27.63637885 6.41099496 28.16392326 1 33 C-0.97857131 34.60490092 -2.95777435 36.20902323 -4.9375 37.8125 C-5.87464844 38.60269531 -6.81179687 39.39289063 -7.77734375 40.20703125 C-10 42 -10 42 -11 42 C-11.11622939 38.25026094 -11.1872595 34.50098536 -11.25 30.75 C-11.28351563 29.68652344 -11.31703125 28.62304688 -11.3515625 27.52734375 C-11.36445313 26.50253906 -11.37734375 25.47773437 -11.390625 24.421875 C-11.41157227 23.47924805 -11.43251953 22.53662109 -11.45410156 21.56542969 C-10.87043564 18.268031 -9.43650857 17.20363978 -7 15 C-6.49198485 12.58870749 -6.49198485 12.58870749 -6.5625 10.0625 C-6.35486117 6.45810281 -6.09726888 4.45746963 -3.5 1.875 C-1 0 -1 0 0 0 Z " fill="#E9106F" transform="translate(229,72)"/>
<path d="M0 0 C5.53846154 3.07692308 5.53846154 3.07692308 7 6 C7.35555556 13.46666667 7.35555556 13.46666667 5 17 C4.01 16.67 3.02 16.34 2 16 C2.33 15.34 2.66 14.68 3 14 C2.34 14 1.68 14 1 14 C0.566875 12.865625 0.13375 11.73125 -0.3125 10.5625 C-0.869375 9.386875 -1.42625 8.21125 -2 7 C-2.99 6.67 -3.98 6.34 -5 6 C-5 8.64 -5 11.28 -5 14 C-3.35 14 -1.7 14 0 14 C-0.99 15.485 -0.99 15.485 -2 17 C-1.67 17.99 -1.34 18.98 -1 20 C-2.32 20 -3.64 20 -5 20 C-5 21.98 -5 23.96 -5 26 C-7.31 26 -9.62 26 -12 26 C-13.82189994 22.35620011 -13.22760405 18.07417515 -13.25 14.0625 C-13.270625 13.14275391 -13.29125 12.22300781 -13.3125 11.27539062 C-13.31765625 10.39173828 -13.3228125 9.50808594 -13.328125 8.59765625 C-13.3374707 7.78820557 -13.34681641 6.97875488 -13.35644531 6.14477539 C-12.91127762 3.46614652 -12.13423162 2.63255591 -10 1 C-6.38069302 -0.20643566 -3.80768995 -0.32268559 0 0 Z " fill="#DB2475" transform="translate(52,80)"/>
<path d="M0 0 C1.12535156 -0.04253906 1.12535156 -0.04253906 2.2734375 -0.0859375 C5.67297376 0.58041678 7.26189774 1.86394699 9.625 4.375 C10.25390625 7.50390625 10.25390625 7.50390625 10.1875 10.9375 C10.18878906 12.07316406 10.19007813 13.20882812 10.19140625 14.37890625 C9.625 17.375 9.625 17.375 7.8671875 19.25390625 C4.12926989 21.12286505 0.70340326 20.89024312 -3.375 20.375 C-6.4375 19.3125 -6.4375 19.3125 -8.375 17.375 C-8.875 13.8125 -8.875 13.8125 -8.375 10.375 C-5.45735 8.4299 -3.74962715 7.92223683 -0.375 7.375 C-2.355 7.375 -4.335 7.375 -6.375 7.375 C-6.705 5.725 -7.035 4.075 -7.375 2.375 C-4.32767415 0.34344943 -3.48080195 0.05939935 0 0 Z " fill="#323231" transform="translate(141.375,79.625)"/>
<path d="M0 0 C0.99 2.97 1.98 5.94 3 9 C3.99 6.03 4.98 3.06 6 0 C7.98 0 9.96 0 12 0 C12.77150377 6.39245977 11.56823884 10.72313892 8.6875 16.4375 C8.3793335 17.05254395 8.07116699 17.66758789 7.75366211 18.30126953 C6.09087634 21.4451445 5.0158889 22.9894074 2 25 C-0.6875 25.125 -0.6875 25.125 -3 25 C-3.625 22.75 -3.625 22.75 -4 20 C-3.64035156 19.38382813 -3.28070313 18.76765625 -2.91015625 18.1328125 C-1.73797678 15.99682499 -1.73797678 15.99682499 -2.64453125 13.6328125 C-3.22267578 12.39144531 -3.22267578 12.39144531 -3.8125 11.125 C-5.45326813 7.39045706 -6.56911383 4.09341861 -7 0 C-4.3333581 -1.33332095 -2.83319697 -0.67102033 0 0 Z " fill="#282726" transform="translate(179,81)"/>
<path d="M0 0 C2.5 0.125 2.5 0.125 3.5 1.125 C3.09591945 9.61069146 1.03099524 19.17026904 -5.5 25.125 C-8.75 25.9375 -8.75 25.9375 -11.5 26.125 C-12.16 24.805 -12.82 23.485 -13.5 22.125 C-12.51 21.135 -11.52 20.145 -10.5 19.125 C-10.9021875 18.1659375 -10.9021875 18.1659375 -11.3125 17.1875 C-12.29393593 14.65642839 -13.23251395 12.12575379 -14.125 9.5625 C-14.38539062 8.81871094 -14.64578125 8.07492188 -14.9140625 7.30859375 C-15.5 5.125 -15.5 5.125 -15.5 1.125 C-13.52 1.125 -11.54 1.125 -9.5 1.125 C-6.5 7.875 -6.5 7.875 -6.5 10.125 C-5.84 10.125 -5.18 10.125 -4.5 10.125 C-4.43941406 9.48691406 -4.37882812 8.84882812 -4.31640625 8.19140625 C-4.23261719 7.36511719 -4.14882812 6.53882812 -4.0625 5.6875 C-3.98128906 4.86378906 -3.90007812 4.04007812 -3.81640625 3.19140625 C-3.35298897 0.1648909 -3.10289423 0.15514471 0 0 Z " fill="#DB1A70" transform="translate(97.5,79.875)"/>
<path d="M0 0 C1.625 0.6875 1.625 0.6875 3.625 3.6875 C3.8203125 7.04296875 3.8203125 7.04296875 3.75 10.875 C3.73195313 12.14730469 3.71390625 13.41960937 3.6953125 14.73046875 C3.67210938 15.70628906 3.64890625 16.68210937 3.625 17.6875 C-0.71814866 20.15945083 -4.4777321 20.23648199 -9.375 19.6875 C-12.4375 18.5625 -12.4375 18.5625 -14.375 16.6875 C-14.90142952 13.52892285 -14.89067857 11.65439733 -13.375 8.8125 C-10.12186316 6.98261053 -7.06109891 7.50621645 -3.375 7.6875 C-3.375 7.0275 -3.375 6.3675 -3.375 5.6875 C-6.345 5.6875 -9.315 5.6875 -12.375 5.6875 C-12.375 4.0375 -12.375 2.3875 -12.375 0.6875 C-8.66597046 -1.16701477 -4.04598781 -0.53236682 0 0 Z " fill="#E7116F" transform="translate(75.375,80.3125)"/>
<path d="M0 0 C3.375 1.5625 3.375 1.5625 6 4 C6.375 7.75 6.375 7.75 6 11 C3.36 11.66 0.72 12.32 -2 13 C0.31 13.33 2.62 13.66 5 14 C5.625 15.875 5.625 15.875 6 18 C4 20 4 20 1.7578125 20.265625 C0.88898438 20.26046875 0.02015625 20.2553125 -0.875 20.25 C-1.73867187 20.25515625 -2.60234375 20.2603125 -3.4921875 20.265625 C-6.19820156 19.97900669 -7.75719985 19.53403647 -10 18 C-12.64806915 13.98545928 -12.94302347 9.64894025 -12 5 C-9.0798907 0.6299054 -5.12107416 -0.96020141 0 0 Z " fill="#222220" transform="translate(124,80)"/>
<path d="M0 0 C2.4375 1.5 2.4375 1.5 4 3 C3.67 4.32 3.34 5.64 3 7 C1.02 7 -0.96 7 -3 7 C-1.865625 7.474375 -0.73125 7.94875 0.4375 8.4375 C4 10 4 10 5 11 C5.375 13.3125 5.375 13.3125 5 16 C2.80721574 18.61719412 1.16556449 19.85530924 -2.265625 20.28125 C-8.2822327 20.35888365 -8.2822327 20.35888365 -11 19 C-11 17.02 -11 15.04 -11 13 C-9.68 13 -8.36 13 -7 13 C-7.825 12.443125 -8.65 11.88625 -9.5 11.3125 C-12 9 -12 9 -12.625 6.5 C-12 4 -12 4 -9.9375 1.6875 C-6.28433812 -0.41112491 -4.15533496 -0.52886081 0 0 Z " fill="#272726" transform="translate(166,80)"/>
<path d="M0 0 C0.66 0.33 1.32 0.66 2 1 C2.625 3.5625 2.625 3.5625 3 6 C5.97 6 8.94 6 12 6 C12 6.66 12 7.32 12 8 C10.1128125 8.12375 10.1128125 8.12375 8.1875 8.25 C4.78296146 8.68117547 4.78296146 8.68117547 2.0625 10.75 C0.91825788 13.17310095 0.36789751 15.35113796 0 18 C-0.66 18 -1.32 18 -2 18 C-2.33 19.98 -2.66 21.96 -3 24 C-5.97 23.67 -8.94 23.34 -12 23 C-12.33 23.99 -12.66 24.98 -13 26 C-13 24.02 -13 22.04 -13 20 C-12.01 19.67 -11.02 19.34 -10 19 C-10.33 18.01 -10.66 17.02 -11 16 C-10.34 15.67 -9.68 15.34 -9 15 C-10.32 14.67 -11.64 14.34 -13 14 C-13 11.36 -13 8.72 -13 6 C-11.68 6.33 -10.36 6.66 -9 7 C-8.34 9.31 -7.68 11.62 -7 14 C-6.34 14 -5.68 14 -5 14 C-5 14.66 -5 15.32 -5 16 C-4.34 16 -3.68 16 -3 16 C-1.40130669 12.80261338 -1.48914505 9.469833 -2 6 C-3.83656989 3.03268602 -3.83656989 3.03268602 -6 1 C-4.7934375 1.0309375 -4.7934375 1.0309375 -3.5625 1.0625 C-1.06645115 1.29633621 -1.06645115 1.29633621 0 0 Z " fill="#F9F6FB" transform="translate(60,80)"/>
<path d="M0 0 C0.66 0 1.32 0 2 0 C1.41177138 6.17640049 -1.11567824 9.75000787 -4.97265625 14.35546875 C-5.68292969 15.20753906 -6.39320313 16.05960938 -7.125 16.9375 C-7.80820313 17.73027344 -8.49140625 18.52304688 -9.1953125 19.33984375 C-14.48158446 27.13194592 -13.32789112 36.53093144 -13.30273438 45.57226562 C-13.47282525 55.12478862 -13.47282525 55.12478862 -16.375 58.7734375 C-19 61 -19 61 -21.6875 61.5625 C-24 61 -24 61 -26 58 C-23.36 58 -20.72 58 -18 58 C-16.12118357 54.00809842 -15.74945709 50.80796672 -15.7265625 46.4140625 C-15.7059375 45.15335938 -15.6853125 43.89265625 -15.6640625 42.59375 C-15.63809837 39.95579396 -15.61982277 37.31775063 -15.609375 34.6796875 C-15.47989872 27.63042331 -15.3264312 22.70537341 -11 17 C-15.41522109 18.26974972 -15.41522109 18.26974972 -19 21 C-19 20.34 -19 19.68 -19 19 C-20.98 19 -22.96 19 -25 19 C-25 18.67 -25 18.34 -25 18 C-24.32453125 17.81824219 -23.6490625 17.63648437 -22.953125 17.44921875 C-22.06109375 17.19785156 -21.1690625 16.94648437 -20.25 16.6875 C-19.36828125 16.44386719 -18.4865625 16.20023438 -17.578125 15.94921875 C-14.93799305 14.97717017 -13.20523478 13.71145395 -11 12 C-10.34 12 -9.68 12 -9 12 C-9 11.34 -9 10.68 -9 10 C-7.3563186 8.31066078 -5.6857124 6.64740076 -4 5 C-3.278125 4.071875 -2.55625 3.14375 -1.8125 2.1875 C-1.214375 1.465625 -0.61625 0.74375 0 0 Z " fill="#D91E70" transform="translate(229,59)"/>
<path d="M0 0 C0.66 0.99 1.32 1.98 2 3 C1.360625 3.45375 0.72125 3.9075 0.0625 4.375 C-2.6224737 7.79223925 -2.4794258 10.31291531 -2.53125 14.5625 C-3 17 -3 17 -5.01171875 18.6171875 C-8.31843431 22.58004897 -7.45591027 27.14707007 -7.3125 32.125 C-7.30283203 33.13949219 -7.29316406 34.15398437 -7.28320312 35.19921875 C-7.39912868 40.26430716 -7.39912868 40.26430716 -6 45 C-8.31 45.66 -10.62 46.32 -13 47 C-12.67 46.01 -12.34 45.02 -12 44 C-11.88491039 42.10244665 -11.82170771 40.20154126 -11.7890625 38.30078125 C-11.76070312 37.17349609 -11.73234375 36.04621094 -11.703125 34.88476562 C-11.65147209 32.52293636 -11.60707683 30.16093606 -11.5703125 27.79882812 C-11.31304971 18.37121896 -10.07705732 11.89423159 -3.8125 4.5 C-3.09707031 3.6440625 -2.38164062 2.788125 -1.64453125 1.90625 C-1.10183594 1.2771875 -0.55914062 0.648125 0 0 Z " fill="#F8D8EC" transform="translate(226,70)"/>
<path d="M0 0 C0 2.31 0 4.62 0 7 C-0.33 6.34 -0.66 5.68 -1 5 C-1.66 5 -2.32 5 -3 5 C-3.12117187 5.89203125 -3.24234375 6.7840625 -3.3671875 7.703125 C-3.61855469 9.45882812 -3.61855469 9.45882812 -3.875 11.25 C-4.03742188 12.41015625 -4.19984375 13.5703125 -4.3671875 14.765625 C-4.92523963 17.61789146 -5.70248398 19.46113749 -7 22 C-6.70740515 24.00636471 -6.37366113 26.00714063 -6 28 C-6.4375 30.25 -6.4375 30.25 -7 32 C-7 32.66 -7 33.32 -7 34 C-6.01 34 -5.02 34 -4 34 C-4 33.34 -4 32.68 -4 32 C-2.68 32 -1.36 32 0 32 C0 31.34 0 30.68 0 30 C0.99 30.33 1.98 30.66 3 31 C1.23436021 32.65172755 -0.53704598 34.29638045 -2.3125 35.9375 C-3.06176758 36.64036133 -3.06176758 36.64036133 -3.82617188 37.35742188 C-6.21561016 39.55697103 -7.88080438 40.96026813 -11 42 C-11.11622939 38.25026094 -11.1872595 34.50098536 -11.25 30.75 C-11.28351563 29.68652344 -11.31703125 28.62304688 -11.3515625 27.52734375 C-11.36445313 26.50253906 -11.37734375 25.47773437 -11.390625 24.421875 C-11.41157227 23.47924805 -11.43251953 22.53662109 -11.45410156 21.56542969 C-10.87043564 18.268031 -9.43650857 17.20363978 -7 15 C-6.49198485 12.58870749 -6.49198485 12.58870749 -6.5625 10.0625 C-6.35486117 6.45810281 -6.09726888 4.45746963 -3.5 1.875 C-1 0 -1 0 0 0 Z " fill="#E11F73" transform="translate(229,72)"/>
<path d="M0 0 C0.99 0 1.98 0 3 0 C3.08078641 2.12438339 3.13909141 4.2496323 3.1875 6.375 C3.23970703 8.15003906 3.23970703 8.15003906 3.29296875 9.9609375 C3.19628906 10.96382812 3.09960938 11.96671875 3 13 C-1.05986522 15.70657681 -4.24060616 15.51678182 -9 15 C-12.0625 13.9375 -12.0625 13.9375 -14 12 C-14.3125 8.3125 -14.3125 8.3125 -14 5 C-13.01 4.67 -12.02 4.34 -11 4 C-10.443125 4.78375 -9.88625 5.5675 -9.3125 6.375 C-6.92331435 9.08704858 -5.39926587 9.96133543 -2 11 C-2.061875 9.1128125 -2.061875 9.1128125 -2.125 7.1875 C-2.2390374 3.70935927 -2.05925681 3.08888522 0 0 Z " fill="#232221" transform="translate(147,85)"/>
<path d="M0 0 C3.5 0.875 3.5 0.875 5.5 2.625 C6.79642163 5.54194866 6.57048784 6.89292673 5.5 9.875 C4.375 11.6875 4.375 11.6875 2.5 12.875 C-1 13.3125 -1 13.3125 -4.5 12.875 C-6.5 11.3125 -6.5 11.3125 -7.5 8.875 C-7.375 5.25 -7.375 5.25 -6.5 1.875 C-3.5 -0.125 -3.5 -0.125 0 0 Z " fill="#E80E6D" transform="translate(206.5,62.125)"/>
<path d="M0 0 C3.5625 0.3125 3.5625 0.3125 5.5 1.4375 C7.09240283 4.24762264 7.01569325 6.14014724 6.5625 9.3125 C4.9375 11.6875 4.9375 11.6875 2.5625 13.3125 C-0.5 13.8125 -0.5 13.8125 -3.4375 13.3125 C-5.375 11.75 -5.375 11.75 -6.4375 9.3125 C-5.98395669 0.54399606 -5.98395669 0.54399606 0 0 Z " fill="#DE196F" transform="translate(239.4375,75.6875)"/>
<path d="M0 0 C0.26554687 0.88042969 0.53109375 1.76085937 0.8046875 2.66796875 C1.15789062 3.82941406 1.51109375 4.99085937 1.875 6.1875 C2.22304687 7.33605469 2.57109375 8.48460938 2.9296875 9.66796875 C3.84218871 12.50871157 4.84980364 15.24885465 6 18 C1.125 22 1.125 22 0 22 C-0.33 22.66 -0.66 23.32 -1 24 C-1.66 23.67 -2.32 23.34 -3 23 C-3 22.34 -3 21.68 -3 21 C-3.66 20.67 -4.32 20.34 -5 20 C-4.34 20 -3.68 20 -3 20 C-3.33 19.01 -3.66 18.02 -4 17 C-4.04477985 14.64625926 -4.03894675 12.29134448 -4 9.9375 C-3.73216886 5.303906 -3.73216886 5.303906 -5 1 C-2 0 -2 0 0 0 Z " fill="#F6F3F7" transform="translate(82,81)"/>
<path d="M0 0 C0.66 0 1.32 0 2 0 C3.14409178 1.51857543 4.21585038 3.09202141 5.25 4.6875 C8.75026897 9.83581227 11.91309507 13.97103169 18 16 C17.6875 17.9375 17.6875 17.9375 17 20 C16.01 20.33 15.02 20.66 14 21 C14.33 20.01 14.66 19.02 15 18 C13.68 18 12.36 18 11 18 C10.67 18.99 10.34 19.98 10 21 C8.82786955 19.21190303 7.66244474 17.41940875 6.5 15.625 C5.8503125 14.62726563 5.200625 13.62953125 4.53125 12.6015625 C3 10 3 10 3 8 C2.34 8 1.68 8 1 8 C0.67 5.36 0.34 2.72 0 0 Z " fill="#DF1E70" transform="translate(183,59)"/>
<path d="M0 0 C0 0.66 0 1.32 0 2 C-0.99 2.495 -0.99 2.495 -2 3 C-2.19207668 8.1860069 -2.19207668 8.1860069 -1.375 13.25 C-0.85100768 15.69529747 -1.73740753 16.92043593 -3 19 C-1.35 19 0.3 19 2 19 C2 20.65 2 22.3 2 24 C0.00045254 24.04254356 -2.00041636 24.04080783 -4 24 C-6.3021725 21.6978275 -5.23290137 16.21557726 -5.25 13.125 C-5.270625 12.20074219 -5.29125 11.27648437 -5.3125 10.32421875 C-5.31765625 9.43605469 -5.3228125 8.54789063 -5.328125 7.6328125 C-5.3374707 6.81699707 -5.34681641 6.00118164 -5.35644531 5.16064453 C-4.82334401 1.92917429 -3.38669654 0 0 0 Z " fill="#E02B7C" transform="translate(44,81)"/>
<path d="M0 0 C0 0.99 0 1.98 0 3 C-0.99 3.495 -0.99 3.495 -2 4 C-0.68 4.66 0.64 5.32 2 6 C1.01 7.485 1.01 7.485 0 9 C-3.125 9.1875 -3.125 9.1875 -6 9 C-6 8.34 -6 7.68 -6 7 C-6.99 7 -7.98 7 -9 7 C-9.33 7.66 -9.66 8.32 -10 9 C-10.66 9 -11.32 9 -12 9 C-11.7153924 5.58470886 -11.20339329 4.21501576 -8.8125 1.6875 C-5.57283878 -0.25629673 -3.71198163 -0.34530062 0 0 Z " fill="#2C2C2C" transform="translate(124,80)"/>
<path d="M0 0 C0 0.99 0 1.98 0 3 C1.32 3 2.64 3 4 3 C4.25 10.625 4.25 10.625 2 14 C1.01 13.67 0.02 13.34 -1 13 C-0.67 12.34 -0.34 11.68 0 11 C-0.66 11 -1.32 11 -2 11 C-2.33 8.03 -2.66 5.06 -3 2 C-3.99 1.67 -4.98 1.34 -6 1 C-3 0 -3 0 0 0 Z " fill="#E6126F" transform="translate(55,83)"/>
<path d="M0 0 C1.32 0.33 2.64 0.66 4 1 C4.66 3.31 5.32 5.62 6 8 C6.66 8 7.32 8 8 8 C8.33 9.65 8.66 11.3 9 13 C7.35 13.33 5.7 13.66 4 14 C3.34 12.68 2.68 11.36 2 10 C2.66 9.67 3.32 9.34 4 9 C2.68 8.67 1.36 8.34 0 8 C0 5.36 0 2.72 0 0 Z " fill="#E6287D" transform="translate(47,86)"/>
<path d="M0 0 C1.98 0 3.96 0 6 0 C6.35050464 5.841744 6.16727335 9.8531808 3 15 C2.67 15 2.34 15 2 15 C2 12.36 2 9.72 2 7 C1.01 7.33 0.02 7.66 -1 8 C-0.67 5.36 -0.34 2.72 0 0 Z " fill="#151412" transform="translate(185,81)"/>
<path d="M0 0 C1.1446875 0.3403125 1.1446875 0.3403125 2.3125 0.6875 C2.3125 1.6775 2.3125 2.6675 2.3125 3.6875 C3.6325 3.6875 4.9525 3.6875 6.3125 3.6875 C5.9825 5.0075 5.6525 6.3275 5.3125 7.6875 C3.6625 7.6875 2.0125 7.6875 0.3125 7.6875 C-0.0175 5.7075 -0.3475 3.7275 -0.6875 1.6875 C-1.3475 2.3475 -2.0075 3.0075 -2.6875 3.6875 C-2.3575 4.285625 -2.0275 4.88375 -1.6875 5.5 C-0.6875 7.6875 -0.6875 7.6875 -0.6875 10.6875 C-3.1625 9.6975 -3.1625 9.6975 -5.6875 8.6875 C-6.04825949 3.27610759 -6.04825949 3.27610759 -4.5 0.75 C-2.6875 -0.3125 -2.6875 -0.3125 0 0 Z " fill="#D82577" transform="translate(66.6875,88.3125)"/>
<path d="M0 0 C0.33 0 0.66 0 1 0 C0.98051328 4.4483207 0.92859934 8.89476244 0.84741211 13.34228516 C0.82430333 14.85324404 0.80985312 16.36436238 0.80444336 17.87548828 C0.7951003 20.05601535 0.75400369 22.23405964 0.70703125 24.4140625 C0.6913208 25.7232666 0.67561035 27.0324707 0.65942383 28.38134766 C-0.19575009 33.07419762 -1.61650053 34.69741236 -5 38 C-7.6875 38.5625 -7.6875 38.5625 -10 38 C-10.66 37.01 -11.32 36.02 -12 35 C-9.36 35 -6.72 35 -4 35 C-2.10234335 30.96647124 -1.71516281 27.64221652 -1.62109375 23.203125 C-1.58693359 21.91535156 -1.55277344 20.62757812 -1.51757812 19.30078125 C-1.49023259 17.9505339 -1.46354768 16.60027301 -1.4375 15.25 C-1.37974721 12.58832222 -1.31430192 9.92708101 -1.24609375 7.265625 C-1.21020142 5.49880371 -1.21020142 5.49880371 -1.17358398 3.69628906 C-1 1 -1 1 0 0 Z " fill="#D80C65" transform="translate(215,82)"/>
<path d="M0 0 C0 0.99 0 1.98 0 3 C0.99 3.33 1.98 3.66 3 4 C0.43721301 4.05420701 -2.12441483 4.09377007 -4.6875 4.125 C-5.40873047 4.14175781 -6.12996094 4.15851563 -6.87304688 4.17578125 C-11.04876781 4.21391569 -14.2494138 3.8789919 -18 2 C-18 1.67 -18 1.34 -18 1 C-11.97403427 -0.0712828 -6.11090483 -0.09945415 0 0 Z " fill="#FBE2F0" transform="translate(257,90)"/>
<path d="M0 0 C1.98 0 3.96 0 6 0 C9 6.75 9 6.75 9 9 C9.66 9 10.32 9 11 9 C11.33 6.03 11.66 3.06 12 0 C12.33 0 12.66 0 13 0 C13.19294408 4.82360189 12.75747614 8.49646738 11 13 C6.125 11.25 6.125 11.25 5 9 C4.86584528 6.3276379 4.95681459 3.67749512 5 1 C1.9254644 1.7763932 1.9254644 1.7763932 0 4 C0 2.68 0 1.36 0 0 Z " fill="#D61E71" transform="translate(82,81)"/>
<path d="M0 0 C2.31 0 4.62 0 7 0 C5.6875 2 5.6875 2 4 4 C3.01 4 2.02 4 1 4 C1.33 6.97 1.66 9.94 2 13 C0.68 13.33 -0.64 13.66 -2 14 C-3.28317892 10.15046324 -3.06643637 7.05261865 -3 3 C-2.01 2.67 -1.02 2.34 0 2 C0 1.34 0 0.68 0 0 Z " fill="#EE086E" transform="translate(44,81)"/>
<path d="M0 0 C1.65 0.33 3.3 0.66 5 1 C4.43179252 6.45479185 3.05362055 10.91059256 1 16 C-1.49310643 12.26034036 -1.0603261 10.70929359 -0.625 6.3125 C-0.51414062 5.13300781 -0.40328125 3.95351562 -0.2890625 2.73828125 C-0.19367188 1.83464844 -0.09828125 0.93101563 0 0 Z " fill="#E90A6B" transform="translate(95,81)"/>
<path d="M0 0 C0.33 0 0.66 0 1 0 C1 2.97 1 5.94 1 9 C0.34 9 -0.32 9 -1 9 C-1.33 10.98 -1.66 12.96 -2 15 C-4.97 14.67 -7.94 14.34 -11 14 C-11.33 14.99 -11.66 15.98 -12 17 C-12 15.02 -12 13.04 -12 11 C-7.545 10.505 -7.545 10.505 -3 10 C-2.01 6.7 -1.02 3.4 0 0 Z " fill="#F9EEF8" transform="translate(59,89)"/>
<path d="M0 0 C0.33 0 0.66 0 1 0 C1.33 4.29 1.66 8.58 2 13 C2.33 13 2.66 13 3 13 C3.06058594 13.84304687 3.12117187 14.68609375 3.18359375 15.5546875 C3.26738281 16.65039062 3.35117188 17.74609375 3.4375 18.875 C3.55931641 20.51082031 3.55931641 20.51082031 3.68359375 22.1796875 C3.83001703 24.94728971 3.83001703 24.94728971 5 27 C2.69 27.66 0.38 28.32 -2 29 C-1.505 27.515 -1.505 27.515 -1 26 C-0.85013589 24.0093556 -0.75171962 22.01464609 -0.68359375 20.01953125 C-0.62075195 18.27446289 -0.62075195 18.27446289 -0.55664062 16.49414062 C-0.51732422 15.27919922 -0.47800781 14.06425781 -0.4375 12.8125 C-0.39431641 11.58595703 -0.35113281 10.35941406 -0.30664062 9.09570312 C-0.2004691 6.06391619 -0.09842048 3.03204685 0 0 Z " fill="#ECA9CC" transform="translate(215,88)"/>
<path d="M0 0 C0.66 0.99 1.32 1.98 2 3 C-1.32307692 7.8 -1.32307692 7.8 -4.75 8.8125 C-5.4925 8.874375 -6.235 8.93625 -7 9 C-7.77842938 12.40562852 -8.09978121 15.50765756 -8 19 C-8.99 18.67 -9.98 18.34 -11 18 C-11.08159574 13.83861737 -10.98248524 10.0527516 -10 6 C-8.02 6 -6.04 6 -4 6 C-4 5.34 -4 4.68 -4 4 C-2.70766393 2.62689293 -1.37562854 1.28965176 0 0 Z " fill="#F5ECF2" transform="translate(94,101)"/>
<path d="M0 0 C0.66 0 1.32 0 2 0 C2.33 1.98 2.66 3.96 3 6 C3.99 6.33 4.98 6.66 6 7 C5.95875 8.093125 5.9175 9.18625 5.875 10.3125 C5.67925334 14.08892229 5.67925334 14.08892229 8 17 C9.97747122 17.36297936 9.97747122 17.36297936 12.125 17.1875 C13.40375 17.125625 14.6825 17.06375 16 17 C15.67 17.66 15.34 18.32 15 19 C11.75 19.9375 11.75 19.9375 8 20 C3.82775689 16.94035505 2.14987516 13.98279237 1 9 C0.57787029 6.00582414 0.25441683 3.01283092 0 0 Z " fill="#F4C4E1" transform="translate(228,71)"/>
<path d="M0 0 C0.28875 0.598125 0.5775 1.19625 0.875 1.8125 C2.04742026 4.19327792 2.04742026 4.19327792 4 7 C7.81884318 7.42431591 10.12405448 7.5390434 13.4375 5.5 C13.953125 5.005 14.46875 4.51 15 4 C15 4.66 15 5.32 15 6 C15.99 6.33 16.98 6.66 18 7 C12.63560356 9.68219822 8.98993047 10.3152595 3 10 C3 9.34 3 8.68 3 8 C2.401875 7.896875 1.80375 7.79375 1.1875 7.6875 C-1.28243264 6.91123545 -2.32251235 5.92911079 -4 4 C-2.68 4.33 -1.36 4.66 0 5 C0 3.35 0 1.7 0 0 Z " fill="#F6BDDE" transform="translate(198,67)"/>
<path d="M0 0 C0 0.66 0 1.32 0 2 C-6.02818509 6.28670939 -10.71304215 6.474377 -18 6 C-18 5.67 -18 5.34 -18 5 C-15.36 4.67 -12.72 4.34 -10 4 C-12.31 3.34 -14.62 2.68 -17 2 C-17 1.67 -17 1.34 -17 1 C-14.72926348 0.83201949 -12.45840707 0.66565887 -10.1875 0.5 C-8.29064453 0.36078125 -8.29064453 0.36078125 -6.35546875 0.21875 C-4.24021483 0.08085219 -2.11974408 0 0 0 Z " fill="#DA2977" transform="translate(263,93)"/>
<path d="M0 0 C0.66 0 1.32 0 2 0 C2 1.65 2 3.3 2 5 C1.34 5 0.68 5 0 5 C-0.99 12.92 -1.98 20.84 -3 29 C-3.33 29 -3.66 29 -4 29 C-4.32019578 4.62954314 -4.32019578 4.62954314 0 0 Z " fill="#FAF5FC" transform="translate(220,81)"/>
<path d="M0 0 C1.32 0.66 2.64 1.32 4 2 C3.01 3.485 3.01 3.485 2 5 C1.34 5 0.68 5 0 5 C0 5.66 0 6.32 0 7 C-3 9 -3 9 -7 9 C-7.33 6.36 -7.66 3.72 -8 1 C-5.525 1.99 -5.525 1.99 -3 3 C-3 3.99 -3 4.98 -3 6 C-2.01 4.02 -1.02 2.04 0 0 Z " fill="#FAE4F2" transform="translate(220,64)"/>
<path d="M0 0 C0.66 0 1.32 0 2 0 C1.49846199 4.31322686 0.92172287 7.68871408 -2 11 C-5.6875 11.3125 -5.6875 11.3125 -9 11 C-8.60167969 10.54109375 -8.20335937 10.0821875 -7.79296875 9.609375 C-4.39984291 5.68325173 -4.39984291 5.68325173 -1.25 1.5625 C-0.8375 1.046875 -0.425 0.53125 0 0 Z " fill="#DD2578" transform="translate(229,59)"/>
<path d="M0 0 C6.3782235 -0.36103152 6.3782235 -0.36103152 8.9375 1.125 C10.52990283 3.93512264 10.45319325 5.82764724 10 9 C8.375 11.375 8.375 11.375 6 13 C2.75 13.25 2.75 13.25 0 13 C0 12.67 0 12.34 0 12 C1.65 12 3.3 12 5 12 C5 11.34 5 10.68 5 10 C6.5 8.375 6.5 8.375 8 7 C7.01 6.67 6.02 6.34 5 6 C5.33 5.01 5.66 4.02 6 3 C4.02 2.34 2.04 1.68 0 1 C0 0.67 0 0.34 0 0 Z " fill="#D62472" transform="translate(236,76)"/>
<path d="M0 0 C7.12600133 -0.35368021 12.47059106 0.04328652 19 3 C19 3.33 19 3.66 19 4 C16.5821288 4.10826289 14.16912444 4.18739789 11.75 4.25 C10.72712891 4.30027344 10.72712891 4.30027344 9.68359375 4.3515625 C6.07818187 4.4215705 4.35931188 4.29151719 1.515625 1.984375 C1.01546875 1.32953125 0.5153125 0.6746875 0 0 Z " fill="#ED066B" transform="translate(235,94)"/>
<path d="M0 0 C2.375 -0.1875 2.375 -0.1875 5 0 C5.66 0.99 6.32 1.98 7 3 C6.67 3.66 6.34 4.32 6 5 C6.66 5.33 7.32 5.66 8 6 C7.67 6.99 7.34 7.98 7 9 C5.125 8.6875 5.125 8.6875 3 8 C1.66666667 6 0.33333333 4 -1 2 C-0.67 1.34 -0.34 0.68 0 0 Z M4 9 C4.33 9.66 4.66 10.32 5 11 C4.01 10.67 3.02 10.34 2 10 C2.66 9.67 3.32 9.34 4 9 Z " fill="#F0086B" transform="translate(236,77)"/>
<path d="M0 0 C2.9297008 2.82506863 5.50174717 5.78796065 8 9 C7.01 9 6.02 9 5 9 C4.67 10.65 4.34 12.3 4 14 C3.67 14 3.34 14 3 14 C3 12.02 3 10.04 3 8 C1.35 8 -0.3 8 -2 8 C-1.47731534 5.23723823 -0.89130413 2.6739124 0 0 Z " fill="#E6D6E0" transform="translate(188,73)"/>
<path d="M0 0 C0.99 0.33 1.98 0.66 3 1 C3 5.62 3 10.24 3 15 C1.02 15.66 -0.96 16.32 -3 17 C-3 16.34 -3 15.68 -3 15 C-1.68 15 -0.36 15 1 15 C0.01 11.7 -0.98 8.4 -2 5 C-1.01 5 -0.02 5 1 5 C0.67 3.35 0.34 1.7 0 0 Z " fill="#D7186C" transform="translate(76,83)"/>
<path d="M0 0 C0.45890625 0.40992187 0.9178125 0.81984375 1.390625 1.2421875 C2.00421875 1.78101562 2.6178125 2.31984375 3.25 2.875 C3.85328125 3.40867187 4.4565625 3.94234375 5.078125 4.4921875 C6.97418746 5.9797487 8.81290005 7.00322436 11 8 C8.36 7.67 5.72 7.34 3 7 C3 8.65 3 10.3 3 12 C2.34 10.68 1.68 9.36 1 8 C1 8.99 1 9.98 1 11 C0.34 11 -0.32 11 -1 11 C-1.02688151 9.35425434 -1.04634123 7.70838587 -1.0625 6.0625 C-1.07410156 5.14597656 -1.08570313 4.22945313 -1.09765625 3.28515625 C-1 1 -1 1 0 0 Z " fill="#F7F6F5" transform="translate(152,86)"/>
<path d="M0 0 C6.4 -0.36923077 6.4 -0.36923077 9.4375 1.5 C9.953125 1.995 10.46875 2.49 11 3 C10.67 4.32 10.34 5.64 10 7 C7.69 6.67 5.38 6.34 3 6 C3.33 4.35 3.66 2.7 4 1 C2.68 0.67 1.36 0.34 0 0 Z " fill="#2B2B2B" transform="translate(159,80)"/>
<path d="M0 0 C0 2.31 0 4.62 0 7 C-0.33 6.34 -0.66 5.68 -1 5 C-1.66 5 -2.32 5 -3 5 C-3.66 9.29 -4.32 13.58 -5 18 C-6.65 18.33 -8.3 18.66 -10 19 C-9.51273438 18.44183594 -9.02546875 17.88367188 -8.5234375 17.30859375 C-6.76209393 14.63948081 -6.6736235 13.21816498 -6.625 10.0625 C-6.38111068 6.47308547 -6.08181901 4.44944238 -3.5 1.875 C-1 0 -1 0 0 0 Z " fill="#D52973" transform="translate(229,72)"/>
<path d="M0 0 C0.66 0 1.32 0 2 0 C5.08284263 3.87036007 7.53198701 8.00786149 8 13 C6.68 12.67 5.36 12.34 4 12 C3.67 10.68 3.34 9.36 3 8 C2.34 8 1.68 8 1 8 C0.67 5.36 0.34 2.72 0 0 Z " fill="#DB397F" transform="translate(183,59)"/>
<path d="M0 0 C2.64 0.33 5.28 0.66 8 1 C8.66 2.65 9.32 4.3 10 6 C2.25 6.125 2.25 6.125 0 5 C0 3.35 0 1.7 0 0 Z " fill="#1D1D1C" transform="translate(155,94)"/>
<path d="M0 0 C1.5159375 0.2475 1.5159375 0.2475 3.0625 0.5 C6.76262933 0.96985769 10.27607391 1.07599849 14 1 C11.22476995 2.85015337 9.83611675 3.41537497 6.6875 4.0625 C5.89859375 4.22621094 5.1096875 4.38992187 4.296875 4.55859375 C1.5383773 5.08871321 -1.22366573 5.57287165 -4 6 C-3.34 5.67 -2.68 5.34 -2 5 C-1.27840576 3.35636866 -0.60648579 1.68949614 0 0 Z " fill="#DF126A" transform="translate(234,96)"/>
<path d="M0 0 C2.64 0 5.28 0 8 0 C8.625 1.875 8.625 1.875 9 4 C8.34 4.66 7.68 5.32 7 6 C3.70285207 5.67028521 2.3773161 5.3773161 0 3 C0 2.01 0 1.02 0 0 Z " fill="#393938" transform="translate(121,94)"/>
<path d="M0 0 C0 1.65 0 3.3 0 5 C-3.75 6.125 -3.75 6.125 -6 5 C-6 3.35 -6 1.7 -6 0 C-3.50907189 -1.24546405 -2.58919267 -0.7767578 0 0 Z " fill="#CBCBCB" transform="translate(95,114)"/>
<path d="M0 0 C0.99 0 1.98 0 3 0 C4.09857724 6.1676029 4.11539104 12.18415123 4.0625 18.4375 C4.05798828 19.45521484 4.05347656 20.47292969 4.04882812 21.52148438 C4.03712437 24.01438509 4.02072848 26.50716074 4 29 C3.67 29 3.34 29 3 29 C2.98018066 28.44127197 2.96036133 27.88254395 2.93994141 27.30688477 C2.8434781 24.72502582 2.73430188 22.14384608 2.625 19.5625 C2.5940625 18.68400391 2.563125 17.80550781 2.53125 16.90039062 C2.27193381 11.04416673 1.42355815 5.68844577 0 0 Z " fill="#CE2D73" transform="translate(196,81)"/>
<path d="M0 0 C0.66 0.33 1.32 0.66 2 1 C2 3.64 2 6.28 2 9 C1.01 8.34 0.02 7.68 -1 7 C-1 6.01 -1 5.02 -1 4 C-2.98 4.33 -4.96 4.66 -7 5 C-7 4.34 -7 3.68 -7 3 C-7.66 2.67 -8.32 2.34 -9 2 C-6.36 2 -3.72 2 -1 2 C-0.67 1.34 -0.34 0.68 0 0 Z M2 2 C2.99 2.33 3.98 2.66 5 3 C5 3.66 5 4.32 5 5 C4.01 4.67 3.02 4.34 2 4 C2 3.34 2 2.68 2 2 Z " fill="#3D3C3A" transform="translate(164,91)"/>
<path d="M0 0 C0.33 2.64 0.66 5.28 1 8 C0.34 8 -0.32 8 -1 8 C-1.33 10.64 -1.66 13.28 -2 16 C-2.33 16 -2.66 16 -3 16 C-3.09087891 14.62714844 -3.09087891 14.62714844 -3.18359375 13.2265625 C-3.30927734 11.44378906 -3.30927734 11.44378906 -3.4375 9.625 C-3.51871094 8.44164063 -3.59992188 7.25828125 -3.68359375 6.0390625 C-3.81084936 3.08481099 -3.81084936 3.08481099 -5 1 C-2 0 -2 0 0 0 Z " fill="#F5C9E2" transform="translate(82,81)"/>
<path d="M0 0 C2.875 0.25 2.875 0.25 6 1 C7.375 3.0625 7.375 3.0625 8 5 C7.34 5.66 6.68 6.32 6 7 C5.01 7 4.02 7 3 7 C3 6.34 3 5.68 3 5 C1.68 4.34 0.36 3.68 -1 3 C-0.67 2.01 -0.34 1.02 0 0 Z " fill="#232323" transform="translate(122,81)"/>
<path d="M0 0 C0.33 1.98 0.66 3.96 1 6 C-0.65 6.33 -2.3 6.66 -4 7 C-4.5534764 4.92446352 -5 3.15634036 -5 1 C-3 0 -3 0 0 0 Z " fill="#CFCFCF" transform="translate(79,113)"/>
<path d="M0 0 C-1.98 0.99 -1.98 0.99 -4 2 C-3.01 2.99 -2.02 3.98 -1 5 C-3.31 5 -5.62 5 -8 5 C-8.33 4.34 -8.66 3.68 -9 3 C-8.67 2.34 -8.34 1.68 -8 1 C-8.66 0.67 -9.32 0.34 -10 0 C-6.7169902 -1.6415049 -3.57454967 -0.51888624 0 0 Z " fill="#1B1A19" transform="translate(126,95)"/>
<path d="M0 0 C0.66 0 1.32 0 2 0 C2.4125 0.474375 2.825 0.94875 3.25 1.4375 C5.65788428 3.58739668 7.85408584 3.65045398 11 4 C11 4.33 11 4.66 11 5 C9.5422647 5.335939 8.08378894 5.66866624 6.625 6 C5.40683594 6.2784375 5.40683594 6.2784375 4.1640625 6.5625 C2 7 2 7 0 7 C0 4.69 0 2.38 0 0 Z " fill="#F6E5F2" transform="translate(230,71)"/>
<path d="M0 0 C2.0625 0.4375 2.0625 0.4375 4 1 C4 2.98 4 4.96 4 7 C2.35 6.67 0.7 6.34 -1 6 C-1.042721 4.33388095 -1.04063832 2.66617115 -1 1 C-0.67 0.67 -0.34 0.34 0 0 Z " fill="#C8C8C8" transform="translate(147,113)"/>
<path d="M0 0 C0.66 0.99 1.32 1.98 2 3 C1 5 1 5 0 6 C-2.95274099 6 -4.49058403 5.56108169 -7.1875 4.5 C-7.90292969 4.2215625 -8.61835938 3.943125 -9.35546875 3.65625 C-9.89816406 3.4396875 -10.44085938 3.223125 -11 3 C-11 2.67 -11 2.34 -11 2 C-9.01432292 2.06510417 -7.02864583 2.13020833 -5.04296875 2.1953125 C-2.68640281 2.13254462 -2.68640281 2.13254462 0 0 Z " fill="#D8D8D8" transform="translate(172,84)"/>
<path d="M0 0 C-0.99 1.98 -1.98 3.96 -3 6 C-3.99 6 -4.98 6 -6 6 C-6.33 4.02 -6.66 2.04 -7 0 C-4.3333581 -1.33332095 -2.83319697 -0.67102033 0 0 Z " fill="#353535" transform="translate(179,81)"/>
<path d="M0 0 C0.66 0 1.32 0 2 0 C2 2.64 2 5.28 2 8 C4.31 8.66 6.62 9.32 9 10 C9 10.33 9 10.66 9 11 C2.6166552 11.48176187 2.6166552 11.48176187 0 9.4375 C-1.39537637 6.03627009 -0.74768043 3.5344893 0 0 Z " fill="#D73A81" transform="translate(200,64)"/>
<path d="M0 0 C2.0625 0.4375 2.0625 0.4375 4 1 C4 2.65 4 4.3 4 6 C2.0625 6.5625 2.0625 6.5625 0 7 C-1 6 -1 6 -1.125 3.5 C-1 1 -1 1 0 0 Z " fill="#CACACA" transform="translate(60,113)"/>
<path d="M0 0 C2.0625 0.4375 2.0625 0.4375 4 1 C4 2.65 4 4.3 4 6 C2.0625 6.5625 2.0625 6.5625 0 7 C-1 6 -1 6 -1.125 3.5 C-1 1 -1 1 0 0 Z " fill="#CFCFCF" transform="translate(41,113)"/>
<path d="M0 0 C1.65 0 3.3 0 5 0 C5 1.65 5 3.3 5 5 C4.360625 5.12375 3.72125 5.2475 3.0625 5.375 C2.0415625 5.684375 2.0415625 5.684375 1 6 C0.67 6.66 0.34 7.32 0 8 C0 5.36 0 2.72 0 0 Z " fill="#CACACA" transform="translate(99,114)"/>
<path d="M0 0 C1.32 0.33 2.64 0.66 4 1 C4 3.31 4 5.62 4 8 C2.68 8 1.36 8 0 8 C0 5.36 0 2.72 0 0 Z " fill="#F6E7F3" transform="translate(47,86)"/>
<path d="M0 0 C2.0625 0.4375 2.0625 0.4375 4 1 C4 2.65 4 4.3 4 6 C2.0625 6.5625 2.0625 6.5625 0 7 C-1 6 -1 6 -1.125 3.5 C-1 1 -1 1 0 0 Z " fill="#CDCDCD" transform="translate(122,113)"/>
<path d="M0 0 C0.33 0 0.66 0 1 0 C1.33 7.92 1.66 15.84 2 24 C1.67 23.34 1.34 22.68 1 22 C0.34 22 -0.32 22 -1 22 C-0.67 14.74 -0.34 7.48 0 0 Z " fill="#F9CEE6" transform="translate(198,90)"/>
<path d="M0 0 C-0.33 1.32 -0.66 2.64 -1 4 C-1.33 3.67 -1.66 3.34 -2 3 C-2.99 3.495 -2.99 3.495 -4 4 C-5.54613014 3.91348369 -7.08909387 3.75997364 -8.625 3.5625 C-9.85089844 3.40974609 -9.85089844 3.40974609 -11.1015625 3.25390625 C-11.72804688 3.17011719 -12.35453125 3.08632812 -13 3 C-9.51105881 -0.48894119 -4.73283796 -0.13920112 0 0 Z " fill="#DCDCDA" transform="translate(133,91)"/>
<path d="M0 0 C1.32 0 2.64 0 4 0 C4.9765625 6.0546875 4.9765625 6.0546875 5 8 C4.34 8.66 3.68 9.32 3 10 C0.96564469 6.27034861 0 4.33094958 0 0 Z " fill="#2B2A28" transform="translate(186,82)"/>
<path d="M0 0 C6.4100295 0.48377581 6.4100295 0.48377581 9 2.75 C10.25805827 5.5806311 9.89063845 7.08518324 9 10 C8.67 10 8.34 10 8 10 C7.34 7.69 6.68 5.38 6 3 C3.69 2.67 1.38 2.34 -1 2 C-0.67 1.34 -0.34 0.68 0 0 Z " fill="#D4256F" transform="translate(203,62)"/>
<path d="M0 0 C0.99 0.33 1.98 0.66 3 1 C0.03 3.64 -2.94 6.28 -6 9 C-6.66 8.01 -7.32 7.02 -8 6 C-7.34 6 -6.68 6 -6 6 C-5.67 5.34 -5.34 4.68 -5 4 C-4.67 3.34 -4.34 2.68 -4 2 C-2.68 2 -1.36 2 0 2 C0 1.34 0 0.68 0 0 Z " fill="#DE2878" transform="translate(229,102)"/>
<path d="M0 0 C0.99 0 1.98 0 3 0 C3 3.3 3 6.6 3 10 C2.34 9.67 1.68 9.34 1 9 C1 7.68 1 6.36 1 5 C0.34 5 -0.32 5 -1 5 C-0.67 3.35 -0.34 1.7 0 0 Z " fill="#EF0970" transform="translate(84,82)"/>
<path d="M0 0 C0.66 0 1.32 0 2 0 C-0.09175532 5.95345745 -0.09175532 5.95345745 -3 8 C-5.5625 8.375 -5.5625 8.375 -8 8 C-8.66 7.01 -9.32 6.02 -10 5 C-7.36 5 -4.72 5 -2 5 C-1.34 3.35 -0.68 1.7 0 0 Z " fill="#D12771" transform="translate(213,112)"/>
<path d="M0 0 C0.99 0.33 1.98 0.66 3 1 C3 1.66 3 2.32 3 3 C4.65 3.33 6.3 3.66 8 4 C8 4.99 8 5.98 8 7 C5.125 6.6875 5.125 6.6875 2 6 C0 3 0 3 0 0 Z " fill="#686765" transform="translate(136,88)"/>
<path d="M0 0 C0.33 1.32 0.66 2.64 1 4 C3.97 4 6.94 4 10 4 C10 4.66 10 5.32 10 6 C8.72125 6.144375 7.4425 6.28875 6.125 6.4375 C3.74307106 6.70642746 2.15547309 6.92226346 0 8 C0 5.36 0 2.72 0 0 Z " fill="#EEB3D5" transform="translate(62,82)"/>
<path d="M0 0 C0.66 0 1.32 0 2 0 C2 0.99 2 1.98 2 3 C2.66 3 3.32 3 4 3 C4.33 2.34 4.66 1.68 5 1 C4.67 3.31 4.34 5.62 4 8 C2.68 8.33 1.36 8.66 0 9 C0.33 8.01 0.66 7.02 1 6 C0.72428861 3.99124558 0.39764263 1.98821313 0 0 Z " fill="#C6C6C6" transform="translate(155,113)"/>
<path d="M0 0 C0.99 0 1.98 0 3 0 C2.8125 1.875 2.8125 1.875 2 4 C-0.89111788 5.52164099 -2.71823412 6 -6 6 C-5.67 4.68 -5.34 3.36 -5 2 C-3.35 2 -1.7 2 0 2 C0 1.34 0 0.68 0 0 Z " fill="#1D1C1A" transform="translate(183,90)"/>
<path d="M0 0 C0.928125 0.0825 1.85625 0.165 2.8125 0.25 C2.4825 1.24 2.1525 2.23 1.8125 3.25 C0.4925 3.25 -0.8275 3.25 -2.1875 3.25 C-2.1875 3.91 -2.1875 4.57 -2.1875 5.25 C-3.5075 4.92 -4.8275 4.59 -6.1875 4.25 C-4.36434338 1.00883268 -3.82500054 0.30000004 0 0 Z " fill="#262626" transform="translate(145.1875,80.75)"/>
<path d="M0 0 C0.66 0.99 1.32 1.98 2 3 C2.8353125 4.2375 2.8353125 4.2375 3.6875 5.5 C4.120625 6.325 4.55375 7.15 5 8 C4.67 8.99 4.34 9.98 4 11 C1.4375 9.4375 1.4375 9.4375 -1 7 C-0.8125 3.25 -0.8125 3.25 0 0 Z " fill="#F5D1E9" transform="translate(83,89)"/>
<path d="M0 0 C5.67177385 -0.45374191 8.5975268 0.34916857 13 4 C13 4.66 13 5.32 13 6 C12.01 6 11.02 6 10 6 C10 5.01 10 4.02 10 3 C8.68 3.33 7.36 3.66 6 4 C5.67 3.34 5.34 2.68 5 2 C2.47266765 1.34444881 2.47266765 1.34444881 0 1 C0 0.67 0 0.34 0 0 Z " fill="#D63A82" transform="translate(45,80)"/>
<path d="M0 0 C0.28875 0.598125 0.5775 1.19625 0.875 1.8125 C2.58141905 5.13053703 3.85730492 6.90486994 7 9 C0.6 8.50769231 0.6 8.50769231 -2.4375 5.9375 C-2.953125 5.298125 -3.46875 4.65875 -4 4 C-2.68 4.33 -1.36 4.66 0 5 C0 3.35 0 1.7 0 0 Z " fill="#FADBF0" transform="translate(198,67)"/>
<path d="M0 0 C-0.8125 2.4375 -0.8125 2.4375 -2 5 C-2.99 5.33 -3.98 5.66 -5 6 C-5.66 5.67 -6.32 5.34 -7 5 C-6.6875 3.0625 -6.6875 3.0625 -6 1 C-3 0 -3 0 0 0 Z " fill="#DF136E" transform="translate(226,69)"/>
<path d="M0 0 C-0.33 2.31 -0.66 4.62 -1 7 C-2.65 5.35 -4.3 3.7 -6 2 C-3 0 -3 0 0 0 Z " fill="#F6E1ED" transform="translate(195,64)"/>
<path d="M0 0 C2.31 0.33 4.62 0.66 7 1 C6.67 2.32 6.34 3.64 6 5 C4.35 5 2.7 5 1 5 C0.67 3.35 0.34 1.7 0 0 Z " fill="#E65D9F" transform="translate(66,91)"/>
<path d="M0 0 C2.475 0.99 2.475 0.99 5 2 C4.67 3.98 4.34 5.96 4 8 C3.01 8 2.02 8 1 8 C0.67 5.36 0.34 2.72 0 0 Z " fill="#F6F1F6" transform="translate(212,65)"/>
<path d="M0 0 C1.1446875 1.175625 1.1446875 1.175625 2.3125 2.375 C4.90891805 5.07257717 4.90891805 5.07257717 8 7 C5.03 6.505 5.03 6.505 2 6 C1.67 6.66 1.34 7.32 1 8 C0.26919734 6.02253397 -0.39421747 4.01927511 -1 2 C-0.67 1.34 -0.34 0.68 0 0 Z " fill="#1A1917" transform="translate(135,89)"/>
<path d="M0 0 C0.66 0 1.32 0 2 0 C1.25 5.75 1.25 5.75 -1 8 C-1.33 7.34 -1.66 6.68 -2 6 C-2.66 5.67 -3.32 5.34 -4 5 C-2.71937515 3.2925002 -1.38232443 1.62626404 0 0 Z " fill="#D4397D" transform="translate(229,59)"/>
<path d="M0 0 C-0.66 0.66 -1.32 1.32 -2 2 C-1.67 2.99 -1.34 3.98 -1 5 C-3.4375 4.625 -3.4375 4.625 -6 4 C-6.33 3.34 -6.66 2.68 -7 2 C-6 0 -6 0 -4.0625 -0.6875 C-2 -1 -2 -1 0 0 Z " fill="#DE0A63" transform="translate(52,95)"/>
<path d="M0 0 C2.31 0.33 4.62 0.66 7 1 C6.34 2.32 5.68 3.64 5 5 C3.35 4.67 1.7 4.34 0 4 C0 2.68 0 1.36 0 0 Z " fill="#606060" transform="translate(119,84)"/>
<path d="M0 0 C1.31223496 3.93670488 0.24296256 6.12488144 -1 10 C-3.35953094 7.64046906 -3.49141413 6.22104383 -4 3 C-2.68 2.67 -1.36 2.34 0 2 C0 1.34 0 0.68 0 0 Z " fill="#C7C7C6" transform="translate(184,82)"/>
<path d="M0 0 C0 3.61537605 -0.89229241 5.11165997 -3 8 C-3.99 8 -4.98 8 -6 8 C-6.33 8.66 -6.66 9.32 -7 10 C-7 9.01 -7 8.02 -7 7 C-6.34 7 -5.68 7 -5 7 C-4.731875 6.401875 -4.46375 5.80375 -4.1875 5.1875 C-3.01506533 3.02775192 -1.80630718 1.64209744 0 0 Z " fill="#F4E9F4" transform="translate(225,108)"/>
<path d="M0 0 C0.33 0.99 0.66 1.98 1 3 C2.65 3.33 4.3 3.66 6 4 C5.34 4.66 4.68 5.32 4 6 C1.375 5.625 1.375 5.625 -1 5 C-1 1 -1 1 0 0 Z " fill="#D01A69" transform="translate(86,100)"/>
<path d="M0 0 C2.97 0.99 5.94 1.98 9 3 C9 3.33 9 3.66 9 4 C6.36 3.67 3.72 3.34 1 3 C1 4.65 1 6.3 1 8 C-0.0625 6.25 -0.0625 6.25 -1 4 C-0.67 2.68 -0.34 1.36 0 0 Z " fill="#DCDBD9" transform="translate(154,90)"/>
<path d="M0 0 C1.32 0 2.64 0 4 0 C3.814375 0.78375 3.62875 1.5675 3.4375 2.375 C2.74037734 4.97089775 2.74037734 4.97089775 4 7 C2.68 6.67 1.36 6.34 0 6 C0 4.02 0 2.04 0 0 Z " fill="#212121" transform="translate(159,81)"/>
<path d="M0 0 C0.66 0.33 1.32 0.66 2 1 C1.67 2.32 1.34 3.64 1 5 C1.66 5 2.32 5 3 5 C3 5.66 3 6.32 3 7 C1.02 7 -0.96 7 -3 7 C-2.67 5.68 -2.34 4.36 -2 3 C-1.34 3 -0.68 3 0 3 C0 2.01 0 1.02 0 0 Z " fill="#F00971" transform="translate(89,97)"/>
<path d="M0 0 C0.99 0.33 1.98 0.66 3 1 C3 1.99 3 2.98 3 4 C3.66 4.33 4.32 4.66 5 5 C4.67 5.99 4.34 6.98 4 8 C2 6.8125 2 6.8125 0 5 C-0.25 2.3125 -0.25 2.3125 0 0 Z " fill="#343433" transform="translate(154,84)"/>
<path d="M0 0 C3.375 -0.125 3.375 -0.125 7 0 C7.66 0.66 8.32 1.32 9 2 C7.68 2.99 6.36 3.98 5 5 C4.34 4.67 3.68 4.34 3 4 C3.33 3.01 3.66 2.02 4 1 C2.68 0.67 1.36 0.34 0 0 Z " fill="#343434" transform="translate(159,80)"/>
<path d="M0 0 C0.99 0.33 1.98 0.66 3 1 C3 3.31 3 5.62 3 8 C2.01 7.67 1.02 7.34 0 7 C0 4.69 0 2.38 0 0 Z " fill="#C5C5C5" transform="translate(83,112)"/>
<path d="M0 0 C0.33 0 0.66 0 1 0 C1 2.97 1 5.94 1 9 C0.34 9 -0.32 9 -1 9 C-1.33 9.66 -1.66 10.32 -2 11 C-2 6.91621923 -1.19287411 3.87684087 0 0 Z " fill="#F6E0F0" transform="translate(59,89)"/>
<path d="M0 0 C0.66 0.33 1.32 0.66 2 1 C1.67 1.99 1.34 2.98 1 4 C0.34 4 -0.32 4 -1 4 C-1.33 4.66 -1.66 5.32 -2 6 C-3.32 4.35 -4.64 2.7 -6 1 C-4.7934375 1.0309375 -4.7934375 1.0309375 -3.5625 1.0625 C-1.06645115 1.29633621 -1.06645115 1.29633621 0 0 Z " fill="#F5EEF6" transform="translate(60,80)"/>
<path d="M0 0 C0.66 0 1.32 0 2 0 C2 2.97 2 5.94 2 9 C1.01 8.67 0.02 8.34 -1 8 C-0.67 5.36 -0.34 2.72 0 0 Z " fill="#F3076A" transform="translate(202,64)"/>
<path d="M0 0 C0.66 0.33 1.32 0.66 2 1 C1.67 1.99 1.34 2.98 1 4 C0.34 4 -0.32 4 -1 4 C-1.33 4.99 -1.66 5.98 -2 7 C-2.99 5.35 -3.98 3.7 -5 2 C-4.360625 1.855625 -3.72125 1.71125 -3.0625 1.5625 C-1.02454854 1.18992819 -1.02454854 1.18992819 0 0 Z " fill="#FCECF7" transform="translate(190,58)"/>
<path d="M0 0 C0.66 0.66 1.32 1.32 2 2 C2.66 1.67 3.32 1.34 4 1 C3.45276317 4.37462715 2.9451 6.08235 1 9 C0.67 6.03 0.34 3.06 0 0 Z " fill="#F50C72" transform="translate(94,88)"/>
<path d="M0 0 C0.33 0 0.66 0 1 0 C1.35233161 5.37305699 1.35233161 5.37305699 1 8 C-1 10 -1 10 -3 11 C-2.67 9.35 -2.34 7.7 -2 6 C-1.67 6 -1.34 6 -1 6 C-0.67 4.02 -0.34 2.04 0 0 Z " fill="#FACFE6" transform="translate(222,79)"/>
<path d="M0 0 C2.9375 0.375 2.9375 0.375 6 1 C6.33 1.66 6.66 2.32 7 3 C6.01 3 5.02 3 4 3 C3.67 4.65 3.34 6.3 3 8 C2.67 8 2.34 8 2 8 C1.34 5.36 0.68 2.72 0 0 Z " fill="#D4C4CC" transform="translate(189,79)"/>
<path d="M0 0 C2 3 2 3 1.625 5.1875 C1.41875 5.785625 1.2125 6.38375 1 7 C-0.32 6.67 -1.64 6.34 -3 6 C-2.01 4.02 -1.02 2.04 0 0 Z " fill="#F6E2ED" transform="translate(230,63)"/>
</svg>
