<?xml version="1.0" encoding="UTF-8"?>
<svg version="1.1" xmlns="http://www.w3.org/2000/svg" width="1012" height="599">
<path d="M0 0 C333.96 0 667.92 0 1012 0 C1012 197.67 1012 395.34 1012 599 C678.04 599 344.08 599 0 599 C0 401.33 0 203.66 0 0 Z " fill="#050505" transform="translate(0,0)"/>
<path d="M0 0 C4.14559093 -0.11727273 8.29074862 -0.18760933 12.4375 -0.25 C14.18450195 -0.30027344 14.18450195 -0.30027344 15.96679688 -0.3515625 C23.65660536 -0.43820823 30.75886692 0.01083447 36.61499023 5.51904297 C41.82338369 11.55831887 41.21544048 16.51960616 41.25 24.1875 C41.270625 25.31220703 41.29125 26.43691406 41.3125 27.59570312 C41.34732141 34.99960569 40.95963413 40.32597143 36.1875 46.25 C31.40867195 50.07306244 27.37805037 51.37676216 21.2890625 51.29296875 C20.04511719 51.28330078 18.80117188 51.27363281 17.51953125 51.26367188 C16.23433594 51.23853516 14.94914062 51.21339844 13.625 51.1875 C11.66240234 51.16719727 11.66240234 51.16719727 9.66015625 51.14648438 C6.43968156 51.1112237 3.22005394 51.06193633 0 51 C0 48.36 0 45.72 0 43 C2.31 43 4.62 43 7 43 C7 31.78 7 20.56 7 9 C4.69 9 2.38 9 0 9 C0 6.03 0 3.06 0 0 Z " fill="#48D97C" transform="translate(497,174)"/>
<path d="M0 0 C5.49250618 1.65080891 9.35859677 4.40378194 12.15234375 9.4609375 C14.365369 16.08981498 14.2363877 24.09579006 11.5 30.5625 C8.95264129 34.71871684 5.52860318 37.26683088 1 39 C-5.7716783 40.29475406 -7.98192259 39.01205161 -14 35 C-14.33 40.61 -14.66 46.22 -15 52 C-17.97 52 -20.94 52 -24 52 C-24 35.5 -24 19 -24 2 C-21.36 2 -18.72 2 -16 2 C-16 3.32 -16 4.64 -16 6 C-15.5153125 5.566875 -15.030625 5.13375 -14.53125 4.6875 C-9.71942535 0.68998414 -6.28110009 -1.39037944 0 0 Z " fill="#48D77A" transform="translate(755,188)"/>
<path d="M0 0 C2.97 0 5.94 0 9 0 C9 16.83 9 33.66 9 51 C6.03 51 3.06 51 0 51 C0 49.68 0 48.36 0 47 C-0.94875 47.825 -1.8975 48.65 -2.875 49.5 C-6.77264262 52.27499505 -9.91540971 52.67979173 -14.63671875 52.421875 C-19.44653856 51.56326254 -22.13638379 48.95698012 -25.3125 45.4375 C-28.21555414 41.24419957 -28.21853291 37.68753819 -28.3125 32.6875 C-28.34988281 31.39199219 -28.38726563 30.09648437 -28.42578125 28.76171875 C-27.80370515 23.26576204 -25.45331815 20.28030409 -21.375 16.6875 C-18.29757977 14.50091194 -16.54133077 13.80944111 -12.8125 13.6875 C-11.70841797 13.63142578 -11.70841797 13.63142578 -10.58203125 13.57421875 C-8 14 -8 14 -1 18 C-0.67 12.06 -0.34 6.12 0 0 Z " fill="#F5F8F6" transform="translate(562,102)"/>
<path d="M0 0 C3.3 0 6.6 0 10 0 C10.33789369 3.4996132 10.67044578 6.99959977 11 10.5 C11.09539062 11.48226562 11.19078125 12.46453125 11.2890625 13.4765625 C11.80588848 19.01398367 12.10592737 24.43881298 12 30 C12.66 30 13.32 30 14 30 C14.03738281 29.42636719 14.07476562 28.85273438 14.11328125 28.26171875 C14.8487829 18.75788369 16.45154988 9.39782622 18 0 C23.28 0 28.56 0 34 0 C34.50561936 3.68680783 35.00467108 7.37430761 35.5 11.0625 C35.64308594 12.10083984 35.78617187 13.13917969 35.93359375 14.20898438 C36.64201705 19.5221591 37.18248153 24.63960518 37 30 C37.66 30 38.32 30 39 30 C39.03758423 29.00987915 39.03758423 29.00987915 39.07592773 27.99975586 C39.19271752 24.97884631 39.31506446 21.95818578 39.4375 18.9375 C39.47681641 17.89916016 39.51613281 16.86082031 39.55664062 15.79101562 C39.77666344 10.45969359 40.1116184 5.26310107 41 0 C44.3 0 47.6 0 51 0 C49.68 11.88 48.36 23.76 47 36 C41.39 36 35.78 36 30 36 C29.49438064 32.31319217 28.99532892 28.62569239 28.5 24.9375 C28.35691406 23.89916016 28.21382813 22.86082031 28.06640625 21.79101562 C27.35798295 16.4778409 26.81751847 11.36039482 27 6 C26.34 6 25.68 6 25 6 C24.87882812 7.16015625 24.75765625 8.3203125 24.6328125 9.515625 C23.6859111 18.40354256 22.58001062 27.19708367 21 36 C15.72 36 10.44 36 5 36 C0.42553191 11.08510638 0.42553191 11.08510638 0 0 Z " fill="#46D27A" transform="translate(311,189)"/>
<path d="M0 0 C4.0046152 2.0858885 6.16496139 4.14643277 8 8.375 C8.29793362 11.46038033 8.18871621 14.2611825 8 17.375 C5.03 17.375 2.06 17.375 -1 17.375 C-1.45572917 15.32421875 -1.91145833 13.2734375 -2.3671875 11.22265625 C-2.82961523 9.16799706 -2.82961523 9.16799706 -5 8.375 C-6.8521563 8.27915021 -8.70787153 8.24516394 -10.5625 8.25 C-11.55378906 8.24742187 -12.54507813 8.24484375 -13.56640625 8.2421875 C-15.94812348 8.10061569 -15.94812348 8.10061569 -17 9.375 C-17.33338596 12.83312169 -17.33338596 12.83312169 -17 16.375 C-13.71202969 18.5669802 -11.06283379 19.25997234 -7.25 20.25 C4.5729855 23.55653155 4.5729855 23.55653155 8.9375 28.625 C10.69830094 33.18236715 10.9257574 37.01346144 9.15625 41.52734375 C6.75760115 45.87894657 4.04437589 48.8003867 -0.5625 50.74609375 C-6.43159863 52.26039644 -12.7533198 52.62648494 -18.47265625 50.421875 C-23.09500476 47.69166541 -26.57918228 44.21663544 -29 39.375 C-29.13415472 36.7026379 -29.04318541 34.05249512 -29 31.375 C-26.03 31.375 -23.06 31.375 -20 31.375 C-19.70996094 32.33212891 -19.70996094 32.33212891 -19.4140625 33.30859375 C-19.15367187 34.13488281 -18.89328125 34.96117187 -18.625 35.8125 C-18.24214844 37.04806641 -18.24214844 37.04806641 -17.8515625 38.30859375 C-17.19117773 40.55298016 -17.19117773 40.55298016 -15 41.375 C-13.19051505 41.49676503 -11.37603729 41.55045792 -9.5625 41.5625 C-8.59441406 41.57667969 -7.62632812 41.59085938 -6.62890625 41.60546875 C-3.76733273 41.56649451 -3.76733273 41.56649451 -1 39.375 C-0.33319632 36.41779372 -0.33319632 36.41779372 -1 33.375 C-5.45280749 29.98401584 -10.78023705 28.86744074 -16.1171875 27.53320312 C-21.51494349 26.01062856 -23.78824694 23.9797293 -27 19.375 C-28.73951425 15.89597149 -28.44901673 12.17881316 -28 8.375 C-25.9832687 4.09952964 -23.44496522 1.24871614 -19.1796875 -0.9296875 C-12.87734769 -2.94011131 -6.10566946 -2.39793619 0 0 Z " fill="#46D47A" transform="translate(190,174.625)"/>
<path d="M0 0 C4.6562381 2.73640859 8.15597666 6.16742207 10.59375 11.04296875 C11.30673073 18.23388868 11.52513568 24.48976757 7.09375 30.45703125 C2.56461879 35.24564394 -2.13592057 37.18115131 -8.59375 37.41796875 C-14.29057102 37.35768493 -18.26675696 36.00729393 -22.40625 32.04296875 C-26.14711661 27.46857571 -27.03662226 23.82280581 -26.90625 18.04296875 C-26.92171875 17.3571875 -26.9371875 16.67140625 -26.953125 15.96484375 C-26.91411508 10.85454431 -25.60606564 7.96274291 -22.40625 4.04296875 C-16.3789019 -1.84739416 -7.79474925 -3.10018436 0 0 Z " fill="#F6F7F5" transform="translate(409.40625,116.95703125)"/>
<path d="M0 0 C5.00225966 2.95842595 8.78201406 6.42807343 10.65625 12.05078125 C11.37596504 18.99089061 11.37287154 24.66777 7.15625 30.4296875 C3.64844877 34.2206706 -0.36962968 36.72854086 -5.54296875 37.2890625 C-11.71593271 37.47318544 -16.26112854 36.68960955 -21.34375 33.05078125 C-26.82176758 27.29183969 -26.93600474 21.4632706 -26.75 13.8046875 C-26.17158053 8.4598691 -24.45584696 5.45011474 -20.34375 2.05078125 C-14.36747227 -1.69904007 -6.64024391 -2.68929878 0 0 Z " fill="#47D77A" transform="translate(711.34375,188.94921875)"/>
<path d="M0 0 C4.97309629 2.93738024 8.73059053 6.46911533 10.58984375 12.046875 C11.30955879 18.98698436 11.30646529 24.66386375 7.08984375 30.42578125 C3.66069764 34.13175947 -0.34036062 36.73751575 -5.42578125 37.25 C-12.19987532 37.39211386 -16.96505167 36.16596564 -22.22265625 31.609375 C-26.98494844 26.03068986 -26.99545524 20.86031268 -26.78515625 13.6953125 C-26.28489105 8.82814902 -25.11993322 6.18882897 -21.41015625 3.046875 C-15.23981036 -1.86421663 -7.45695919 -2.94894334 0 0 Z " fill="#47D77B" transform="translate(232.41015625,188.953125)"/>
<path d="M0 0 C4.38118201 2.48326106 7.42338864 5.84677729 9.6875 10.375 C10.40048073 17.56591993 10.61888568 23.82179882 6.1875 29.7890625 C1.83498927 34.39093582 -2.75668531 36.50127868 -9 36.6875 C-15.15030886 36.59784535 -19.13521188 34.87199285 -23.91796875 31.11328125 C-28.09678444 26.65353678 -27.99742741 21.03390129 -27.90234375 15.22851562 C-27.64978518 10.5735999 -27.14624471 7.08202166 -23.91796875 3.63671875 C-16.7085811 -2.02905305 -8.62656053 -3.86651866 0 0 Z " fill="#F6F7F5" transform="translate(607.3125,117.625)"/>
<path d="M0 0 C5.04667266 2.88381295 5.04667266 2.88381295 7.0625 5.75 C7.56378536 9.50944787 7.43735294 13.2159956 7.3125 17 C7.29445313 18.03125 7.27640625 19.0625 7.2578125 20.125 C7.21072712 22.66761064 7.1449805 25.20833162 7.0625 27.75 C8.7125 27.75 10.3625 27.75 12.0625 27.75 C12.0625 30.39 12.0625 33.03 12.0625 35.75 C10.43786158 35.80395478 8.81271459 35.84277195 7.1875 35.875 C5.83011719 35.90980469 5.83011719 35.90980469 4.4453125 35.9453125 C2.0625 35.75 2.0625 35.75 0.0625 33.75 C0.0625 32.76 0.0625 31.77 0.0625 30.75 C-0.5975 30.75 -1.2575 30.75 -1.9375 30.75 C-2.370625 31.678125 -2.370625 31.678125 -2.8125 32.625 C-3.9375 34.75 -3.9375 34.75 -5.9375 36.75 C-10.60317021 37.41353094 -15.73009552 37.85989123 -20.02734375 35.69921875 C-22.76713067 33.42834402 -24.71131281 31.36562282 -25.2109375 27.796875 C-25.39904273 23.54280282 -25.37320087 20.65017646 -22.625 17.25 C-18.40347115 13.32299642 -14.71742722 13.62113534 -9.25 13.6875 C-8.54810547 13.69201172 -7.84621094 13.69652344 -7.12304688 13.70117188 C-5.39449462 13.71293073 -3.66598635 13.73086546 -1.9375 13.75 C-1.9375 12.1 -1.9375 10.45 -1.9375 8.75 C-4.68828884 7.83307039 -6.29698913 7.64113917 -9.125 7.6875 C-10.383125 7.708125 -11.64125 7.72875 -12.9375 7.75 C-13.5975 9.07 -14.2575 10.39 -14.9375 11.75 C-17.96169525 11.16196203 -20.95508453 10.52321882 -23.9375 9.75 C-23.45696314 5.42516825 -22.27968019 3.51923502 -18.9375 0.75 C-13.41297732 -2.59819557 -5.92684308 -2.34764564 0 0 Z " fill="#47D47B" transform="translate(392.9375,189.25)"/>
<path d="M0 0 C3.51913984 2.09333733 6.6580244 4.33096371 8.62109375 8.01171875 C8.62109375 9.00171875 8.62109375 9.99171875 8.62109375 11.01171875 C9.28109375 11.01171875 9.94109375 11.01171875 10.62109375 11.01171875 C10.62109375 14.31171875 10.62109375 17.61171875 10.62109375 21.01171875 C2.04109375 21.01171875 -6.53890625 21.01171875 -15.37890625 21.01171875 C-13.21223958 26.84505208 -13.21223958 26.84505208 -10.37890625 28.01171875 C-6.96290032 28.42864728 -6.96290032 28.42864728 -3.37890625 28.01171875 C-2.00695051 26.71816048 -0.66707969 25.38873173 0.62109375 24.01171875 C3.60372436 24.19813316 6.00817334 25.61193996 8.62109375 27.01171875 C7.27017851 31.4328959 5.45607925 33.45506175 1.62109375 36.01171875 C-4.3968196 37.95339592 -11.14818176 38.10680168 -16.81640625 35.32421875 C-20.8791641 31.65782752 -25.0760553 27.52059979 -25.75 21.9375 C-25.97243575 9.83437821 -25.97243575 9.83437821 -21.9140625 4.56640625 C-15.98141472 -1.4417205 -8.02251827 -3.332836 0 0 Z " fill="#48D47B" transform="translate(462.37890625,188.98828125)"/>
<path d="M0 0 C4.5998241 2.6684578 6.47979911 5.6706543 8.6875 10.5 C8.6875 13.8 8.6875 17.1 8.6875 20.5 C0.1075 20.5 -8.4725 20.5 -17.3125 20.5 C-14.18074314 26.27260299 -14.18074314 26.27260299 -11.3125 27.5 C-9.16314601 27.51519837 -9.16314601 27.51519837 -6.8125 27.25 C-6.0184375 27.18296875 -5.224375 27.1159375 -4.40625 27.046875 C-1.93114162 26.64822839 -1.93114162 26.64822839 -0.3125 23.5 C5.4375 25.375 5.4375 25.375 7.6875 26.5 C6.12739422 30.71228561 3.2029607 32.84546845 -0.3125 35.5 C-4.94051048 37.04267016 -9.47927726 37.00548031 -14.3125 36.5 C-17.75 34.75 -17.75 34.75 -20.3125 32.5 C-21.055 31.860625 -21.7975 31.22125 -22.5625 30.5625 C-26.82477028 25.53911002 -26.80210071 20.06606398 -26.6875 13.734375 C-26.04662591 8.20683599 -23.87588275 4.78362271 -19.7734375 1.12890625 C-13.83565844 -2.93748747 -6.47923241 -2.73839256 0 0 Z " fill="#47D67B" transform="translate(571.3125,189.5)"/>
<path d="M0 0 C4.58366101 3.19790303 7.17090199 6.84180398 9.6875 11.875 C9.6875 14.845 9.6875 17.815 9.6875 20.875 C1.1075 20.875 -7.4725 20.875 -16.3125 20.875 C-14.83610997 25.93508639 -14.83610997 25.93508639 -11.3125 27.875 C-6.9992465 28.35425039 -5.00663218 28.34760063 -1.375 25.875 C-0.694375 25.215 -0.01375 24.555 0.6875 23.875 C5.4375 25.75 5.4375 25.75 7.6875 26.875 C6.32981796 31.76265533 4.01715579 33.40091098 -0.3125 35.875 C-5.33112411 37.5478747 -10.59210118 37.90847349 -15.60546875 36.00390625 C-19.39272846 33.83671261 -22.71150776 31.2265602 -24.6875 27.23046875 C-26.4621036 20.54243144 -26.87412693 12.71770183 -23.5078125 6.58984375 C-17.2143529 -1.1929933 -9.48217142 -3.22036011 0 0 Z " fill="#F5F6F5" transform="translate(649.3125,117.125)"/>
<path d="M0 0 C5.15940517 3.599585 8.30592901 7.72072925 9.6875 13.875 C9.6875 16.185 9.6875 18.495 9.6875 20.875 C1.1075 20.875 -7.4725 20.875 -16.3125 20.875 C-14.83610997 25.93508639 -14.83610997 25.93508639 -11.3125 27.875 C-6.9992465 28.35425039 -5.00663218 28.34760063 -1.375 25.875 C-0.694375 25.215 -0.01375 24.555 0.6875 23.875 C5.4375 25.75 5.4375 25.75 7.6875 26.875 C6.32981796 31.76265533 4.01715579 33.40091098 -0.3125 35.875 C-5.32475494 37.54575165 -10.61706892 37.94031518 -15.60546875 35.96875 C-20.12747908 33.32171956 -22.77427594 30.54489276 -25.3125 25.875 C-25.70135986 23.03861043 -25.87598206 20.68937126 -25.8125 17.875 C-25.82796875 17.18921875 -25.8434375 16.5034375 -25.859375 15.796875 C-25.82036977 10.68719028 -24.51964823 7.78977524 -21.3125 3.875 C-15.08540565 -1.97139863 -7.91518061 -2.68817455 0 0 Z " fill="#47D67B" transform="translate(800.3125,189.125)"/>
<path d="M0 0 C5.70792288 2.46799713 8.17197855 5.7729316 10.73828125 11.38671875 C10.73828125 14.68671875 10.73828125 17.98671875 10.73828125 21.38671875 C2.15828125 21.38671875 -6.42171875 21.38671875 -15.26171875 21.38671875 C-12.12996189 27.15932174 -12.12996189 27.15932174 -9.26171875 28.38671875 C-4.11692297 28.91631583 -4.11692297 28.91631583 0.17578125 26.38671875 C0.69140625 25.72671875 1.20703125 25.06671875 1.73828125 24.38671875 C7.48828125 26.26171875 7.48828125 26.26171875 9.73828125 27.38671875 C8.17817547 31.59900436 5.25374195 33.7321872 1.73828125 36.38671875 C-3.66805267 38.18883006 -9.21747999 38.11955906 -14.57421875 36.19921875 C-19.38423279 32.9552558 -22.44074738 29.92247173 -24.26171875 24.38671875 C-24.99982874 17.88751654 -24.71956708 12.07543697 -21.26171875 6.38671875 C-14.90555036 -0.10186981 -9.10116881 -2.46784715 0 0 Z " fill="#47D77B" transform="translate(648.26171875,188.61328125)"/>
<path d="M0 0 C2.97 0 5.94 0 9 0 C9 6.27 9 12.54 9 19 C11.64 17.35 14.28 15.7 17 14 C22.23080282 13.27850996 25.57506107 14.14837269 30 17 C34.13049141 21.57703103 35.12616435 24.00082855 35.09765625 30.1015625 C35.09443359 31.31328125 35.09121094 32.525 35.08789062 33.7734375 C35.07532227 35.67996094 35.07532227 35.67996094 35.0625 37.625 C35.05798828 38.90375 35.05347656 40.1825 35.04882812 41.5 C35.03701203 44.66671292 35.02053815 47.83333356 35 51 C32.03 51 29.06 51 26 51 C25.9906543 50.25838623 25.98130859 49.51677246 25.97167969 48.75268555 C25.91804249 45.39694286 25.83438207 42.04260438 25.75 38.6875 C25.73582031 37.52025391 25.72164063 36.35300781 25.70703125 35.15039062 C25.67480469 34.03212891 25.64257812 32.91386719 25.609375 31.76171875 C25.58842773 30.73006592 25.56748047 29.69841309 25.54589844 28.63549805 C25.23134224 25.88989974 25.23134224 25.88989974 23.14550781 24.17114258 C20.14678371 22.53426508 18.36950962 22.44987598 15 23 C11.87842811 25.11952884 10.23132464 26.7989396 9.50561523 30.56689453 C9.28309123 33.65668249 9.20453045 36.7148506 9.1875 39.8125 C9.16236328 40.88693359 9.13722656 41.96136719 9.11132812 43.06835938 C9.05256705 45.71260771 9.01620624 48.35520488 9 51 C6.03 51 3.06 51 0 51 C0 34.17 0 17.34 0 0 Z " fill="#F2F6F6" transform="translate(428,102)"/>
<path d="M0 0 C7.92 0 15.84 0 24 0 C24 2.97 24 5.94 24 9 C22.02 9 20.04 9 18 9 C18.02094727 9.96824707 18.04189453 10.93649414 18.06347656 11.93408203 C18.13618512 15.54574645 18.18191056 19.15734691 18.21972656 22.76953125 C18.23977222 24.32921244 18.26701657 25.88881913 18.30175781 27.44824219 C18.35059126 29.69745314 18.37303815 31.9456659 18.390625 34.1953125 C18.41127014 34.8861795 18.43191528 35.57704651 18.45318604 36.28884888 C18.45549283 41.32989523 17.12345332 44.10329269 14 48 C9.46755584 51.98305699 5.33239899 52.29113967 -0.5 52.21484375 C-6.45154053 51.70338324 -10.23666467 48.40847853 -14 44 C-15.44961775 39.73168106 -15.06554825 35.45728092 -15 31 C-11.7 31 -8.4 31 -5 31 C-4.87882812 31.71027344 -4.75765625 32.42054688 -4.6328125 33.15234375 C-4.46523438 34.07144531 -4.29765625 34.99054688 -4.125 35.9375 C-3.96257812 36.85402344 -3.80015625 37.77054688 -3.6328125 38.71484375 C-3.42398437 39.46894531 -3.21515625 40.22304687 -3 41 C-0.17116253 42.41441874 1.87376745 42.31900332 5 42 C8.37262436 38.75092772 8.4121304 35.80685359 8.51171875 31.265625 C8.54716797 29.97011719 8.58261719 28.67460937 8.61914062 27.33984375 C8.64223867 25.97656774 8.66502114 24.61328636 8.6875 23.25 C8.72068648 21.87106138 8.75517738 20.4921535 8.79101562 19.11328125 C8.87352291 15.74226941 8.94266771 12.37151872 9 9 C6.03 9 3.06 9 0 9 C0 6.03 0 3.06 0 0 Z " fill="#F8F9F6" transform="translate(355,102)"/>
<path d="M0 0 C4.83185166 1.7394666 8.75619756 4.28886239 11 9 C11.6195977 13.80527416 11.47010084 18.54029109 11.3125 23.375 C11.28994141 24.68339844 11.26738281 25.99179688 11.24414062 27.33984375 C11.18535914 30.56106887 11.10322731 33.7799432 11 37 C8.03 37 5.06 37 2 37 C1.97494385 36.25314941 1.9498877 35.50629883 1.92407227 34.73681641 C1.80831787 31.36602733 1.68549872 27.99553217 1.5625 24.625 C1.52318359 23.449375 1.48386719 22.27375 1.44335938 21.0625 C1.40146484 19.94101563 1.35957031 18.81953125 1.31640625 17.6640625 C1.27974854 16.62717285 1.24309082 15.5902832 1.20532227 14.52197266 C1.15835777 12.00574834 1.15835777 12.00574834 0 10 C-2.02136039 9.4934364 -2.02136039 9.4934364 -4.375 9.3125 C-5.56222656 9.18294922 -5.56222656 9.18294922 -6.7734375 9.05078125 C-9.17476726 8.87060211 -9.17476726 8.87060211 -12 10 C-13.01587978 13.04763934 -13.19804406 15.34718967 -13.31640625 18.54296875 C-13.35830078 19.61611328 -13.40019531 20.68925781 -13.44335938 21.79492188 C-13.50233398 23.47424805 -13.50233398 23.47424805 -13.5625 25.1875 C-13.60568359 26.31865234 -13.64886719 27.44980469 -13.69335938 28.61523438 C-13.79949099 31.41003354 -13.90154385 34.20492162 -14 37 C-16.97 37 -19.94 37 -23 37 C-23 25.12 -23 13.24 -23 1 C-20.03 1 -17.06 1 -14 1 C-13.67 2.32 -13.34 3.64 -13 5 C-12.154375 4.175 -11.30875 3.35 -10.4375 2.5 C-6.95722272 -0.38248848 -4.53293758 -0.64756251 0 0 Z " fill="#F5F8F6" transform="translate(496,116)"/>
<path d="M0 0 C3.3 0 6.6 0 10 0 C10 3.63 10 7.26 10 11 C13.3 11 16.6 11 20 11 C20 13.64 20 16.28 20 19 C16.7 19 13.4 19 10 19 C10 25.6 10 32.2 10 39 C12.97 39 15.94 39 19 39 C19 41.64 19 44.28 19 47 C16.75106046 47.10823773 14.50062425 47.18569645 12.25 47.25 C10.99703125 47.29640625 9.7440625 47.3428125 8.453125 47.390625 C5 47 5 47 2.609375 45.109375 C0.11525606 41.84038415 -0.12099624 40.05334567 -0.09765625 35.9921875 C-0.09443359 35.00605469 -0.09121094 34.01992187 -0.08789062 33.00390625 C-0.07951172 31.97136719 -0.07113281 30.93882812 -0.0625 29.875 C-0.05798828 28.83472656 -0.05347656 27.79445312 -0.04882812 26.72265625 C-0.03701952 24.14838038 -0.02055075 21.57421854 0 19 C-2.97 19 -5.94 19 -9 19 C-9 16.36 -9 13.72 -9 11 C-6.03 11 -3.06 11 0 11 C0 7.37 0 3.74 0 0 Z " fill="#45CD77" transform="translate(286,178)"/>
<path d="M0 0 C1.90845703 0.04060547 1.90845703 0.04060547 3.85546875 0.08203125 C5.31919922 0.13423828 5.31919922 0.13423828 6.8125 0.1875 C6.8125 2.4975 6.8125 4.8075 6.8125 7.1875 C4.5025 7.5175 2.1925 7.8475 -0.1875 8.1875 C-0.5175 10.1675 -0.8475 12.1475 -1.1875 14.1875 C2.1125 14.1875 5.4125 14.1875 8.8125 14.1875 C8.8125 16.8275 8.8125 19.4675 8.8125 22.1875 C5.5125 22.1875 2.2125 22.1875 -1.1875 22.1875 C-1.1875 31.4275 -1.1875 40.6675 -1.1875 50.1875 C-4.1575 50.1875 -7.1275 50.1875 -10.1875 50.1875 C-10.1875 40.9475 -10.1875 31.7075 -10.1875 22.1875 C-13.1575 22.1875 -16.1275 22.1875 -19.1875 22.1875 C-19.1875 19.5475 -19.1875 16.9075 -19.1875 14.1875 C-16.2175 14.1875 -13.2475 14.1875 -10.1875 14.1875 C-10.22230469 13.42824219 -10.25710937 12.66898438 -10.29296875 11.88671875 C-10.33357422 10.39591797 -10.33357422 10.39591797 -10.375 8.875 C-10.42720703 7.39580078 -10.42720703 7.39580078 -10.48046875 5.88671875 C-10.1875 3.1875 -10.1875 3.1875 -9.125 1.34375 C-6.11948318 -0.44986487 -3.45306822 -0.09503857 0 0 Z " fill="#47D87B" transform="translate(266.1875,174.8125)"/>
<path d="M0 0 C2.97 0 5.94 0 9 0 C11.22302233 5.70423618 13.06889645 11.4102206 14.6875 17.3125 C14.91244141 18.10978516 15.13738281 18.90707031 15.36914062 19.72851562 C15.58119141 20.49486328 15.79324219 21.26121094 16.01171875 22.05078125 C16.20209717 22.73825439 16.39247559 23.42572754 16.58862305 24.1340332 C17 26 17 26 17 29 C17.66 29 18.32 29 19 29 C19.11472656 28.03449219 19.22945312 27.06898438 19.34765625 26.07421875 C19.99631298 21.54502155 21.19418315 17.20941937 22.4375 12.8125 C22.65470703 12.01908203 22.87191406 11.22566406 23.09570312 10.40820312 C24.1485734 6.64253198 25.2305819 3.5388362 27 0 C29.97 0 32.94 0 36 0 C35.35803766 4.58895569 34.19604334 8.76108682 32.71484375 13.1484375 C32.3840255 14.13452499 32.3840255 14.13452499 32.04652405 15.14053345 C31.34776438 17.22014841 30.64274459 19.29757641 29.9375 21.375 C29.45986966 22.79282841 28.98265196 24.2107959 28.50585938 25.62890625 C27.3427649 29.08784808 26.17121177 32.54375618 25 36 C20.38 36 15.76 36 11 36 C8.34573136 29.14244159 6.05695964 22.18875296 3.8125 15.1875 C3.44447266 14.05634766 3.07644531 12.92519531 2.69726562 11.75976562 C2.34986328 10.67759766 2.00246094 9.59542969 1.64453125 8.48046875 C1.32846924 7.49973389 1.01240723 6.51899902 0.68676758 5.50854492 C0 3 0 3 0 0 Z " fill="#46D67A" transform="translate(584,189)"/>
<path d="M0 0 C10 0 10 0 13.0625 2.4375 C13.701875 3.283125 14.34125 4.12875 15 5 C15.33 5.33 15.66 5.66 16 6 C16.30743828 9.40768826 16.27843776 12.83015122 16.3125 16.25 C16.34150391 17.20519531 16.37050781 18.16039062 16.40039062 19.14453125 C16.46451453 26.23762152 16.46451453 26.23762152 14.10546875 30.109375 C9.18764722 34.52537801 8.46895058 33 0 33 C0 22.11 0 11.22 0 0 Z " fill="#111412" transform="translate(513,183)"/>
<path d="M0 0 C2.97 0 5.94 0 9 0 C9 16.83 9 33.66 9 51 C6.03 51 3.06 51 0 51 C0 34.17 0 17.34 0 0 Z " fill="#44D57E" transform="translate(667,174)"/>
<path d="M0 0 C2.97 0 5.94 0 9 0 C9.33 0.99 9.66 1.98 10 3 C10.66 2.01 11.32 1.02 12 0 C14.1640625 -0.29296875 14.1640625 -0.29296875 16.625 -0.1875 C17.44226563 -0.16042969 18.25953125 -0.13335937 19.1015625 -0.10546875 C20.04128906 -0.05326172 20.04128906 -0.05326172 21 0 C21 2.64 21 5.28 21 8 C19.01432292 8.22786458 17.02864583 8.45572917 15.04296875 8.68359375 C12.80603607 8.97170735 12.80603607 8.97170735 10 10 C9.67 18.58 9.34 27.16 9 36 C6.03 36 3.06 36 0 36 C0 24.12 0 12.24 0 0 Z " fill="#49D97C" transform="translate(412,189)"/>
<path d="M0 0 C2.97 0 5.94 0 9 0 C9 1.32 9 2.64 9 4 C9.66 4 10.32 4 11 4 C11.33 3.01 11.66 2.02 12 1 C14.95664519 -0.4783226 17.74229737 -0.06032783 21 0 C21 2.64 21 5.28 21 8 C19.01432292 8.16276042 17.02864583 8.32552083 15.04296875 8.48828125 C12.44713895 9.13847954 11.63567024 9.88659575 10 12 C9.49520343 14.6068023 9.49520343 14.6068023 9.48828125 17.54296875 C9.45283203 18.61611328 9.41738281 19.68925781 9.38085938 20.79492188 C9.35830078 21.91447266 9.33574219 23.03402344 9.3125 24.1875 C9.27833984 25.31865234 9.24417969 26.44980469 9.20898438 27.61523438 C9.12643686 30.4100574 9.05730818 33.20456398 9 36 C6.03 36 3.06 36 0 36 C0 24.12 0 12.24 0 0 Z " fill="#47DB7D" transform="translate(818,189)"/>
<path d="M0 0 C5.57894737 3.15789474 5.57894737 3.15789474 7 6 C7.53926202 10.91524067 7.42308567 14.95148335 5.5625 19.5625 C2.43380849 22.53857242 0.42675842 23.02979076 -3.80859375 23.24609375 C-7.13298239 22.87276668 -8.78806237 21.41930678 -11 19 C-13.11145525 14.7770895 -12.63969313 9.57532897 -12 5 C-9.30751386 0.46283478 -5.06861941 -0.95036614 0 0 Z " fill="#010404" transform="translate(752,196)"/>
<path d="M0 0 C2.5625 1.375 2.5625 1.375 4 4 C4.74390153 9.08202204 4.72428368 13.42547026 2.5625 18.125 C-1.10492104 20.80847881 -4.48768325 21.43434065 -9 21 C-11.92143417 19.23496686 -13.47923817 18.04152365 -15 15 C-15.54989187 10.67743226 -16.12722476 6.06084222 -13.9765625 2.12890625 C-9.7740795 -1.96909513 -5.20659125 -1.57086909 0 0 Z " fill="#060507" transform="translate(558,125)"/>
<path d="M0 0 C5.57894737 3.15789474 5.57894737 3.15789474 7 6 C7.43808718 10.28819956 7.44926618 13.94422448 5.75 17.9375 C3.04700062 21.12317784 1.18521457 21.84869601 -2.9375 22.375 C-6.7368243 21.90977662 -8.28638434 20.63608379 -11 18 C-12.99232843 14.01534314 -12.65385266 9.32165474 -12 5 C-9.24195699 0.51460134 -5.07777977 -0.95208371 0 0 Z " fill="#020605" transform="translate(706,196)"/>
<path d="M0 0 C5.57894737 3.15789474 5.57894737 3.15789474 7 6 C7.43808718 10.28819956 7.44926618 13.94422448 5.75 17.9375 C3.04700062 21.12317784 1.18521457 21.84869601 -2.9375 22.375 C-6.7368243 21.90977662 -8.28638434 20.63608379 -11 18 C-12.99232843 14.01534314 -12.65385266 9.32165474 -12 5 C-9.24195699 0.51460134 -5.07777977 -0.95208371 0 0 Z " fill="#0A0E0D" transform="translate(227,196)"/>
<path d="M0 0 C5.57894737 3.15789474 5.57894737 3.15789474 7 6 C7.43808718 10.28819956 7.44926618 13.94422448 5.75 17.9375 C3.04700062 21.12317784 1.18521457 21.84869601 -2.9375 22.375 C-6.7368243 21.90977662 -8.28638434 20.63608379 -11 18 C-12.99232843 14.01534314 -12.65385266 9.32165474 -12 5 C-9.24195699 0.51460134 -5.07777977 -0.95208371 0 0 Z " fill="#070709" transform="translate(601,124)"/>
<path d="M0 0 C5.57894737 3.15789474 5.57894737 3.15789474 7 6 C7.43808718 10.28819956 7.44926618 13.94422448 5.75 17.9375 C3.04700062 21.12317784 1.18521457 21.84869601 -2.9375 22.375 C-6.7368243 21.90977662 -8.28638434 20.63608379 -11 18 C-12.99232843 14.01534314 -12.65385266 9.32165474 -12 5 C-9.24195699 0.51460134 -5.07777977 -0.95208371 0 0 Z " fill="#272729" transform="translate(404,124)"/>
<path d="M0 0 C6.6 0 13.2 0 20 0 C21.36538938 2.73077876 21.13231826 4.95560367 21.125 8 C21.12886719 9.60875 21.12886719 9.60875 21.1328125 11.25 C21 14 21 14 20 16 C13.4 16 6.8 16 0 16 C0 10.72 0 5.44 0 0 Z " fill="#E8E8E8" transform="translate(592,352)"/>
<path d="M0 0 C3.7742893 1.16659851 5.30801297 1.74050024 7.4375 5.0625 C8.12395725 9.24988925 8.42074756 11.5535276 6.0859375 15.13671875 C4.60394848 16.86804715 3.08721851 18.49133952 1.4375 20.0625 C-2.29023314 19.84948668 -3.56349259 19.06159564 -6.375 16.5 C-8.24974348 14.02414829 -8.98192492 12.10124697 -9.1875 9 C-8.5625 5.0625 -8.5625 5.0625 -6.5 2 C-3.5625 0.0625 -3.5625 0.0625 0 0 Z " fill="#111111" transform="translate(214.5625,349.9375)"/>
<path d="M0 0 C1.875 2 1.875 2 3 4 C3.70125 3.34 4.4025 2.68 5.125 2 C8.47798748 -0.33251303 10.00199836 -0.60839155 14 0 C15.875 1.25 15.875 1.25 17 3 C17 4.32 17 5.64 17 7 C12.545 7.495 12.545 7.495 8 8 C9.18424326 9.41577477 9.18424326 9.41577477 12.5625 9.0625 C13.696875 9.041875 14.83125 9.02125 16 9 C15.01 10.485 15.01 10.485 14 12 C10.02524236 12.61829563 8.4580898 12.31867116 5.125 10 C4.42375 9.34 3.7225 8.68 3 8 C2.62875 8.66 2.2575 9.32 1.875 10 C0 12 0 12 -3 12.4375 C-6 12 -6 12 -7.875 10.875 C-9.52854531 8.11909116 -9.39365568 6.14924548 -9 3 C-6.79848461 -0.66919231 -4.00961374 -0.58473534 0 0 Z " fill="#0D0706" transform="translate(651,264)"/>
<path d="M0 0 C1.58246707 -0.08153933 3.16616273 -0.13943557 4.75 -0.1875 C6.07257813 -0.23970703 6.07257813 -0.23970703 7.421875 -0.29296875 C10.53517486 0.06081533 11.82919198 0.75450821 14 3 C15.08804271 7.27216772 14.40524788 11.09740245 12.625 15.0625 C8.64156176 18.00265679 4.78835866 17.41121401 0 17 C0 16.34 0 15.68 0 15 C0.66 15 1.32 15 2 15 C2 10.71 2 6.42 2 2 C1.34 2 0.68 2 0 2 C0 1.34 0 0.68 0 0 Z " fill="#BDAC95" transform="translate(394,259)"/>
<path d="M0 0 C1.98 0 3.96 0 6 0 C7.125 6.625 7.125 6.625 6 10 C7.60204619 12.18712805 7.60204619 12.18712805 10 14 C13.02019764 13.74664647 13.02019764 13.74664647 16 13 C18.375 13.4375 18.375 13.4375 20 14 C20 15.98 20 17.96 20 20 C10.6468831 20.91332425 10.6468831 20.91332425 6.78125 18.76953125 C3.99342122 16.3774324 2.04559718 14.06839576 0 11 C-0.1953125 8.30078125 -0.1953125 8.30078125 -0.125 5.3125 C-0.10695313 4.31863281 -0.08890625 3.32476562 -0.0703125 2.30078125 C-0.04710937 1.54152344 -0.02390625 0.78226562 0 0 Z " fill="#D4D4D4" transform="translate(415,350)"/>
<path d="M0 0 C2.88553382 1.99767726 3.82718011 3.11429804 4.5 6.5625 C4 9 4 9 2 10.6875 C1.34 11.120625 0.68 11.55375 0 12 C0 12.66 0 13.32 0 14 C-3.25 14.3125 -3.25 14.3125 -7 14 C-9.69500656 11.58140437 -10.80636871 9.99236035 -11.5 6.4375 C-10.19781462 0.08934627 -5.87567428 -0.83938204 0 0 Z " fill="#656564" transform="translate(715,354)"/>
<path d="M0 0 C0.99 0 1.98 0 3 0 C3 3.96 3 7.92 3 12 C3.99 12 4.98 12 6 12 C5.690625 10.824375 5.690625 10.824375 5.375 9.625 C5.25125 8.75875 5.1275 7.8925 5 7 C7 5 7 5 10.125 4.875 C11.07375 4.91625 12.0225 4.9575 13 5 C13.66 6.32 14.32 7.64 15 9 C12.69 8.34 10.38 7.68 8 7 C8 7.99 8 8.98 8 10 C8.78375 9.95875 9.5675 9.9175 10.375 9.875 C13 10 13 10 15 12 C15 13.32 15 14.64 15 16 C12.19084526 17.40457737 10.11189466 17.24895157 7 17 C4.625 15.5 4.625 15.5 3 14 C3 14.99 3 15.98 3 17 C2.01 17 1.02 17 0 17 C0 11.39 0 5.78 0 0 Z " fill="#6D6C62" transform="translate(477,259)"/>
<path d="M0 0 C2.5625 0.25 2.5625 0.25 5.5625 2.25 C6.2225 1.59 6.8825 0.93 7.5625 0.25 C10.6875 0.625 10.6875 0.625 13.5625 1.25 C13.5625 2.9 13.5625 4.55 13.5625 6.25 C11.5825 6.91 9.6025 7.57 7.5625 8.25 C7.5625 8.91 7.5625 9.57 7.5625 10.25 C9.5425 10.25 11.5225 10.25 13.5625 10.25 C13.5625 10.58 13.5625 10.91 13.5625 11.25 C8.22916667 11.25 2.89583333 11.25 -2.4375 11.25 C-2.4375 10.26 -2.4375 9.27 -2.4375 8.25 C-1.1175 8.58 0.2025 8.91 1.5625 9.25 C1.5625 8.59 1.5625 7.93 1.5625 7.25 C-0.0875 6.92 -1.7375 6.59 -3.4375 6.25 C-4.0625 4.375 -4.0625 4.375 -4.4375 2.25 C-2.4375 0.25 -2.4375 0.25 0 0 Z " fill="#6F6D67" transform="translate(487.4375,353.75)"/>
<path d="M0 0 C1.423125 -0.061875 2.84625 -0.12375 4.3125 -0.1875 C5.51326172 -0.23970703 5.51326172 -0.23970703 6.73828125 -0.29296875 C9 0 9 0 10.76953125 1.32421875 C12.6691714 3.91134772 12.38880875 5.88952999 12 9 C10.9375 10.9375 10.9375 10.9375 9 12 C5.3125 11.6875 5.3125 11.6875 2 11 C2 12.98 2 14.96 2 17 C1.34 17 0.68 17 0 17 C0 11.39 0 5.78 0 0 Z " fill="#BBA98E" transform="translate(359,264)"/>
<path d="M0 0 C0.66 0 1.32 0 2 0 C2 5.61 2 11.22 2 17 C-1.81207261 17 -5.25801961 16.70603404 -9 16 C-10.52150158 12.95699684 -10.23899393 10.345915 -10 7 C-6.77786243 4.85190829 -5.72224599 4.70613847 -2 5 C-1.67 5.33 -1.34 5.66 -1 6 C-0.67 4.02 -0.34 2.04 0 0 Z " fill="#BBB29A" transform="translate(728,259)"/>
<path d="M0 0 C0.66 0 1.32 0 2 0 C2 5.61 2 11.22 2 17 C-1.81207261 17 -5.25801961 16.70603404 -9 16 C-10.52150158 12.95699684 -10.23899393 10.345915 -10 7 C-6.77786243 4.85190829 -5.72224599 4.70613847 -2 5 C-1.67 5.33 -1.34 5.66 -1 6 C-0.67 4.02 -0.34 2.04 0 0 Z " fill="#BBB29B" transform="translate(292,259)"/>
<path d="M0 0 C3.79819843 0 7.26155861 0.36517033 11 1 C12 2 12 2 12.25 5.375 C12 9 12 9 10.8125 10.9375 C8.41243666 12.34443368 6.73531209 12.28792759 4 12 C3.67 11.67 3.34 11.34 3 11 C2.67 12.98 2.34 14.96 2 17 C1.34 17 0.68 17 0 17 C0 11.39 0 5.78 0 0 Z " fill="#B1B5AF" transform="translate(487,296)"/>
<path d="M0 0 C0.66 0 1.32 0 2 0 C2.33 1.98 2.66 3.96 3 6 C3.33 5.67 3.66 5.34 4 5 C10.72 5.72 10.72 5.72 12 7 C12.4626087 13.24521739 12.4626087 13.24521739 10.8125 15.9375 C8.39757734 17.35314432 6.76729793 17.20248521 4 17 C2.68 17 1.36 17 0 17 C0 11.39 0 5.78 0 0 Z " fill="#B1B4AE" transform="translate(436,291)"/>
<path d="M0 0 C8 0 8 0 10.5 1.125 C12 3 12 3 12.4375 6 C12 9 12 9 10.9375 10.9375 C7.87530347 12.61676907 5.30629059 11.68621125 2 11 C2 12.98 2 14.96 2 17 C1.34 17 0.68 17 0 17 C0 11.39 0 5.78 0 0 Z " fill="#B7C0BE" transform="translate(472,296)"/>
<path d="M0 0 C6.93 0 13.86 0 21 0 C21.33 1.65 21.66 3.3 22 5 C20.02 4.34 18.04 3.68 16 3 C15.566875 3.9590625 15.566875 3.9590625 15.125 4.9375 C14 7 14 7 12 8 C7.50374717 8.50900975 5.67972006 8.53509877 2.0625 5.6875 C0 3 0 3 0 0 Z " fill="#282B28" transform="translate(447,210)"/>
<path d="M0 0 C0.99 0 1.98 0 3 0 C3 2.31 3 4.62 3 7 C3.99 7 4.98 7 6 7 C5.690625 5.824375 5.690625 5.824375 5.375 4.625 C5.25125 3.75875 5.1275 2.8925 5 2 C7 0 7 0 10.125 -0.125 C11.07375 -0.08375 12.0225 -0.0425 13 0 C13.66 1.32 14.32 2.64 15 4 C12.69 3.34 10.38 2.68 8 2 C8 2.99 8 3.98 8 5 C10.97 5.495 10.97 5.495 14 6 C14.33 7.65 14.66 9.3 15 11 C12.19084526 12.40457737 10.11189466 12.24895157 7 12 C4.625 10.5 4.625 10.5 3 9 C3 9.99 3 10.98 3 12 C2.01 12 1.02 12 0 12 C0 8.04 0 4.08 0 0 Z " fill="#ACB3B0" transform="translate(430,264)"/>
<path d="M0 0 C3 2 3 2 3.3984375 3.875 C3.39070313 4.57625 3.38296875 5.2775 3.375 6 C3.38273437 6.70125 3.39046875 7.4025 3.3984375 8.125 C3 10 3 10 0 12 C-3 12.375 -3 12.375 -6 12 C-8.35210784 9.88310295 -8.91810953 8.55958485 -9.375 5.4375 C-9 3 -9 3 -7.875 1.1875 C-5.15523346 -0.53501881 -3.15413751 -0.32855599 0 0 Z " fill="#939EA4" transform="translate(352,264)"/>
<path d="M0 0 C2.88437779 1.29299694 4.87219421 2.65941363 7 5 C9.88437779 3.70700306 11.87219421 2.34058637 14 0 C15.32 0.66 16.64 1.32 18 2 C16.59155282 5.21524305 14.89655214 7.32183868 12.375 9.75 C11.74335938 10.36359375 11.11171875 10.9771875 10.4609375 11.609375 C9.73777344 12.29773438 9.73777344 12.29773438 9 13 C5.78475695 11.59155282 3.67816132 9.89655214 1.25 7.375 C0.63640625 6.74335938 0.0228125 6.11171875 -0.609375 5.4609375 C-1.29773438 4.73777344 -1.29773438 4.73777344 -2 4 C-1.34 2.68 -0.68 1.36 0 0 Z " fill="#F4F4F4" transform="translate(492,421)"/>
<path d="M0 0 C1.875 1.125 1.875 1.125 3 3 C3.39365568 6.14924548 3.52854531 8.11909116 1.875 10.875 C-0.88090884 12.52854531 -2.85075452 12.39365568 -6 12 C-7.875 10.875 -7.875 10.875 -9 9 C-9.39365568 5.85075452 -9.52854531 3.88090884 -7.875 1.125 C-5.11909116 -0.52854531 -3.14924548 -0.39365568 0 0 Z " fill="#AAB4B1" transform="translate(567,296)"/>
<path d="M0 0 C1.216875 0.70125 2.43375 1.4025 3.6875 2.125 C7.02264511 3.85372764 7.02264511 3.85372764 10.6875 3.375 C11.450625 2.92125 12.21375 2.4675 13 2 C14.66666667 1.33333333 16.33333333 0.66666667 18 0 C18.09765625 6.15234375 18.09765625 6.15234375 18 8 C17 9 17 9 13.18359375 9.09765625 C11.60153318 9.09098089 10.01948841 9.07901875 8.4375 9.0625 C7.63119141 9.05798828 6.82488281 9.05347656 5.99414062 9.04882812 C3.99606244 9.03700518 1.99802217 9.01906914 0 9 C0 6.03 0 3.06 0 0 Z " fill="#0E0E0E" transform="translate(593,358)"/>
<path d="M0 0 C12.375 0 12.375 0 17 1 C17.33 2.32 17.66 3.64 18 5 C13.25 8 13.25 8 11 8 C11 8.66 11 9.32 11 10 C13.31 10 15.62 10 18 10 C18 10.33 18 10.66 18 11 C12.66666667 11 7.33333333 11 2 11 C1.34 9.68 0.68 8.36 0 7 C1.485 7.99 1.485 7.99 3 9 C3.99 9 4.98 9 6 9 C6 8.01 6 7.02 6 6 C5.01 5.67 4.02 5.34 3 5 C3.33 4.01 3.66 3.02 4 2 C2.68 1.34 1.36 0.68 0 0 Z " fill="#818480" transform="translate(519,354)"/>
<path d="M0 0 C12.375 0 12.375 0 17 1 C17.33 2.32 17.66 3.64 18 5 C13.25 8 13.25 8 11 8 C11 8.66 11 9.32 11 10 C13.31 10 15.62 10 18 10 C18 10.33 18 10.66 18 11 C12.66666667 11 7.33333333 11 2 11 C1.34 9.68 0.68 8.36 0 7 C1.485 7.99 1.485 7.99 3 9 C3.99 9 4.98 9 6 9 C6 8.01 6 7.02 6 6 C5.01 5.67 4.02 5.34 3 5 C3.33 4.01 3.66 3.02 4 2 C2.68 1.34 1.36 0.68 0 0 Z " fill="#81837F" transform="translate(545,354)"/>
<path d="M0 0 C0.99 0 1.98 0 3 0 C3.33 0.66 3.66 1.32 4 2 C4.66 1.34 5.32 0.68 6 0 C8.5 -0.25 8.5 -0.25 11 0 C13 2 13 2 13 4 C12 6 12 6 8.9375 7.25 C7.968125 7.4975 6.99875 7.745 6 8 C6 8.66 6 9.32 6 10 C8.31 10 10.62 10 13 10 C13 10.33 13 10.66 13 11 C9.04 11 5.08 11 1 11 C0.67 8.69 0.34 6.38 0 4 C-0.99 4 -1.98 4 -3 4 C-1.6875 2 -1.6875 2 0 0 Z " fill="#7C7F7A" transform="translate(505,354)"/>
<path d="M0 0 C1.09054687 0.02320313 2.18109375 0.04640625 3.3046875 0.0703125 C4.40039062 0.08835938 5.49609375 0.10640625 6.625 0.125 C7.46804688 0.14820313 8.31109375 0.17140625 9.1796875 0.1953125 C8.93744477 3.82895352 8.80022512 5.6295282 6.0546875 8.1328125 C2.37865394 9.49134664 -0.04195521 9.06724111 -3.8203125 8.1953125 C-4.8203125 7.1953125 -4.8203125 7.1953125 -5.0078125 4.7578125 C-4.73185695 0.98641995 -3.7248664 0.25795474 0 0 Z " fill="#2A312D" transform="translate(381.8203125,209.8046875)"/>
<path d="M0 0 C5.28 0 10.56 0 16 0 C16 1.32 16 2.64 16 4 C9.88736264 8.15659341 9.88736264 8.15659341 5.8125 7.4375 C3.28691014 6.14664296 1.16133435 4.82882137 -1 3 C-0.67 2.01 -0.34 1.02 0 0 Z " fill="#111111" transform="translate(594,353)"/>
<path d="M0 0 C1.875 1.25 1.875 1.25 3 3 C3 4.32 3 5.64 3 7 C0.03 7 -2.94 7 -6 7 C-5.67 7.66 -5.34 8.32 -5 9 C-1.37114676 9.15149298 -1.37114676 9.15149298 2 8 C2 8.99 2 9.98 2 11 C-0.82883747 12.41441874 -2.87376745 12.31900332 -6 12 C-8.35210784 9.88310295 -8.91810953 8.55958485 -9.375 5.4375 C-9 3 -9 3 -7.875 1.1875 C-5.12844028 -0.55198782 -3.18153026 -0.39769128 0 0 Z " fill="#A6A9A6" transform="translate(543,264)"/>
<path d="M0 0 C1.2065625 0.0309375 1.2065625 0.0309375 2.4375 0.0625 C3.0975 1.3825 3.7575 2.7025 4.4375 4.0625 C5.0975 2.7425 5.7575 1.4225 6.4375 0.0625 C7.7575 0.3925 9.0775 0.7225 10.4375 1.0625 C9.4475 1.0625 8.4575 1.0625 7.4375 1.0625 C7.4375 1.7225 7.4375 2.3825 7.4375 3.0625 C9.0875 3.3925 10.7375 3.7225 12.4375 4.0625 C12.1075 5.3825 11.7775 6.7025 11.4375 8.0625 C6.6875 8.1875 6.6875 8.1875 4.4375 7.0625 C2.10335471 7.39009934 -0.23002239 7.72323053 -2.5625 8.0625 C-3.5625 7.0625 -3.5625 7.0625 -3.6875 4.0625 C-3.52180824 0.08589776 -3.52180824 0.08589776 0 0 Z " fill="#676462" transform="translate(305.5625,356.9375)"/>
<path d="M0 0 C1.875 1.25 1.875 1.25 3 3 C3 4.32 3 5.64 3 7 C-1.455 7.495 -1.455 7.495 -6 8 C-4.81575674 9.41577477 -4.81575674 9.41577477 -1.4375 9.0625 C0.2640625 9.0315625 0.2640625 9.0315625 2 9 C1.01 10.485 1.01 10.485 0 12 C-3.1305429 12.39964378 -5.13083761 12.52149743 -7.875 10.875 C-9.52854531 8.11909116 -9.39365568 6.14924548 -9 3 C-6.79086995 -0.68188342 -4.01844539 -0.50230567 0 0 Z " fill="#AFAAA0" transform="translate(306,264)"/>
<path d="M0 0 C1.875 1.25 1.875 1.25 3 3 C3 4.32 3 5.64 3 7 C-1.455 7.495 -1.455 7.495 -6 8 C-4.81575674 9.41577477 -4.81575674 9.41577477 -1.4375 9.0625 C0.2640625 9.0315625 0.2640625 9.0315625 2 9 C1.01 10.485 1.01 10.485 0 12 C-3.1305429 12.39964378 -5.13083761 12.52149743 -7.875 10.875 C-9.52854531 8.11909116 -9.39365568 6.14924548 -9 3 C-6.79086995 -0.68188342 -4.01844539 -0.50230567 0 0 Z " fill="#B6B8B4" transform="translate(665,264)"/>
<path d="M0 0 C3.96 0 7.92 0 12 0 C12 0.99 12 1.98 12 3 C9.5 4.6875 9.5 4.6875 7 6 C7.825 6.391875 8.65 6.78375 9.5 7.1875 C12 9 12 9 12.5 11.5 C12 14 12 14 10.875 15.8125 C8.15523346 17.53501881 6.15413751 17.32855599 3 17 C2.01 16.34 1.02 15.68 0 15 C0 13.68 0 12.36 0 11 C0.66 11 1.32 11 2 11 C2.33 11.99 2.66 12.98 3 14 C4.65 14 6.3 14 8 14 C8.33 12.35 8.66 10.7 9 9 C7.02 9 5.04 9 3 9 C3.3125 7.125 3.3125 7.125 4 5 C4.99 4.34 5.98 3.68 7 3 C4.69 2.67 2.38 2.34 0 2 C0 1.34 0 0.68 0 0 Z " fill="#9FA8AD" transform="translate(380,259)"/>
<path d="M0 0 C2.9375 1.8125 2.9375 1.8125 5 4 C5 4.99 5 5.98 5 7 C-0.28 7 -5.56 7 -11 7 C-10.67 5.35 -10.34 3.7 -10 2 C-6.2626144 -0.4915904 -4.42668417 -0.45793285 0 0 Z " fill="#080E0B" transform="translate(566,196)"/>
<path d="M0 0 C3.0625 0.3125 3.0625 0.3125 4.9375 1.5625 C6.0625 3.3125 6.0625 3.3125 6.0625 7.3125 C3.0925 7.3125 0.1225 7.3125 -2.9375 7.3125 C-2.6075 7.9725 -2.2775 8.6325 -1.9375 9.3125 C1.69135324 9.46399298 1.69135324 9.46399298 5.0625 8.3125 C5.0625 9.3025 5.0625 10.2925 5.0625 11.3125 C2.29999964 12.69375018 0.11518901 12.50329306 -2.9375 12.3125 C-4.9375 10.3125 -4.9375 10.3125 -5.203125 8.4375 C-5.19796875 7.73625 -5.1928125 7.035 -5.1875 6.3125 C-5.19265625 5.61125 -5.1978125 4.91 -5.203125 4.1875 C-4.71881191 0.76881939 -3.24057423 0.34474194 0 0 Z " fill="#CAD1CE" transform="translate(426.9375,295.6875)"/>
<path d="M0 0 C3.0625 0.3125 3.0625 0.3125 4.9375 1.5625 C6.0625 3.3125 6.0625 3.3125 6.0625 7.3125 C3.0925 7.3125 0.1225 7.3125 -2.9375 7.3125 C-2.6075 7.9725 -2.2775 8.6325 -1.9375 9.3125 C1.69135324 9.46399298 1.69135324 9.46399298 5.0625 8.3125 C5.0625 9.3025 5.0625 10.2925 5.0625 11.3125 C2.29999964 12.69375018 0.11518901 12.50329306 -2.9375 12.3125 C-4.9375 10.3125 -4.9375 10.3125 -5.203125 8.4375 C-5.19796875 7.73625 -5.1928125 7.035 -5.1875 6.3125 C-5.19265625 5.61125 -5.1978125 4.91 -5.203125 4.1875 C-4.71881191 0.76881939 -3.24057423 0.34474194 0 0 Z " fill="#CAD1CE" transform="translate(328.9375,263.6875)"/>
<path d="M0 0 C0.7734375 0.07605469 1.546875 0.15210938 2.34375 0.23046875 C4.90163474 0.92091228 5.9253161 1.69778028 7.5 3.8125 C7.5 4.8025 7.5 5.7925 7.5 6.8125 C2.22 6.8125 -3.06 6.8125 -8.5 6.8125 C-8.17 5.1625 -7.84 3.5125 -7.5 1.8125 C-4.24139091 -0.35990606 -3.67949197 -0.42314158 0 0 Z " fill="#030705" transform="translate(642.5,196.1875)"/>
<path d="M0 0 C1.8125 1.25 1.8125 1.25 3 3 C3 4.32 3 5.64 3 7 C0.03 7 -2.94 7 -6 7 C-5.67 7.66 -5.34 8.32 -5 9 C-1.95613276 9.08226668 0.07175348 8.97608217 3 8 C2.67 8.99 2.34 9.98 2 11 C-4.37426409 12.32296047 -4.37426409 12.32296047 -6.9375 11 C-8.57873868 7.91060954 -8.3734761 5.42353094 -8 2 C-4.76746204 -0.15502531 -3.74849077 -0.46856135 0 0 Z " fill="#ACAFA8" transform="translate(603,264)"/>
<path d="M0 0 C2.9375 1.8125 2.9375 1.8125 5 4 C5 4.99 5 5.98 5 7 C-0.28 7 -5.56 7 -11 7 C-9.30334739 0.21338958 -6.99096376 -0.84373701 0 0 Z " fill="#252927" transform="translate(458,196)"/>
<path d="M0 0 C2.875 1.25 2.875 1.25 5 3 C5 4.32 5 5.64 5 7 C-0.28 7 -5.56 7 -11 7 C-10 3 -10 3 -8.3125 1.25 C-5.27558137 -0.39157764 -3.41506852 -0.41817166 0 0 Z " fill="#0B0707" transform="translate(644,124)"/>
<path d="M0 0 C0.66 0 1.32 0 2 0 C2.33 2.31 2.66 4.62 3 7 C3.33 7 3.66 7 4 7 C4.66 4.69 5.32 2.38 6 0 C7.32 0 8.64 0 10 0 C10.66 2.64 11.32 5.28 12 8 C12.66 5.36 13.32 2.72 14 0 C14.66 0 15.32 0 16 0 C15.34 3.96 14.68 7.92 14 12 C12.68 12 11.36 12 10 12 C9.34 9.69 8.68 7.38 8 5 C7.01 7.31 6.02 9.62 5 12 C3.68 12 2.36 12 1 12 C0.67 8.04 0.34 4.08 0 0 Z " fill="#ADB0A0" transform="translate(403,296)"/>
<path d="M0 0 C0.33 0.66 0.66 1.32 1 2 C1.66 2 2.32 2 3 2 C3 6.29 3 10.58 3 15 C2.34 15 1.68 15 1 15 C0.67 15.66 0.34 16.32 0 17 C-0.66 17 -1.32 17 -2 17 C-2.66 17.66 -3.32 18.32 -4 19 C-4.99 19 -5.98 19 -7 19 C-7 18.34 -7 17.68 -7 17 C-6.195625 16.566875 -5.39125 16.13375 -4.5625 15.6875 C-1.75717669 14.23212941 -1.75717669 14.23212941 -1.1875 11.3125 C-1.125625 10.549375 -1.06375 9.78625 -1 9 C-2.98 8.34 -4.96 7.68 -7 7 C-5.71034824 5.62437146 -4.37310707 4.29233607 -3 3 C-2.34 3 -1.68 3 -1 3 C-0.67 2.01 -0.34 1.02 0 0 Z " fill="#1D1817" transform="translate(393,259)"/>
<path d="M0 0 C2.875 1.8125 2.875 1.8125 5 4 C5 4.99 5 5.98 5 7 C-0.28 7 -5.56 7 -11 7 C-10 3 -10 3 -8.3125 1.25 C-5.24885205 -0.40602592 -3.44265183 -0.4918074 0 0 Z " fill="#030503" transform="translate(795,196)"/>
<path d="M0 0 C2.31 0.33 4.62 0.66 7 1 C7 3.97 7 6.94 7 10 C7.66 10 8.32 10 9 10 C9 10.66 9 11.32 9 12 C7.37536158 12.05395478 5.75021459 12.09277195 4.125 12.125 C3.22007812 12.14820313 2.31515625 12.17140625 1.3828125 12.1953125 C-1 12 -1 12 -3 10 C-2.46428571 6.46428571 -2.46428571 6.46428571 -1 5 C0.99958364 4.95919217 3.00045254 4.95745644 5 5 C5 4.01 5 3.02 5 2 C3.35 2 1.7 2 0 2 C0 2.66 0 3.32 0 4 C-0.66 4 -1.32 4 -2 4 C-1.34 2.68 -0.68 1.36 0 0 Z " fill="#A7B1B4" transform="translate(460,296)"/>
<path d="M0 0 C2 2 2 2 2.1953125 3.9453125 C2.13020833 5.96354167 2.06510417 7.98177083 2 10 C2.66 10 3.32 10 4 10 C4 10.66 4 11.32 4 12 C2.37536158 12.05395478 0.75021459 12.09277195 -0.875 12.125 C-1.77992188 12.14820313 -2.68484375 12.17140625 -3.6171875 12.1953125 C-6 12 -6 12 -8 10 C-8 8.68 -8 7.36 -8 6 C-5.29120665 4.64560332 -2.99066732 4.93498549 0 5 C0 4.01 0 3.02 0 2 C-2.31 2.66 -4.62 3.32 -7 4 C-7 3.01 -7 2.02 -7 1 C-4.48718205 -0.25640898 -2.78302919 -0.20872719 0 0 Z " fill="#ACB5B2" transform="translate(536,296)"/>
<path d="M0 0 C2.31 0.33 4.62 0.66 7 1 C7 3.97 7 6.94 7 10 C7.66 10 8.32 10 9 10 C9 10.66 9 11.32 9 12 C7.37536158 12.05395478 5.75021459 12.09277195 4.125 12.125 C3.22007812 12.14820313 2.31515625 12.17140625 1.3828125 12.1953125 C-1 12 -1 12 -3 10 C-2.46428571 6.46428571 -2.46428571 6.46428571 -1 5 C0.99958364 4.95919217 3.00045254 4.95745644 5 5 C5 4.01 5 3.02 5 2 C3.35 2 1.7 2 0 2 C0 2.66 0 3.32 0 4 C-0.66 4 -1.32 4 -2 4 C-1.34 2.68 -0.68 1.36 0 0 Z " fill="#A3AEB1" transform="translate(631,264)"/>
<path d="M0 0 C2 2 2 2 2.1953125 3.9453125 C2.13020833 5.96354167 2.06510417 7.98177083 2 10 C2.66 10 3.32 10 4 10 C4 10.66 4 11.32 4 12 C2.37536158 12.05395478 0.75021459 12.09277195 -0.875 12.125 C-1.77992188 12.14820313 -2.68484375 12.17140625 -3.6171875 12.1953125 C-6 12 -6 12 -8 10 C-8 8.68 -8 7.36 -8 6 C-5.29120665 4.64560332 -2.99066732 4.93498549 0 5 C0 4.01 0 3.02 0 2 C-2.31 2.66 -4.62 3.32 -7 4 C-7 3.01 -7 2.02 -7 1 C-4.48718205 -0.25640898 -2.78302919 -0.20872719 0 0 Z " fill="#A9B3B0" transform="translate(697,264)"/>
<path d="M0 0 C1.65 0 3.3 0 5 0 C7.60704898 2.60704898 7.23905333 4.47338241 7.265625 8.02734375 C7 10 7 10 5 13 C3.35 13 1.7 13 0 13 C0 8.71 0 4.42 0 0 Z " fill="#1B212A" transform="translate(399,261)"/>
<path d="M0 0 C3.7742893 1.16659851 5.30801297 1.74050024 7.4375 5.0625 C8.12395725 9.24988925 8.42074756 11.5535276 6.0859375 15.13671875 C4.60394848 16.86804715 3.08721851 18.49133952 1.4375 20.0625 C-2.29023314 19.84948668 -3.56349259 19.06159564 -6.375 16.5 C-8.24974348 14.02414829 -8.98192492 12.10124697 -9.1875 9 C-8.5625 5.0625 -8.5625 5.0625 -6.5 2 C-3.5625 0.0625 -3.5625 0.0625 0 0 Z M-6 4.1875 C-7.80125666 6.95645225 -7.80125666 6.95645225 -7.5625 10.0625 C-6.44486758 13.41539725 -4.93038933 15.46546009 -2.5625 18.0625 C-0.19016389 18.02469702 -0.19016389 18.02469702 2.4375 17.0625 C5.23975155 13.89153114 6.45885425 12.15156651 6.375 7.875 C5.21660485 4.32135421 5.21660485 4.32135421 2.4375 2.0625 C-1.5279626 1.38752764 -2.93363379 1.51425766 -6 4.1875 Z " fill="#D8D8D8" transform="translate(214.5625,349.9375)"/>
<path d="M0 0 C0.99 0 1.98 0 3 0 C3 3.3 3 6.6 3 10 C4.65 9.67 6.3 9.34 8 9 C8.33 6.03 8.66 3.06 9 0 C9.99 0 10.98 0 12 0 C12 3.96 12 7.92 12 12 C10.576875 12.061875 9.15375 12.12375 7.6875 12.1875 C6.48673828 12.23970703 6.48673828 12.23970703 5.26171875 12.29296875 C3 12 3 12 1.21875 10.78125 C-0.35672932 8.47862638 -0.30765272 7.07601256 -0.1875 4.3125 C-0.16042969 3.50425781 -0.13335937 2.69601562 -0.10546875 1.86328125 C-0.07066406 1.24839844 -0.03585937 0.63351562 0 0 Z " fill="#969A9B" transform="translate(507,264)"/>
<path d="M0 0 C1.134375 0.020625 2.26875 0.04125 3.4375 0.0625 C3.4375 3.6925 3.4375 7.3225 3.4375 11.0625 C1.1275 11.0625 -1.1825 11.0625 -3.5625 11.0625 C-3.5625 10.7325 -3.5625 10.4025 -3.5625 10.0625 C-1.9125 10.0625 -0.2625 10.0625 1.4375 10.0625 C1.1075 9.4025 0.7775 8.7425 0.4375 8.0625 C-2.08983235 7.40694881 -2.08983235 7.40694881 -4.5625 7.0625 C-4.60504356 5.06295254 -4.60330783 3.06208364 -4.5625 1.0625 C-3.5625 0.0625 -3.5625 0.0625 0 0 Z " fill="#BAC1B8" transform="translate(725.5625,356.9375)"/>
<path d="M0 0 C2.31 0.33 4.62 0.66 7 1 C6.01 2.32 5.02 3.64 4 5 C5.32 5.33 6.64 5.66 8 6 C7.67 7.32 7.34 8.64 7 10 C4.03824877 9.38722388 2.61941217 8.74627478 0 7 C0 7.99 0 8.98 0 10 C-2.31 10 -4.62 10 -7 10 C-7 9.34 -7 8.68 -7 8 C-6.030625 7.608125 -5.06125 7.21625 -4.0625 6.8125 C-0.77823609 5.32405113 -0.77823609 5.32405113 -0.125 2.3125 C-0.08375 1.549375 -0.0425 0.78625 0 0 Z " fill="#20140E" transform="translate(518,354)"/>
<path d="M0 0 C3.375 -0.125 3.375 -0.125 7 0 C7.66 0.66 8.32 1.32 9 2 C8.625 4.625 8.625 4.625 8 7 C6.35 7.33 4.7 7.66 3 8 C2.67 8.99 2.34 9.98 2 11 C1.34 11 0.68 11 0 11 C0 7.37 0 3.74 0 0 Z " fill="#A4B1AF" transform="translate(627,357)"/>
<path d="M0 0 C0.94875 0.04125 1.8975 0.0825 2.875 0.125 C2.875 3.755 2.875 7.385 2.875 11.125 C0.565 11.125 -1.745 11.125 -4.125 11.125 C-4.125 10.795 -4.125 10.465 -4.125 10.125 C-2.475 10.125 -0.825 10.125 0.875 10.125 C0.875 9.465 0.875 8.805 0.875 8.125 C-0.775 7.795 -2.425 7.465 -4.125 7.125 C-4.75 4.75 -4.75 4.75 -5.125 2.125 C-3.125 0.125 -3.125 0.125 0 0 Z " fill="#B2C1B9" transform="translate(283.125,356.875)"/>
<path d="M0 0 C0.66 0 1.32 0 2 0 C2.33 1.98 2.66 3.96 3 6 C2.34 6 1.68 6 1 6 C2.78927948 10.02587882 4.16364347 12.72216331 8 15 C8.99 15.33 9.98 15.66 11 16 C11 15.34 11 14.68 11 14 C13.97 14.495 13.97 14.495 17 15 C17 15.99 17 16.98 17 18 C10.90501137 18.42034404 7.87112047 18.07814737 3 14 C-0.41377176 10.82166078 -0.54809631 7.36855255 -0.984375 2.92578125 C-0.98953125 2.29027344 -0.9946875 1.65476562 -1 1 C-0.67 0.67 -0.34 0.34 0 0 Z " fill="#252525" transform="translate(417,351)"/>
<path d="M0 0 C1.4540625 0.0309375 1.4540625 0.0309375 2.9375 0.0625 C3.5975 1.3825 4.2575 2.7025 4.9375 4.0625 C2.6275 3.4025 0.3175 2.7425 -2.0625 2.0625 C-2.0625 3.0525 -2.0625 4.0425 -2.0625 5.0625 C-1.27875 5.02125 -0.495 4.98 0.3125 4.9375 C2.9375 5.0625 2.9375 5.0625 4.9375 7.0625 C4.9375 8.3825 4.9375 9.7025 4.9375 11.0625 C2.22870665 12.41689668 -0.07183268 12.12751451 -3.0625 12.0625 C-3.7225 10.7425 -4.3825 9.4225 -5.0625 8.0625 C-2.4225 8.7225 0.2175 9.3825 2.9375 10.0625 C2.9375 9.0725 2.9375 8.0825 2.9375 7.0625 C2.174375 7.10375 1.41125 7.145 0.625 7.1875 C-2.0625 7.0625 -2.0625 7.0625 -5.0625 5.0625 C-3.9375 0.08035714 -3.9375 0.08035714 0 0 Z " fill="#ABB2AF" transform="translate(487.0625,263.9375)"/>
<path d="M0 0 C2.5625 0.1875 2.5625 0.1875 4.5625 2.1875 C4.8125 5.6875 4.8125 5.6875 4.5625 9.1875 C2.5625 11.1875 2.5625 11.1875 -0.0625 11.3125 C-0.84625 11.27125 -1.63 11.23 -2.4375 11.1875 C-2.4375 10.1975 -2.4375 9.2075 -2.4375 8.1875 C-0.4575 8.6825 -0.4575 8.6825 1.5625 9.1875 C1.8925 8.5275 2.2225 7.8675 2.5625 7.1875 C1.758125 7.208125 0.95375 7.22875 0.125 7.25 C-2.4375 7.1875 -2.4375 7.1875 -3.4375 6.1875 C-3.5625 3.6875 -3.5625 3.6875 -3.4375 1.1875 C-2.4375 0.1875 -2.4375 0.1875 0 0 Z " fill="#C1C4B5" transform="translate(463.4375,353.8125)"/>
<path d="M0 0 C0.33 0 0.66 0 1 0 C1 5.61 1 11.22 1 17 C0.67 16.01 0.34 15.02 0 14 C-5.94 14.495 -5.94 14.495 -12 15 C-12 13.68 -12 12.36 -12 11 C-10.329375 11.061875 -10.329375 11.061875 -8.625 11.125 C-4.95633975 11.41121859 -4.95633975 11.41121859 -3 9 C-2.64984951 7.33678518 -2.31802943 5.66965451 -2 4 C-0.9375 1.6875 -0.9375 1.6875 0 0 Z " fill="#161419" transform="translate(486,296)"/>
<path d="M0 0 C6.875 0.875 6.875 0.875 8 2 C8.4601125 5.32303475 8.70381212 8.65730818 9 12 C5.7 12 2.4 12 -1 12 C-1.33 10.68 -1.66 9.36 -2 8 C-1.34 7.67 -0.68 7.34 0 7 C0 7.99 0 8.98 0 10 C1.65 9.67 3.3 9.34 5 9 C5.33 8.01 5.66 7.02 6 6 C4.35 6 2.7 6 1 6 C1 5.67 1 5.34 1 5 C2.65 5 4.3 5 6 5 C5.67 4.34 5.34 3.68 5 3 C2.69 3.33 0.38 3.66 -2 4 C-1.34 2.68 -0.68 1.36 0 0 Z " fill="#C6BCAA" transform="translate(465,264)"/>
<path d="M0 0 C0.99 0 1.98 0 3 0 C3 2.31 3 4.62 3 7 C3.99 7 4.98 7 6 7 C6.33 6.34 6.66 5.68 7 5 C8.98 5.66 10.96 6.32 13 7 C13 7.99 13 8.98 13 10 C9.50765756 10.09978121 6.40562852 9.77842938 3 9 C3 9.99 3 10.98 3 12 C2.01 12 1.02 12 0 12 C0 8.04 0 4.08 0 0 Z " fill="#636159" transform="translate(430,264)"/>
<path d="M0 0 C1.4540625 0.0309375 1.4540625 0.0309375 2.9375 0.0625 C3.2675 2.0425 3.5975 4.0225 3.9375 6.0625 C4.5975 4.7425 5.2575 3.4225 5.9375 2.0625 C5.9375 3.7125 5.9375 5.3625 5.9375 7.0625 C2.24208414 8.01274979 -0.36708414 8.01274979 -4.0625 7.0625 C-4.10504356 5.06295254 -4.10330783 3.06208364 -4.0625 1.0625 C-3.0625 0.0625 -3.0625 0.0625 0 0 Z " fill="#B2CEC7" transform="translate(712.0625,356.9375)"/>
<path d="M0 0 C6.8359375 -0.1953125 6.8359375 -0.1953125 9 0 C11 2 11 2 11.1953125 4.3828125 C11.17210937 5.28773438 11.14890625 6.19265625 11.125 7.125 C11.10695313 8.03507812 11.08890625 8.94515625 11.0703125 9.8828125 C11.04710937 10.58148438 11.02390625 11.28015625 11 12 C10.34 12 9.68 12 9 12 C9 8.7 9 5.4 9 2 C7.02 2.66 5.04 3.32 3 4 C2.67 6.64 2.34 9.28 2 12 C1.34 12 0.68 12 0 12 C0 8.04 0 4.08 0 0 Z " fill="#92A0A8" transform="translate(573,296)"/>
<path d="M0 0 C0.66 0 1.32 0 2 0 C2.33 2.97 2.66 5.94 3 9 C4.65 9 6.3 9 8 9 C8.33 6.03 8.66 3.06 9 0 C9.66 0 10.32 0 11 0 C11 3.96 11 7.92 11 12 C2.25 12.125 2.25 12.125 0 11 C0 7.37 0 3.74 0 0 Z " fill="#A2B3B8" transform="translate(448,264)"/>
<path d="M0 0 C6.8359375 -0.1953125 6.8359375 -0.1953125 9 0 C11 2 11 2 11.1953125 4.3828125 C11.17210937 5.28773438 11.14890625 6.19265625 11.125 7.125 C11.10695313 8.03507812 11.08890625 8.94515625 11.0703125 9.8828125 C11.04710937 10.58148438 11.02390625 11.28015625 11 12 C10.34 12 9.68 12 9 12 C9 8.7 9 5.4 9 2 C7.02 2.66 5.04 3.32 3 4 C2.67 6.64 2.34 9.28 2 12 C1.34 12 0.68 12 0 12 C0 8.04 0 4.08 0 0 Z " fill="#909FA8" transform="translate(703,264)"/>
<path d="M0 0 C2.4375 0.1875 2.4375 0.1875 3.4375 1.1875 C3.5354057 2.68488124 3.56724864 4.18692892 3.5625 5.6875 C3.56507813 6.5021875 3.56765625 7.316875 3.5703125 8.15625 C3.4375 10.1875 3.4375 10.1875 2.4375 11.1875 C0.77132885 11.22813832 -0.89638095 11.230221 -2.5625 11.1875 C-2.5625 10.1975 -2.5625 9.2075 -2.5625 8.1875 C-1.2425 8.5175 0.0775 8.8475 1.4375 9.1875 C1.4375 8.5275 1.4375 7.8675 1.4375 7.1875 C-0.2125 6.8575 -1.8625 6.5275 -3.5625 6.1875 C-4.1875 4.3125 -4.1875 4.3125 -4.5625 2.1875 C-2.5625 0.1875 -2.5625 0.1875 0 0 Z " fill="#C4CFC3" transform="translate(487.5625,353.8125)"/>
<path d="M0 0 C1.4540625 0.0309375 1.4540625 0.0309375 2.9375 0.0625 C3.5975 1.3825 4.2575 2.7025 4.9375 4.0625 C4.2775 4.0625 3.6175 4.0625 2.9375 4.0625 C2.9375 3.4025 2.9375 2.7425 2.9375 2.0625 C1.2875 2.0625 -0.3625 2.0625 -2.0625 2.0625 C-2.0625 3.0525 -2.0625 4.0425 -2.0625 5.0625 C0.2475 5.3925 2.5575 5.7225 4.9375 6.0625 C4.9375 7.7125 4.9375 9.3625 4.9375 11.0625 C-1.6875 12.3125 -1.6875 12.3125 -5.0625 10.0625 C-5.0625 9.4025 -5.0625 8.7425 -5.0625 8.0625 C-2.4225 8.7225 0.2175 9.3825 2.9375 10.0625 C2.9375 9.0725 2.9375 8.0825 2.9375 7.0625 C-0.0325 6.5675 -0.0325 6.5675 -3.0625 6.0625 C-3.44468767 4.40635343 -3.77645102 2.73792976 -4.0625 1.0625 C-3.0625 0.0625 -3.0625 0.0625 0 0 Z " fill="#A3AAA9" transform="translate(675.0625,263.9375)"/>
<path d="M0 0 C6.8359375 -0.1953125 6.8359375 -0.1953125 9 0 C11 2 11 2 11.1953125 4.3828125 C11.17210937 5.28773438 11.14890625 6.19265625 11.125 7.125 C11.10695313 8.03507812 11.08890625 8.94515625 11.0703125 9.8828125 C11.04710937 10.58148438 11.02390625 11.28015625 11 12 C10.34 12 9.68 12 9 12 C8.67 9.03 8.34 6.06 8 3 C6.02 3 4.04 3 2 3 C2 5.97 2 8.94 2 12 C1.34 12 0.68 12 0 12 C0 8.04 0 4.08 0 0 Z " fill="#9CA9A5" transform="translate(570,264)"/>
<path d="M0 0 C0.66 0.99 1.32 1.98 2 3 C-0.31 2.67 -2.62 2.34 -5 2 C-3.37633534 5.24732932 -0.24612161 5.70155136 3 7 C2.125 10.875 2.125 10.875 1 12 C-0.99958364 12.04080783 -3.00045254 12.04254356 -5 12 C-5.66 10.68 -6.32 9.36 -7 8 C-4.69 8.33 -2.38 8.66 0 9 C-0.8971875 8.566875 -0.8971875 8.566875 -1.8125 8.125 C-4 7 -4 7 -7 5 C-7 3.68 -7 2.36 -7 1 C-4.46578263 -0.26710868 -2.80561762 -0.28056176 0 0 Z " fill="#A8A8A1" transform="translate(595,296)"/>
<path d="M0 0 C0.66 0.99 1.32 1.98 2 3 C-0.31 2.67 -2.62 2.34 -5 2 C-3.37633534 5.24732932 -0.24612161 5.70155136 3 7 C2.125 10.875 2.125 10.875 1 12 C-0.99958364 12.04080783 -3.00045254 12.04254356 -5 12 C-5.66 10.68 -6.32 9.36 -7 8 C-4.69 8.33 -2.38 8.66 0 9 C-0.8971875 8.566875 -0.8971875 8.566875 -1.8125 8.125 C-4 7 -4 7 -7 5 C-7 3.68 -7 2.36 -7 1 C-4.46578263 -0.26710868 -2.80561762 -0.28056176 0 0 Z " fill="#ACACA6" transform="translate(529,264)"/>
<path d="M0 0 C0.66 1.32 1.32 2.64 2 4 C-0.64 3.67 -3.28 3.34 -6 3 C-6 4.98 -6 6.96 -6 9 C-2.37471432 9.20140476 -0.13498292 8.85776765 3 7 C1.125 10.875 1.125 10.875 0 12 C-5.24050633 12.4556962 -5.24050633 12.4556962 -7.875 10.875 C-9.52854531 8.11909116 -9.39365568 6.14924548 -9 3 C-6.77089201 -0.71517998 -4.03410755 -0.2689405 0 0 Z " fill="#A1ADAD" transform="translate(523,296)"/>
<path d="M0 0 C2.5 0.125 2.5 0.125 3.5 1.125 C3.625 4.125 3.625 4.125 3.5 7.125 C2.5 8.125 2.5 8.125 0.0625 8.3125 C-2.5 8.125 -2.5 8.125 -4.5 6.125 C-3.77607362 0.18880368 -3.77607362 0.18880368 0 0 Z " fill="#131115" transform="translate(564.5,297.875)"/>
<path d="M0 0 C2.5 0.125 2.5 0.125 3.5 1.125 C3.625 4.125 3.625 4.125 3.5 7.125 C2.5 8.125 2.5 8.125 0.0625 8.3125 C-2.5 8.125 -2.5 8.125 -4.5 6.125 C-3.77607362 0.18880368 -3.77607362 0.18880368 0 0 Z " fill="#1D191B" transform="translate(493.5,297.875)"/>
<path d="M0 0 C2.5625 0.1875 2.5625 0.1875 4.5625 2.1875 C4.00694444 6.74305556 4.00694444 6.74305556 2.5625 8.1875 C0.0625 8.3125 0.0625 8.3125 -2.4375 8.1875 C-3.4375 7.1875 -3.4375 7.1875 -3.5625 4.1875 C-3.39891479 0.26145498 -3.39891479 0.26145498 0 0 Z " fill="#1B191D" transform="translate(477.4375,297.8125)"/>
<path d="M0 0 C2.5 0.125 2.5 0.125 3.5 1.125 C3.625 4.125 3.625 4.125 3.5 7.125 C2.5 8.125 2.5 8.125 0.0625 8.3125 C-2.5 8.125 -2.5 8.125 -4.5 6.125 C-3.77607362 0.18880368 -3.77607362 0.18880368 0 0 Z " fill="#191618" transform="translate(442.5,297.875)"/>
<path d="M0 0 C2.5625 0.1875 2.5625 0.1875 4.5625 2.1875 C4.00694444 6.74305556 4.00694444 6.74305556 2.5625 8.1875 C0.0625 8.3125 0.0625 8.3125 -2.4375 8.1875 C-3.4375 7.1875 -3.4375 7.1875 -3.5625 4.1875 C-3.39891479 0.26145498 -3.39891479 0.26145498 0 0 Z " fill="#0A090E" transform="translate(723.4375,265.8125)"/>
<path d="M0 0 C2.5625 0.1875 2.5625 0.1875 4.5625 2.1875 C4.00694444 6.74305556 4.00694444 6.74305556 2.5625 8.1875 C0.0625 8.3125 0.0625 8.3125 -2.4375 8.1875 C-3.4375 7.1875 -3.4375 7.1875 -3.5625 4.1875 C-3.39891479 0.26145498 -3.39891479 0.26145498 0 0 Z " fill="#161519" transform="translate(364.4375,265.8125)"/>
<path d="M0 0 C2.5625 0.1875 2.5625 0.1875 4.5625 2.1875 C4.00694444 6.74305556 4.00694444 6.74305556 2.5625 8.1875 C0.0625 8.3125 0.0625 8.3125 -2.4375 8.1875 C-3.4375 7.1875 -3.4375 7.1875 -3.5625 4.1875 C-3.39891479 0.26145498 -3.39891479 0.26145498 0 0 Z " fill="#0C0C10" transform="translate(287.4375,265.8125)"/>
<path d="M0 0 C0.625 2.375 0.625 2.375 1 5 C-1 7 -1 7 -3.5625 7.1875 C-6 7 -6 7 -7 6 C-7.04080783 4.00041636 -7.04254356 1.99954746 -7 0 C-4.3333581 -1.33332095 -2.83319697 -0.67102033 0 0 Z " fill="#B7C3B8" transform="translate(692,358)"/>
<path d="M0 0 C0.625 2.375 0.625 2.375 1 5 C-1 7 -1 7 -3.5625 7.1875 C-6 7 -6 7 -7 6 C-7.04080783 4.00041636 -7.04254356 1.99954746 -7 0 C-4.3333581 -1.33332095 -2.83319697 -0.67102033 0 0 Z " fill="#B7C3B8" transform="translate(243,358)"/>
<path d="M0 0 C2.00720923 0.28674418 4.0085944 0.61866701 6 1 C6.04254356 2.99954746 6.04080783 5.00041636 6 7 C5 8 5 8 2.5625 8.1875 C0 8 0 8 -2 6 C-1.44444444 1.44444444 -1.44444444 1.44444444 0 0 Z " fill="#BEC1AD" transform="translate(777,357)"/>
<path d="M0 0 C0.99 0 1.98 0 3 0 C3.99 3.63 4.98 7.26 6 11 C5.34 11 4.68 11 4 11 C4 10.01 4 9.02 4 8 C2.35 8 0.7 8 -1 8 C-1 8.99 -1 9.98 -1 11 C-1.66 11 -2.32 11 -3 11 C-2.69217504 9.35328588 -2.37860766 7.70764424 -2.0625 6.0625 C-1.88847656 5.14597656 -1.71445312 4.22945313 -1.53515625 3.28515625 C-1 1 -1 1 0 0 Z " fill="#959990" transform="translate(261,354)"/>
<path d="M0 0 C0.66 1.32 1.32 2.64 2 4 C-0.64 3.67 -3.28 3.34 -6 3 C-6 4.98 -6 6.96 -6 9 C-2.95613276 9.08226668 -0.92824652 8.97608217 2 8 C1.34 9.32 0.68 10.64 0 12 C-5.4 12.36 -5.4 12.36 -7.875 10.875 C-9.52854531 8.11909116 -9.39365568 6.14924548 -9 3 C-6.77089201 -0.71517998 -4.03410755 -0.2689405 0 0 Z " fill="#A1B4B7" transform="translate(651,264)"/>
<path d="M0 0 C1.65 0 3.3 0 5 0 C5 0.66 5 1.32 5 2 C4.01 2 3.02 2 2 2 C2 2.99 2 3.98 2 5 C2.99 5 3.98 5 5 5 C5 5.66 5 6.32 5 7 C4.01 7 3.02 7 2 7 C2 10.3 2 13.6 2 17 C1.34 17 0.68 17 0 17 C0 13.7 0 10.4 0 7 C-1.32 7 -2.64 7 -4 7 C-4 6.34 -4 5.68 -4 5 C-2.68 5 -1.36 5 0 5 C0 3.35 0 1.7 0 0 Z " fill="#B5B09F" transform="translate(621,259)"/>
<path d="M0 0 C0.66 0 1.32 0 2 0 C2 1.32 2 2.64 2 4 C3.32 4 4.64 4 6 4 C6 4.66 6 5.32 6 6 C4.68 6 3.36 6 2 6 C2 8.64 2 11.28 2 14 C2.99 14 3.98 14 5 14 C5 14.66 5 15.32 5 16 C3.35 15.67 1.7 15.34 0 15 C0 12.03 0 9.06 0 6 C-1.32 6 -2.64 6 -4 6 C-4 5.34 -4 4.68 -4 4 C-2.68 4 -1.36 4 0 4 C0 2.68 0 1.36 0 0 Z " fill="#AFB7A9" transform="translate(544,292)"/>
<path d="M0 0 C0.66 0 1.32 0 2 0 C2 1.32 2 2.64 2 4 C3.32 4 4.64 4 6 4 C6 4.66 6 5.32 6 6 C4.68 6 3.36 6 2 6 C2 8.64 2 11.28 2 14 C2.99 14 3.98 14 5 14 C5 14.66 5 15.32 5 16 C3.35 15.67 1.7 15.34 0 15 C0 12.03 0 9.06 0 6 C-1.32 6 -2.64 6 -4 6 C-4 5.34 -4 4.68 -4 4 C-2.68 4 -1.36 4 0 4 C0 2.68 0 1.36 0 0 Z " fill="#AEB6A8" transform="translate(587,260)"/>
<path d="M0 0 C1.67542976 0.28604898 3.34385343 0.61781233 5 1 C5.66 3.31 6.32 5.62 7 8 C4.66705225 8.04241723 2.33297433 8.04092937 0 8 C-1 7 -1 7 -1.125 4 C-1 1 -1 1 0 0 Z " fill="#898680" transform="translate(746,357)"/>
<path d="M0 0 C2.5 0.125 2.5 0.125 3.5 1.125 C3.625 4.125 3.625 4.125 3.5 7.125 C2.5 8.125 2.5 8.125 0 8.25 C-2.5 8.125 -2.5 8.125 -3.5 7.125 C-3.625 4.125 -3.625 4.125 -3.5 1.125 C-2.5 0.125 -2.5 0.125 0 0 Z " fill="#C2CBBA" transform="translate(641.5,356.875)"/>
<path d="M0 0 C1.67542976 0.28604898 3.34385343 0.61781233 5 1 C5.66 3.31 6.32 5.62 7 8 C4.66705225 8.04241723 2.33297433 8.04092937 0 8 C-1 7 -1 7 -1.125 4 C-1 1 -1 1 0 0 Z " fill="#898680" transform="translate(386,357)"/>
<path d="M0 0 C2.625 0.375 2.625 0.375 5 1 C5.625 3.375 5.625 3.375 6 6 C5.34 6.66 4.68 7.32 4 8 C1.375 7.625 1.375 7.625 -1 7 C-1.625 4.625 -1.625 4.625 -2 2 C-1.34 1.34 -0.68 0.68 0 0 Z " fill="#B2C1BA" transform="translate(669,357)"/>
<path d="M0 0 C2.31 0.33 4.62 0.66 7 1 C6.01 2.32 5.02 3.64 4 5 C5.32 5.33 6.64 5.66 8 6 C7.67 7.32 7.34 8.64 7 10 C6.401875 9.835 5.80375 9.67 5.1875 9.5 C2.88655664 8.8885876 2.88655664 8.8885876 0 9 C0 6.03 0 3.06 0 0 Z " fill="#131218" transform="translate(544,354)"/>
<path d="M0 0 C1.32 0.33 2.64 0.66 4 1 C5.40666215 4.01427603 6.14845728 6.05977053 5.625 9.375 C5.41875 9.91125 5.2125 10.4475 5 11 C4.67 10.34 4.34 9.68 4 9 C1.47266765 8.34444881 1.47266765 8.34444881 -1 8 C-1 8.99 -1 9.98 -1 11 C-1.66 11 -2.32 11 -3 11 C-2.01 7.37 -1.02 3.74 0 0 Z " fill="#6E8089" transform="translate(334,354)"/>
<path d="M0 0 C0.66 0 1.32 0 2 0 C2.99 2.64 3.98 5.28 5 8 C6.77706209 5.33440687 7.87548273 2.9719385 9 0 C9.66 0 10.32 0 11 0 C10.71640113 1.4391134 10.42278601 2.87625518 10.125 4.3125 C9.96257812 5.11300781 9.80015625 5.91351563 9.6328125 6.73828125 C9 9 9 9 7 12 C5.68 12 4.36 12 3 12 C2.01 8.04 1.02 4.08 0 0 Z " fill="#A2B0AF" transform="translate(416,264)"/>
<path d="M0 0 C2.5 0.125 2.5 0.125 3.5 1.125 C3.625 4.125 3.625 4.125 3.5 7.125 C2.5 8.125 2.5 8.125 0 8.25 C-2.5 8.125 -2.5 8.125 -3.5 7.125 C-3.625 4.125 -3.625 4.125 -3.5 1.125 C-2.5 0.125 -2.5 0.125 0 0 Z " fill="#100F12" transform="translate(349.5,265.875)"/>
<path d="M0 0 C0.04254356 1.99954746 0.04080783 4.00041636 0 6 C-1 7 -1 7 -3.5 7.125 C-6 7 -6 7 -7 6 C-7.04080783 4.00041636 -7.04254356 1.99954746 -7 0 C-4.3333581 -1.33332095 -2.83319697 -0.67102033 0 0 Z " fill="#686A65" transform="translate(773,358)"/>
<path d="M0 0 C0.99 0 1.98 0 3 0 C3 5.61 3 11.22 3 17 C2.01 17 1.02 17 0 17 C0 11.39 0 5.78 0 0 Z " fill="#8C8D8C" transform="translate(502,291)"/>
<path d="M0 0 C0.99 0 1.98 0 3 0 C3 4.29 3 8.58 3 13 C7.86132495 12.50847518 7.86132495 12.50847518 10 10 C9.125 13.875 9.125 13.875 8 15 C6.31391034 15.07205511 4.62499341 15.08386068 2.9375 15.0625 C2.01839844 15.05347656 1.09929687 15.04445313 0.15234375 15.03515625 C-0.55792969 15.02355469 -1.26820313 15.01195312 -2 15 C-2 14.34 -2 13.68 -2 13 C-1.34 13 -0.68 13 0 13 C0 8.71 0 4.42 0 0 Z " fill="#969A9B" transform="translate(396,261)"/>
<path d="M0 0 C2.625 0.375 2.625 0.375 5 1 C5.625 3.375 5.625 3.375 6 6 C5.34 6.66 4.68 7.32 4 8 C1.375 7.625 1.375 7.625 -1 7 C-1.625 4.625 -1.625 4.625 -2 2 C-1.34 1.34 -0.68 0.68 0 0 Z " fill="#6C6C65" transform="translate(377,357)"/>
<path d="M0 0 C1.98 0 3.96 0 6 0 C7.125 4.75 7.125 4.75 6 7 C4.02 7 2.04 7 0 7 C-1.125 2.25 -1.125 2.25 0 0 Z " fill="#979797" transform="translate(211,355)"/>
<path d="M0 0 C0.66 0 1.32 0 2 0 C2.66 2.97 3.32 5.94 4 9 C4.66 9 5.32 9 6 9 C6.66 6.03 7.32 3.06 8 0 C8.66 0 9.32 0 10 0 C9.68950274 1.43793392 9.3765224 2.8753318 9.0625 4.3125 C8.88847656 5.11300781 8.71445312 5.91351563 8.53515625 6.73828125 C8 9 8 9 7 12 C5.68 12 4.36 12 3 12 C2.49440092 10.56445975 1.9957251 9.1264798 1.5 7.6875 C1.2215625 6.88699219 0.943125 6.08648437 0.65625 5.26171875 C0 3 0 3 0 0 Z " fill="#A8B0A5" transform="translate(311,264)"/>
<path d="M0 0 C0.66 0.99 1.32 1.98 2 3 C1.67 3.66 1.34 4.32 1 5 C-1.64 5 -4.28 5 -7 5 C-7.66 6.32 -8.32 7.64 -9 9 C-9.36 3.6 -9.36 3.6 -7.875 1.125 C-5.13083761 -0.52149743 -3.1305429 -0.39964378 0 0 Z " fill="#90A6B2" transform="translate(306,264)"/>
<path d="M0 0 C0.33 0.99 0.66 1.98 1 3 C4.3 3 7.6 3 11 3 C11.33 2.01 11.66 1.02 12 0 C12 1.32 12 2.64 12 4 C7.545 4.495 7.545 4.495 3 5 C4.18424326 6.41577477 4.18424326 6.41577477 7.5625 6.0625 C9.2640625 6.0315625 9.2640625 6.0315625 11 6 C10.01 7.485 10.01 7.485 9 9 C5.8694571 9.39964378 3.86916239 9.52149743 1.125 7.875 C-0.4682099 5.21965017 -0.20214032 3.03210482 0 0 Z " fill="#949794" transform="translate(656,267)"/>
<path d="M0 0 C6.8359375 -0.29296875 6.8359375 -0.29296875 9 0 C9.66 0.99 10.32 1.98 11 3 C9.12488426 3 7.24958447 2.98213296 5.375 2.9375 C3.04437265 2.72620721 3.04437265 2.72620721 2 4 C1.76518307 6.18292774 1.58636677 8.37203174 1.4375 10.5625 C1.35371094 11.76003906 1.26992188 12.95757812 1.18359375 14.19140625 C1.12300781 15.11824219 1.06242187 16.04507812 1 17 C0.67 17 0.34 17 0 17 C0 11.39 0 5.78 0 0 Z " fill="#B4BCB9" transform="translate(359,264)"/>
<path d="M0 0 C0.33 0 0.66 0 1 0 C1.35664336 5.34965035 1.35664336 5.34965035 -0.0625 7.9375 C-3.12469653 9.61676907 -5.69370941 8.68621125 -9 8 C-9 9.98 -9 11.96 -9 14 C-9.33 14 -9.66 14 -10 14 C-10 9.71 -10 5.42 -10 1 C-9.67 1 -9.34 1 -9 1 C-8.67 2.65 -8.34 4.3 -8 6 C-5.58354218 6.16687448 -5.58354218 6.16687448 -3 6 C-0.8614515 3.8614515 -0.57344937 2.86724686 0 0 Z " fill="#BAA689" transform="translate(483,299)"/>
<path d="M0 0 C1.2065625 0.0309375 1.2065625 0.0309375 2.4375 0.0625 C2.7675 1.3825 3.0975 2.7025 3.4375 4.0625 C1.4575 4.0625 -0.5225 4.0625 -2.5625 4.0625 C-2.2325 4.7225 -1.9025 5.3825 -1.5625 6.0625 C0.0875 5.7325 1.7375 5.4025 3.4375 5.0625 C3.1075 6.0525 2.7775 7.0425 2.4375 8.0625 C0.77138095 8.105221 -0.89632885 8.10313832 -2.5625 8.0625 C-3.5625 7.0625 -3.5625 7.0625 -3.6875 4.0625 C-3.52180824 0.08589776 -3.52180824 0.08589776 0 0 Z " fill="#C8D6CC" transform="translate(359.5625,356.9375)"/>
<path d="M0 0 C1.2065625 0.0309375 1.2065625 0.0309375 2.4375 0.0625 C2.7675 1.3825 3.0975 2.7025 3.4375 4.0625 C1.4575 4.0625 -0.5225 4.0625 -2.5625 4.0625 C-2.2325 4.7225 -1.9025 5.3825 -1.5625 6.0625 C0.0875 5.7325 1.7375 5.4025 3.4375 5.0625 C3.1075 6.0525 2.7775 7.0425 2.4375 8.0625 C0.77138095 8.105221 -0.89632885 8.10313832 -2.5625 8.0625 C-3.5625 7.0625 -3.5625 7.0625 -3.6875 4.0625 C-3.52180824 0.08589776 -3.52180824 0.08589776 0 0 Z " fill="#C8D6CC" transform="translate(305.5625,356.9375)"/>
<path d="M0 0 C0.66 0 1.32 0 2 0 C1.34 3.96 0.68 7.92 0 12 C-1.32 12 -2.64 12 -4 12 C-4.66 9.03 -5.32 6.06 -6 3 C-3 6 -3 6 -2 8 C-1.34 5.36 -0.68 2.72 0 0 Z " fill="#9FB1AF" transform="translate(417,296)"/>
<path d="M0 0 C2.625 0.375 2.625 0.375 5 1 C5.33 1.99 5.66 2.98 6 4 C4.02 4 2.04 4 0 4 C0.95865509 6.33075929 0.95865509 6.33075929 4 8 C2.35 7.67 0.7 7.34 -1 7 C-1.625 4.625 -1.625 4.625 -2 2 C-1.34 1.34 -0.68 0.68 0 0 Z " fill="#D8D3C2" transform="translate(290,357)"/>
<path d="M0 0 C0.66 0 1.32 0 2 0 C3.23104155 3.68400584 2.90767252 6.91474976 2.5625 10.75 C2.46066406 11.92046875 2.35882813 13.0909375 2.25390625 14.296875 C2.17011719 15.18890625 2.08632813 16.0809375 2 17 C1.34 17 0.68 17 0 17 C0 11.39 0 5.78 0 0 Z " fill="#9FBAC0" transform="translate(487,296)"/>
<path d="M0 0 C0.33 1.32 0.66 2.64 1 4 C-1.97 4 -4.94 4 -8 4 C-7.67 4.66 -7.34 5.32 -7 6 C-3.37114676 6.15149298 -3.37114676 6.15149298 0 5 C0 5.99 0 6.98 0 8 C-2.78863007 9.39431504 -4.92078868 9.25660094 -8 9 C-8.66 8.01 -9.32 7.02 -10 6 C-9.67 5.01 -9.34 4.02 -9 3 C-6.03 3 -3.06 3 0 3 C0 2.01 0 1.02 0 0 Z " fill="#A09B8F" transform="translate(432,299)"/>
<path d="M0 0 C0.66 0 1.32 0 2 0 C2.89316269 5.93609666 2.97040422 11.06975197 2 17 C1.34 17 0.68 17 0 17 C0 11.39 0 5.78 0 0 Z " fill="#9EBAC0" transform="translate(436,291)"/>
<path d="M0 0 C0.99 0 1.98 0 3 0 C3 3.96 3 7.92 3 12 C2.01 12 1.02 12 0 12 C0 8.04 0 4.08 0 0 Z " fill="#8C8C8B" transform="translate(508,296)"/>
<path d="M0 0 C0.33 1.32 0.66 2.64 1 4 C-1.97 4 -4.94 4 -8 4 C-7.67 4.66 -7.34 5.32 -7 6 C-3.37114676 6.15149298 -3.37114676 6.15149298 0 5 C0 5.99 0 6.98 0 8 C-2.78863007 9.39431504 -4.92078868 9.25660094 -8 9 C-8.66 8.01 -9.32 7.02 -10 6 C-9.67 5.01 -9.34 4.02 -9 3 C-6.03 3 -3.06 3 0 3 C0 2.01 0 1.02 0 0 Z " fill="#9F9A8D" transform="translate(334,267)"/>
<path d="M0 0 C1.65 0.33 3.3 0.66 5 1 C5 2.98 5 4.96 5 7 C3.35 7.33 1.7 7.66 0 8 C0 7.01 0 6.02 0 5 C-0.33 4.67 -0.66 4.34 -1 4 C-0.5625 1.9375 -0.5625 1.9375 0 0 Z " fill="#9C998A" transform="translate(247,357)"/>
<path d="M0 0 C0.99 0 1.98 0 3 0 C3 3.96 3 7.92 3 12 C2.34 12 1.68 12 1 12 C1 11.34 1 10.68 1 10 C0.34 9.67 -0.32 9.34 -1 9 C-0.67 6.03 -0.34 3.06 0 0 Z " fill="#9B9791" transform="translate(516,264)"/>
<path d="M0 0 C2.31 0 4.62 0 7 0 C7 0.66 7 1.32 7 2 C5.68 2.33 4.36 2.66 3 3 C2.67 5.97 2.34 8.94 2 12 C1.34 12 0.68 12 0 12 C0 8.04 0 4.08 0 0 Z " fill="#9FB2B2" transform="translate(549,264)"/>
<path d="M0 0 C2.31 0 4.62 0 7 0 C7 0.66 7 1.32 7 2 C5.68 2.33 4.36 2.66 3 3 C2.67 5.97 2.34 8.94 2 12 C1.34 12 0.68 12 0 12 C0 8.04 0 4.08 0 0 Z " fill="#8BA2B4" transform="translate(609,264)"/>
<path d="M0 0 C3.96 0 7.92 0 12 0 C12 0.99 12 1.98 12 3 C10.02 3.99 8.04 4.98 6 6 C6.33 5.01 6.66 4.02 7 3 C4.69 2.67 2.38 2.34 0 2 C0 1.34 0 0.68 0 0 Z " fill="#B9B9B3" transform="translate(380,259)"/>
<path d="M0 0 C2.33944736 0.28730055 4.6739143 0.61936779 7 1 C6.67 2.32 6.34 3.64 6 5 C4.35 5 2.7 5 1 5 C0.67 4.34 0.34 3.68 0 3 C-0.66 3.66 -1.32 4.32 -2 5 C-1.125 1.125 -1.125 1.125 0 0 Z " fill="#4F5A67" transform="translate(464,269)"/>
<path d="M0 0 C0.66 0.33 1.32 0.66 2 1 C2.05389087 2.95803507 2.09274217 4.91648909 2.125 6.875 C2.14820313 7.96554687 2.17140625 9.05609375 2.1953125 10.1796875 C2 13 2 13 0 15 C-1.23689062 12.52621876 -1.13310087 10.82084683 -1.125 8.0625 C-1.12757813 7.18722656 -1.13015625 6.31195313 -1.1328125 5.41015625 C-1 3 -1 3 0 0 Z " fill="#C3C3C3" transform="translate(611,353)"/>
<path d="M0 0 C0.66 0 1.32 0 2 0 C2 0.66 2 1.32 2 2 C2.928125 2.2165625 2.928125 2.2165625 3.875 2.4375 C6 3 6 3 8 4 C8 5.65 8 7.3 8 9 C7.01 9.495 7.01 9.495 6 10 C5.67 8.35 5.34 6.7 5 5 C2.03 4.505 2.03 4.505 -1 4 C-0.67 2.68 -0.34 1.36 0 0 Z " fill="#AFAEA4" transform="translate(384,264)"/>
<path d="M0 0 C5.625 -0.25 5.625 -0.25 9 2 C9.1875 5.625 9.1875 5.625 9 9 C8.67 9 8.34 9 8 9 C7.34 7.02 6.68 5.04 6 3 C2.37114676 2.84850702 2.37114676 2.84850702 -1 4 C-0.67 2.68 -0.34 1.36 0 0 Z " fill="#B8B7AD" transform="translate(346,264)"/>
<path d="M0 0 C1.98 0.495 1.98 0.495 4 1 C3.67 2.65 3.34 4.3 3 6 C1.68 5.67 0.36 5.34 -1 5 C-0.67 3.35 -0.34 1.7 0 0 Z " fill="#141A2A" transform="translate(778,358)"/>
<path d="M0 0 C1.98 0.495 1.98 0.495 4 1 C3.67 2.65 3.34 4.3 3 6 C1.68 5.67 0.36 5.34 -1 5 C-0.67 3.35 -0.34 1.7 0 0 Z " fill="#261715" transform="translate(723,358)"/>
<path d="M0 0 C1.98 0.495 1.98 0.495 4 1 C3.67 2.65 3.34 4.3 3 6 C1.68 5.67 0.36 5.34 -1 5 C-0.67 3.35 -0.34 1.7 0 0 Z " fill="#302E33" transform="translate(710,358)"/>
<path d="M0 0 C1.98 0.495 1.98 0.495 4 1 C3.67 2.65 3.34 4.3 3 6 C1.68 5.67 0.36 5.34 -1 5 C-0.67 3.35 -0.34 1.7 0 0 Z " fill="#241615" transform="translate(687,358)"/>
<path d="M0 0 C1.98 0.495 1.98 0.495 4 1 C3.67 2.65 3.34 4.3 3 6 C1.68 5.67 0.36 5.34 -1 5 C-0.67 3.35 -0.34 1.7 0 0 Z " fill="#19141E" transform="translate(640,358)"/>
<path d="M0 0 C1.98 0.495 1.98 0.495 4 1 C3.67 2.65 3.34 4.3 3 6 C1.68 5.67 0.36 5.34 -1 5 C-0.67 3.35 -0.34 1.7 0 0 Z " fill="#1D1317" transform="translate(630,358)"/>
<path d="M0 0 C1.98 0.495 1.98 0.495 4 1 C3.67 2.65 3.34 4.3 3 6 C1.68 5.67 0.36 5.34 -1 5 C-0.67 3.35 -0.34 1.7 0 0 Z " fill="#241615" transform="translate(238,358)"/>
<path d="M0 0 C0.66 0 1.32 0 2 0 C2 0.66 2 1.32 2 2 C2.66 2.33 3.32 2.66 4 3 C3.34 3 2.68 3 2 3 C2 4.98 2 6.96 2 9 C2.66 9.33 3.32 9.66 4 10 C2.68 10 1.36 10 0 10 C0 7.69 0 5.38 0 3 C-0.66 2.67 -1.32 2.34 -2 2 C-1.34 2 -0.68 2 0 2 C0 1.34 0 0.68 0 0 Z " fill="#B7BDB7" transform="translate(655,355)"/>
<path d="M0 0 C3 1 3 1 5 4 C5.125 6.6875 5.125 6.6875 5 9 C3.68 9.33 2.36 9.66 1 10 C0.67 6.7 0.34 3.4 0 0 Z " fill="#70544B" transform="translate(714,354)"/>
<path d="M0 0 C6.35714286 0.48901099 6.35714286 0.48901099 9.4375 2.9375 C11 5 11 5 11 7 C10.34 7 9.68 7 9 7 C8.608125 6.34 8.21625 5.68 7.8125 5 C6.03516815 2.57398486 6.03516815 2.57398486 2.3125 2.75 C1.219375 2.8325 0.12625 2.915 -1 3 C-0.67 2.01 -0.34 1.02 0 0 Z " fill="#C4C4C4" transform="translate(211,350)"/>
<path d="M0 0 C0.66 0 1.32 0 2 0 C3.53166168 4.08443115 2.63081652 7.79455657 2 12 C1.34 12 0.68 12 0 12 C0 8.04 0 4.08 0 0 Z " fill="#85A4BD" transform="translate(573,296)"/>
<path d="M0 0 C0.66 0.99 1.32 1.98 2 3 C-0.31 2.67 -2.62 2.34 -5 2 C-4.01 3.32 -3.02 4.64 -2 6 C-3.65 5.67 -5.3 5.34 -7 5 C-7 3.68 -7 2.36 -7 1 C-4.46578263 -0.26710868 -2.80561762 -0.28056176 0 0 Z " fill="#A9B3B1" transform="translate(595,296)"/>
<path d="M0 0 C0.94875 0.04125 1.8975 0.0825 2.875 0.125 C3.535 1.445 4.195 2.765 4.875 4.125 C2.235 3.795 -0.405 3.465 -3.125 3.125 C-3.455 4.775 -3.785 6.425 -4.125 8.125 C-4.455 8.125 -4.785 8.125 -5.125 8.125 C-5.25 5.25 -5.25 5.25 -5.125 2.125 C-3.125 0.125 -3.125 0.125 0 0 Z " fill="#B7B8AD" transform="translate(520.125,295.875)"/>
<path d="M0 0 C0.66 0 1.32 0 2 0 C3.53166168 4.08443115 2.63081652 7.79455657 2 12 C1.34 12 0.68 12 0 12 C0 8.04 0 4.08 0 0 Z " fill="#84A3BD" transform="translate(703,264)"/>
<path d="M0 0 C0.94875 0.04125 1.8975 0.0825 2.875 0.125 C3.535 1.445 4.195 2.765 4.875 4.125 C2.235 3.795 -0.405 3.465 -3.125 3.125 C-3.455 4.775 -3.785 6.425 -4.125 8.125 C-4.455 8.125 -4.785 8.125 -5.125 8.125 C-5.25 5.25 -5.25 5.25 -5.125 2.125 C-3.125 0.125 -3.125 0.125 0 0 Z " fill="#B4B6A9" transform="translate(648.125,263.875)"/>
<path d="M0 0 C0.66 0.99 1.32 1.98 2 3 C-0.31 2.67 -2.62 2.34 -5 2 C-4.01 3.32 -3.02 4.64 -2 6 C-3.65 5.67 -5.3 5.34 -7 5 C-7 3.68 -7 2.36 -7 1 C-4.46578263 -0.26710868 -2.80561762 -0.28056176 0 0 Z " fill="#ACB6B4" transform="translate(529,264)"/>
<path d="M0 0 C2.64 0 5.28 0 8 0 C7.01 0.66 6.02 1.32 5 2 C4.41407366 5.11610554 4.41407366 5.11610554 4.3125 8.625 C4.24675781 9.81351562 4.18101562 11.00203125 4.11328125 12.2265625 C4.07589844 13.14179688 4.03851563 14.05703125 4 15 C3.67 15 3.34 15 3 15 C3 10.71 3 6.42 3 2 C2.01 2 1.02 2 0 2 C0 1.34 0 0.68 0 0 Z " fill="#C7CDCD" transform="translate(394,259)"/>
<path d="M0 0 C0.66 0 1.32 0 2 0 C2.33 1.98 2.66 3.96 3 6 C2.34 6 1.68 6 1 6 C0.67 6.99 0.34 7.98 0 9 C-1.36623674 6.26752652 -1.128426 4.01801098 -1 1 C-0.67 0.67 -0.34 0.34 0 0 Z " fill="#0B0B0B" transform="translate(417,351)"/>
<path d="M0 0 C0.66 0 1.32 0 2 0 C3.03159626 3.09478879 2.97482862 4.52631393 2.5625 7.6875 C2.46066406 8.49574219 2.35882812 9.30398438 2.25390625 10.13671875 C2.17011719 10.75160156 2.08632813 11.36648438 2 12 C1.34 12 0.68 12 0 12 C0 8.04 0 4.08 0 0 Z " fill="#9CBAC0" transform="translate(570,264)"/>
<path d="M0 0 C2.64 0 5.28 0 8 0 C8 1.65 8 3.3 8 5 C5.36 4.01 2.72 3.02 0 2 C0 1.34 0 0.68 0 0 Z " fill="#2D2423" transform="translate(524,266)"/>
<path d="M0 0 C1.4540625 0.0309375 1.4540625 0.0309375 2.9375 0.0625 C3.5975 1.3825 4.2575 2.7025 4.9375 4.0625 C2.6275 3.4025 0.3175 2.7425 -2.0625 2.0625 C-2.3925 2.7225 -2.7225 3.3825 -3.0625 4.0625 C-4.0525 4.5575 -4.0525 4.5575 -5.0625 5.0625 C-3.9375 0.08035714 -3.9375 0.08035714 0 0 Z " fill="#999B9A" transform="translate(487.0625,263.9375)"/>
<path d="M0 0 C1.4540625 0.0309375 1.4540625 0.0309375 2.9375 0.0625 C3.5975 1.3825 4.2575 2.7025 4.9375 4.0625 C2.6275 3.4025 0.3175 2.7425 -2.0625 2.0625 C-2.3925 2.7225 -2.7225 3.3825 -3.0625 4.0625 C-4.0525 4.5575 -4.0525 4.5575 -5.0625 5.0625 C-3.9375 0.08035714 -3.9375 0.08035714 0 0 Z " fill="#999B9A" transform="translate(440.0625,263.9375)"/>
<path d="M0 0 C0.66 0 1.32 0 2 0 C2.06058594 0.62648438 2.12117188 1.25296875 2.18359375 1.8984375 C2.26738281 2.71570313 2.35117187 3.53296875 2.4375 4.375 C2.51871094 5.18710937 2.59992188 5.99921875 2.68359375 6.8359375 C2.89090114 9.04272805 2.89090114 9.04272805 4 11 C2.68 11 1.36 11 0 11 C0 7.37 0 3.74 0 0 Z " fill="#8FA9BB" transform="translate(448,264)"/>
<path d="M0 0 C0.33 0.66 0.66 1.32 1 2 C3.02463255 2.65213292 3.02463255 2.65213292 5 3 C4.67 4.32 4.34 5.64 4 7 C2.68 6.67 1.36 6.34 0 6 C0 4.02 0 2.04 0 0 Z " fill="#17273C" transform="translate(547,357)"/>
<path d="M0 0 C0.33 0.66 0.66 1.32 1 2 C3.02463255 2.65213292 3.02463255 2.65213292 5 3 C4.67 4.32 4.34 5.64 4 7 C2.68 6.67 1.36 6.34 0 6 C0 4.02 0 2.04 0 0 Z " fill="#17273C" transform="translate(521,357)"/>
<path d="M0 0 C2.97 0 5.94 0 9 0 C9 0.99 9 1.98 9 3 C5.625 3.1875 5.625 3.1875 2 3 C1.34 2.01 0.68 1.02 0 0 Z " fill="#140F0F" transform="translate(658,271)"/>
<path d="M0 0 C0 0.99 0 1.98 0 3 C-1.65 3 -3.3 3 -5 3 C-5.66 4.98 -6.32 6.96 -7 9 C-7.33 9 -7.66 9 -8 9 C-8.1875 5.625 -8.1875 5.625 -8 2 C-4.77208445 -0.1519437 -3.71599191 -0.20086443 0 0 Z " fill="#A6B5B8" transform="translate(726,264)"/>
<path d="M0 0 C0 0.99 0 1.98 0 3 C-1.65 3 -3.3 3 -5 3 C-5.66 4.98 -6.32 6.96 -7 9 C-7.33 9 -7.66 9 -8 9 C-8.1875 5.625 -8.1875 5.625 -8 2 C-4.77208445 -0.1519437 -3.71599191 -0.20086443 0 0 Z " fill="#A7B5B8" transform="translate(290,264)"/>
<path d="M0 0 C2.475 0.99 2.475 0.99 5 2 C4.67 3.32 4.34 4.64 4 6 C2.68 5.67 1.36 5.34 0 5 C0 3.35 0 1.7 0 0 Z " fill="#14111B" transform="translate(696,358)"/>
<path d="M0 0 C0.99 0.33 1.98 0.66 3 1 C2.67 2.65 2.34 4.3 2 6 C0.68 5.67 -0.64 5.34 -2 5 C-1.125 1.125 -1.125 1.125 0 0 Z " fill="#1F130D" transform="translate(670,358)"/>
<path d="M0 0 C0.99 0.33 1.98 0.66 3 1 C2.67 2.65 2.34 4.3 2 6 C0.68 5.67 -0.64 5.34 -2 5 C-1.125 1.125 -1.125 1.125 0 0 Z " fill="#1F130C" transform="translate(281,358)"/>
<path d="M0 0 C2.97 0 5.94 0 9 0 C8.67 0.99 8.34 1.98 8 3 C5.66666667 3 3.33333333 3 1 3 C0.67 2.01 0.34 1.02 0 0 Z " fill="#181414" transform="translate(424,303)"/>
<path d="M0 0 C2.97 0 5.94 0 9 0 C8.67 0.99 8.34 1.98 8 3 C5.66666667 3 3.33333333 3 1 3 C0.67 2.01 0.34 1.02 0 0 Z " fill="#1C1819" transform="translate(537,271)"/>
<path d="M0 0 C2.97 0 5.94 0 9 0 C8.67 0.99 8.34 1.98 8 3 C5.66666667 3 3.33333333 3 1 3 C0.67 2.01 0.34 1.02 0 0 Z " fill="#141010" transform="translate(326,271)"/>
<path d="M0 0 C7.75 -0.125 7.75 -0.125 10 1 C9.67 1.66 9.34 2.32 9 3 C5.625 3.1875 5.625 3.1875 2 3 C1.34 2.01 0.68 1.02 0 0 Z " fill="#181313" transform="translate(299,271)"/>
<path d="M0 0 C1.98 0.495 1.98 0.495 4 1 C3.67 2.32 3.34 3.64 3 5 C1.68 4.67 0.36 4.34 -1 4 C-0.67 2.68 -0.34 1.36 0 0 Z " fill="#141522" transform="translate(486,355)"/>
<path d="M0 0 C1.98 0.495 1.98 0.495 4 1 C3.67 2.32 3.34 3.64 3 5 C1.68 4.67 0.36 4.34 -1 4 C-0.67 2.68 -0.34 1.36 0 0 Z " fill="#1D1217" transform="translate(462,355)"/>
<path d="M0 0 C2.64 0 5.28 0 8 0 C8 0.66 8 1.32 8 2 C7.34 2 6.68 2 6 2 C5.67 2.66 5.34 3.32 5 4 C2.525 3.01 2.525 3.01 0 2 C0 1.34 0 0.68 0 0 Z " fill="#211715" transform="translate(590,298)"/>
<path d="M0 0 C0.94875 0.350625 1.8975 0.70125 2.875 1.0625 C2.545 1.7225 2.215 2.3825 1.875 3.0625 C-0.5 3.25 -0.5 3.25 -3.125 3.0625 C-3.785 2.0725 -4.445 1.0825 -5.125 0.0625 C-3.125 -0.9375 -3.125 -0.9375 0 0 Z " fill="#282626" transform="translate(527.125,270.9375)"/>
<path d="M0 0 C2.375 -0.1875 2.375 -0.1875 5 0 C5.66 0.99 6.32 1.98 7 3 C4.36 3 1.72 3 -1 3 C-0.67 2.01 -0.34 1.02 0 0 Z " fill="#1D1613" transform="translate(300,266)"/>
<path d="M0 0 C1.98 0 3.96 0 6 0 C5.67 1.32 5.34 2.64 5 4 C4.38125 3.814375 3.7625 3.62875 3.125 3.4375 C0.95839822 2.76313824 0.95839822 2.76313824 -1 4 C-0.67 2.68 -0.34 1.36 0 0 Z " fill="#20263C" transform="translate(484,360)"/>
<path d="M0 0 C0.33 0 0.66 0 1 0 C1 1.65 1 3.3 1 5 C-1.62113708 5 -3.50935112 4.68707555 -6 4 C-6 3.34 -6 2.68 -6 2 C-4.02 2 -2.04 2 0 2 C0 1.34 0 0.68 0 0 Z " fill="#362118" transform="translate(363,359)"/>
<path d="M0 0 C2.31 0 4.62 0 7 0 C7 0.99 7 1.98 7 3 C4.625 3.1875 4.625 3.1875 2 3 C1.34 2.01 0.68 1.02 0 0 Z " fill="#191514" transform="translate(588,303)"/>
<path d="M0 0 C1.65 0 3.3 0 5 0 C5 0.99 5 1.98 5 3 C2.69 3.33 0.38 3.66 -2 4 C-1.34 2.68 -0.68 1.36 0 0 Z " fill="#1B1A1D" transform="translate(531,298)"/>
<path d="M0 0 C1.65 0 3.3 0 5 0 C5.33 0.99 5.66 1.98 6 3 C3.69 3 1.38 3 -1 3 C-0.67 2.01 -0.34 1.02 0 0 Z " fill="#141720" transform="translate(425,298)"/>
<path d="M0 0 C1.65 0 3.3 0 5 0 C5.33 0.99 5.66 1.98 6 3 C3.69 3 1.38 3 -1 3 C-0.67 2.01 -0.34 1.02 0 0 Z " fill="#0D0A0F" transform="translate(598,266)"/>
<path d="M0 0 C1.65 0 3.3 0 5 0 C5.33 0.99 5.66 1.98 6 3 C3.69 3 1.38 3 -1 3 C-0.67 2.01 -0.34 1.02 0 0 Z " fill="#181B23" transform="translate(538,266)"/>
<path d="M0 0 C0.763125 0.20625 1.52625 0.4125 2.3125 0.625 C2.3125 1.285 2.3125 1.945 2.3125 2.625 C-0.3275 2.955 -2.9675 3.285 -5.6875 3.625 C-5.6875 2.965 -5.6875 2.305 -5.6875 1.625 C-2.6875 -0.375 -2.6875 -0.375 0 0 Z " fill="#22242D" transform="translate(468.6875,266.375)"/>
<path d="M0 0 C1.65 0 3.3 0 5 0 C5.33 0.99 5.66 1.98 6 3 C3.69 3 1.38 3 -1 3 C-0.67 2.01 -0.34 1.02 0 0 Z " fill="#0F121B" transform="translate(327,266)"/>
<path d="M0 0 C2.31 0.33 4.62 0.66 7 1 C4.23776722 3.76223278 1.79293383 3.57856291 -2 4 C-1.34 2.68 -0.68 1.36 0 0 Z " fill="#A9AFAD" transform="translate(465,264)"/>
<path d="M0 0 C2.0625 0.4375 2.0625 0.4375 4 1 C4 1.99 4 2.98 4 4 C2.35 4 0.7 4 -1 4 C-1 1 -1 1 0 0 Z " fill="#0B0B0B" transform="translate(430,365)"/>
<path d="M0 0 C2.29633824 3.44450737 2.54016485 5.93812283 3 10 C2.34 9.34 1.68 8.68 1 8 C-1.57061311 7.35232207 -1.57061311 7.35232207 -4 7 C-4 6.67 -4 6.34 -4 6 C-2.35 6 -0.7 6 1 6 C0.67 4.02 0.34 2.04 0 0 Z " fill="#DDD0AD" transform="translate(337,355)"/>
<path d="M0 0 C1.98 0 3.96 0 6 0 C5.67 1.32 5.34 2.64 5 4 C2.525 3.01 2.525 3.01 0 2 C0 1.34 0 0.68 0 0 Z " fill="#39322D" transform="translate(290,361)"/>
<path d="M0 0 C1.32 0 2.64 0 4 0 C4 0.99 4 1.98 4 3 C2.35 3 0.7 3 -1 3 C-1.33 3.99 -1.66 4.98 -2 6 C-1.125 1.125 -1.125 1.125 0 0 Z " fill="#6E7E89" transform="translate(290,357)"/>
<path d="M0 0 C0.99 0.33 1.98 0.66 3 1 C2.34 1 1.68 1 1 1 C1 1.66 1 2.32 1 3 C1.99 3.33 2.98 3.66 4 4 C3.01 4 2.02 4 1 4 C1 6.31 1 8.62 1 11 C0.67 11 0.34 11 0 11 C0 8.69 0 6.38 0 4 C-0.66 3.67 -1.32 3.34 -2 3 C-1.34 3 -0.68 3 0 3 C0 2.01 0 1.02 0 0 Z " fill="#BAE5F0" transform="translate(662,354)"/>
<path d="M0 0 C2.31 0.33 4.62 0.66 7 1 C6.0409375 1.433125 6.0409375 1.433125 5.0625 1.875 C2.84793921 2.82823451 2.84793921 2.82823451 2 5 C1.34 5 0.68 5 0 5 C0 3.35 0 1.7 0 0 Z " fill="#111319" transform="translate(518,354)"/>
<path d="M0 0 C1.65 0 3.3 0 5 0 C5 0.99 5 1.98 5 3 C2.69 3.33 0.38 3.66 -2 4 C-2 3.34 -2 2.68 -2 2 C-1.34 2 -0.68 2 0 2 C0 1.34 0 0.68 0 0 Z " fill="#19181A" transform="translate(460,298)"/>
<path d="M0 0 C0.33 0.99 0.66 1.98 1 3 C2.98 3 4.96 3 7 3 C5 5 5 5 2.375 5.125 C1.59125 5.08375 0.8075 5.0425 0 5 C-0.5625 3.0625 -0.5625 3.0625 -1 1 C-0.67 0.67 -0.34 0.34 0 0 Z " fill="#B2ADA5" transform="translate(464,271)"/>
<path d="M0 0 C2.31 0 4.62 0 7 0 C7 0.99 7 1.98 7 3 C4.625 3.1875 4.625 3.1875 2 3 C1.34 2.01 0.68 1.02 0 0 Z " fill="#120D0B" transform="translate(671,271)"/>
<path d="M0 0 C1.65 0 3.3 0 5 0 C5.33 1.32 5.66 2.64 6 4 C3.03 3.505 3.03 3.505 0 3 C0 2.01 0 1.02 0 0 Z " fill="#181212" transform="translate(673,266)"/>
<path d="M0 0 C2.4375 0.375 2.4375 0.375 5 1 C5.33 1.66 5.66 2.32 6 3 C3.36 3 0.72 3 -2 3 C-1.34 2.01 -0.68 1.02 0 0 Z " fill="#09080B" transform="translate(660,266)"/>
<path d="M0 0 C0.66 0 1.32 0 2 0 C2 1.98 2 3.96 2 6 C1.34 6 0.68 6 0 6 C-0.33 6.99 -0.66 7.98 -1 9 C-0.67 6.03 -0.34 3.06 0 0 Z " fill="#2E4437" transform="translate(336,195)"/>
<path d="M0 0 C1.65 0 3.3 0 5 0 C5 0.99 5 1.98 5 3 C3.35 3 1.7 3 0 3 C0 2.01 0 1.02 0 0 Z " fill="#707171" transform="translate(357,357)"/>
<path d="M0 0 C1.65 0 3.3 0 5 0 C5 0.99 5 1.98 5 3 C3.35 3 1.7 3 0 3 C0 2.01 0 1.02 0 0 Z " fill="#717172" transform="translate(303,357)"/>
<path d="M0 0 C1.98 0 3.96 0 6 0 C5.67 0.99 5.34 1.98 5 3 C3.35 3 1.7 3 0 3 C0 2.01 0 1.02 0 0 Z " fill="#1D1518" transform="translate(530,303)"/>
<path d="M0 0 C1.98 0 3.96 0 6 0 C5.67 0.99 5.34 1.98 5 3 C3.35 3 1.7 3 0 3 C0 2.01 0 1.02 0 0 Z " fill="#271C17" transform="translate(459,303)"/>
<path d="M0 0 C0.94875 0.04125 1.8975 0.0825 2.875 0.125 C2.545 0.785 2.215 1.445 1.875 2.125 C0.54423011 2.46842449 -0.78931979 2.80119874 -2.125 3.125 C-2.785 3.785 -3.445 4.445 -4.125 5.125 C-4.455 4.135 -4.785 3.145 -5.125 2.125 C-3.125 0.125 -3.125 0.125 0 0 Z " fill="#A5A6A1" transform="translate(427.125,295.875)"/>
<path d="M0 0 C2.31 0.33 4.62 0.66 7 1 C6.67 1.66 6.34 2.32 6 3 C4.35 3 2.7 3 1 3 C0.67 3.66 0.34 4.32 0 5 C0 3.35 0 1.7 0 0 Z " fill="#101114" transform="translate(361,275)"/>
<path d="M0 0 C1.98 0 3.96 0 6 0 C5.67 0.99 5.34 1.98 5 3 C3.35 3 1.7 3 0 3 C0 2.01 0 1.02 0 0 Z " fill="#10090B" transform="translate(691,271)"/>
<path d="M0 0 C1.98 0 3.96 0 6 0 C5.67 0.99 5.34 1.98 5 3 C3.35 3 1.7 3 0 3 C0 2.01 0 1.02 0 0 Z " fill="#190D08" transform="translate(630,271)"/>
<path d="M0 0 C2.475 0.495 2.475 0.495 5 1 C5.33 1.99 5.66 2.98 6 4 C3.03 3.505 3.03 3.505 0 3 C0 2.01 0 1.02 0 0 Z " fill="#2B2726" transform="translate(438,266)"/>
<path d="M0 0 C0.66 0 1.32 0 2 0 C1.34 2.97 0.68 5.94 0 9 C-2 5 -2 5 -1.125 2.25 C-0.75375 1.5075 -0.3825 0.765 0 0 Z " fill="#ABA997" transform="translate(425,264)"/>
<path d="M0 0 C0.94875 0.04125 1.8975 0.0825 2.875 0.125 C2.545 0.785 2.215 1.445 1.875 2.125 C0.54423011 2.46842449 -0.78931979 2.80119874 -2.125 3.125 C-2.785 3.785 -3.445 4.445 -4.125 5.125 C-4.455 4.135 -4.785 3.145 -5.125 2.125 C-3.125 0.125 -3.125 0.125 0 0 Z " fill="#A4A59F" transform="translate(329.125,263.875)"/>
</svg>
